<svg width="88" height="71" viewBox="0 0 88 71" fill="none" xmlns="http://www.w3.org/2000/svg">
<path fill-rule="evenodd" clip-rule="evenodd" d="M1.5119 6.21194C7.4 2.30504 15.2254 0 23.6923 0C31.2903 0 38.3716 1.85618 44 5.06042C49.6284 1.85618 56.7097 0 64.3077 0C72.7794 0 80.6002 2.30514 86.4881 6.21194C87.4324 6.83852 88 7.89576 88 9.02821V67.619C88 68.8649 87.3141 70.0098 86.215 70.5986C85.1158 71.1874 83.7816 71.1246 82.7427 70.4353C78.0887 67.3473 71.6038 65.3527 64.3077 65.3527C57.0159 65.3527 50.5266 67.3474 45.8727 70.4353C44.738 71.1882 43.262 71.1882 42.1273 70.4353C37.4734 67.3474 30.9841 65.3527 23.6923 65.3527C16.4005 65.3527 9.91118 67.3474 5.25733 70.4353C4.21843 71.1246 2.88419 71.1874 1.78505 70.5986C0.685913 70.0098 0 68.8649 0 67.619V9.02821C0 7.89576 0.567575 6.83852 1.5119 6.21194ZM40.6154 10.9167C36.1137 8.36287 30.2251 6.7619 23.6923 6.7619C17.1595 6.7619 11.2709 8.36287 6.76923 10.9167V61.9632C11.7424 59.8045 17.5485 58.5908 23.6923 58.5908C29.8362 58.5908 35.6422 59.8045 40.6154 61.9632V10.9167ZM47.3846 61.9632C52.3578 59.8045 58.1638 58.5908 64.3077 58.5908C70.4546 58.5908 76.2589 59.8044 81.2308 61.9629V10.9166C76.7297 8.36276 70.8443 6.7619 64.3077 6.7619C57.7749 6.7619 51.8863 8.36287 47.3846 10.9167V61.9632Z" fill="#599270" fill-opacity="0.3"/>
</svg>
