<svg width="95" height="143" viewBox="0 0 95 143" fill="none" xmlns="http://www.w3.org/2000/svg">
<g opacity="0.25">
<path d="M91.4679 90.7175H50.3952V68.7371C51.6827 70.0652 53.4342 70.8481 55.348 70.8481C56.6181 70.8481 57.9056 70.4943 59.0598 69.8274L71.4941 62.6475C73.3963 61.5456 74.6954 59.7361 75.055 57.6831C75.4146 55.63 74.8056 53.49 73.3847 51.8081L71.0359 49.0243L74.6201 49.668C75.0782 49.7492 75.548 49.7898 76.0062 49.7898C80.0253 49.7898 83.0585 46.7044 83.0585 42.6099V28.2618C83.0585 24.1672 80.0311 21.0819 76.0062 21.0819C75.548 21.0819 75.0782 21.1225 74.6201 21.2095L71.0359 21.8532L73.3847 19.0694C74.8056 17.3875 75.4146 15.2475 75.055 13.1944C74.6954 11.1414 73.4021 9.3319 71.4941 8.23577L59.0598 1.05588C57.9056 0.388931 56.6181 0.0351562 55.348 0.0351562C52.3786 0.0351562 49.7804 1.92002 48.7307 4.83721L47.5012 8.26477L46.2659 4.83721C45.2103 1.92002 42.6179 0.0351562 39.6485 0.0351562C38.3784 0.0351562 37.0909 0.388931 35.9368 1.05588L23.4967 8.23577C21.5886 9.3377 20.2895 11.1414 19.9357 13.1944C19.5762 15.2475 20.1851 17.3875 21.606 19.0694L23.9549 21.8532L20.3707 21.2095C19.9067 21.1283 19.4428 21.0819 18.9846 21.0819C14.9655 21.0819 11.9323 24.1672 11.9323 28.2618V42.6215C11.9323 46.716 14.9597 49.8014 18.9846 49.8014C19.4428 49.8014 19.9125 49.7608 20.3707 49.6738L23.9549 49.0301L21.606 51.8139C20.1851 53.4958 19.5762 55.6358 19.9357 57.6889C20.2953 59.7419 21.5886 61.5514 23.4967 62.6475L35.931 69.8274C37.0909 70.4943 38.3726 70.8481 39.6427 70.8481C41.5508 70.8481 43.3023 70.0652 44.5956 68.7371V90.7175H3.5287C1.92801 90.7175 0.628906 92.0166 0.628906 93.6173V109.63C0.628906 111.231 1.92801 112.53 3.5287 112.53H12.2397L19.4428 168.652C19.6284 170.102 20.8579 171.187 22.3194 171.187H72.683C74.1445 171.187 75.374 170.102 75.5596 168.652L82.7627 112.53H91.4737C93.0743 112.53 94.3735 111.231 94.3735 109.63V93.6173C94.3619 92.0108 93.0686 90.7175 91.4679 90.7175ZM43.0355 57.8744L40.8027 64.08C40.5823 64.7006 40.1705 65.0427 39.6427 65.0427C39.3876 65.0427 39.1092 64.9615 38.8308 64.7992L26.3965 57.6251C25.9673 57.3815 25.7121 57.0567 25.6483 56.6913C25.5845 56.326 25.7179 55.9316 26.0369 55.5604L30.2938 50.5206C32.4628 47.9571 32.0453 45.9679 31.5987 45.011C31.2681 44.3034 30.201 42.6505 27.394 42.6505C26.9068 42.6505 26.3849 42.7027 25.8339 42.8013L19.3442 43.967C19.2224 43.9902 19.1006 44.0018 18.9846 44.0018C18.2017 44.0018 17.7319 43.4857 17.7319 42.6215V28.2618C17.7319 27.3976 18.2017 26.8814 18.9846 26.8814C19.1006 26.8814 19.2224 26.893 19.3442 26.9162L25.8339 28.082C26.3849 28.1806 26.9068 28.2328 27.394 28.2328C30.1952 28.2328 31.2681 26.5799 31.5987 25.8723C32.0453 24.9154 32.4628 22.9261 30.2938 20.3627L26.0369 15.3229C25.7179 14.9459 25.5845 14.5573 25.6483 14.192C25.7121 13.8266 25.9673 13.5018 26.3965 13.2582L38.8308 6.07833C39.1092 5.91594 39.3876 5.83474 39.6427 5.83474C40.1647 5.83474 40.5765 6.17692 40.8027 6.79748L43.0355 13.003C44.2592 16.3958 46.3529 16.9004 47.4954 16.9004C48.6379 16.9004 50.7316 16.3958 51.9553 13.003L54.1881 6.79748C54.4143 6.17692 54.8203 5.83474 55.348 5.83474C55.6032 5.83474 55.8816 5.92174 56.16 6.07833L68.5943 13.2582C69.0177 13.5018 69.2786 13.8266 69.3424 14.192C69.4062 14.5573 69.2728 14.9517 68.9539 15.3229L64.697 20.3627C62.5279 22.9319 62.9513 24.9154 63.3921 25.8723C63.7226 26.5799 64.7898 28.2328 67.5968 28.2328C68.0839 28.2328 68.6059 28.1806 69.1568 28.082L75.6466 26.9162C75.7684 26.893 75.8902 26.8814 76.0062 26.8814C76.7891 26.8814 77.2589 27.3976 77.2589 28.2618V42.6215C77.2589 43.4857 76.7949 44.0018 76.0062 44.0018C75.8902 44.0018 75.7684 43.9902 75.6466 43.967L69.1568 42.8013C68.6059 42.7027 68.0839 42.6505 67.5968 42.6505C64.7956 42.6505 63.7284 44.2976 63.3979 45.011C62.9513 45.9679 62.5337 47.9571 64.7028 50.5206L68.9597 55.5604C69.2728 55.9316 69.412 56.326 69.3482 56.6913C69.2844 57.0567 69.0293 57.3815 68.6001 57.6251L56.1658 64.805C55.8874 64.9673 55.6148 65.0485 55.3538 65.0485C54.8319 65.0485 54.4201 64.7064 54.1939 64.0858L51.9611 57.8802C50.7374 54.4875 48.6437 53.9829 47.5012 53.9829C46.3587 53.9771 44.2592 54.4817 43.0355 57.8744ZM70.1254 165.376H24.8654L18.0857 112.524H76.9051L70.1254 165.376ZM88.5623 106.724H80.1993H14.7915H6.42849V96.5113H88.5623V106.724Z" fill="#61B34C"/>
<path d="M61.4372 35.4412C61.4372 27.7568 55.1794 21.499 47.4949 21.499C39.8047 21.499 33.5527 27.751 33.5527 35.4412C33.5527 43.1315 39.8105 49.3834 47.4949 49.3834C55.1852 49.3834 61.4372 43.1257 61.4372 35.4412ZM39.3523 35.4412C39.3523 30.9524 43.0061 27.2986 47.4949 27.2986C51.9838 27.2986 55.6376 30.9524 55.6376 35.4412C55.6376 39.9301 51.9896 43.5839 47.4949 43.5839C43.0061 43.5839 39.3523 39.9301 39.3523 35.4412Z" fill="#61B34C"/>
</g>
</svg>
