<svg width="94" height="143" viewBox="0 0 94 143" fill="none" xmlns="http://www.w3.org/2000/svg">
<g opacity="0.25">
<path d="M2.90788 90.633C1.30273 90.633 0 91.9305 0 93.5293V109.523C0 111.122 1.30273 112.419 2.90788 112.419H11.6431L18.8605 168.474C19.0466 169.923 20.2854 171 21.7451 171H72.2491C73.7088 171 74.9476 169.917 75.1337 168.474L82.3568 112.419H91.0921C92.6973 112.419 94 111.122 94 109.523V93.5293C94 91.9305 92.6973 90.633 91.0921 90.633H52.9466C55.0636 87.0358 55.8486 83.2879 55.7265 79.4532C58.3087 80.4553 61.0654 80.9767 63.8744 80.9767C67.2242 80.9767 70.4695 80.241 73.5169 78.7928C80.7052 75.3694 85.5555 68.3198 86.1836 60.3954C86.265 59.3586 85.7882 58.3622 84.9274 57.7772C81.1705 55.2168 76.7853 53.8614 72.2432 53.8614C68.8876 53.8614 65.6482 54.597 62.6008 56.0452C58.1517 58.1653 54.5982 61.6756 52.3824 65.9216C50.8006 62.0521 48.829 58.1653 46.8808 54.3132C41.414 43.5157 35.8192 32.4692 37.6918 21.3878C40.2857 26.3463 44.6941 30.2506 50.1085 32.1564C52.5163 33.0021 55.0228 33.4307 57.5585 33.4307C62.8857 33.4307 68.0618 31.525 72.127 28.0668C72.9179 27.3948 73.2901 26.3521 73.0981 25.3326C71.6268 17.5184 66.0495 11.0248 58.5356 8.38339C56.1278 7.53766 53.6212 7.10901 51.0855 7.10901C48.5964 7.10901 46.1422 7.53187 43.8159 8.32546C44.7231 7.1959 45.735 6.07213 46.8633 4.94256C48.0032 3.813 48.0032 1.97674 46.8633 0.847173C45.7292 -0.282391 43.8857 -0.282391 42.7516 0.847173C33.9873 9.57667 30.3815 19.1577 31.7191 30.1463C32.2018 34.1027 33.2836 37.9722 34.7026 41.7663C31.8413 40.4804 28.724 39.8026 25.5137 39.8026C23.42 39.8026 21.3321 40.0981 19.3083 40.6773C11.6547 42.8727 5.69943 49.0303 3.7686 56.7403C3.51852 57.7482 3.82676 58.8083 4.57699 59.5265C8.78178 63.5524 14.3009 65.771 20.1108 65.771C22.2045 65.771 24.2924 65.4756 26.3163 64.8963C32.2949 63.1817 37.2382 59.0458 40.0356 53.6412C40.5823 54.7418 41.1348 55.8308 41.6873 56.9199C49.3292 72.0039 53.6736 81.8629 45.7525 90.6214H2.90788V90.633ZM65.1073 61.2817C67.3638 60.2043 69.7657 59.6598 72.2432 59.6598C75.029 59.6598 77.7333 60.3433 80.1585 61.6582C79.1989 66.8137 75.8025 71.2856 71.0103 73.5679C68.7538 74.6395 66.3577 75.1898 63.8802 75.1898C61.0945 75.1898 58.3901 74.5005 55.9591 73.1914C56.9187 68.0301 60.3093 63.564 65.1073 61.2817ZM51.0797 12.9132C52.9524 12.9132 54.8076 13.2318 56.593 13.8574C61.6062 15.6184 65.4563 19.7022 66.9626 24.7302C64.2001 26.6244 60.92 27.6497 57.5527 27.6497C55.68 27.6497 53.8248 27.3311 52.0393 26.7055C47.0262 24.9445 43.1762 20.8607 41.6699 15.8327C44.4324 13.9385 47.7182 12.9132 51.0797 12.9132ZM24.6995 59.3412C23.199 59.7698 21.652 59.99 20.105 59.99C16.3888 59.99 12.8296 58.7619 9.91588 56.497C11.7188 51.5675 15.8014 47.7154 20.9134 46.2498C22.4139 45.8154 23.9609 45.6011 25.5079 45.6011C29.2241 45.6011 32.7834 46.8291 35.6971 49.094C33.9 54.0293 29.8115 57.8756 24.6995 59.3412ZM69.6901 165.207H24.304L17.5054 112.419H76.4946L69.6901 165.207ZM88.1784 96.4314V106.626H79.7921H14.1963H5.80993V96.4314H88.1784Z" fill="#61B34C"/>
</g>
</svg>
