<svg width="50" height="50" viewBox="0 0 50 50" fill="none" xmlns="http://www.w3.org/2000/svg">
<path d="M25.3623 38.1133H25.3498C25.1498 38.1133 24.9623 38.1883 24.8248 38.3258C24.6873 38.4633 24.6123 38.6508 24.6123 38.8383C24.6123 39.0383 24.6748 39.2133 24.8123 39.3633C24.9498 39.5133 25.1373 39.5883 25.3498 39.5883C25.7498 39.5883 26.0873 39.2508 26.0873 38.8508C26.0873 38.6508 26.0123 38.4758 25.8748 38.3258C25.7373 38.1883 25.5498 38.1133 25.3623 38.1133Z" fill="#599270"/>
<path d="M23.7498 35.6754H24.7873C24.8498 35.6754 24.9123 35.6254 24.9123 35.5504C24.9248 35.1879 25.1998 35.0129 25.4623 35.0129C25.7623 35.0129 25.9748 35.2129 25.9748 35.5004C25.9748 35.7379 25.8373 35.9254 25.4748 36.1629C24.9873 36.4754 24.7373 36.8004 24.7248 37.7379V37.8129C24.7248 37.8879 24.7748 37.9379 24.8498 37.9379H25.8123C25.8873 37.9379 25.9373 37.8879 25.9373 37.8129V37.7379C25.9373 37.3004 26.0623 37.0879 26.4748 36.8504C27.0498 36.5004 27.3248 36.0629 27.3248 35.4629C27.3248 34.5129 26.5873 33.9004 25.4623 33.9004C24.3623 33.9004 23.6373 34.5504 23.6123 35.5504C23.6123 35.5879 23.6248 35.6129 23.6498 35.6379C23.6873 35.6504 23.7123 35.6754 23.7498 35.6754Z" fill="#599270"/>
<path d="M34.5875 26.7877H26.7C26.075 26.7752 26.1125 26.1877 26.1125 26.1877V24.5627C26.1125 24.2502 26.3375 24.0502 26.45 23.9752L29.2 22.2002C29.2 22.2002 29.375 22.0752 29.7 22.2252C29.7125 22.2252 29.7125 22.2252 29.7125 22.2252C30.1 22.4877 30.5625 22.6252 31.025 22.6252C31.4625 22.6252 31.9125 22.5002 32.3 22.2502C33.3875 21.5377 33.7 20.0752 33 18.9877C32.2875 17.8877 30.825 17.5877 29.7375 18.2877C28.9125 18.8252 28.5625 19.8002 28.7375 20.7127L28.7125 20.7252C28.7125 20.7252 28.7375 20.9377 28.55 21.1252L26.25 22.6127C26.1 22.6377 26.1 22.4877 26.1 22.4877V18.1252C26.1 17.7502 26.2875 17.4002 26.6 17.2002L29.1125 15.5752C29.3125 15.4502 29.55 15.4752 29.75 15.6002C30.125 15.8377 30.5625 15.9627 31.0125 15.9627C31.45 15.9627 31.9 15.8377 32.2875 15.5877C33.375 14.8752 33.6875 13.4127 32.9875 12.3252C32.275 11.2377 30.8125 10.9252 29.725 11.6252C28.9125 12.1502 28.5375 13.0877 28.6875 13.9877C28.725 14.1877 28.65 14.3752 28.4875 14.4877L26.2875 15.9127C26.2 15.9627 26.1 15.9127 26.1 15.8127V11.5877C26.1 11.4377 26.2 11.3127 26.3375 11.2502C27.2125 10.9002 27.825 10.0627 27.825 9.06269C27.825 7.7627 26.7625 6.7002 25.4625 6.7002H25.45H25.4375C24.1375 6.7002 23.075 7.7627 23.075 9.06269C23.075 10.0502 23.7 10.9002 24.5625 11.2502C24.7 11.3002 24.8 11.4377 24.8 11.5877V15.7877C24.8 15.8877 24.6875 15.9502 24.6125 15.8877L22.4125 14.4627C22.25 14.3502 22.1875 14.1627 22.2125 13.9627C22.3625 13.0627 21.9875 12.1252 21.175 11.6002C20.0875 10.9002 18.625 11.2002 17.9125 12.3002C17.2125 13.3877 17.525 14.8502 18.6125 15.5627C19.0125 15.8127 19.45 15.9377 19.8875 15.9377C20.3375 15.9377 20.775 15.8127 21.15 15.5752C21.35 15.4502 21.5875 15.4252 21.7875 15.5502L24.3 17.1752C24.6125 17.3752 24.8 17.7252 24.8 18.1002V22.4752C24.8 22.5377 24.775 22.6502 24.6125 22.5627L22.375 21.1127C22.1625 20.9252 22.1875 20.7502 22.1875 20.7377C22.1875 20.7377 22.175 20.7502 22.1625 20.7502C22.3625 19.8252 22.025 18.8252 21.175 18.2752C20.0875 17.5752 18.625 17.8752 17.9125 18.9752C17.2125 20.0627 17.525 21.5252 18.6125 22.2377C19.0125 22.4877 19.45 22.6127 19.8875 22.6127C20.4 22.6127 20.8875 22.4377 21.3 22.1252V22.1377C21.3 22.1377 21.3875 22.0127 21.7 22.1752L24.375 23.9002C24.375 23.9002 24.7625 24.2127 24.8 24.6377V26.3502C24.775 26.5127 24.675 26.7752 24.15 26.7752H16.375C16.025 26.7752 15.75 27.0502 15.75 27.4002V31.3877C15.75 31.7377 16.025 32.0127 16.375 32.0127H17.1375C17.1375 32.0127 17.575 31.9877 17.625 32.4877L18.925 41.9502C18.9625 42.2627 19.2375 42.4877 19.55 42.4877H25.5H31.45C31.7625 42.4877 32.025 42.2627 32.075 41.9502L33.3875 32.3377C33.4375 32.0127 33.7625 32.0127 33.7625 32.0127H34.625C34.975 32.0127 35.25 31.7377 35.25 31.3877V27.4002C35.2125 27.0627 34.9375 26.7877 34.5875 26.7877ZM30.425 12.6627C30.6125 12.5377 30.825 12.4877 31.025 12.4877C31.3875 12.4877 31.75 12.6627 31.9625 12.9877C32.3 13.5002 32.15 14.1877 31.6375 14.5252C31.125 14.8502 30.4375 14.7127 30.1 14.2002C29.7625 13.6877 29.9125 13.0002 30.425 12.6627ZM20.8625 14.2002C20.5375 14.7127 19.8375 14.8502 19.325 14.5252C18.8125 14.1877 18.6625 13.5002 19 12.9877C19.2125 12.6627 19.5625 12.4877 19.9375 12.4877C20.15 12.4877 20.35 12.5502 20.5375 12.6627C21.05 13.0002 21.2 13.6877 20.8625 14.2002ZM20.8625 20.8627C20.5375 21.3752 19.8375 21.5252 19.325 21.1877C18.8125 20.8502 18.6625 20.1627 19 19.6502C19.2125 19.3252 19.5625 19.1502 19.9375 19.1502C20.15 19.1502 20.35 19.2127 20.5375 19.3252C21.05 19.6627 21.2 20.3502 20.8625 20.8627ZM30.425 19.3252C30.6125 19.2002 30.825 19.1502 31.025 19.1502C31.3875 19.1502 31.75 19.3252 31.9625 19.6502C32.3 20.1627 32.15 20.8502 31.6375 21.1877C31.125 21.5127 30.4375 21.3752 30.1 20.8627C29.7625 20.3502 29.9125 19.6627 30.425 19.3252ZM24.3625 9.0752C24.3625 8.4627 24.8625 7.96269 25.475 7.96269H25.4875H25.5C26.1125 7.96269 26.6125 8.4627 26.6125 9.0752C26.6125 9.6877 26.1125 10.1877 25.5 10.1877H25.4875H25.475C24.8625 10.1877 24.3625 9.6877 24.3625 9.0752ZM17.525 30.7752C17.0875 30.7627 17.0125 30.4877 17 30.3377V28.6127C17 28.3002 17.25 28.0502 17.5625 28.0502H25.4875H33.4125C33.725 28.0502 33.975 28.3002 33.975 28.6127V30.4377C33.9625 30.5627 33.9 30.7752 33.5625 30.7877H32.8625H25.4875H18.1125H17.525V30.7752ZM30.9625 40.6502C30.9125 40.9877 30.625 41.2502 30.275 41.2502H25.4875H20.7C20.35 41.2502 20.0625 40.9877 20.0125 40.6502L18.925 32.6627C18.875 32.3252 19.1375 32.0127 19.4875 32.0127H25.5H31.5125C31.8625 32.0127 32.125 32.3127 32.075 32.6627L30.9625 40.6502Z" fill="#599270"/>
</svg>
