<svg width="50" height="50" viewBox="0 0 50 50" fill="none" xmlns="http://www.w3.org/2000/svg">
<path d="M36.2004 12.1754C36.1504 11.9254 35.9504 11.7254 35.7004 11.6754C33.7004 11.2879 31.7004 11.4754 29.9004 12.1879C29.9004 12.1879 29.8879 12.1879 29.8629 12.2004C29.8629 12.2004 29.8629 12.2004 29.8504 12.2004C29.8504 12.2004 29.8504 12.2004 29.8379 12.2004C29.8129 12.2129 29.7879 12.2254 29.7629 12.2379H29.7504C29.7379 12.2504 29.7254 12.2504 29.7129 12.2629C29.6504 12.3004 29.5879 12.3629 29.5504 12.4379V12.4504C29.4254 12.6379 29.4004 12.8879 29.5129 13.1004C29.5879 13.2254 29.6254 13.3504 29.6254 13.4879C29.6254 13.9129 29.2754 14.2629 28.8504 14.2629C28.5879 14.2629 28.3504 14.1254 28.2004 13.9129C28.0254 13.6504 27.7004 13.5629 27.4254 13.6879L27.4129 13.6754C27.4129 13.6754 27.3754 13.7004 27.3379 13.7254C27.3004 13.7504 27.2754 13.7754 27.2379 13.8004C27.2379 13.8004 27.2254 13.8004 27.2254 13.8129L27.2129 13.8254L27.2004 13.8379C26.0254 14.8629 25.3379 16.0129 25.1754 17.2629C25.1129 17.7504 25.1254 18.2504 25.2129 18.7379C25.2629 19.0379 25.5254 19.2504 25.8254 19.2504C25.8629 19.2504 25.9004 19.2504 25.9379 19.2379C26.2754 19.1754 26.5004 18.8504 26.4379 18.5129C26.3754 18.1504 26.3629 17.7879 26.4129 17.4254C26.5129 16.6504 26.9254 15.9254 27.5754 15.2254C27.6254 15.2004 27.7004 15.1504 27.8254 15.2254C27.8504 15.2379 27.8504 15.2254 27.8629 15.2254C28.1629 15.4004 28.4879 15.5254 28.8504 15.5254C29.9629 15.5254 30.8754 14.6254 30.8754 13.5004C30.8754 13.4629 30.8629 13.4254 30.8629 13.3754C30.8629 13.3754 30.8629 13.3754 30.8629 13.3629C30.8754 13.2129 30.9629 13.1629 31.0004 13.1504C32.2504 12.7629 33.5879 12.6379 34.9379 12.8254C34.9754 12.8379 35.0129 12.8504 35.0379 12.9379C35.0504 13.0754 35.0629 13.2129 35.0754 13.3504C35.0629 13.4129 35.0379 13.5504 34.8629 13.6004C34.8504 13.6004 34.8504 13.6129 34.8379 13.6129C33.8379 13.9004 33.0879 14.8254 33.0879 15.9254C33.0879 16.7004 33.4504 17.3754 34.0129 17.8254L34.0004 17.8379C34.0004 17.8379 34.1754 18.0004 34.1254 18.1879C34.0254 18.3379 33.9254 18.4879 33.8129 18.6504C33.6004 18.8629 33.3254 18.7004 33.3254 18.7004V18.7379C32.7254 18.4629 32.0504 18.3504 31.0379 18.5754C29.9629 18.8129 29.3504 19.7504 28.9379 20.7754C28.9379 20.7879 28.9254 20.7879 28.9129 20.8004C28.8129 21.1129 28.6129 21.1254 28.4879 21.1004C28.1754 20.9879 27.8879 20.8504 27.6379 20.7129C27.4879 20.5629 27.5504 20.4129 27.5754 20.3629C28.3379 19.4879 29.3004 18.5879 30.5629 17.6754C30.8379 17.4754 30.9004 17.0754 30.7004 16.8004C30.5004 16.5254 30.1004 16.4629 29.8254 16.6629C26.8629 18.8129 25.3129 20.9754 24.4879 22.7879C24.4879 22.7879 24.4879 22.7879 24.4754 22.8004C24.3879 22.9879 24.3254 22.8004 24.3254 22.8004L24.3129 22.8129C24.0254 22.3004 23.6879 21.8379 23.3129 21.4004C23.3004 21.3879 23.3129 21.3754 23.2879 21.3504C23.0879 21.1129 23.0629 20.8629 23.0629 20.7504C23.1004 19.7254 22.8629 18.0004 21.0629 16.6254C18.4629 14.6379 13.8379 15.1754 12.9379 15.3004C12.7254 15.3254 12.5504 15.4629 12.4629 15.6629C12.2879 16.0379 12.8254 17.5754 13.1504 18.4629C13.8504 20.3004 15.1379 21.7754 16.7004 22.5129C17.5254 22.9004 18.4379 23.1004 19.3379 23.1004C20.3004 23.1004 21.2254 22.8504 22.0129 22.4129V22.4379C22.0129 22.4379 22.2754 22.2129 22.5629 22.4879C23.0504 23.0879 23.4754 23.7504 23.7254 24.5254L23.7379 24.5504C23.7379 24.5504 23.8254 24.8504 23.7379 25.2129V25.2254C23.6254 25.9129 23.6004 26.4629 23.6254 26.8254H15.5879C15.2379 26.8254 14.9629 27.1004 14.9629 27.4504V31.4379C14.9629 31.7879 15.2379 32.0628 15.5879 32.0628H16.0004C16.4379 32.0628 16.8129 32.3879 16.8754 32.8254L18.1379 42.0003C18.1754 42.3128 18.4504 42.5378 18.7629 42.5378H30.8254C31.1379 42.5378 31.4004 42.3128 31.4504 42.0003L32.7629 32.4129C32.7879 32.2129 32.9629 32.0628 33.1629 32.0628H33.9879C34.3379 32.0628 34.6129 31.7879 34.6129 31.4379V27.4504C34.6129 27.1004 34.3379 26.8254 33.9879 26.8254H25.3254C25.0754 26.8254 24.8629 26.6254 24.8754 26.3754C24.9004 25.4879 25.1629 23.8129 26.4879 21.8254C26.5504 21.7629 26.6879 21.6629 26.9004 21.7879C26.9129 21.8004 26.9254 21.8004 26.9379 21.8004C27.5879 22.2004 28.4379 22.5254 29.2629 22.6629C29.3004 22.6754 29.3379 22.6754 29.3754 22.6754C29.6754 22.6754 29.9379 22.4629 29.9879 22.1629L30.0129 21.8504C30.0754 20.7254 31.0004 19.7629 32.0504 19.7629C32.6129 19.7629 32.9254 19.8754 33.2879 20.2254C33.3004 20.2379 33.3254 20.2504 33.3504 20.2629C33.3754 20.2879 33.4004 20.3254 33.4254 20.3504C33.5379 20.4254 33.6629 20.4629 33.7879 20.4629C33.9879 20.4629 34.1754 20.3754 34.3004 20.2004L34.5004 19.9254C34.9129 19.3504 35.4379 18.6379 35.6879 18.0129C35.7754 17.8004 35.7254 17.5879 35.6004 17.4129C35.5754 17.3754 35.5379 17.3379 35.5004 17.3004C35.4254 17.2254 35.3254 17.1629 35.2129 17.1379C34.7004 17.0254 34.3504 16.5504 34.3504 15.9879C34.3504 15.3379 34.8754 14.8129 35.5254 14.8129C35.5254 14.8129 35.6879 14.8129 35.7004 14.8129C35.7129 14.8129 35.7254 14.8129 35.7379 14.8129C35.7504 14.8129 35.7629 14.8254 35.7754 14.8254C35.8254 14.8254 35.8754 14.8129 35.9254 14.7879H35.9379C36.2004 14.7129 36.4004 14.4754 36.4004 14.1879C36.3879 13.4754 36.3254 12.8254 36.2004 12.1754ZM21.4004 19.6379C19.1754 18.0879 16.8004 17.4379 16.6254 17.4004C16.2879 17.3129 15.9504 17.5129 15.8629 17.8504C15.7754 18.1879 15.9754 18.5254 16.3129 18.6129C16.3504 18.6254 19.0379 19.3504 21.2379 21.1129C21.3129 21.2004 21.3629 21.3129 21.2629 21.4004C20.0004 22.0129 18.3754 21.8879 17.2754 21.3629C16.0004 20.7629 14.9379 19.5379 14.3629 18.0004C14.3254 17.9004 14.1254 17.3004 13.9629 16.7379C13.8879 16.5004 14.0629 16.4379 14.1754 16.4254C15.7379 16.3129 18.6504 16.3004 20.3504 17.6129C21.0629 18.1629 21.4504 18.7754 21.6504 19.3504C21.8504 19.9379 21.4004 19.6379 21.4004 19.6379ZM30.3629 40.7379C30.3254 41.0254 30.0754 41.2503 29.7754 41.2503H19.8379C19.5379 41.2503 19.2879 41.0254 19.2504 40.7379L18.1254 32.4878C18.0879 32.2378 18.2879 32.0254 18.5254 32.0254H31.0879C31.3379 32.0254 31.5254 32.2503 31.4879 32.4878L30.3629 40.7379ZM33.0254 28.0379C33.2254 28.0379 33.3754 28.2004 33.3754 28.3879V30.1629C33.3754 30.1629 33.3504 30.7379 32.8004 30.7629H32.2754H17.3379H16.6754C16.6754 30.7629 16.6754 30.7629 16.6629 30.7629C16.2254 30.7629 16.2379 30.3379 16.2379 30.3379V28.3879C16.2379 28.1879 16.4004 28.0379 16.5879 28.0379H33.0254V28.0379Z" fill="#599270"/>
</svg>
