<svg width="33" height="15" viewBox="0 0 33 15" fill="none" xmlns="http://www.w3.org/2000/svg">
<g clip-path="url(#clip0_2125_3766)">
<path d="M19.0182 11.296C21.3814 11.296 23.2952 9.55053 23.2952 7.39603C23.2952 5.24153 21.3797 3.49609 19.0182 3.49609C16.6567 3.49609 14.7412 5.24153 14.7412 7.39603C14.7412 9.55053 16.6567 11.296 19.0182 11.296V11.296ZM19.0182 5.79564C19.9102 5.79564 20.6342 6.51272 20.6342 7.39603C20.6342 8.27934 19.9102 8.99642 19.0182 8.99642C18.1263 8.99642 17.4022 8.28097 17.4022 7.39603C17.4022 6.51109 18.1263 5.79564 19.0182 5.79564Z" fill="white"/>
<path d="M10.4184 3.80052V11.0186H12.9708V3.72718C12.9708 3.72718 13.2637 0.162973 9.1875 0V2.54563C9.1875 2.54563 10.4168 2.8178 10.4168 3.80052H10.4184Z" fill="white"/>
<path d="M0.00839952 0.345703C-0.00364357 0.347414 -0.00192313 0.350837 0.00839952 0.352548V0.345703Z" fill="white"/>
<path d="M2.6145 10.9992V10.3816C2.6145 10.3816 3.39618 11.2909 4.78017 11.2909C4.78017 11.2909 8.36108 11.1915 8.37918 7.76422C8.37918 7.76422 8.86135 3.75672 5.00068 3.39981C5.00068 3.39981 3.22668 3.38351 2.6145 4.41839V0.345703C2.6145 0.345703 0.169085 0.378298 0.0078125 0.352222V10.9992H2.6145ZM4.19761 5.95033C5.02701 5.95033 5.69843 6.61526 5.69843 7.43664C5.69843 8.25802 5.02701 8.92295 4.19761 8.92295C3.36821 8.92295 2.69843 8.25802 2.69843 7.43664C2.69843 6.61526 3.36985 5.95033 4.19761 5.95033Z" fill="white"/>
<path d="M27.8043 11.2952C30.044 11.2952 30.3567 10.3092 30.3567 10.3092C30.3748 12.7456 28.7785 12.6006 28.7785 12.6006H28.0808V15.0012H29.2377C33.0375 15.0012 33.0012 11.2968 33.0012 11.2968V3.59961H30.4127V4.38188C29.5684 3.25411 28.191 3.40078 28.191 3.40078C24.7023 3.65502 24.6299 6.83787 24.6299 6.83787V8.0015C24.6299 11.0703 27.806 11.2968 27.806 11.2968L27.8043 11.2952ZM28.9431 5.83233C29.8153 5.83233 30.5213 6.53312 30.5213 7.39524C30.5213 8.25737 29.8136 8.95815 28.9431 8.95815C28.0726 8.95815 27.3649 8.25737 27.3649 7.39524C27.3649 6.53312 28.0709 5.83233 28.9431 5.83233V5.83233Z" fill="white"/>
</g>
<defs>
<clipPath id="clip0_2125_3766">
<rect width="33" height="15" fill="white"/>
</clipPath>
</defs>
</svg>
