<svg width="50" height="50" viewBox="0 0 50 50" fill="none" xmlns="http://www.w3.org/2000/svg">
<path d="M39.9792 7.56257C39.8958 7.16674 39.6042 6.87507 39.2083 6.79174C33.4792 5.68757 27.7708 6.2084 22.6458 8.29174C22.6042 8.31257 22.5625 8.35424 22.5208 8.37507C22.5 8.3959 22.4792 8.39591 22.4583 8.39591C22.4167 8.41674 22.3958 8.45841 22.3542 8.47924C22.3333 8.50007 22.3333 8.50007 22.3125 8.5209C21.9792 8.8334 21.875 9.31257 22.1042 9.72924C22.3958 10.2084 22.5417 10.7292 22.5417 11.2709C22.5417 12.9792 21.1458 14.3542 19.4583 14.3542C18.4167 14.3542 17.4375 13.8334 16.875 12.9376C16.6042 12.5209 16.0625 12.3959 15.625 12.6042V12.5834C15.625 12.5834 15.4375 12.6667 15.2917 12.8126C11.9583 15.7084 10.0417 18.9167 9.58334 22.3751C9.22918 25.0209 9.72918 27.7917 10.9583 30.2084C11.125 30.5417 11.4792 30.7292 11.8333 30.7292C11.9792 30.7292 12.1458 30.6876 12.2917 30.6251C12.7708 30.3751 12.9583 29.7917 12.7083 29.3126C11.6458 27.2709 11.2292 24.8959 11.5417 22.6459C11.8958 20.0001 13.3125 17.4792 15.7083 15.1667C15.8125 15.0626 16.0417 14.9792 16.3125 15.1876C16.3542 15.2084 16.375 15.2292 16.3958 15.2292C17.2708 15.9167 18.3333 16.3126 19.4583 16.3126C22.2292 16.3126 24.5 14.0417 24.5 11.2709C24.5 10.9167 24.4375 10.5626 24.3542 10.2084V10.1876C24.3125 9.87507 24.5 9.72924 24.625 9.66674C28.7292 8.22924 33.2083 7.8334 37.7083 8.5209C38.0417 8.62507 38.1875 8.81257 38.2292 8.95841C38.3542 9.83341 38.4583 10.7292 38.5 11.6042C38.4792 11.7501 38.4167 12.1042 38 12.2084C37.9583 12.2292 37.9375 12.2292 37.9375 12.2501C34.9375 12.6876 32.625 15.2292 32.625 18.3542C32.625 20.7501 33.9167 22.8542 35.8958 23.8959H35.875C35.875 23.8959 36.1667 24.0834 36.0833 24.5417C35.4583 25.8959 34.75 27.2084 33.875 28.3959C33.5625 28.8542 33.2083 29.2501 32.875 29.6459C32.5 30.0001 32.2708 29.6667 32.2708 29.6667L32.25 29.7084C31.0625 28.3542 29.375 27.5626 27.3125 27.5626C23.625 27.5626 20.625 30.5626 20.625 34.2709C20.625 34.4584 20.6458 34.6251 20.6667 34.8126L20.6458 34.7917C20.6458 34.7917 20.7083 35.0834 20.4375 35.0834C19.125 34.8334 17.875 34.3334 16.7292 33.6459C16.3542 33.2917 16.375 32.9792 16.4583 32.8126C18.9167 28.7501 21.4375 25.5001 23.6667 23.0417C23.6875 23.0209 23.8958 22.8542 24.2708 22.9167L30.5417 24.1251C30.6042 24.1459 30.6667 24.1459 30.7292 24.1459C31.1875 24.1459 31.6042 23.8126 31.6875 23.3542C31.7917 22.8334 31.4375 22.3126 30.9167 22.2084L25.8125 21.2292C25.5625 21.1459 25.6667 20.9584 25.6667 20.9167C28.4375 18.1667 30.3958 16.8334 30.4583 16.7917C30.9167 16.5001 31.0417 15.8959 30.7292 15.4376C30.4375 14.9792 29.8333 14.8542 29.375 15.1667C28.875 15.5001 17.0833 23.3751 9.50001 42.3959C9.29168 42.8959 9.54168 43.4584 10.0417 43.6667C10.2083 43.7501 10.3333 43.7709 10.4375 43.7709C10.8333 43.7709 11.1875 43.5417 11.3542 43.1667C12.4792 40.3334 13.7292 37.7709 15 35.4167C15.0625 35.3334 15.2917 35.0417 15.5833 35.2292C15.6042 35.2501 15.6042 35.2292 15.625 35.2292C17.4792 36.3959 19.5833 37.1042 21.7708 37.2709C21.7917 37.2709 21.8125 37.2709 21.8333 37.2709C22 37.2709 22.1458 37.2292 22.2708 37.1459C22.2708 37.1459 22.2708 37.1459 22.2917 37.1459C22.7917 36.9584 23.0625 36.3959 22.875 35.8959C22.6875 35.3751 22.5833 34.8334 22.5833 34.2709C22.5833 31.6459 24.7083 29.5209 27.3333 29.5209C29.3125 29.5209 30.8125 30.4167 31.5417 32.0626C31.5833 32.1459 31.6458 32.2084 31.6875 32.2709C31.7083 32.2917 31.7292 32.3334 31.75 32.3542C31.8125 32.4167 31.875 32.4376 31.9583 32.4792C32 32.5001 32.0417 32.5417 32.0833 32.5626C32.1042 32.5834 32.1458 32.5626 32.1667 32.5834C32.25 32.6042 32.3333 32.6251 32.4375 32.6251C32.5 32.6251 32.5625 32.6042 32.6042 32.5834C32.6667 32.5626 32.75 32.5626 32.8125 32.5417C32.8125 32.5417 32.8125 32.5417 32.8333 32.5417C32.9375 32.5001 33.0208 32.4376 33.0833 32.3542C33.1042 32.3334 33.125 32.3334 33.1458 32.3126C33.1458 32.3126 33.1458 32.3126 33.1667 32.2917C33.9583 31.4584 34.7292 30.5209 35.4792 29.5001C36.7083 27.7709 37.75 25.8959 38.5417 23.8959C38.7083 23.4792 38.5625 23.0417 38.2292 22.7917C38.1042 22.6459 37.9375 22.5417 37.75 22.4792C35.875 22.0417 34.5625 20.3126 34.5625 18.2917C34.5625 15.9376 36.4792 14.0417 39 14.0209C39.125 14.0209 39.3125 14.0209 39.3958 14.0209C39.4167 14.0209 39.4583 14.0001 39.4792 14.0001C39.5 14.0001 39.5208 14.0209 39.5417 14.0209C40.0833 14.0209 40.5208 13.5834 40.5 13.0417C40.5208 11.2709 40.3333 9.39591 39.9792 7.56257Z" fill="#599270"/>
</svg>
