<svg width="14" height="14" viewBox="0 0 14 14" fill="none" xmlns="http://www.w3.org/2000/svg">
<path d="M5.2487 12.2507H10.4987C10.9829 12.2507 11.397 11.959 11.572 11.539L13.3337 7.42648C13.3862 7.29232 13.4154 7.15232 13.4154 7.00065V5.83398C13.4154 5.19232 12.8904 4.66732 12.2487 4.66732H8.56786L9.12203 2.00148L9.13953 1.81482C9.13953 1.57565 9.04037 1.35398 8.88286 1.19648L8.26453 0.583984L4.42036 4.42815C4.21036 4.63815 4.08203 4.92982 4.08203 5.25065V11.084C4.08203 11.7257 4.60703 12.2507 5.2487 12.2507ZM5.2487 5.25065L7.78036 2.71898L6.9987 5.83398H12.2487V7.00065L10.4987 11.084H5.2487V5.25065ZM0.582031 5.25065H2.91536V12.2507H0.582031V5.25065Z" fill="#599270"/>
</svg>
