<svg width="16" height="16" viewBox="1.4 1.4 17.4 17.4" fill="none" xmlns="http://www.w3.org/2000/svg">
<path d="M10 1.66602C5.40002 1.66602 1.66669 5.39935 1.66669 9.99935C1.66669 14.5993 5.40002 18.3327 10 18.3327C14.6 18.3327 18.3334 14.5993 18.3334 9.99935C18.3334 5.39935 14.6 1.66602 10 1.66602ZM10.8334 15.8327H9.16669V14.166H10.8334V15.8327ZM12.5584 9.37435L11.8084 10.141C11.2084 10.7493 10.8334 11.2493 10.8334 12.4993H9.16669V12.0827C9.16669 11.166 9.54169 10.3327 10.1417 9.72435L11.175 8.67435C11.4834 8.37435 11.6667 7.95768 11.6667 7.49935C11.6667 6.58268 10.9167 5.83268 10 5.83268C9.08335 5.83268 8.33335 6.58268 8.33335 7.49935H6.66669C6.66669 5.65768 8.15835 4.16602 10 4.16602C11.8417 4.16602 13.3334 5.65768 13.3334 7.49935C13.3334 8.23268 13.0334 8.89935 12.5584 9.37435Z" fill="#DDDDDD"/>
</svg>
