<svg width="20" height="20" viewBox="0 0 20 20" fill="none" xmlns="http://www.w3.org/2000/svg">
<path d="M7.49967 17.5007H14.9997C15.6913 17.5007 16.283 17.084 16.533 16.484L19.0497 10.609C19.1247 10.4173 19.1663 10.2173 19.1663 10.0007V8.33398C19.1663 7.41732 18.4163 6.66732 17.4997 6.66732H12.2413L13.033 2.85898L13.058 2.59232C13.058 2.25065 12.9163 1.93398 12.6913 1.70898L11.808 0.833984L6.31634 6.32565C6.01634 6.62565 5.83301 7.04232 5.83301 7.50065V15.834C5.83301 16.7507 6.58301 17.5007 7.49967 17.5007ZM7.49967 7.50065L11.1163 3.88398L9.99967 8.33398H17.4997V10.0007L14.9997 15.834H7.49967V7.50065ZM0.833008 7.50065H4.16634V17.5007H0.833008V7.50065Z" fill="#969696"/>
</svg>
