<svg width="22" height="22" viewBox="0 0 22 22" fill="none" xmlns="http://www.w3.org/2000/svg">
<path d="M8.25016 19.2507C8.25016 19.709 8.61683 20.1673 9.16683 20.1673H12.8335C13.3835 20.1673 13.7502 19.709 13.7502 19.2507V18.334H8.25016V19.2507ZM11.0002 1.83398C7.42516 1.83398 4.5835 4.67565 4.5835 8.25065C4.5835 10.4507 5.6835 12.3757 7.3335 13.4757V15.584C7.3335 16.0423 7.70016 16.5007 8.25016 16.5007H13.7502C14.3002 16.5007 14.6668 16.0423 14.6668 15.584V13.4757C16.3168 12.284 17.4168 10.359 17.4168 8.25065C17.4168 4.67565 14.5752 1.83398 11.0002 1.83398Z" fill="#365650"/>
</svg>
