<svg width="24" height="24" viewBox="0 0 24 24" fill="none" xmlns="http://www.w3.org/2000/svg">
<path d="M12 2C5.92397 2 1 5.84453 1 10.5849C1 13.5979 2.99254 16.2473 6.00186 17.7799L4.96664 21.998L9.92751 19.0132C10.6134 19.1159 11.3062 19.1676 12 19.1678C18.076 19.1678 23 15.3233 23 10.5829C23 5.84252 18.076 2 12 2Z" fill="#666666"/>
<path d="M7.45533 8.13239H4.22872C4.10966 8.13239 3.99546 8.17874 3.91127 8.26124C3.82708 8.34373 3.77979 8.45561 3.77979 8.57228C3.77979 8.68894 3.82708 8.80084 3.91127 8.88333C3.99546 8.96583 4.10966 9.01217 4.22872 9.01217H5.37464V12.7362C5.3684 12.8029 5.37643 12.8702 5.39822 12.9337C5.42001 12.9972 5.45507 13.0556 5.50117 13.1051C5.54728 13.1546 5.6034 13.1941 5.66597 13.2212C5.72855 13.2482 5.79618 13.2622 5.86457 13.2622C5.93297 13.2622 6.00061 13.2482 6.06318 13.2212C6.12575 13.1941 6.18188 13.1546 6.22798 13.1051C6.27408 13.0556 6.30914 12.9972 6.33093 12.9337C6.35272 12.8702 6.36075 12.8029 6.35451 12.7362V9.01217H7.45533C7.5744 9.01217 7.68859 8.96583 7.77278 8.88333C7.85697 8.80084 7.90427 8.68894 7.90427 8.57228C7.90427 8.45561 7.85697 8.34373 7.77278 8.26124C7.68859 8.17874 7.5744 8.13239 7.45533 8.13239Z" fill="white"/>
<path d="M11.8547 12.5253L10.0097 8.45575C9.94994 8.35984 9.87202 8.27598 9.78015 8.20868C9.75764 8.19137 9.73281 8.17718 9.70635 8.16651C9.6493 8.1414 9.58747 8.12842 9.52493 8.12842C9.46239 8.12842 9.40056 8.1414 9.34351 8.16651C9.31639 8.17713 9.29087 8.19132 9.26766 8.20868C9.17431 8.27436 9.09608 8.35854 9.03807 8.45575L7.19312 12.5273C7.13268 12.6532 7.12459 12.7973 7.17057 12.929C7.19093 12.9911 7.22447 13.0482 7.26899 13.0967C7.31351 13.1451 7.36799 13.1838 7.42886 13.2102C7.48876 13.2367 7.55376 13.2504 7.6195 13.2504C7.72302 13.2475 7.8235 13.2155 7.90893 13.1581C7.99436 13.1008 8.06112 13.0205 8.10124 12.927L8.43538 12.1898H10.635L10.9691 12.927C11.0094 13.0208 11.0765 13.1013 11.1623 13.1586C11.2481 13.216 11.349 13.2479 11.4529 13.2504C11.518 13.2502 11.5822 13.2365 11.6415 13.2102C11.7024 13.1838 11.7569 13.1451 11.8014 13.0967C11.8459 13.0482 11.8794 12.9911 11.8998 12.929C11.9394 12.7938 11.9232 12.6488 11.8547 12.5253ZM8.76338 11.4084L9.50546 9.75735L10.2537 11.4064L8.76338 11.4084Z" fill="white"/>
<path d="M15.4728 12.4268H13.2834V8.73094C13.2878 8.66407 13.2781 8.59704 13.255 8.53398C13.2319 8.47091 13.1959 8.41316 13.1491 8.36429C13.1023 8.31542 13.0458 8.27647 12.983 8.24984C12.9203 8.22322 12.8526 8.20947 12.7843 8.20947C12.7159 8.20947 12.6482 8.22322 12.5855 8.24984C12.5227 8.27647 12.4662 8.31542 12.4194 8.36429C12.3726 8.41316 12.3366 8.47091 12.3135 8.53398C12.2904 8.59704 12.2807 8.66407 12.2851 8.73094V12.8185C12.2782 12.883 12.2864 12.9481 12.309 13.009C12.3317 13.0699 12.3683 13.1249 12.4159 13.1698C12.4636 13.2147 12.521 13.2484 12.584 13.2683C12.6469 13.2882 12.7137 13.2937 12.7791 13.2845H15.4687C15.5796 13.2771 15.6834 13.2287 15.7593 13.1491C15.8352 13.0695 15.8774 12.9646 15.8774 12.8557C15.8774 12.7468 15.8352 12.6419 15.7593 12.5623C15.6834 12.4827 15.5796 12.4343 15.4687 12.4268H15.4728Z" fill="white"/>
<path d="M20.0849 12.3485L18.49 10.376L19.72 9.15676C19.9783 8.90166 20.0316 8.54211 19.8409 8.3533C19.7626 8.28031 19.658 8.2406 19.5499 8.24283C19.351 8.25246 19.164 8.33831 19.0292 8.48186L17.2949 10.2032V8.78315C17.3078 8.70587 17.3033 8.62676 17.2819 8.55132C17.2604 8.47589 17.2225 8.40592 17.1708 8.34627C17.119 8.28661 17.0546 8.23869 16.9821 8.20583C16.9095 8.17297 16.8306 8.15594 16.7507 8.15594C16.6707 8.15594 16.5918 8.17297 16.5192 8.20583C16.4467 8.23869 16.3823 8.28661 16.3305 8.34627C16.2788 8.40592 16.2409 8.47589 16.2194 8.55132C16.198 8.62676 16.1935 8.70587 16.2064 8.78315V12.6799C16.1935 12.7572 16.198 12.8363 16.2194 12.9117C16.2409 12.9872 16.2788 13.0571 16.3305 13.1168C16.3823 13.1764 16.4467 13.2244 16.5192 13.2572C16.5918 13.2901 16.6707 13.3071 16.7507 13.3071C16.8306 13.3071 16.9095 13.2901 16.9821 13.2572C17.0546 13.2244 17.119 13.1764 17.1708 13.1168C17.2225 13.0571 17.2604 12.9872 17.2819 12.9117C17.3033 12.8363 17.3078 12.7572 17.2949 12.6799V11.5651L17.7725 11.0891L19.2895 12.9631C19.349 13.0418 19.4258 13.1065 19.5141 13.1523C19.6024 13.1982 19.7001 13.2242 19.7999 13.2283C19.9008 13.229 19.999 13.1965 20.0787 13.1359C20.1325 13.0921 20.1757 13.0371 20.2052 12.9749C20.2346 12.9127 20.2495 12.8449 20.2489 12.7763C20.2457 12.6196 20.1878 12.4686 20.0849 12.3485Z" fill="white"/>
</svg>
