<svg width="14" height="14" viewBox="0 0 14 14" fill="none" xmlns="http://www.w3.org/2000/svg">
<path d="M1.51331 11.4874C1.22456 11.4874 0.977057 11.3774 0.757057 11.162C0.541641 10.9466 0.431641 10.6945 0.431641 10.4057V1.5553C0.431641 1.25738 0.541641 1.0053 0.757057 0.789883C0.972474 0.579049 1.22456 0.473633 1.51331 0.473633H10.3637C10.6616 0.473633 10.9137 0.579049 11.1291 0.789883C11.34 1.00072 11.4454 1.25738 11.4454 1.5553V10.4057C11.4454 10.6945 11.34 10.942 11.1291 11.162C10.9183 11.3774 10.6616 11.4874 10.3637 11.4874H1.51331Z" fill="white"/>
<path d="M3.09943 13.5274C2.93901 13.5274 2.81068 13.477 2.70984 13.3762C2.60901 13.2753 2.55859 13.147 2.55859 12.9866C2.55859 12.8262 2.60901 12.6978 2.70984 12.597C2.81068 12.4962 2.93901 12.4458 3.09943 12.4458H12.4907V3.05451C12.4907 2.89409 12.5411 2.76576 12.6419 2.66492C12.7428 2.56409 12.8711 2.51367 13.0315 2.51367C13.1919 2.51367 13.3203 2.56409 13.4211 2.66492C13.5219 2.76576 13.5723 2.89409 13.5723 3.05451V12.4458C13.5723 12.7437 13.4669 12.9958 13.2561 13.2112C13.0453 13.422 12.7886 13.5274 12.4907 13.5274H3.09943Z" fill="white"/>
</svg>
