<svg width="61" height="53" viewBox="0 0 61 53" fill="none" xmlns="http://www.w3.org/2000/svg">
<path d="M47.0338 31.8342V2.43424C47.0338 1.50091 46.3005 0.767578 45.3671 0.767578H1.80046C0.867122 0.767578 0.133789 1.50091 0.133789 2.43424V39.1676C0.133789 39.8009 0.500456 40.4009 1.06712 40.6676C1.30046 40.7676 1.53379 40.8342 1.80046 40.8342C2.16712 40.8342 2.53379 40.7009 2.83379 40.4676L11.5005 33.5009H45.3671C46.2671 33.5009 47.0338 32.7676 47.0338 31.8342ZM43.7005 28.8342C43.7005 29.5676 43.1005 30.1676 42.3671 30.1676H10.9005C10.5338 30.1676 10.1338 30.3009 9.86712 30.5342L4.63379 34.7676C4.16712 35.1342 3.46712 34.8009 3.46712 34.2009V5.40091C3.46712 4.70091 4.03379 4.13425 4.73379 4.13425H42.5338C43.1671 4.13425 43.7005 4.66758 43.7005 5.30091V28.8342Z" fill="#599270" fill-opacity="0.3"/>
<path d="M59.2006 11.0684H51.4339C50.5006 11.0684 49.7673 11.8017 49.7673 12.735C49.7673 13.6684 50.5006 14.4017 51.4339 14.4017H56.1339C56.9006 14.4017 57.5339 15.035 57.5339 15.8017V45.035C57.5339 45.6684 56.8006 45.9684 56.3339 45.5684L51.4339 41.2017C51.1339 40.935 50.7339 40.7684 50.3339 40.7684H19.1339C18.3673 40.7684 18.4339 40.0684 18.4339 40.0684V37.435C18.4339 36.5017 17.7006 35.7684 16.7673 35.7684C15.8339 35.7684 15.1006 36.5017 15.1006 37.435V42.435C15.1006 43.3684 15.8339 44.1017 16.7673 44.1017H49.6673L58.0673 51.5684C58.3673 51.835 58.7673 52.0017 59.1673 52.0017C59.4006 52.0017 59.6339 51.9684 59.8673 51.8684C60.4673 51.6017 60.8339 51.0017 60.8339 50.335V12.735C60.8673 11.8017 60.1006 11.0684 59.2006 11.0684Z" fill="#599270" fill-opacity="0.3"/>
<path d="M23.2336 21.2012C22.7669 21.2012 22.2669 21.4012 21.9336 21.7345C21.6003 22.0678 21.4336 22.5012 21.4336 22.9678C21.4336 23.4345 21.6003 23.9012 21.9336 24.2345C22.2669 24.5678 22.7336 24.7678 23.2336 24.7678C24.2003 24.7678 25.0336 23.9678 25.0336 22.9678C25.0336 22.0012 24.2336 21.2012 23.2336 21.2012Z" fill="#599270" fill-opacity="0.3"/>
<path d="M23.5674 9.5C20.7341 9.5 18.8674 11.1667 18.8008 13.7667C18.8008 13.8333 18.8341 13.9 18.8674 13.9667C18.9008 14.0333 18.9674 14.0333 19.0341 14.0333H21.5341C21.6674 14.0333 21.7674 13.9333 21.8008 13.8C21.8674 12.5333 22.8008 12.1 23.5674 12.1C24.5674 12.1 25.2674 12.7333 25.2674 13.6667C25.2674 14.4333 24.8341 15.0333 23.8674 15.6333C22.5008 16.5 21.8008 17.4 21.7674 19.9333V20.1C21.7674 20.2333 21.8674 20.3667 22.0341 20.3667H24.3341C24.4674 20.3667 24.6008 20.2667 24.6008 20.1V19.9333C24.6341 18.6 25.0008 17.9667 26.1341 17.2667C27.6341 16.3667 28.3674 15.1667 28.3674 13.6C28.3341 11.1667 26.4341 9.5 23.5674 9.5Z" fill="#599270" fill-opacity="0.3"/>
</svg>
