<svg width="116" height="116" viewBox="0 0 116 116" fill="none" xmlns="http://www.w3.org/2000/svg">
<path d="M81.2482 70.8084V28.1784C81.2482 26.8251 80.1848 25.7617 78.8315 25.7617H15.6598C14.3065 25.7617 13.2432 26.8251 13.2432 28.1784V81.4417C13.2432 82.3601 13.7748 83.23 14.5965 83.6167C14.9348 83.7617 15.2732 83.8584 15.6598 83.8584C16.1915 83.8584 16.7232 83.665 17.1582 83.3267L29.7248 73.225H78.8315C80.1365 73.225 81.2482 72.1617 81.2482 70.8084ZM76.4148 66.4584C76.4148 67.5217 75.5448 68.3917 74.4815 68.3917H28.8548C28.3232 68.3917 27.7432 68.5851 27.3565 68.9234L19.7682 75.0617C19.0915 75.5934 18.0765 75.11 18.0765 74.24V32.4801C18.0765 31.4651 18.8982 30.6434 19.9132 30.6434H74.7232C75.6415 30.6434 76.4148 31.4167 76.4148 32.3351V66.4584Z" fill="#599270" fill-opacity="0.3"/>
<path d="M98.8903 40.6968H87.6286C86.2753 40.6968 85.212 41.7601 85.212 43.1134C85.212 44.4668 86.2753 45.5301 87.6286 45.5301H94.4437C95.5553 45.5301 96.4736 46.4484 96.4736 47.5601V89.9484C96.4736 90.8668 95.4103 91.3018 94.7337 90.7218L87.6286 84.3901C87.1936 84.0034 86.6136 83.7618 86.0336 83.7618H40.7936C39.682 83.7618 39.7786 82.7468 39.7786 82.7468V78.9284C39.7786 77.5751 38.7153 76.5118 37.362 76.5118C36.0086 76.5118 34.9453 77.5751 34.9453 78.9284V86.1784C34.9453 87.5318 36.0086 88.5951 37.362 88.5951H85.067L97.247 99.4218C97.682 99.8084 98.262 100.05 98.842 100.05C99.1803 100.05 99.5186 100.002 99.857 99.8568C100.727 99.4701 101.259 98.6001 101.259 97.6334V43.1134C101.307 41.7601 100.195 40.6968 98.8903 40.6968Z" fill="#599270" fill-opacity="0.3"/>
<path d="M46.7379 55.3901C46.0613 55.3901 45.3363 55.6801 44.8529 56.1635C44.3696 56.6468 44.1279 57.2751 44.1279 57.9518C44.1279 58.6285 44.3696 59.3051 44.8529 59.7885C45.3363 60.2718 46.0129 60.5618 46.7379 60.5618C48.1396 60.5618 49.3479 59.4018 49.3479 57.9518C49.3479 56.5501 48.1879 55.3901 46.7379 55.3901Z" fill="#599270" fill-opacity="0.3"/>
<path d="M47.2212 38.4253C43.1129 38.4253 40.4062 40.842 40.3096 44.612C40.3096 44.7086 40.3579 44.8053 40.4062 44.902C40.4546 44.9986 40.5512 44.9986 40.6479 44.9986H44.2729C44.4662 44.9986 44.6112 44.8536 44.6596 44.6603C44.7562 42.8236 46.1096 42.1953 47.2212 42.1953C48.6712 42.1953 49.6862 43.1136 49.6862 44.467C49.6862 45.5786 49.0579 46.4486 47.6562 47.3186C45.6746 48.5753 44.6596 49.8803 44.6112 53.5536V53.7953C44.6112 53.9886 44.7562 54.182 44.9979 54.182H48.3329C48.5262 54.182 48.7196 54.037 48.7196 53.7953V53.5536C48.7679 51.6203 49.2996 50.702 50.9429 49.687C53.1179 48.382 54.1812 46.642 54.1812 44.3703C54.1329 40.842 51.3779 38.4253 47.2212 38.4253Z" fill="#599270" fill-opacity="0.3"/>
</svg>
