<svg width="50" height="50" viewBox="0 0 50 50" fill="none" xmlns="http://www.w3.org/2000/svg">
<path d="M35.0208 30.5207V12.1457C35.0208 11.5623 34.5625 11.104 33.9791 11.104H6.74998C6.16665 11.104 5.70831 11.5623 5.70831 12.1457V35.104C5.70831 35.4998 5.93748 35.8748 6.29165 36.0415C6.43748 36.104 6.58331 36.1457 6.74998 36.1457C6.97915 36.1457 7.20831 36.0623 7.39581 35.9165L12.8125 31.5623H33.9791C34.5416 31.5623 35.0208 31.104 35.0208 30.5207ZM32.9375 28.6457C32.9375 29.104 32.5625 29.479 32.1041 29.479H12.4375C12.2083 29.479 11.9583 29.5623 11.7916 29.7082L8.52081 32.354C8.22915 32.5832 7.79165 32.3748 7.79165 31.9998V13.9998C7.79165 13.5623 8.14581 13.2082 8.58331 13.2082H32.2083C32.6041 13.2082 32.9375 13.5415 32.9375 13.9373V28.6457Z" fill="#599270"/>
<path d="M42.625 17.5415H37.7708C37.1875 17.5415 36.7292 17.9998 36.7292 18.5832C36.7292 19.1665 37.1875 19.6248 37.7708 19.6248H40.7083C41.1875 19.6248 41.5833 20.0207 41.5833 20.4998V38.7707C41.5833 39.1665 41.125 39.354 40.8333 39.104L37.7708 36.3748C37.5833 36.2082 37.3333 36.104 37.0833 36.104H17.5833C17.1042 36.104 17.1458 35.6665 17.1458 35.6665V34.0207C17.1458 33.4373 16.6875 32.979 16.1042 32.979C15.5208 32.979 15.0625 33.4373 15.0625 34.0207V37.1457C15.0625 37.729 15.5208 38.1873 16.1042 38.1873H36.6667L41.9167 42.854C42.1042 43.0207 42.3542 43.1248 42.6042 43.1248C42.75 43.1248 42.8958 43.104 43.0417 43.0415C43.4167 42.8748 43.6458 42.4998 43.6458 42.0832V18.5832C43.6667 17.9998 43.1875 17.5415 42.625 17.5415Z" fill="#599270"/>
<path d="M20.1458 23.875C19.8541 23.875 19.5416 24 19.3333 24.2083C19.125 24.4167 19.0208 24.6875 19.0208 24.9792C19.0208 25.2708 19.125 25.5625 19.3333 25.7708C19.5416 25.9792 19.8333 26.1042 20.1458 26.1042C20.75 26.1042 21.2708 25.6042 21.2708 24.9792C21.2708 24.375 20.7708 23.875 20.1458 23.875Z" fill="#599270"/>
<path d="M20.3542 16.5625C18.5833 16.5625 17.4167 17.6042 17.375 19.2292C17.375 19.2708 17.3958 19.3125 17.4167 19.3542C17.4375 19.3958 17.4792 19.3958 17.5208 19.3958H19.0833C19.1667 19.3958 19.2292 19.3333 19.25 19.25C19.2917 18.4583 19.875 18.1875 20.3542 18.1875C20.9792 18.1875 21.4167 18.5833 21.4167 19.1667C21.4167 19.6458 21.1458 20.0208 20.5417 20.3958C19.6875 20.9375 19.25 21.5 19.2292 23.0833V23.1875C19.2292 23.2708 19.2917 23.3542 19.3958 23.3542H20.8333C20.9167 23.3542 21 23.2917 21 23.1875V23.0833C21.0208 22.25 21.25 21.8542 21.9583 21.4167C22.8958 20.8542 23.3542 20.1042 23.3542 19.125C23.3333 17.6042 22.1458 16.5625 20.3542 16.5625Z" fill="#599270"/>
</svg>
