<svg width="24" height="24" viewBox="0 0 24 24" fill="none" xmlns="http://www.w3.org/2000/svg">
<path d="M19.14 12.9364C19.176 12.6364 19.2 12.3244 19.2 12.0004C19.2 11.6764 19.176 11.3644 19.128 11.0644L21.156 9.48039C21.336 9.33639 21.384 9.07239 21.276 8.86839L19.356 5.54439C19.236 5.32839 18.984 5.25639 18.768 5.32839L16.38 6.28839C15.876 5.90439 15.348 5.59239 14.76 5.35239L14.4 2.80839C14.364 2.56839 14.16 2.40039 13.92 2.40039H10.08C9.83998 2.40039 9.64799 2.56839 9.61199 2.80839L9.25199 5.35239C8.66398 5.59239 8.12399 5.91639 7.63199 6.28839L5.24398 5.32839C5.02798 5.24439 4.77598 5.32839 4.65598 5.54439L2.73598 8.86839C2.61598 9.08439 2.66398 9.33639 2.85598 9.48039L4.88398 11.0644C4.83598 11.3644 4.79998 11.6884 4.79998 12.0004C4.79998 12.3124 4.82398 12.6364 4.87198 12.9364L2.84398 14.5204C2.66398 14.6644 2.61598 14.9284 2.72398 15.1324L4.64398 18.4564C4.76398 18.6724 5.01598 18.7444 5.23198 18.6724L7.61998 17.7124C8.12398 18.0964 8.65198 18.4084 9.23998 18.6484L9.59999 21.1924C9.64798 21.4324 9.83998 21.6004 10.08 21.6004H13.92C14.16 21.6004 14.364 21.4324 14.388 21.1924L14.748 18.6484C15.336 18.4084 15.876 18.0844 16.368 17.7124L18.756 18.6724C18.972 18.7564 19.224 18.6724 19.344 18.4564L21.264 15.1324C21.384 14.9164 21.336 14.6644 21.144 14.5204L19.14 12.9364ZM12 15.6004C10.02 15.6004 8.39998 13.9804 8.39998 12.0004C8.39998 10.0204 10.02 8.40039 12 8.40039C13.98 8.40039 15.6 10.0204 15.6 12.0004C15.6 13.9804 13.98 15.6004 12 15.6004Z" fill="#BABABA"/>
</svg>
