<svg width="20" height="20" viewBox="0 0 20 20" fill="none" xmlns="http://www.w3.org/2000/svg">
<path d="M12.9167 9.16602C13.6071 9.16602 14.1667 8.60637 14.1667 7.91602C14.1667 7.22566 13.6071 6.66602 12.9167 6.66602C12.2264 6.66602 11.6667 7.22566 11.6667 7.91602C11.6667 8.60637 12.2264 9.16602 12.9167 9.16602Z" fill="#666666"/>
<path d="M7.08325 9.16602C7.77361 9.16602 8.33325 8.60637 8.33325 7.91602C8.33325 7.22566 7.77361 6.66602 7.08325 6.66602C6.3929 6.66602 5.83325 7.22566 5.83325 7.91602C5.83325 8.60637 6.3929 9.16602 7.08325 9.16602Z" fill="#666666"/>
<path d="M9.99175 1.66602C5.39175 1.66602 1.66675 5.39935 1.66675 9.99935C1.66675 14.5993 5.39175 18.3327 9.99175 18.3327C14.6001 18.3327 18.3334 14.5993 18.3334 9.99935C18.3334 5.39935 14.6001 1.66602 9.99175 1.66602ZM10.0001 16.666C6.31675 16.666 3.33341 13.6827 3.33341 9.99935C3.33341 6.31602 6.31675 3.33268 10.0001 3.33268C13.6834 3.33268 16.6667 6.31602 16.6667 9.99935C16.6667 13.6827 13.6834 16.666 10.0001 16.666ZM10.0001 13.3327C9.39175 13.3327 8.85008 13.1827 8.36675 12.8993C8.26675 13.016 7.65008 13.716 7.52508 13.8577C8.24175 14.316 9.08342 14.5827 10.0001 14.5827C10.9251 14.5827 11.7667 14.3077 12.4834 13.8493C11.6751 12.941 12.4751 13.8327 11.6417 12.891C11.1501 13.1827 10.6084 13.3327 10.0001 13.3327Z" fill="#666666"/>
</svg>
