<svg width="16" height="16" viewBox="0 0 16 16" fill="none" xmlns="http://www.w3.org/2000/svg">
<path d="M8 0.726562C3.58107 0.726562 0 3.52258 0 6.97014C0 9.16138 1.44912 11.0882 3.63772 12.2028L2.88483 15.2706L6.49273 13.0998C6.99153 13.1745 7.4954 13.2121 8 13.2123C12.4189 13.2123 16 10.4162 16 6.96868C16 3.52112 12.4189 0.726562 8 0.726562Z" fill="#181600"/>
<path d="M4.69461 5.18652H2.34798C2.26139 5.18652 2.17834 5.22024 2.11711 5.28023C2.05588 5.34023 2.02148 5.4216 2.02148 5.50644C2.02148 5.59129 2.05588 5.67267 2.11711 5.73267C2.17834 5.79266 2.26139 5.82637 2.34798 5.82637H3.18138V8.53475C3.17684 8.58328 3.18268 8.63221 3.19853 8.6784C3.21437 8.7246 3.23987 8.76705 3.2734 8.80305C3.30693 8.83905 3.34775 8.86781 3.39326 8.88748C3.43876 8.90715 3.48796 8.91731 3.5377 8.91731C3.58743 8.91731 3.63663 8.90715 3.68214 8.88748C3.72764 8.86781 3.76846 8.83905 3.80199 8.80305C3.83552 8.76705 3.86102 8.7246 3.87686 8.6784C3.89271 8.63221 3.89855 8.58328 3.89402 8.53475V5.82637H4.69461C4.7812 5.82637 4.86425 5.79266 4.92548 5.73267C4.98671 5.67267 5.02111 5.59129 5.02111 5.50644C5.02111 5.4216 4.98671 5.34023 4.92548 5.28023C4.86425 5.22024 4.7812 5.18652 4.69461 5.18652Z" fill="#181600"/>
<path d="M7.89437 8.38129L6.55258 5.42166C6.50909 5.3519 6.45242 5.29091 6.38561 5.24197C6.36924 5.22938 6.35118 5.21906 6.33194 5.2113C6.29045 5.19304 6.24548 5.18359 6.19999 5.18359C6.15451 5.18359 6.10954 5.19304 6.06805 5.2113C6.04833 5.21902 6.02977 5.22934 6.01289 5.24197C5.94499 5.28973 5.88811 5.35096 5.84591 5.42166L4.50413 8.38275C4.46018 8.47436 4.45429 8.57913 4.48773 8.67491C4.50254 8.72006 4.52693 8.76163 4.55931 8.79688C4.59169 8.83213 4.63131 8.86026 4.67558 8.87943C4.71914 8.89874 4.76642 8.9087 4.81423 8.90865C4.88951 8.90656 4.96259 8.88326 5.02472 8.84156C5.08685 8.79985 5.13541 8.74149 5.16458 8.67346L5.4076 8.13733H7.0073L7.25031 8.67346C7.2796 8.74171 7.32838 8.80021 7.3908 8.84194C7.45322 8.88366 7.52662 8.90683 7.60216 8.90865C7.64947 8.90854 7.69623 8.89858 7.73932 8.87943C7.78359 8.86026 7.82321 8.83213 7.85559 8.79688C7.88796 8.76163 7.91236 8.72006 7.92716 8.67491C7.95594 8.57661 7.94416 8.47117 7.89437 8.38129ZM5.64614 7.56907L6.18583 6.36827L6.73 7.56761L5.64614 7.56907Z" fill="#181600"/>
<path d="M10.5256 8.31033H8.93335V5.62241C8.93653 5.57378 8.92951 5.52503 8.9127 5.47917C8.8959 5.4333 8.86967 5.3913 8.83565 5.35576C8.80163 5.32022 8.76053 5.29189 8.7149 5.27253C8.66926 5.25316 8.62006 5.24316 8.57032 5.24316C8.52059 5.24316 8.47139 5.25316 8.42575 5.27253C8.38012 5.29189 8.33902 5.32022 8.30499 5.35576C8.27097 5.3913 8.24475 5.4333 8.22795 5.47917C8.21114 5.52503 8.20412 5.57378 8.2073 5.62241V8.59519C8.20227 8.64206 8.20823 8.68944 8.22471 8.73372C8.2412 8.77799 8.26778 8.81799 8.30243 8.85068C8.33708 8.88336 8.37889 8.90786 8.42467 8.92232C8.47045 8.93678 8.51899 8.94081 8.5666 8.93411H10.5226C10.6033 8.92869 10.6788 8.89349 10.734 8.83559C10.7892 8.7777 10.8199 8.70143 10.8199 8.62222C10.8199 8.543 10.7892 8.46675 10.734 8.40885C10.6788 8.35096 10.6033 8.31574 10.5226 8.31033H10.5256Z" fill="#181600"/>
<path d="M13.8801 8.25322L12.7202 6.81869L13.6148 5.93197C13.8026 5.74644 13.8414 5.48495 13.7027 5.34763C13.6457 5.29455 13.5696 5.26567 13.491 5.26729C13.3464 5.27429 13.2104 5.33673 13.1123 5.44113L11.8511 6.69305V5.66025C11.8604 5.60404 11.8572 5.54651 11.8416 5.49165C11.826 5.43679 11.7984 5.3859 11.7608 5.34252C11.7231 5.29913 11.6763 5.26428 11.6235 5.24038C11.5708 5.21648 11.5134 5.2041 11.4552 5.2041C11.3971 5.2041 11.3397 5.21648 11.2869 5.24038C11.2342 5.26428 11.1874 5.29913 11.1497 5.34252C11.1121 5.3859 11.0845 5.43679 11.0689 5.49165C11.0533 5.54651 11.0501 5.60404 11.0594 5.66025V8.49425C11.0501 8.55046 11.0533 8.60799 11.0689 8.66285C11.0845 8.71771 11.1121 8.76861 11.1497 8.81199C11.1874 8.85538 11.2342 8.89023 11.2869 8.91413C11.3397 8.93803 11.3971 8.95041 11.4552 8.95041C11.5134 8.95041 11.5708 8.93803 11.6235 8.91413C11.6763 8.89023 11.7231 8.85538 11.7608 8.81199C11.7984 8.76861 11.826 8.71771 11.8416 8.66285C11.8572 8.60799 11.8604 8.55046 11.8511 8.49425V7.6835L12.1984 7.33728L13.3017 8.70024C13.345 8.75747 13.4008 8.80448 13.465 8.83785C13.5292 8.87121 13.6003 8.89008 13.6729 8.89307C13.7463 8.89363 13.8177 8.86995 13.8757 8.82587C13.9148 8.794 13.9462 8.75401 13.9676 8.70878C13.989 8.66355 13.9999 8.61423 13.9994 8.56438C13.9971 8.45036 13.955 8.34056 13.8801 8.25322Z" fill="#181600"/>
</svg>
