<svg width="50" height="50" viewBox="0 0 50 50" fill="none" xmlns="http://www.w3.org/2000/svg">
<path d="M25 35.3125C19.3125 35.3125 14.6875 30.6875 14.6875 25C14.6875 19.3125 19.3125 14.6875 25 14.6875C30.6875 14.6875 35.3125 19.3125 35.3125 25C35.3125 30.6875 30.6875 35.3125 25 35.3125ZM25 16.7708C20.4583 16.7708 16.7708 20.4583 16.7708 25C16.7708 29.5417 20.4583 33.2292 25 33.2292C29.5417 33.2292 33.2292 29.5417 33.2292 25C33.2292 20.4583 29.5417 16.7708 25 16.7708Z" fill="#599270"/>
<path d="M25 10.771C24.4166 10.771 23.9583 10.3127 23.9583 9.72933V7.50016C23.9583 6.91683 24.4166 6.4585 25 6.4585C25.5833 6.4585 26.0416 6.91683 26.0416 7.50016V9.72933C26.0416 10.2918 25.5833 10.771 25 10.771Z" fill="#599270"/>
<path d="M25 43.542C24.4166 43.542 23.9583 43.0837 23.9583 42.5003V40.2712C23.9583 39.6878 24.4166 39.2295 25 39.2295C25.5833 39.2295 26.0416 39.6878 26.0416 40.2712V42.5003C26.0416 43.0837 25.5833 43.542 25 43.542Z" fill="#599270"/>
<path d="M14.1875 15.2292C13.9167 15.2292 13.6458 15.125 13.4583 14.9167L11.875 13.3542C11.4583 12.9375 11.4583 12.2917 11.875 11.875C12.2917 11.4583 12.9375 11.4583 13.3542 11.875L14.9375 13.4583C15.3542 13.875 15.3542 14.5208 14.9375 14.9375C14.7292 15.1458 14.4583 15.2292 14.1875 15.2292Z" fill="#599270"/>
<path d="M37.375 38.4165C37.1042 38.4165 36.8333 38.3123 36.6458 38.104L35.0625 36.5207C34.6458 36.104 34.6458 35.4582 35.0625 35.0415C35.4792 34.6248 36.125 34.6248 36.5417 35.0415L38.125 36.6248C38.5417 37.0415 38.5417 37.6873 38.125 38.104C37.9167 38.3123 37.6458 38.4165 37.375 38.4165Z" fill="#599270"/>
<path d="M9.72915 26.0418H7.49998C6.91665 26.0418 6.45831 25.5835 6.45831 25.0002C6.45831 24.4168 6.91665 23.9585 7.49998 23.9585H9.72915C10.3125 23.9585 10.7708 24.4168 10.7708 25.0002C10.7708 25.5835 10.2916 26.0418 9.72915 26.0418Z" fill="#599270"/>
<path d="M42.5 26.0418H40.2708C39.6875 26.0418 39.2291 25.5835 39.2291 25.0002C39.2291 24.4168 39.6875 23.9585 40.2708 23.9585H42.5C43.0833 23.9585 43.5416 24.4168 43.5416 25.0002C43.5416 25.5835 43.0833 26.0418 42.5 26.0418Z" fill="#599270"/>
<path d="M12.625 38.417C12.3541 38.417 12.0833 38.3128 11.8958 38.1045C11.4791 37.6878 11.4791 37.042 11.8958 36.6253L13.4791 35.042C13.8958 34.6253 14.5416 34.6253 14.9583 35.042C15.375 35.4587 15.375 36.1045 14.9583 36.5212L13.3541 38.1253C13.1458 38.3128 12.8958 38.417 12.625 38.417Z" fill="#599270"/>
<path d="M35.8125 15.2295C35.5416 15.2295 35.2708 15.1253 35.0833 14.917C34.6666 14.5003 34.6666 13.8545 35.0833 13.4378L36.6666 11.8545C37.0833 11.4378 37.7291 11.4378 38.1458 11.8545C38.5625 12.2712 38.5625 12.917 38.1458 13.3337L36.5625 14.917C36.3333 15.1462 36.0625 15.2295 35.8125 15.2295Z" fill="#599270"/>
</svg>
