<svg width="15" height="15" viewBox="0 0 15 15" fill="none" xmlns="http://www.w3.org/2000/svg">
<path d="M13.0549 4.42894L6.80486 10.6789C6.56111 10.9227 6.16736 10.9227 5.92361 10.6789L4.15486 8.91019C3.91111 8.66644 3.91111 8.27268 4.15486 8.02893C4.39861 7.78518 4.79236 7.78518 5.03611 8.02893L6.36111 9.35394L12.1674 3.54769C12.4111 3.30394 12.8049 3.30394 13.0486 3.54769C13.2986 3.79144 13.2986 4.18518 13.0549 4.42894ZM9.60486 2.46019C8.54861 2.02894 7.34861 1.87894 6.09861 2.10394C3.55486 2.56019 1.52361 4.61019 1.09236 7.15393C0.379862 11.3727 3.89236 14.9852 8.08611 14.4414C10.5611 14.1227 12.6361 12.2789 13.2861 9.87268C13.5361 8.95394 13.5611 8.06643 13.4174 7.23519C13.3361 6.73519 12.7174 6.54143 12.3549 6.89769C12.2111 7.04143 12.1486 7.25393 12.1861 7.45393C12.3236 8.28518 12.2611 9.17268 11.8611 10.1164C11.1361 11.8102 9.56111 13.0539 7.72986 13.2227C4.54236 13.5164 1.89861 10.8164 2.29236 7.61018C2.56111 5.39769 4.34236 3.59769 6.54861 3.29144C7.62986 3.14144 8.65486 3.34769 9.52986 3.79769C9.77361 3.92269 10.0674 3.87893 10.2611 3.68518C10.5611 3.38519 10.4861 2.87894 10.1111 2.68519C9.94236 2.61019 9.77361 2.52894 9.60486 2.46019Z" fill="#969696"/>
</svg>
