<svg width="50" height="50" viewBox="0 0 50 50" fill="none" xmlns="http://www.w3.org/2000/svg">
<path d="M47.1875 34.854L46.0208 29.1873C45.8958 28.6248 45.3542 28.2498 44.7917 28.3748C44.2708 28.479 43.9375 28.9582 43.9792 29.479H43.9583C43.9583 29.479 43.9792 29.6457 43.7917 29.6248L33.8125 29.6457C33.4583 29.6457 33.2292 29.2707 33.3958 28.9582L35.9375 23.854C35.9375 23.854 36.2083 23.479 36.3958 23.479C36.4167 23.479 36.4375 23.479 36.4583 23.479C36.6667 23.479 36.8542 23.4582 37.0625 23.4165C37.8333 23.2498 38.5 22.8123 38.9375 22.1457L39.6458 21.0623C40.0833 20.3957 40.2292 19.604 40.0833 18.8332C39.9167 18.0623 39.4792 17.3748 38.8125 16.9373L24.5417 7.52068C23.2708 6.68734 21.6042 6.93734 20.625 8.06234C20.6042 8.06234 20.6042 8.06234 20.5833 8.08318C20.2917 8.39568 19.9583 8.16651 19.9583 8.16651L19.9792 8.20818C15.8125 6.12484 10.625 7.37484 8 11.354C5.4375 15.229 6.16667 20.3123 9.47917 23.3748C9.75 23.6248 9.79167 24.0415 9.5625 24.3332L6.66667 27.7498C6 28.5415 5.70833 29.5415 5.85417 30.604C6.02083 31.729 6.66667 32.729 7.625 33.3748L21.6875 42.6665C22.375 43.104 23.1458 43.354 23.9167 43.354C24.25 43.354 24.5833 43.3123 24.9167 43.229C25.9375 42.9582 26.75 42.2915 27.2083 41.3748L28.625 38.5415L44.9375 35.2082C44.9375 35.2082 45.0833 35.1457 45.1458 35.2915V35.3123C45.25 35.8123 45.6875 36.1457 46.1667 36.1457C46.2292 36.1457 46.3125 36.1457 46.375 36.1248C46.9375 35.979 47.2917 35.4165 47.1875 34.854ZM21.4375 10.5832L22.1458 9.49984C22.4167 9.08318 22.9792 8.97901 23.375 9.24984L37.6667 18.6873C37.875 18.8123 38 19.0207 38.0417 19.2498C38.0833 19.479 38.0417 19.729 37.9167 19.9165L37.2083 20.9998C37.0833 21.2082 36.875 21.3332 36.6458 21.3748C36.4167 21.4165 36.1667 21.3748 35.9792 21.2498L28.8333 16.5415L21.6875 11.8332C21.2708 11.5415 21.1667 10.9998 21.4375 10.5832ZM9.72917 12.5207C10.8125 10.8957 12.4583 9.79151 14.3542 9.39568C15.9583 9.06234 17.5625 9.33318 19.0208 10.0415C19.125 10.1248 19.2708 10.3123 19.25 10.6665C19.25 10.7082 19.2708 10.7082 19.2708 10.7498C19.2292 11.1665 19.2292 11.5832 19.3542 11.9998C19.4792 12.3332 19.4583 12.7082 19.2083 12.979L11.7292 21.7498C11.5 22.0207 11.0833 22.0623 10.8333 21.8123C8.29167 19.4582 7.75 15.5207 9.72917 12.5207ZM25.3542 40.4165C25.1667 40.7915 24.8125 41.0832 24.375 41.1873C23.8542 41.3332 23.2917 41.229 22.8125 40.9165L8.75 31.6248C8.27083 31.3123 7.95833 30.8332 7.89583 30.3123C7.83333 29.8748 7.95833 29.4373 8.22917 29.104L20.5417 14.6457C20.5417 14.6457 21.1042 13.9373 21.875 14.4373L22.9792 15.1665L33.625 22.2082C33.9792 22.4373 34.0833 22.8748 33.8958 23.2498L25.3542 40.4165ZM30.1667 35.4165L31.6667 32.3957C31.875 31.979 32.2917 31.729 32.75 31.729L44.0417 31.7082C44.1458 31.7082 44.3542 31.7498 44.4375 31.9582L44.625 32.8748C44.625 32.8748 44.6667 33.0415 44.4375 33.1457L30.6042 35.979C30.2917 36.0415 30.0208 35.7082 30.1667 35.4165Z" fill="#599270"/>
</svg>
