<svg width="50" height="50" viewBox="0 0 50 50" fill="none" xmlns="http://www.w3.org/2000/svg">
<path d="M13.7292 15.9792H30.8958C30.9792 15.9792 31.0417 15.9583 31.125 15.9375C33.5833 15.7083 35.5 13.6667 35.5 11.1458C35.5 8.47917 33.3333 6.3125 30.6667 6.3125C28 6.3125 25.8333 8.47917 25.8333 11.1458C25.8333 11.7292 26.2917 12.1875 26.875 12.1875C27.4583 12.1875 27.9167 11.7292 27.9167 11.1458C27.9167 9.625 29.1458 8.39583 30.6667 8.39583C32.1875 8.39583 33.4167 9.625 33.4167 11.1458C33.4167 12.6667 32.1875 13.8958 30.6667 13.8958H13.7292C13.1458 13.8958 12.6875 14.3542 12.6875 14.9375C12.6875 15.5208 13.1458 15.9792 13.7292 15.9792Z" fill="#599270"/>
<path d="M36.25 30.104C36.1459 30.0832 36.0625 30.0415 35.9584 30.0415H14.25C13.6667 30.0415 13.2084 30.4998 13.2084 31.0832C13.2084 31.6665 13.6667 32.1248 14.25 32.1248H35.6459C37.7292 32.1248 39.4167 33.8123 39.4167 35.8957C39.4167 37.979 37.7292 39.6665 35.6459 39.6665C33.5625 39.6665 31.875 37.979 31.875 35.8957C31.875 35.3123 31.4167 34.854 30.8334 34.854C30.25 34.854 29.7917 35.3123 29.7917 35.8957C29.7917 39.1248 32.4167 41.7498 35.6459 41.7498C38.875 41.7498 41.5 39.1248 41.5 35.8957C41.5209 32.8748 39.1875 30.3957 36.25 30.104Z" fill="#599270"/>
<path d="M21.0625 27.7707C21.1459 27.7707 21.2084 27.7498 21.2917 27.729C23.75 27.4998 25.6667 25.4373 25.6667 22.9373C25.6667 20.2707 23.5 18.104 20.8334 18.104C18.1667 18.104 15.9792 20.2498 15.9792 22.9165C15.9792 23.4998 16.4375 23.9582 17.0209 23.9582C17.6042 23.9582 18.0625 23.4998 18.0625 22.9165C18.0625 21.3957 19.2917 20.1665 20.8125 20.1665C22.3334 20.1665 23.5625 21.3957 23.5625 22.9165C23.5625 24.4373 22.3334 25.6665 20.8125 25.6665H3.89585C3.31252 25.6665 2.85419 26.1248 2.85419 26.7082C2.85419 27.2915 3.31252 27.7498 3.89585 27.7498H21.0625V27.7707Z" fill="#599270"/>
<path d="M47.1458 22.9167C47.1458 20.7917 45.4167 19.0625 43.2917 19.0625C41.1667 19.0625 39.4375 20.7917 39.4375 22.9167C39.4375 23.5 39.8958 23.9583 40.4792 23.9583C41.0625 23.9583 41.5208 23.5 41.5208 22.9167C41.5208 21.9375 42.3125 21.1458 43.2917 21.1458C44.2708 21.1458 45.0625 21.9375 45.0625 22.9167C45.0625 23.8958 44.2708 24.6875 43.2917 24.6875H30.7292C30.1458 24.6875 29.6875 25.1458 29.6875 25.7292C29.6875 26.3125 30.1458 26.7708 30.7292 26.7708H43.4583C43.5208 26.7708 43.5625 26.75 43.625 26.7292C45.6042 26.5625 47.1458 24.9375 47.1458 22.9167Z" fill="#599270"/>
</svg>
