<svg width="21" height="22" viewBox="0 0 21 22" fill="none" xmlns="http://www.w3.org/2000/svg">
<path d="M2 22.0006C1.585 22.0006 1.23 21.8547 0.94 21.5579C0.65 21.2611 0.5 20.9089 0.5 20.4913C0.5 20.0537 0.645 19.6914 0.94 19.3996C1.23 19.1079 1.595 18.9569 2.03 18.9569H19C19.415 18.9569 19.77 19.1028 20.06 19.3996C20.35 19.6914 20.5 20.0486 20.5 20.4662C20.5 20.9039 20.355 21.2661 20.06 21.5579C19.765 21.8497 19.415 22.0006 19 22.0006H2ZM3.3 16.2906C3.085 16.2906 2.905 16.2201 2.76 16.0742C2.62 15.9334 2.55 15.7523 2.55 15.5359V13.2469C2.55 13.1463 2.565 13.0557 2.6 12.9702C2.635 12.8847 2.69 12.8042 2.775 12.7186L11.875 3.56246L15.2 6.90799L6.1 16.0642C6.015 16.1497 5.935 16.205 5.85 16.2403C5.765 16.2755 5.675 16.2906 5.575 16.2906H3.3ZM16.3 5.8012L12.975 2.45567L15.075 0.342704C15.26 0.121345 15.465 0.0106661 15.7 0.00060435C15.935 -0.00945739 16.165 0.106253 16.4 0.337673L18.35 2.29971C18.565 2.51604 18.675 2.74746 18.675 2.99397C18.675 3.23545 18.585 3.46687 18.4 3.68823L16.3 5.8012Z" fill="white"/>
</svg>
