<svg width="50" height="50" viewBox="0 0 50 50" fill="none" xmlns="http://www.w3.org/2000/svg">
<path d="M39.5416 32.1667L36.5832 30.4584C36.5207 30.3959 36.3957 30.2709 36.6249 30.125L39.4582 28.6042C39.6457 28.5 39.7707 28.375 39.8749 28.2084C40.0416 27.9167 40.0624 27.5209 39.8957 27.1875C39.6249 26.6875 38.9999 26.5 38.4791 26.7709L34.6666 28.8125C34.2499 29.0417 33.7082 28.7917 33.6041 28.75L31.8124 27.7084C31.7707 27.6875 31.6041 27.5417 31.7291 27.3542L34.2082 25.9167C34.3749 25.8125 34.4999 25.6875 34.6041 25.5209C34.7082 25.3542 34.7499 25.1875 34.7499 24.9792C34.7499 24.7709 34.6874 24.6042 34.6041 24.4375C34.5207 24.2709 34.3749 24.125 34.2082 24.0417L31.7291 22.6042C31.6041 22.4167 31.7916 22.2709 31.8124 22.25L33.6041 21.2084C33.7082 21.1459 34.2499 20.9167 34.6666 21.1459L38.4791 23.1875C38.9791 23.4584 39.6249 23.2709 39.8957 22.7709C40.0624 22.4375 40.0624 22.0625 39.8749 21.75C39.7707 21.5834 39.6457 21.4375 39.4582 21.3542L36.6249 19.8334C36.3957 19.6875 36.4999 19.5625 36.5832 19.5L39.5416 17.7917C40.0416 17.5 40.2082 16.875 39.9166 16.375L39.8957 16.3542V16.3334C39.6041 15.8334 38.9791 15.6667 38.4791 15.9584L35.5207 17.6667C35.4374 17.7084 35.2707 17.7292 35.2707 17.4584L35.3749 14.25C35.3749 14.0417 35.3332 13.8542 35.2291 13.6875C35.0624 13.3959 34.7291 13.1875 34.3541 13.1667C33.7707 13.1459 33.2916 13.6042 33.2707 14.1667L33.1249 18.4792C33.1041 18.9584 32.6249 19.2917 32.5207 19.3542L30.7291 20.3959C30.6874 20.4167 30.4791 20.5 30.3749 20.2917V17.4792C30.3749 17.2917 30.3124 17.1042 30.2291 16.9375C30.1457 16.7709 29.9999 16.625 29.8332 16.5417C29.6666 16.4584 29.4791 16.3959 29.2916 16.4167C29.1041 16.4167 28.9166 16.4584 28.7499 16.5417L26.2499 18.0209C26.1249 18 26.0832 17.8334 26.0832 17.7084V15.375C26.0832 14.9167 26.4166 14.6459 26.4999 14.5834L30.2082 12.2917C30.6874 11.9792 30.8541 11.3542 30.5416 10.8542C30.2291 10.3542 29.5832 10.2292 29.1041 10.5209L26.5207 12.125C26.4999 12.125 26.4999 12.125 26.4999 12.125C26.1249 12.2709 26.0624 12.0417 26.0624 11.8959V11.8542C26.0624 11.8334 26.0624 11.8125 26.0624 11.8125V8.81254C26.0624 8.22921 25.6041 7.77087 25.0207 7.77087H24.9999H24.9791C24.3957 7.77087 23.9374 8.22921 23.9374 8.81254V11.8125C23.9374 11.8125 23.9374 11.8334 23.9374 11.8542V11.8959C23.9374 12.0209 23.8749 12.2709 23.4999 12.125C23.4791 12.125 23.4791 12.125 23.4791 12.125L20.8957 10.5209C20.4166 10.2084 19.7707 10.3542 19.4582 10.8542C19.1457 11.3542 19.3124 11.9792 19.7916 12.2917L23.4999 14.6042C23.5832 14.6667 23.9166 14.9167 23.9166 15.3959V17.7292C23.9166 17.8334 23.8749 18 23.7499 18.0417L21.1874 16.5625C21.0207 16.4375 20.8332 16.3959 20.6666 16.4167C20.4791 16.4167 20.2916 16.4584 20.1249 16.5417C19.9582 16.625 19.8124 16.7709 19.7291 16.9375C19.6457 17.1042 19.5832 17.2917 19.5832 17.4792V20.4375C19.4999 20.5417 19.3332 20.4792 19.2291 20.4375L17.2082 19.2709C16.7916 19.0417 16.7499 18.625 16.7291 18.5L16.5832 14.125C16.5624 13.5625 16.0832 13.1042 15.5207 13.125C14.9374 13.1459 14.4999 13.625 14.4999 14.2084L14.6041 17.2292C14.6041 17.25 14.6041 17.2292 14.5832 17.25C14.5207 17.6459 14.2916 17.5834 14.1666 17.5209L14.1457 17.5C14.1249 17.5 14.1041 17.4792 14.1041 17.4792L11.5207 15.9792C11.0207 15.7084 10.3957 15.875 10.1041 16.375V16.3959L10.0832 16.4167C9.79156 16.9167 9.95823 17.5417 10.4582 17.8334L13.0624 19.3334C13.0624 19.3334 13.0832 19.3542 13.1041 19.3542L13.1249 19.375C13.2291 19.4375 13.4166 19.625 13.1041 19.875C13.1041 19.875 13.1041 19.8959 13.0832 19.8959L10.4166 21.3334C9.91656 21.6042 9.72906 22.2292 9.9999 22.75C10.2707 23.25 10.8957 23.4375 11.4166 23.1667L15.2707 21.1042C15.3749 21.0625 15.7499 20.8959 16.1666 21.125L18.1874 22.2917C18.2916 22.3542 18.4166 22.4792 18.3541 22.6042L15.7916 24.0834C15.6249 24.1875 15.4999 24.3125 15.3957 24.4792C15.2916 24.625 15.2291 24.8125 15.2291 25C15.2291 25.1875 15.2916 25.375 15.3749 25.5417C15.4582 25.7084 15.6041 25.8542 15.7707 25.9375L18.3332 27.4167C18.3749 27.5417 18.2499 27.6459 18.1666 27.7292L16.1457 28.8959C15.7499 29.125 15.3541 28.9792 15.2499 28.9167L11.3957 26.8542C10.8957 26.5834 10.2499 26.7709 9.97906 27.2709C9.70823 27.7709 9.89573 28.4167 10.3957 28.6875L13.0624 30.125C13.0624 30.125 13.0624 30.1459 13.0832 30.1459C13.3957 30.3959 13.2291 30.5625 13.1041 30.6459L13.0624 30.6667C13.0416 30.6667 13.0207 30.6875 13.0207 30.6875L10.4166 32.1875C9.91656 32.4792 9.7499 33.1042 10.0416 33.6042L10.0624 33.625V33.6459C10.3541 34.1459 10.9791 34.3125 11.4791 34.0209L14.0832 32.5209C14.0832 32.5209 14.1041 32.5 14.1249 32.5L14.1666 32.4792C14.2916 32.4167 14.5207 32.3542 14.5832 32.75C14.5832 32.7709 14.5832 32.75 14.6041 32.7709L14.4999 35.7917C14.4791 36.3542 14.9374 36.8542 15.4999 36.875C16.0832 36.8959 16.5624 36.4375 16.5832 35.875L16.7291 31.5C16.7291 31.3959 16.7916 30.9792 17.2082 30.75L19.2291 29.5834C19.3332 29.5417 19.4999 29.4792 19.5832 29.5834V32.5417C19.5832 32.7292 19.6457 32.9167 19.7291 33.0834C19.8124 33.25 19.9582 33.3959 20.1249 33.4792C20.2916 33.5834 20.4791 33.625 20.6666 33.6042C20.8541 33.6042 21.0416 33.5625 21.2082 33.4792L23.6874 32.0417C23.8957 32.0417 23.9374 32.25 23.9582 32.2917V34.3542C23.9582 34.4792 23.8957 35.0625 23.4791 35.3125L19.7916 37.5834C19.3124 37.8959 19.1457 38.5209 19.4582 39.0209C19.6457 39.3334 19.9999 39.5209 20.3332 39.5209C20.5207 39.5209 20.7082 39.4792 20.8749 39.3542L23.6041 37.6667C23.8541 37.5417 23.8957 37.7084 23.9166 37.7917V41.1875C23.9166 41.7709 24.3749 42.2292 24.9582 42.2292H24.9791H24.9999C25.5832 42.2292 26.0416 41.7709 26.0416 41.1875V37.7917C26.0624 37.7084 26.1041 37.5417 26.3541 37.6667L29.0832 39.3542C29.2499 39.4584 29.4374 39.5209 29.6249 39.5209C29.9791 39.5209 30.3124 39.3542 30.4999 39.0209C30.8124 38.5417 30.6457 37.8959 30.1666 37.5834L26.4999 35.3125C26.1041 35.0625 26.0416 34.4792 26.0207 34.3542V32.2917C26.0207 32.25 26.0624 32.0209 26.2916 32.0417L28.7707 33.4792C28.9374 33.5834 29.1249 33.625 29.3124 33.6042C29.4999 33.6042 29.6874 33.5625 29.8541 33.4792C30.0207 33.375 30.1457 33.25 30.2499 33.0834C30.3541 32.9167 30.3957 32.75 30.3957 32.5417V29.6875C30.4999 29.5 30.7082 29.5625 30.7499 29.5834L32.5416 30.625C32.6457 30.6875 33.1249 31.0417 33.1457 31.5L33.2916 35.8125C33.3124 36.3959 33.7916 36.8334 34.3749 36.8125C34.7499 36.7917 35.0624 36.5834 35.2499 36.2917C35.3541 36.125 35.3957 35.9375 35.3957 35.7292L35.2916 32.5209C35.3124 32.25 35.4582 32.2917 35.5416 32.3125L38.4999 34.0209C38.9999 34.3125 39.6249 34.1459 39.9166 33.6459V33.625L39.9374 33.6042C40.2082 33.0834 40.0416 32.4584 39.5416 32.1667ZM28.2916 21.3125C28.2916 21.75 28.0416 22 27.9166 22.0834L26.0832 23.1459V20.9584C26.1041 20.6459 26.3332 20.4584 26.3957 20.3959L28.0416 19.4375C28.1457 19.4167 28.2499 19.4792 28.2916 19.6875V21.3125ZM28.2916 30.2917C28.2499 30.4792 28.1666 30.5417 28.0624 30.5417C28.0416 30.5417 28.0207 30.5209 27.9999 30.5209L26.5416 29.6875C26.1666 29.4792 26.0832 29.125 26.0624 28.9792V26.8542L27.8957 27.9167C28.0207 28.0209 28.2707 28.25 28.2707 28.6875L28.2916 30.2917ZM23.6249 20.4167C23.6874 20.4584 23.9166 20.6667 23.9374 20.9792V23.1667L22.0416 22.0834C21.7916 21.9167 21.7291 21.6042 21.7082 21.5417V19.6459C21.7499 19.5417 21.8541 19.4792 22.0416 19.5625L23.6249 20.4167ZM18.6874 24.8542L20.3332 23.8959C20.4166 23.875 20.7082 23.7709 20.9791 23.8959L22.8749 25L20.9791 26.0834C20.7082 26.2292 20.4166 26.125 20.3332 26.0834L18.7707 25.2084C18.6249 25.0625 18.6249 24.9375 18.6874 24.8542ZM21.7082 30.3959V28.5C21.7291 28.4167 21.7707 28.125 22.0416 27.9584L23.9374 26.875V29C23.9166 29.1667 23.8332 29.5 23.4582 29.7084L22.0624 30.5209C21.8541 30.5625 21.7499 30.5 21.7082 30.3959ZM29.8332 26C29.4582 26.2292 29.1249 26.125 28.9791 26.0625L27.1249 25L28.9582 23.9375C29.1041 23.875 29.4374 23.7709 29.8124 24L31.2707 24.8334C31.2916 24.8334 31.2916 24.8542 31.3124 24.875C31.3749 24.9584 31.3541 25.0625 31.2082 25.2084L29.8332 26Z" fill="#599270"/>
<path d="M39.5416 32.1667L36.5832 30.4584C36.5207 30.3959 36.3957 30.2709 36.6249 30.125L39.4582 28.6042C39.6457 28.5 39.7707 28.375 39.8749 28.2084C40.0416 27.9167 40.0624 27.5209 39.8957 27.1875C39.6249 26.6875 38.9999 26.5 38.4791 26.7709L34.6666 28.8125C34.2499 29.0417 33.7082 28.7917 33.6041 28.75L31.8124 27.7084C31.7707 27.6875 31.6041 27.5417 31.7291 27.3542L34.2082 25.9167C34.3749 25.8125 34.4999 25.6875 34.6041 25.5209C34.7082 25.3542 34.7499 25.1875 34.7499 24.9792C34.7499 24.7709 34.6874 24.6042 34.6041 24.4375C34.5207 24.2709 34.3749 24.125 34.2082 24.0417L31.7291 22.6042C31.6041 22.4167 31.7916 22.2709 31.8124 22.25L33.6041 21.2084C33.7082 21.1459 34.2499 20.9167 34.6666 21.1459L38.4791 23.1875C38.9791 23.4584 39.6249 23.2709 39.8957 22.7709C40.0624 22.4375 40.0624 22.0625 39.8749 21.75C39.7707 21.5834 39.6457 21.4375 39.4582 21.3542L36.6249 19.8334C36.3957 19.6875 36.4999 19.5625 36.5832 19.5L39.5416 17.7917C40.0416 17.5 40.2082 16.875 39.9166 16.375L39.8957 16.3542V16.3334C39.6041 15.8334 38.9791 15.6667 38.4791 15.9584L35.5207 17.6667C35.4374 17.7084 35.2707 17.7292 35.2707 17.4584L35.3749 14.25C35.3749 14.0417 35.3332 13.8542 35.2291 13.6875C35.0624 13.3959 34.7291 13.1875 34.3541 13.1667C33.7707 13.1459 33.2916 13.6042 33.2707 14.1667L33.1249 18.4792C33.1041 18.9584 32.6249 19.2917 32.5207 19.3542L30.7291 20.3959C30.6874 20.4167 30.4791 20.5 30.3749 20.2917V17.4792C30.3749 17.2917 30.3124 17.1042 30.2291 16.9375C30.1457 16.7709 29.9999 16.625 29.8332 16.5417C29.6666 16.4584 29.4791 16.3959 29.2916 16.4167C29.1041 16.4167 28.9166 16.4584 28.7499 16.5417L26.2499 18.0209C26.1249 18 26.0832 17.8334 26.0832 17.7084V15.375C26.0832 14.9167 26.4166 14.6459 26.4999 14.5834L30.2082 12.2917C30.6874 11.9792 30.8541 11.3542 30.5416 10.8542C30.2291 10.3542 29.5832 10.2292 29.1041 10.5209L26.5207 12.125C26.4999 12.125 26.4999 12.125 26.4999 12.125C26.1249 12.2709 26.0624 12.0417 26.0624 11.8959V11.8542C26.0624 11.8334 26.0624 11.8125 26.0624 11.8125V8.81254C26.0624 8.22921 25.6041 7.77087 25.0207 7.77087H24.9999H24.9791C24.3957 7.77087 23.9374 8.22921 23.9374 8.81254V11.8125C23.9374 11.8125 23.9374 11.8334 23.9374 11.8542V11.8959C23.9374 12.0209 23.8749 12.2709 23.4999 12.125C23.4791 12.125 23.4791 12.125 23.4791 12.125L20.8957 10.5209C20.4166 10.2084 19.7707 10.3542 19.4582 10.8542C19.1457 11.3542 19.3124 11.9792 19.7916 12.2917L23.4999 14.6042C23.5832 14.6667 23.9166 14.9167 23.9166 15.3959V17.7292C23.9166 17.8334 23.8749 18 23.7499 18.0417L21.1874 16.5625C21.0207 16.4375 20.8332 16.3959 20.6666 16.4167C20.4791 16.4167 20.2916 16.4584 20.1249 16.5417C19.9582 16.625 19.8124 16.7709 19.7291 16.9375C19.6457 17.1042 19.5832 17.2917 19.5832 17.4792V20.4375C19.4999 20.5417 19.3332 20.4792 19.2291 20.4375L17.2082 19.2709C16.7916 19.0417 16.7499 18.625 16.7291 18.5L16.5832 14.125C16.5624 13.5625 16.0832 13.1042 15.5207 13.125C14.9374 13.1459 14.4999 13.625 14.4999 14.2084L14.6041 17.2292C14.6041 17.25 14.6041 17.2292 14.5832 17.25C14.5207 17.6459 14.2916 17.5834 14.1666 17.5209L14.1457 17.5C14.1249 17.5 14.1041 17.4792 14.1041 17.4792L11.5207 15.9792C11.0207 15.7084 10.3957 15.875 10.1041 16.375V16.3959L10.0832 16.4167C9.79156 16.9167 9.95823 17.5417 10.4582 17.8334L13.0624 19.3334C13.0624 19.3334 13.0832 19.3542 13.1041 19.3542L13.1249 19.375C13.2291 19.4375 13.4166 19.625 13.1041 19.875C13.1041 19.875 13.1041 19.8959 13.0832 19.8959L10.4166 21.3334C9.91656 21.6042 9.72906 22.2292 9.9999 22.75C10.2707 23.25 10.8957 23.4375 11.4166 23.1667L15.2707 21.1042C15.3749 21.0625 15.7499 20.8959 16.1666 21.125L18.1874 22.2917C18.2916 22.3542 18.4166 22.4792 18.3541 22.6042L15.7916 24.0834C15.6249 24.1875 15.4999 24.3125 15.3957 24.4792C15.2916 24.625 15.2291 24.8125 15.2291 25C15.2291 25.1875 15.2916 25.375 15.3749 25.5417C15.4582 25.7084 15.6041 25.8542 15.7707 25.9375L18.3332 27.4167C18.3749 27.5417 18.2499 27.6459 18.1666 27.7292L16.1457 28.8959C15.7499 29.125 15.3541 28.9792 15.2499 28.9167L11.3957 26.8542C10.8957 26.5834 10.2499 26.7709 9.97906 27.2709C9.70823 27.7709 9.89573 28.4167 10.3957 28.6875L13.0624 30.125C13.0624 30.125 13.0624 30.1459 13.0832 30.1459C13.3957 30.3959 13.2291 30.5625 13.1041 30.6459L13.0624 30.6667C13.0416 30.6667 13.0207 30.6875 13.0207 30.6875L10.4166 32.1875C9.91656 32.4792 9.7499 33.1042 10.0416 33.6042L10.0624 33.625V33.6459C10.3541 34.1459 10.9791 34.3125 11.4791 34.0209L14.0832 32.5209C14.0832 32.5209 14.1041 32.5 14.1249 32.5L14.1666 32.4792C14.2916 32.4167 14.5207 32.3542 14.5832 32.75C14.5832 32.7709 14.5832 32.75 14.6041 32.7709L14.4999 35.7917C14.4791 36.3542 14.9374 36.8542 15.4999 36.875C16.0832 36.8959 16.5624 36.4375 16.5832 35.875L16.7291 31.5C16.7291 31.3959 16.7916 30.9792 17.2082 30.75L19.2291 29.5834C19.3332 29.5417 19.4999 29.4792 19.5832 29.5834V32.5417C19.5832 32.7292 19.6457 32.9167 19.7291 33.0834C19.8124 33.25 19.9582 33.3959 20.1249 33.4792C20.2916 33.5834 20.4791 33.625 20.6666 33.6042C20.8541 33.6042 21.0416 33.5625 21.2082 33.4792L23.6874 32.0417C23.8957 32.0417 23.9374 32.25 23.9582 32.2917V34.3542C23.9582 34.4792 23.8957 35.0625 23.4791 35.3125L19.7916 37.5834C19.3124 37.8959 19.1457 38.5209 19.4582 39.0209C19.6457 39.3334 19.9999 39.5209 20.3332 39.5209C20.5207 39.5209 20.7082 39.4792 20.8749 39.3542L23.6041 37.6667C23.8541 37.5417 23.8957 37.7084 23.9166 37.7917V41.1875C23.9166 41.7709 24.3749 42.2292 24.9582 42.2292H24.9791H24.9999C25.5832 42.2292 26.0416 41.7709 26.0416 41.1875V37.7917C26.0624 37.7084 26.1041 37.5417 26.3541 37.6667L29.0832 39.3542C29.2499 39.4584 29.4374 39.5209 29.6249 39.5209C29.9791 39.5209 30.3124 39.3542 30.4999 39.0209C30.8124 38.5417 30.6457 37.8959 30.1666 37.5834L26.4999 35.3125C26.1041 35.0625 26.0416 34.4792 26.0207 34.3542V32.2917C26.0207 32.25 26.0624 32.0209 26.2916 32.0417L28.7707 33.4792C28.9374 33.5834 29.1249 33.625 29.3124 33.6042C29.4999 33.6042 29.6874 33.5625 29.8541 33.4792C30.0207 33.375 30.1457 33.25 30.2499 33.0834C30.3541 32.9167 30.3957 32.75 30.3957 32.5417V29.6875C30.4999 29.5 30.7082 29.5625 30.7499 29.5834L32.5416 30.625C32.6457 30.6875 33.1249 31.0417 33.1457 31.5L33.2916 35.8125C33.3124 36.3959 33.7916 36.8334 34.3749 36.8125C34.7499 36.7917 35.0624 36.5834 35.2499 36.2917C35.3541 36.125 35.3957 35.9375 35.3957 35.7292L35.2916 32.5209C35.3124 32.25 35.4582 32.2917 35.5416 32.3125L38.4999 34.0209C38.9999 34.3125 39.6249 34.1459 39.9166 33.6459V33.625L39.9374 33.6042C40.2082 33.0834 40.0416 32.4584 39.5416 32.1667ZM28.2916 21.3125C28.2916 21.75 28.0416 22 27.9166 22.0834L26.0832 23.1459V20.9584C26.1041 20.6459 26.3332 20.4584 26.3957 20.3959L28.0416 19.4375C28.1457 19.4167 28.2499 19.4792 28.2916 19.6875V21.3125ZM28.2916 30.2917C28.2499 30.4792 28.1666 30.5417 28.0624 30.5417C28.0416 30.5417 28.0207 30.5209 27.9999 30.5209L26.5416 29.6875C26.1666 29.4792 26.0832 29.125 26.0624 28.9792V26.8542L27.8957 27.9167C28.0207 28.0209 28.2707 28.25 28.2707 28.6875L28.2916 30.2917ZM23.6249 20.4167C23.6874 20.4584 23.9166 20.6667 23.9374 20.9792V23.1667L22.0416 22.0834C21.7916 21.9167 21.7291 21.6042 21.7082 21.5417V19.6459C21.7499 19.5417 21.8541 19.4792 22.0416 19.5625L23.6249 20.4167ZM18.6874 24.8542L20.3332 23.8959C20.4166 23.875 20.7082 23.7709 20.9791 23.8959L22.8749 25L20.9791 26.0834C20.7082 26.2292 20.4166 26.125 20.3332 26.0834L18.7707 25.2084C18.6249 25.0625 18.6249 24.9375 18.6874 24.8542ZM21.7082 30.3959V28.5C21.7291 28.4167 21.7707 28.125 22.0416 27.9584L23.9374 26.875V29C23.9166 29.1667 23.8332 29.5 23.4582 29.7084L22.0624 30.5209C21.8541 30.5625 21.7499 30.5 21.7082 30.3959ZM29.8332 26C29.4582 26.2292 29.1249 26.125 28.9791 26.0625L27.1249 25L28.9582 23.9375C29.1041 23.875 29.4374 23.7709 29.8124 24L31.2707 24.8334C31.2916 24.8334 31.2916 24.8542 31.3124 24.875C31.3749 24.9584 31.3541 25.0625 31.2082 25.2084L29.8332 26Z" fill="#599270"/>
</svg>
