<svg width="50" height="50" viewBox="0 0 50 50" fill="none" xmlns="http://www.w3.org/2000/svg">
<path d="M39.4375 10.3541C35.625 6.54165 30.5625 4.45831 25.1875 4.45831C19.8125 4.45831 14.75 6.56248 10.9375 10.3541C3.08333 18.2083 3.08333 31 10.9375 38.8541C14.75 42.6666 19.8125 44.75 25.1875 44.75C30.5625 44.75 35.625 42.6458 39.4375 38.8541C47.2917 31 47.2917 18.2083 39.4375 10.3541ZM12.4167 11.8333C15.8333 8.41665 20.375 6.54165 25.1875 6.54165C29.6667 6.54165 33.875 8.16665 37.1875 11.125L33.5208 14.7916C31.2708 12.75 28.2292 11.4791 24.875 11.4791H24.8542C17.9792 11.4791 12.3958 16.75 12.3958 23.2291C12.3958 26.5 13.8542 29.6041 16.3958 31.8333L16.4167 31.9375L11.7292 36.625C5.39583 29.5208 5.60417 18.625 12.4167 11.8333ZM27.1667 33.0833C26.5833 33.0833 26.125 33.5416 26.125 34.125V35.5208H23.625V34.125C23.625 33.5416 23.1667 33.0833 22.5833 33.0833C22 33.0833 21.5417 33.5416 21.5417 34.125V35.5208H19.3958L18.3333 31C18.2917 30.7708 18.1667 30.5833 17.9792 30.4375C15.75 28.6041 14.4792 25.9583 14.4792 23.2083C14.4792 17.875 19.125 13.5416 24.6458 13.5208C24.7083 13.5416 24.8125 13.5416 24.875 13.5416C30.6042 13.5416 35.25 17.875 35.25 23.2083C35.25 25.9583 33.9792 28.5833 31.75 30.4375C31.5833 30.5833 31.4583 30.7916 31.3958 31L30.3333 35.5208H28.2083V34.125C28.2083 33.5625 27.7292 33.0833 27.1667 33.0833ZM37.9583 37.375C34.5417 40.7916 30 42.6666 25.1875 42.6666C20.7083 42.6666 16.5 41.0417 13.1875 38.0625L16.9583 34.2916L17.5417 36.7916C17.6458 37.2708 18.0625 37.6041 18.5625 37.6041H31.1458C31.625 37.6041 32.0417 37.2708 32.1667 36.7916L33.3333 31.8125C35.875 29.5833 37.3333 26.4791 37.3333 23.2083C37.3333 20.625 36.4375 18.25 34.9375 16.3125L38.6667 12.5833C44.9792 19.6875 44.7708 30.5833 37.9583 37.375Z" fill="#599270"/>
<path d="M20.1877 21.6666C19.6043 21.6666 19.146 22.125 19.146 22.7083V24.6041C19.146 25.1875 19.6043 25.6458 20.1877 25.6458C20.771 25.6458 21.2293 25.1875 21.2293 24.6041V22.7083C21.2293 22.125 20.771 21.6666 20.1877 21.6666Z" fill="#599270"/>
<path d="M29.5207 25.6458C30.104 25.6458 30.5623 25.1875 30.5623 24.6041V22.7083C30.5623 22.125 30.104 21.6666 29.5207 21.6666C28.9373 21.6666 28.479 22.125 28.479 22.7083V24.6041C28.479 25.1875 28.9373 25.6458 29.5207 25.6458Z" fill="#599270"/>
<path d="M24.9793 27.2291C24.2918 27.2291 23.7085 27.7916 23.7085 28.5C23.7085 29.2083 24.271 29.7708 24.9793 29.7708C25.6668 29.7708 26.2502 29.2083 26.2502 28.5C26.2502 27.7916 25.6877 27.2291 24.9793 27.2291Z" fill="#599270"/>
</svg>
