<svg width="50" height="50" viewBox="0 0 50 50" fill="none" xmlns="http://www.w3.org/2000/svg">
<path d="M39.9791 7.56245C39.8958 7.16662 39.6041 6.87495 39.2083 6.79162C33.4791 5.68745 27.7708 6.20828 22.6458 8.29162C22.6041 8.31245 22.5625 8.35412 22.5208 8.37495C22.5 8.39578 22.4791 8.39578 22.4583 8.39578C22.4166 8.41662 22.3958 8.45828 22.3541 8.47912C22.3333 8.49995 22.3333 8.49995 22.3124 8.52078C21.9791 8.83328 21.8749 9.31245 22.1041 9.72912C22.3958 10.2083 22.5416 10.7291 22.5416 11.2708C22.5416 12.9791 21.1458 14.3541 19.4583 14.3541C18.4166 14.3541 17.4375 13.8333 16.875 12.9374C16.6041 12.5208 16.0624 12.3958 15.6249 12.6041V12.5833C15.6249 12.5833 15.4375 12.6666 15.2916 12.8124C11.9583 15.7083 10.0416 18.9166 9.58328 22.3749C9.22912 25.0208 9.72912 27.7916 10.9583 30.2083C11.125 30.5416 11.4791 30.7291 11.8333 30.7291C11.9791 30.7291 12.1458 30.6874 12.2916 30.6249C12.7708 30.3749 12.9583 29.7916 12.7083 29.3124C11.6458 27.2708 11.2291 24.8958 11.5416 22.6458C11.8958 19.9999 13.3124 17.4791 15.7083 15.1666C15.8124 15.0624 16.0416 14.9791 16.3124 15.1874C16.3541 15.2083 16.3749 15.2291 16.3958 15.2291C17.2708 15.9166 18.3333 16.3124 19.4583 16.3124C22.2291 16.3124 24.4999 14.0416 24.4999 11.2708C24.4999 10.9166 24.4374 10.5624 24.3541 10.2083V10.1874C24.3124 9.87495 24.4999 9.72912 24.6249 9.66662C28.7291 8.22912 33.2083 7.83328 37.7083 8.52078C38.0416 8.62495 38.1875 8.81245 38.2291 8.95828C38.3541 9.83328 38.4583 10.7291 38.4999 11.6041C38.4791 11.7499 38.4166 12.1041 37.9999 12.2083C37.9583 12.2291 37.9374 12.2291 37.9374 12.2499C34.9374 12.6874 32.6249 15.2291 32.6249 18.3541C32.6249 20.7499 33.9166 22.8541 35.8958 23.8958H35.8749C35.8749 23.8958 36.1666 24.0833 36.0833 24.5416C35.4583 25.8958 34.75 27.2083 33.875 28.3958C33.5625 28.8541 33.2083 29.2499 32.8749 29.6458C32.4999 29.9999 32.2708 29.6666 32.2708 29.6666L32.2499 29.7083C31.0624 28.3541 29.3749 27.5624 27.3124 27.5624C23.6249 27.5624 20.6249 30.5625 20.6249 34.2708C20.6249 34.4583 20.6458 34.6249 20.6666 34.8124L20.6458 34.7916C20.6458 34.7916 20.7083 35.0833 20.4375 35.0833C19.125 34.8333 17.8749 34.3333 16.7291 33.6458C16.3541 33.2916 16.3749 32.9791 16.4583 32.8124C18.9166 28.7499 21.4374 25.4999 23.6666 23.0416C23.6874 23.0208 23.8958 22.8541 24.2708 22.9166L30.5416 24.1249C30.6041 24.1458 30.6666 24.1458 30.7291 24.1458C31.1875 24.1458 31.6041 23.8124 31.6874 23.3541C31.7916 22.8333 31.4375 22.3124 30.9166 22.2083L25.8125 21.2291C25.5625 21.1458 25.6666 20.9583 25.6666 20.9166C28.4374 18.1666 30.3958 16.8333 30.4583 16.7916C30.9166 16.4999 31.0416 15.8958 30.7291 15.4374C30.4375 14.9791 29.8333 14.8541 29.375 15.1666C28.875 15.4999 17.0833 23.375 9.49995 42.3958C9.29162 42.8958 9.54162 43.4583 10.0416 43.6666C10.2083 43.7499 10.3333 43.7708 10.4375 43.7708C10.8333 43.7708 11.1874 43.5416 11.3541 43.1666C12.4791 40.3333 13.7291 37.7708 14.9999 35.4166C15.0624 35.3333 15.2916 35.0416 15.5833 35.2291C15.6041 35.2499 15.6041 35.2291 15.6249 35.2291C17.4791 36.3958 19.5833 37.1041 21.7708 37.2708C21.7916 37.2708 21.8124 37.2708 21.8333 37.2708C21.9999 37.2708 22.1458 37.2291 22.2708 37.1458C22.2708 37.1458 22.2708 37.1458 22.2916 37.1458C22.7916 36.9583 23.0624 36.3958 22.8749 35.8958C22.6874 35.3749 22.5833 34.8333 22.5833 34.2708C22.5833 31.6458 24.7083 29.5208 27.3333 29.5208C29.3124 29.5208 30.8125 30.4166 31.5416 32.0624C31.5833 32.1458 31.6458 32.2083 31.6874 32.2708C31.7083 32.2916 31.7291 32.3333 31.7499 32.3541C31.8124 32.4166 31.8749 32.4374 31.9583 32.4791C31.9999 32.4999 32.0416 32.5416 32.0833 32.5624C32.1041 32.5833 32.1458 32.5624 32.1666 32.5833C32.2499 32.6041 32.3333 32.6249 32.4374 32.6249C32.4999 32.6249 32.5624 32.6041 32.6041 32.5833C32.6666 32.5624 32.7499 32.5624 32.8124 32.5416C32.8124 32.5416 32.8124 32.5416 32.8333 32.5416C32.9374 32.4999 33.0208 32.4374 33.0833 32.3541C33.1041 32.3333 33.1249 32.3333 33.1458 32.3124C33.1458 32.3124 33.1458 32.3124 33.1666 32.2916C33.9583 31.4583 34.7291 30.5208 35.4791 29.4999C36.7083 27.7708 37.7499 25.8958 38.5416 23.8958C38.7083 23.4791 38.5625 23.0416 38.2291 22.7916C38.1041 22.6458 37.9375 22.5416 37.75 22.4791C35.875 22.0416 34.5624 20.3124 34.5624 18.2916C34.5624 15.9374 36.4791 14.0416 38.9999 14.0208C39.1249 14.0208 39.3124 14.0208 39.3958 14.0208C39.4166 14.0208 39.4583 13.9999 39.4791 13.9999C39.5 13.9999 39.5208 14.0208 39.5416 14.0208C40.0833 14.0208 40.5208 13.5833 40.5 13.0416C40.5208 11.2708 40.3333 9.39578 39.9791 7.56245Z" fill="#599270"/>
</svg>
