<svg width="50" height="50" viewBox="0 0 50 50" fill="none" xmlns="http://www.w3.org/2000/svg">
<path d="M30.667 28.1876C30.0837 28.1876 29.6253 28.6459 29.6253 29.2292C29.6253 32.2292 27.1878 34.6459 24.2087 34.6459C23.6253 34.6459 23.167 35.1042 23.167 35.6876C23.167 36.2709 23.6253 36.7292 24.2087 36.7292C28.3545 36.7292 31.7087 33.3542 31.7087 29.2292C31.7087 28.6459 31.2503 28.1876 30.667 28.1876Z" fill="#599270"/>
<path d="M33.5 22.2917C31.8541 18.0417 29.2708 13.875 25.8541 9.89583C25.7083 9.72917 25.5 9.625 25.2916 9.58333C25.1875 9.54167 25.0625 9.52083 24.9583 9.52083C24.75 9.5 24.3541 9.64583 24.1666 9.875C20.7291 13.875 18.1458 18.0417 16.5 22.2917C14.8958 26.3958 13.2291 32.375 17.25 37C18.2916 38.2083 19.6458 39.1458 21.1458 39.75C22.3541 40.2292 23.625 40.4792 25.0625 40.4792C26.375 40.4792 27.6458 40.2292 28.8541 39.75C30.3541 39.1458 31.7083 38.2083 32.75 37C36.7708 32.375 35.1041 26.3958 33.5 22.2917ZM31.1875 35.625C30.3541 36.5833 29.2916 37.3333 28.1041 37.8125C26.2708 38.5417 23.9583 38.6042 21.9375 37.8125C20.75 37.3333 19.6666 36.5833 18.8333 35.625C16.3541 32.75 16.2291 28.7708 18.4583 23.0417C19.9166 19.3125 22.1041 15.6458 25.0208 12.125C27.9375 15.6667 30.125 19.3333 31.5833 23.0417C33.7916 28.7708 33.6666 32.7708 31.1875 35.625Z" fill="#599270"/>
</svg>
