<svg width="12" height="14" viewBox="0 0 12 14" fill="none" xmlns="http://www.w3.org/2000/svg">
<path d="M6 0C2.56981 0 0 4.93923 0 8.14365C0 11.3481 2.69434 14 6 14C9.30566 14 12 11.3702 12 8.14365C12 4.91713 9.41887 0 6 0ZM6 12.663C3.44151 12.663 1.35849 10.6298 1.35849 8.1326C1.35849 6.20994 2.58113 3.33702 4.23396 2.0221C4.66415 2.24309 5.01509 2.49724 5.26415 2.77348C5.66038 3.21547 6.33962 3.21547 6.72453 2.77348C6.97358 2.49724 7.33585 2.23204 7.75472 2.0221C9.40755 3.33702 10.6302 6.20994 10.6302 8.1326C10.6302 10.6298 8.54717 12.663 5.98868 12.663H6Z" fill="#BABABA"/>
<path d="M8.62712 4.75543C8.44599 4.43474 8.02712 4.3131 7.69882 4.50109C7.37052 4.67803 7.25731 5.08719 7.43844 5.40788C7.44976 5.43 8.91014 8.05085 7.37052 9.78703C7.12146 10.0635 7.15542 10.4837 7.43844 10.727C7.56297 10.8376 7.72146 10.8929 7.87995 10.8929C8.0724 10.8929 8.25353 10.8155 8.38938 10.6606C10.5516 8.22779 8.70636 4.89919 8.62712 4.76649V4.75543Z" fill="#BABABA"/>
</svg>
