<svg width="50" height="50" viewBox="0 0 50 50" fill="none" xmlns="http://www.w3.org/2000/svg">
<path d="M30.0833 29.1458L30.1249 29.125C29.6041 28.7292 29.6041 28.0417 29.6041 28.0417V11.9792C29.6041 9.43749 27.5208 7.35416 24.9791 7.35416C22.4374 7.35416 20.3541 9.43749 20.3541 11.9792V28.0417C20.3541 28.0417 20.3749 28.7083 19.8541 29.125H19.8749C17.8124 30.9375 16.8541 33.7083 17.4166 36.5C17.9999 39.3958 20.3124 41.7708 23.1666 42.4167C23.7708 42.5625 24.3749 42.625 24.9791 42.625C26.7291 42.625 28.4166 42.0417 29.8124 40.9375C31.6666 39.4583 32.7291 37.25 32.7291 34.875C32.7291 32.6667 31.7291 30.6042 30.0833 29.1458ZM28.5208 39.3333C27.1666 40.4167 25.3958 40.8125 23.6458 40.3958C21.5624 39.9167 19.8958 38.1875 19.4583 36.0833C18.9791 33.75 19.9791 31.4167 21.9583 30.1458C22.2499 29.9583 22.4374 29.625 22.4374 29.2708V11.9792C22.4374 10.5833 23.5833 9.43749 24.9791 9.43749C26.3749 9.43749 27.5208 10.5833 27.5208 11.9792V13.75C27.5208 13.75 27.5208 13.9792 27.2708 14H25.8333C25.2499 14 24.7916 14.4583 24.7916 15.0417C24.7916 15.625 25.2499 16.0833 25.8333 16.0833H27.3124C27.3124 16.0833 27.5208 16.0625 27.5208 16.375V17.0833C27.5208 17.2917 27.3541 17.2708 27.3541 17.2708H25.8333C25.2499 17.2708 24.7916 17.7292 24.7916 18.3125C24.7916 18.8958 25.2499 19.3542 25.8333 19.3542H27.3333C27.3333 19.3542 27.5208 19.3333 27.5208 19.5208V20.375C27.5208 20.375 27.5416 20.5417 27.3541 20.5625H25.8541C25.2708 20.5625 24.8124 21.0208 24.8124 21.6042C24.8124 22.1875 25.2708 22.6458 25.8541 22.6458H27.3541C27.3541 22.6458 27.5416 22.6042 27.5416 22.8542V23.5833C27.5416 23.8542 27.2708 23.8542 27.2708 23.8542H25.8541C25.2708 23.8542 24.8124 24.3125 24.8124 24.8958C24.8124 25.4792 25.2708 25.9375 25.8541 25.9375H27.1874C27.3124 25.9375 27.5416 26.0208 27.5416 26.4167V29.2708C27.5416 29.625 27.7291 29.9583 28.0208 30.1458C29.6666 31.1875 30.6458 32.9792 30.6458 34.8958C30.6458 36.625 29.8749 38.25 28.5208 39.3333Z" fill="#599270"/>
<path d="M25.0002 30.8333C22.8335 30.8333 21.0835 32.5833 21.0835 34.75C21.0835 36.9166 22.8335 38.6666 25.0002 38.6666C27.1668 38.6666 28.9168 36.9166 28.9168 34.75C28.9168 32.5833 27.1668 30.8333 25.0002 30.8333ZM25.0002 36.5833C23.9793 36.5833 23.1668 35.75 23.1668 34.75C23.1668 33.7291 24.0002 32.9166 25.0002 32.9166C26.0002 32.9166 26.8335 33.75 26.8335 34.75C26.8335 35.75 26.021 36.5833 25.0002 36.5833Z" fill="#599270"/>
</svg>
