<svg width="50" height="50" viewBox="0 0 50 50" fill="none" xmlns="http://www.w3.org/2000/svg">
<path d="M13.7292 15.9792H30.8958C30.9792 15.9792 31.0417 15.9583 31.125 15.9375C33.5833 15.7083 35.5 13.6667 35.5 11.1458C35.5 8.47917 33.3333 6.3125 30.6667 6.3125C28 6.3125 25.8333 8.47917 25.8333 11.1458C25.8333 11.7292 26.2917 12.1875 26.875 12.1875C27.4583 12.1875 27.9167 11.7292 27.9167 11.1458C27.9167 9.625 29.1458 8.39583 30.6667 8.39583C32.1875 8.39583 33.4167 9.625 33.4167 11.1458C33.4167 12.6667 32.1875 13.8958 30.6667 13.8958H13.7292C13.1458 13.8958 12.6875 14.3542 12.6875 14.9375C12.6875 15.5208 13.1458 15.9792 13.7292 15.9792Z" fill="#599270"/>
<path d="M36.2497 30.1042C36.1455 30.0834 36.0622 30.0417 35.958 30.0417H14.2497C13.6663 30.0417 13.208 30.5 13.208 31.0834C13.208 31.6667 13.6663 32.125 14.2497 32.125H35.6455C37.7288 32.125 39.4163 33.8125 39.4163 35.8959C39.4163 37.9792 37.7288 39.6667 35.6455 39.6667C33.5622 39.6667 31.8747 37.9792 31.8747 35.8959C31.8747 35.3125 31.4163 34.8542 30.833 34.8542C30.2497 34.8542 29.7913 35.3125 29.7913 35.8959C29.7913 39.125 32.4163 41.75 35.6455 41.75C38.8747 41.75 41.4997 39.125 41.4997 35.8959C41.5205 32.875 39.1872 30.3959 36.2497 30.1042Z" fill="#599270"/>
<path d="M21.0623 27.7709C21.1457 27.7709 21.2082 27.75 21.2915 27.7292C23.7498 27.5 25.6665 25.4375 25.6665 22.9375C25.6665 20.2709 23.4998 18.1042 20.8332 18.1042C18.1665 18.1042 15.979 20.25 15.979 22.9167C15.979 23.5 16.4373 23.9584 17.0207 23.9584C17.604 23.9584 18.0623 23.5 18.0623 22.9167C18.0623 21.3959 19.2915 20.1667 20.8123 20.1667C22.3332 20.1667 23.5623 21.3959 23.5623 22.9167C23.5623 24.4375 22.3332 25.6667 20.8123 25.6667H3.89567C3.31234 25.6667 2.854 26.125 2.854 26.7084C2.854 27.2917 3.31234 27.75 3.89567 27.75H21.0623V27.7709Z" fill="#599270"/>
<path d="M47.1458 22.9167C47.1458 20.7917 45.4167 19.0625 43.2917 19.0625C41.1667 19.0625 39.4375 20.7917 39.4375 22.9167C39.4375 23.5 39.8958 23.9583 40.4792 23.9583C41.0625 23.9583 41.5208 23.5 41.5208 22.9167C41.5208 21.9375 42.3125 21.1458 43.2917 21.1458C44.2708 21.1458 45.0625 21.9375 45.0625 22.9167C45.0625 23.8958 44.2708 24.6875 43.2917 24.6875H30.7292C30.1458 24.6875 29.6875 25.1458 29.6875 25.7292C29.6875 26.3125 30.1458 26.7708 30.7292 26.7708H43.4583C43.5208 26.7708 43.5625 26.75 43.625 26.7292C45.6042 26.5625 47.1458 24.9375 47.1458 22.9167Z" fill="#599270"/>
</svg>
