<svg width="64" height="64" viewBox="0 0 64 64" fill="none" xmlns="http://www.w3.org/2000/svg">
<g clip-path="url(#clip0_874_1785)">
<path d="M31.9941 63.9291C49.6315 63.9291 63.9293 49.6312 63.9293 31.9938C63.9293 14.3565 49.6315 0.0585938 31.9941 0.0585938C14.3568 0.0585938 0.0588684 14.3565 0.0588684 31.9938C0.0588684 49.6312 14.3568 63.9291 31.9941 63.9291Z" fill="#F5F9F2"/>
<path d="M63.5525 26.5775C61.3623 13.33 50.6819 2.63782 37.4344 0.447571C15.5672 -3.16752 -3.16763 15.5556 0.447458 37.4227C2.63771 50.6702 13.3181 61.3506 26.5656 63.5409C48.4327 67.1677 67.1676 48.4446 63.5525 26.5775ZM40.4607 14.1072C40.1074 13.1769 39.0594 12.7059 38.1291 13.0474L36.6808 13.5891C35.4208 14.0601 34.361 14.5664 33.4072 15.1081C34.9144 12.1171 37.611 9.42052 41.0024 7.67775C41.0142 7.67775 41.0259 7.66597 41.0377 7.66597C42.9689 6.6886 45.3358 6.88879 47.161 8.05456C47.7615 8.43138 48.3385 8.83175 48.9038 9.24389C51.1176 10.8807 51.1058 14.0483 48.9391 15.7322C48.0559 16.4152 47.1021 17.0275 46.0776 17.5574C42.1211 19.5828 37.6817 20.0892 34.0195 19.0411C35.044 18.2757 36.2922 17.6163 37.9643 16.9922L39.4127 16.4505C40.3429 16.0855 40.814 15.0492 40.4607 14.1072ZM36.2215 6.41776C35.9742 6.60617 35.7976 6.75925 35.6445 6.88879C32.4416 9.42052 30.1571 12.6941 29.1091 16.215C29.0738 16.2857 29.0384 16.3445 29.0384 16.3445C27.4252 21.4551 26.9542 17.9578 26.9542 17.9578V8.65511C26.9542 5.87609 29.2033 3.61519 31.9941 3.61519C33.5602 3.61519 35.0793 3.79182 36.5866 4.05088C37.3637 4.30994 38.1763 4.92227 36.2215 6.41776ZM23.3391 18.8527V18.8998C23.3273 18.888 23.3273 18.888 23.3155 18.8763C23.3273 18.8645 23.3391 18.8645 23.3391 18.8527ZM19.3825 15.0728C19.3354 15.061 19.2883 15.061 19.2412 15.0492C19.2059 15.0257 19.1588 15.0021 19.1234 14.9786C18.3934 14.6371 17.6633 14.2367 16.9685 13.7539C16.839 13.6597 16.7212 13.542 16.5917 13.4478C16.0265 13.0238 15.473 12.5764 14.9431 12.07C14.8725 12.0111 14.8018 11.964 14.7312 11.8934C14.6841 11.8463 14.6723 11.7992 14.637 11.7521C14.1306 11.1515 14.1188 10.3037 14.6016 9.71491C14.6723 9.63248 14.7194 9.53828 14.8018 9.46763C15.5084 8.92595 16.2502 8.40783 17.0039 7.93681C17.051 7.90148 17.1098 7.87793 17.1569 7.85438C17.8281 7.44224 18.5111 7.04187 19.2176 6.67683C19.3236 6.61795 19.4414 6.62972 19.5474 6.60617C20.3599 6.41776 21.1724 6.91234 21.4079 7.73662C21.4197 7.7955 21.4668 7.83083 21.4786 7.88971C21.4903 7.97213 21.4903 8.05456 21.5021 8.14877C21.6552 9.05548 21.7376 9.95042 21.7494 10.8218C21.7494 10.8807 21.7612 10.9513 21.7612 11.0102C21.7612 11.9405 21.667 12.8354 21.5021 13.695C21.4903 13.7657 21.4903 13.8363 21.4786 13.8952C21.4668 13.9659 21.4197 14.0248 21.3961 14.0836C21.1135 14.9079 20.2303 15.3672 19.3825 15.0728ZM12.2701 14.5664C13.2475 15.5085 14.2955 16.3328 15.3788 17.0275V17.0393C15.3788 17.0393 19.2177 19.4179 20.7367 22.3618C22.2675 25.5177 23.3273 29.2976 23.3273 32.2179V35.0087C23.2096 39.1184 21.6787 36.9517 21.6787 36.9517C18.6171 32.5712 14.0717 28.7324 9.42041 26.4008C6.64139 25.0113 5.44028 21.6082 6.88867 18.8645C7.64231 17.4279 8.52547 16.0619 9.50284 14.7784C10.1623 13.907 11.4811 13.801 12.2701 14.5664ZM3.68573 30.4752C3.87414 29.4978 4.67487 27.9552 8.01912 29.7098C12.1759 31.8647 16.368 35.4327 19.0175 39.4128C20.9133 42.2625 22.1498 46.1484 22.7385 50.0579C23.398 54.4266 18.4287 57.2763 14.9078 54.6032C8.05445 49.422 3.62685 41.2262 3.62685 31.9942C3.62685 31.4879 3.6504 30.9815 3.68573 30.4752ZM29.168 58.2065C29.1444 58.2065 29.1209 58.2183 29.0973 58.2183C29.0738 58.2183 29.0502 58.2065 29.0384 58.2065C28.3201 58.183 27.7314 57.5471 27.7549 56.817C27.7549 56.7935 27.7431 56.7699 27.7431 56.7464C27.7431 56.711 27.7549 56.6757 27.7549 56.6404C27.7785 56.4638 27.8138 56.2871 27.8373 56.1105C27.8844 55.769 27.9433 55.4275 28.014 55.086C28.0611 54.8858 28.1199 54.6739 28.1788 54.4737C28.2613 54.1558 28.3555 53.8378 28.4614 53.5199C28.5321 53.3079 28.6145 53.096 28.697 52.8722C28.8147 52.5661 28.9442 52.2599 29.0855 51.942C29.1797 51.73 29.2857 51.518 29.3917 51.2943C29.5448 50.9881 29.7096 50.682 29.8863 50.3876C30.004 50.1756 30.1218 49.9754 30.2513 49.7635C30.4397 49.4573 30.6517 49.1512 30.8636 48.8568C30.9932 48.6684 31.1345 48.4682 31.2758 48.2798C31.5231 47.9501 31.7939 47.6321 32.0648 47.326C32.1943 47.1729 32.312 47.0198 32.4533 46.8667C32.8655 46.4075 33.3012 45.96 33.7722 45.5361C33.7722 45.5361 33.7722 45.5361 33.784 45.5361C34.5847 44.806 35.4326 44.1583 36.3039 43.5696C36.4217 43.4871 36.5277 43.4047 36.6454 43.334C37.4815 42.7924 38.3411 42.3331 39.2125 41.9445C39.3656 41.8739 39.5304 41.8032 39.6835 41.7326C40.5431 41.3675 41.4145 41.0731 42.2741 40.8612C42.4154 40.8259 42.5685 40.8023 42.7098 40.767C43.593 40.5786 44.4762 40.449 45.3358 40.4255C45.3593 40.4255 45.3829 40.4137 45.4064 40.4137C45.43 40.4137 45.4418 40.4255 45.4653 40.4255C46.1954 40.449 46.7959 41.0967 46.7606 41.8268C46.7606 41.8503 46.7724 41.8739 46.7724 41.8857C46.7724 41.9092 46.7606 41.9328 46.7606 41.9563C46.6782 42.8042 46.478 43.6755 46.2189 44.5469C46.1718 44.6882 46.1365 44.8295 46.0894 44.9708C45.8068 45.8187 45.4418 46.6665 45.0178 47.4908C44.9354 47.6439 44.853 47.7852 44.7705 47.9383C44.3113 48.7743 43.7814 49.5986 43.1808 50.3876C43.0984 50.4936 43.0042 50.5996 42.9218 50.7055C42.2624 51.5298 41.5558 52.3306 40.7551 53.0606C39.9544 53.8025 39.0947 54.4501 38.2234 55.0389C38.1174 55.1096 37.9996 55.192 37.8936 55.2744C37.0576 55.8161 36.198 56.2754 35.3148 56.6757C35.1617 56.7464 35.0086 56.817 34.8556 56.8759C33.9842 57.2409 33.1128 57.5353 32.2414 57.7473C32.1001 57.7826 31.9588 57.8062 31.8175 57.8415C30.9108 58.0652 30.0276 58.1948 29.168 58.2065ZM45.2651 57.029C37.3284 60.9267 43.1926 55.769 43.1926 55.769C48.4327 50.9293 51.1529 44.3821 50.2933 38.6827C50.1873 37.9644 49.6221 37.3639 48.9155 37.199C43.2986 35.8801 36.563 38.0704 31.3229 42.9101C26.9306 47.585 26.9659 43.4754 26.9659 43.4754L26.9542 43.4871V37.67C27.1308 32.948 27.7549 28.332 29.5919 24.5521C30.3337 23.033 32.0765 22.3265 33.7133 22.7269C35.0675 23.0566 36.4924 23.2214 37.9407 23.2214C41.179 23.2214 44.5586 22.4089 47.7262 20.7839C49.4219 19.9125 50.9527 18.8527 52.2951 17.6634C53.7082 16.4034 56.0162 16.8391 56.9229 18.4995C59.1131 22.5149 60.3731 27.1074 60.3731 32.006C60.3731 42.8513 54.2381 52.2599 45.2651 57.029Z" fill="#205E5F"/>
<path d="M19.2294 6.66525C18.5229 7.03029 17.8399 7.41888 17.1687 7.8428C17.1216 7.87812 17.0627 7.90168 17.0156 7.92523C16.2502 8.40802 15.5201 8.91437 14.8136 9.45605C14.7194 9.53847 14.6723 9.63268 14.6016 9.71511C14.1188 10.3039 14.1306 11.1517 14.637 11.7523C14.6723 11.7994 14.6958 11.8583 14.7312 11.8936C14.8018 11.9642 14.8725 11.9996 14.9431 12.0702C15.473 12.5766 16.0265 13.0358 16.5917 13.448C16.7212 13.5422 16.839 13.6599 16.9685 13.7541C17.6751 14.2369 18.3934 14.6491 19.1234 14.9905C19.1588 15.0141 19.2059 15.0376 19.2412 15.0612C19.2883 15.0847 19.3354 15.073 19.3825 15.0847C20.2303 15.3791 21.1135 14.9199 21.4079 14.0838C21.4315 14.0132 21.4786 13.9661 21.4903 13.8954C21.5021 13.8248 21.5021 13.7541 21.5139 13.6952C21.6787 12.8356 21.7729 11.9407 21.7729 11.0104C21.7729 10.9515 21.7612 10.8809 21.7612 10.822C21.7494 9.95062 21.667 9.05568 21.5139 8.14896C21.5021 8.06653 21.5021 7.9841 21.4903 7.8899C21.4786 7.83102 21.4432 7.78392 21.4197 7.73682C21.1842 6.91253 20.3717 6.41796 19.5591 6.60637C19.4532 6.61814 19.3354 6.60637 19.2294 6.66525Z" fill="#4CB379"/>
<path d="M29.0973 58.2185C29.1209 58.2185 29.1444 58.2067 29.168 58.2067C30.0276 58.1832 30.9107 58.0654 31.8057 57.877C31.947 57.8417 32.0883 57.8181 32.2296 57.7828C33.101 57.5708 33.9724 57.2765 34.8438 56.9114C34.9969 56.8408 35.1499 56.7819 35.303 56.7112C36.1744 56.3109 37.034 55.8516 37.8819 55.3099C37.9996 55.2393 38.1056 55.1569 38.2116 55.0744C39.083 54.4857 39.9426 53.838 40.7433 53.0961C41.5441 52.3543 42.2506 51.5653 42.91 50.741C42.9924 50.6351 43.0866 50.5291 43.1691 50.4231C43.7696 49.6341 44.2995 48.8098 44.7588 47.9738C44.8412 47.8207 44.9236 47.6794 45.0061 47.5263C45.4418 46.6903 45.8068 45.8424 46.0776 45.0064C46.1247 44.865 46.1601 44.7237 46.2072 44.5824C46.4662 43.711 46.6664 42.8397 46.7488 41.9918C46.7488 41.9683 46.7606 41.9447 46.7606 41.9212C46.7606 41.8976 46.7488 41.8741 46.7488 41.8623C46.7842 41.1322 46.1836 40.4845 45.4535 40.461C45.43 40.461 45.4182 40.4492 45.3946 40.4492C45.3711 40.4492 45.3475 40.461 45.324 40.461C44.4644 40.4845 43.593 40.6023 42.6981 40.8025C42.5567 40.8378 42.4037 40.8614 42.2624 40.8967C41.4027 41.1086 40.5314 41.403 39.6717 41.7681C39.5187 41.8387 39.3538 41.9094 39.2007 41.98C38.3293 42.3686 37.4697 42.8279 36.6337 43.3696C36.5159 43.4402 36.4099 43.5344 36.2922 43.6051C35.4208 44.1938 34.5729 44.8415 33.7722 45.5716C33.7722 45.5716 33.7722 45.5716 33.7604 45.5716C33.3012 45.9955 32.8655 46.443 32.4416 46.9022C32.312 47.0553 32.1825 47.2084 32.053 47.3615C31.7821 47.6794 31.5113 47.9973 31.264 48.3153C31.1227 48.5037 30.9932 48.6921 30.8519 48.8923C30.6399 49.1984 30.428 49.4928 30.2395 49.799C30.11 49.9992 29.9923 50.2111 29.8745 50.4231C29.6979 50.7293 29.533 51.0236 29.3799 51.3298C29.274 51.5418 29.168 51.7537 29.0738 51.9775C28.9325 52.2836 28.8029 52.5898 28.6852 52.9077C28.6027 53.1197 28.5203 53.3317 28.4497 53.5554C28.3437 53.8733 28.2495 54.1913 28.167 54.5092C28.1082 54.7094 28.0493 54.9213 28.0022 55.1215C27.9198 55.463 27.8727 55.8045 27.8256 56.146C27.802 56.3226 27.7667 56.4993 27.7431 56.6759C27.7431 56.7112 27.7314 56.7466 27.7314 56.7819C27.7314 56.8054 27.7431 56.829 27.7431 56.8525C27.7078 57.5708 28.2966 58.2067 29.0267 58.242C29.062 58.2067 29.0738 58.2185 29.0973 58.2185Z" fill="#4CB379"/>
</g>
<defs>
<clipPath id="clip0_874_1785">
<rect width="64" height="64" fill="white"/>
</clipPath>
</defs>
</svg>
