<svg width="64" height="64" viewBox="0 0 64 64" fill="none" xmlns="http://www.w3.org/2000/svg">
<g clip-path="url(#clip0_874_1763)">
<path d="M32 63.929C49.6341 63.929 63.9294 49.6338 63.9294 31.9997C63.9294 14.3656 49.6341 0.0703125 32 0.0703125C14.3659 0.0703125 0.0706787 14.3656 0.0706787 31.9997C0.0706787 49.6338 14.3659 63.929 32 63.929Z" fill="#F5F9F2"/>
<path d="M37.8396 0.541488C20.4857 -2.67264 3.75572 8.81816 0.541596 26.1721C-1.01249 34.5783 0.788836 43.0786 5.62769 50.1191C10.4665 57.1596 17.766 61.8925 26.1604 63.4583C28.1266 63.8233 30.1045 63.9999 32.0589 63.9999C38.4636 63.9999 44.7153 62.0691 50.1075 58.3605C57.1479 53.5216 61.8926 46.2339 63.4467 37.8277C66.6726 20.4856 55.1818 3.75562 37.8396 0.541488ZM60.3385 33.5304C60.0324 38.7225 58.3724 43.526 55.6409 47.6349C54.4518 49.0477 53.7219 48.9653 52.8271 49.0006C51.897 49.036 52.4504 47.5054 52.4504 47.5054C52.4504 47.5054 52.4033 47.5643 52.3915 47.5761C53.7454 43.373 53.8396 39.1581 52.4857 35.7909C52.1913 35.061 51.4378 34.59 50.6608 34.6607C46.1398 35.0257 41.4423 37.969 37.9102 42.5135C36.6976 43.9616 36.3091 40.8653 36.2973 40.877C36.2855 40.7828 36.2855 40.7357 36.262 40.6416C35.6615 37.5805 37.8514 36.1324 37.8396 36.1206C40.7241 33.8601 44.3503 28.8682 42.4665 21.863C41.454 18.1073 39.8764 16.1412 38.3223 15.1051C38.3223 15.1051 37.039 14.2575 36.8271 13.7041C36.6152 13.1508 36.2384 12.6445 36.2267 12.6798C35.6027 11.7144 34.1781 10.3605 32.0236 10.125C29.6924 9.85422 27.1729 10.9845 24.5239 13.4098C22.8403 15.1051 21.298 15.058 21.2392 15.058C21.0861 15.058 20.9331 15.058 20.78 15.0698C18.3076 15.164 16.5416 16.5768 16.0589 18.8255C15.635 20.8152 16.3768 23.0757 17.6836 24.8417C17.6836 24.8417 18.5313 25.607 18.1781 27.1964C18.1428 27.373 18.1075 27.5496 18.0957 27.7497C18.0015 30.3752 19.744 34.2957 24.9596 36.7093C26.4901 37.4157 27.8911 37.816 29.1626 38.0514C29.1626 38.0514 32.2355 38.4046 32.5887 40.618C32.7182 41.4892 32.7888 42.3722 32.8359 43.2788C32.8242 47.6585 31.3172 45.2214 31.3054 45.2449C30.9875 44.7976 30.6579 44.3619 30.3047 43.9263C25.6777 38.3222 19.6262 34.7667 14.4695 34.6725C13.5865 34.6725 12.833 35.3082 12.6917 36.1677C11.9971 40.1706 13.3392 45.1508 16.2237 49.8483C16.259 49.919 16.2708 49.9543 16.3061 50.0249C17.5188 52.1559 15.8823 52.462 13.9986 51.9793C9.39517 50.7902 6.87567 45.8807 5.3569 41.7718C3.60267 37.0154 3.17883 31.8115 4.10892 26.8314C6.6402 13.1861 18.5902 3.62611 31.9882 3.62611C34.6961 3.62611 37.4629 4.01463 40.2178 4.83876C52.627 8.51205 61.1038 20.6033 60.3385 33.5304ZM16.3414 40.4767C16.2237 39.5113 17.142 38.7578 18.131 39.0639C18.2134 39.0993 18.2958 39.1463 18.3782 39.1817C19.0846 39.4642 19.8028 39.7939 20.5328 40.2059C20.5681 40.2295 20.6152 40.253 20.6505 40.2766C21.3451 40.6769 22.0398 41.1478 22.7344 41.6541C22.8639 41.7483 22.9934 41.8424 23.1347 41.9484C23.8293 42.4782 24.5004 43.0669 25.1715 43.6909C25.301 43.8204 25.4305 43.9499 25.5718 44.0794C27.4202 45.9043 29.0449 47.9646 30.2929 50.2486C31.0817 51.685 33.5306 55.8645 32.4121 57.501C31.9647 58.1485 30.3871 58.0426 28.4562 57.0419C23.1582 54.3575 18.9787 48.8005 17.0596 43.2435C17.0479 43.1964 17.0243 43.1611 17.0125 43.114C16.7417 42.3251 16.5651 41.5599 16.4121 40.8064C16.3885 40.724 16.3414 40.6298 16.3414 40.4767ZM22.0751 22.7107C21.4393 22.9344 20.8036 22.9109 20.2855 22.2869C19.3907 21.192 19.0258 18.7667 20.9213 18.696C21.9573 18.6489 22.9934 18.6371 23.9941 18.6371C24.9242 18.6371 25.7837 18.6489 26.5843 18.6725C26.7138 18.6842 27.2083 18.7902 26.7844 19.3671C26.1369 20.0029 25.4069 20.5562 24.677 21.0742C24.5122 21.192 24.3591 21.2979 24.1943 21.4039C23.6292 21.7924 22.8521 22.4399 22.0751 22.7107ZM32.365 13.8572L30.9522 14.8579C30.4695 15.1993 30.0103 15.1758 29.8808 15.164L27.9147 14.9639C27.5615 14.9285 27.585 14.8108 27.6674 14.7166C29.4805 13.3391 30.8109 13.0566 31.6704 13.1154C32.0589 13.1508 32.365 13.292 32.6476 13.4451C32.6829 13.5275 32.6476 13.657 32.365 13.8572ZM22.2988 26.8079C23.4879 25.8307 25.7484 25.1125 26.702 24.3943C28.7153 22.8873 30.4342 21.0507 32.0707 19.1669C35.3554 15.3877 38.1457 19.6614 38.9934 22.7931C40.936 30.022 35.1553 33.6246 34.908 33.7659C34.8845 33.7777 34.8492 33.8012 34.8256 33.813C32.3414 35.2611 28.9507 34.543 26.5019 33.4009C24.9007 32.6592 20.886 29.8925 21.5924 27.7026C21.6983 27.3848 21.9573 27.0786 22.2988 26.8079ZM49.8131 40.1706C49.8131 40.2413 49.8013 40.3119 49.8131 40.3825C49.8602 41.1125 49.8484 41.8778 49.766 42.6548C49.7543 42.7372 49.7542 42.8196 49.7542 42.902C49.0949 48.7887 45.2097 55.4524 39.7822 58.1839C37.0037 59.5849 36.415 58.0308 36.3091 56.983C36.3091 56.724 36.2855 56.465 36.2973 56.1942C36.5563 49.9543 40.312 43.6909 45.5276 40.2884C45.5983 40.2413 45.6689 40.2059 45.7395 40.1589C46.3988 39.7468 47.0699 39.3936 47.7528 39.0992C47.8116 39.0757 47.8823 39.0286 47.9882 38.9933C48.8242 38.6872 49.7072 39.2288 49.8131 40.1706Z" fill="#205E5F"/>
<path d="M27.9029 14.9757L29.869 15.1759C29.9868 15.1876 30.4577 15.2112 30.9404 14.8698L32.3532 13.869C32.6475 13.6689 32.6711 13.5394 32.6358 13.457C32.3532 13.3157 32.0471 13.1744 31.6586 13.1273C30.7991 13.0684 29.4687 13.351 27.6556 14.7285C27.585 14.8227 27.5497 14.9404 27.9029 14.9757Z" fill="#E37D55"/>
<path d="M22.0751 22.7107C22.8521 22.44 23.6292 21.8042 24.2061 21.4157C24.3709 21.3097 24.5239 21.192 24.6888 21.086C25.4187 20.568 26.1487 20.0029 26.7962 19.3789C27.22 18.802 26.7256 18.696 26.596 18.6842C25.7955 18.6607 24.936 18.6489 24.0059 18.6489C23.0169 18.6489 21.9809 18.6607 20.9331 18.7078C19.0375 18.7784 19.3907 21.2037 20.2973 22.2987C20.8036 22.9109 21.4393 22.9344 22.0751 22.7107Z" fill="#E37D55"/>
<path d="M34.9081 33.7661C35.1553 33.6131 40.936 30.0222 38.9934 22.7934C38.1575 19.6617 35.3555 15.3762 32.0707 19.1672C30.4342 21.0509 28.7035 22.8993 26.702 24.3946C25.7366 25.1127 23.4761 25.8427 22.2988 26.8081C21.9574 27.0907 21.6984 27.385 21.5924 27.7146C20.886 29.9045 24.8889 32.6595 26.5019 33.4129C28.9625 34.555 32.3415 35.2731 34.8257 33.825C34.8492 33.8015 34.8845 33.7779 34.9081 33.7661Z" fill="#E37D55"/>
<path d="M28.4445 57.0422C30.3753 58.0429 31.9647 58.1489 32.4003 57.5013C33.507 55.8648 31.0699 51.6735 30.2811 50.2489C29.0214 47.9767 27.4084 45.9046 25.56 44.0797C25.4305 43.9502 25.301 43.8207 25.1597 43.6912C24.5004 43.0672 23.8175 42.4785 23.1229 41.9487C22.9934 41.8428 22.8639 41.7603 22.7226 41.6544C22.028 41.1481 21.3334 40.6772 20.6387 40.2769C20.6034 40.2534 20.5563 40.2298 20.521 40.2063C19.8028 39.7942 19.0846 39.4645 18.3665 39.182C18.2841 39.1467 18.2016 39.0996 18.1192 39.0642C17.1303 38.7581 16.2119 39.5116 16.3297 40.4771C16.3414 40.6301 16.3768 40.7243 16.3885 40.8067C16.5298 41.5602 16.7182 42.3255 16.989 43.1143C17.0008 43.1614 17.0243 43.1967 17.0361 43.2438C18.9669 48.789 23.1465 54.3578 28.4445 57.0422Z" fill="#4CB379"/>
<path d="M49.766 42.655C49.8367 41.878 49.8602 41.1127 49.8131 40.3827C49.8131 40.3121 49.8249 40.2415 49.8131 40.1708C49.6954 39.2407 48.8242 38.6992 47.9765 39.0053C47.8705 39.0406 47.7999 39.0877 47.741 39.1112C47.0699 39.3938 46.3988 39.747 45.7278 40.1708C45.6571 40.2179 45.5865 40.2532 45.5158 40.3003C40.3002 43.7028 36.5445 49.9663 36.2855 56.2061C36.2737 56.4769 36.2973 56.7359 36.2973 56.995C36.4033 58.0546 36.9802 59.5969 39.7704 58.1958C45.198 55.4526 49.0832 48.8007 49.7425 42.914C49.7542 42.8198 49.7542 42.7374 49.766 42.655Z" fill="#4CB379"/>
</g>
<defs>
<clipPath id="clip0_874_1763">
<rect width="64" height="64" fill="white"/>
</clipPath>
</defs>
</svg>
