<svg width="64" height="64" viewBox="0 0 64 64" fill="none" xmlns="http://www.w3.org/2000/svg">
<g clip-path="url(#clip0_874_1707)">
<path d="M31.947 63.9296C49.5844 63.9296 63.8823 49.6317 63.8823 31.9943C63.8823 14.357 49.5844 0.059082 31.947 0.059082C14.3097 0.059082 0.0117798 14.357 0.0117798 31.9943C0.0117798 49.6317 14.3097 63.9296 31.947 63.9296Z" fill="#F5F9F2"/>
<path d="M63.5525 26.5775C61.3623 13.33 50.6819 2.63782 37.4344 0.447571C15.5672 -3.16752 -3.16763 15.5556 0.447458 37.4227C2.63771 50.6702 13.3181 61.3506 26.5656 63.5409C48.4327 67.1677 67.1676 48.4446 63.5525 26.5775ZM60.22 34.0549C59.961 36.2923 59.3133 38.459 58.1122 40.3666C55.4745 44.594 50.4228 47.0316 45.4418 47.008C44.3937 47.008 43.3222 46.8903 42.3919 46.3957C41.1555 45.7363 40.3783 44.4998 39.4598 43.4518C38.0585 41.8268 36.3746 40.8259 34.5023 39.8485C34.2079 39.6954 33.89 39.5188 33.784 39.2126C33.6662 38.8829 33.8546 38.4943 34.1255 38.2823C35.7387 37.0106 38.5177 37.305 40.3665 36.3747C42.2624 35.4091 43.9816 34.102 45.4418 32.5594C48.3032 29.5214 50.1873 25.5177 50.411 21.3256C50.4581 20.36 50.3757 19.2766 49.6574 18.6408C49.1746 18.2051 48.4916 18.0873 47.844 18.0284C42.074 17.4985 36.5512 21.0783 33.1245 25.7532C31.7939 22.3736 29.6272 19.2884 26.7422 17.0746C23.8572 14.8608 20.2303 13.5773 16.5917 13.7186C15.7439 13.7539 14.8254 13.8952 14.2484 14.5193C13.6714 15.1434 13.6243 16.0855 13.6596 16.9333C13.8362 21.0194 15.4848 25.0231 18.2167 28.0612C20.9487 31.0993 24.7639 33.1482 28.8029 33.7488C29.2268 33.8076 29.6979 33.8901 29.9334 34.2551C30.0865 34.4906 30.0865 34.785 30.0865 35.0676C30.0747 35.9272 30.0629 36.7869 30.0629 37.6465C30.0511 38.2235 30.0394 38.8358 29.745 39.3304C29.2857 40.1193 28.2966 40.3902 27.4841 40.8141C24.8464 42.2036 23.6688 45.6892 20.8544 46.6901C19.8535 47.0433 18.7702 47.0316 17.7104 46.9609C13.2004 46.6312 8.50192 44.9002 5.97018 41.1438C4.51002 38.9889 3.90946 36.3512 3.70928 33.7605C2.95565 24.2341 7.58343 14.484 15.3788 8.96128C23.1742 3.43856 33.8546 2.3081 42.6745 5.99385C51.4944 9.67959 58.1711 18.0284 59.9257 27.4135C60.3378 29.592 60.4791 31.8529 60.22 34.0549ZM52.6955 51.3414C47.5142 56.8877 40.1663 60.3732 31.9941 60.3732C23.9514 60.3732 16.7095 56.9819 11.5518 51.5769C9.57349 49.1629 10.7628 49.1747 11.5871 49.3631C11.7755 49.422 11.9757 49.4691 12.1523 49.528C13.7891 50.0461 15.6379 50.6466 19.1234 50.6466C22.6208 50.6466 24.4695 50.0579 26.1063 49.528C27.6254 49.0452 29.0502 48.5859 31.9823 48.5859C34.9144 48.5859 36.351 49.0452 37.8583 49.528C39.4951 50.0461 41.3439 50.6466 44.8412 50.6466C48.3385 50.6466 50.1873 50.0579 51.8241 49.528C51.9654 49.4809 52.1185 49.4455 52.2598 49.3984C52.4246 49.3984 54.4736 49.2571 52.6955 51.3414ZM33.9017 33.7723C34.1019 31.0522 35.515 28.0494 37.9054 25.659C40.3783 23.1861 43.5223 21.726 46.3131 21.62C46.4544 21.6671 46.6075 21.7731 46.6664 22.0203C46.5369 24.7994 45.1003 27.9199 42.6274 30.381C40.3547 32.6536 37.5286 34.0314 34.9027 34.3375C34.2432 34.3258 33.9842 34.0549 33.9017 33.7723ZM30.2042 29.4154C30.2395 29.8275 29.8745 30.2043 29.4624 30.1808C26.7893 30.0159 23.7983 28.4616 21.4432 26.1064C19.253 23.9162 17.8399 21.2078 17.4631 18.6761C17.3453 17.8989 17.9812 17.263 18.7584 17.369C21.3137 17.7105 23.975 19.1942 26.1652 21.3845C28.5085 23.7513 29.9805 26.7188 30.2042 29.4154Z" fill="#205E5F"/>
<path d="M29.4623 30.1808C29.8745 30.2043 30.2395 29.8275 30.2042 29.4154C29.9805 26.7188 28.5085 23.7513 26.1534 21.3845C23.9632 19.1942 21.3019 17.7105 18.7466 17.369C17.9694 17.263 17.3335 17.8989 17.4513 18.6761C17.8281 21.2078 19.2412 23.9162 21.4314 26.1064C23.7983 28.4616 26.7775 30.0159 29.4623 30.1808Z" fill="#4CB379"/>
<path d="M37.9054 25.6591C35.515 28.0495 34.1019 31.0405 33.9017 33.7724C33.9842 34.055 34.2432 34.3376 34.9144 34.3494C37.5286 34.0432 40.3547 32.6655 42.6392 30.3928C45.1003 27.9317 46.5486 24.8112 46.6782 22.0322C46.6193 21.7849 46.4662 21.6789 46.3249 21.6318C43.5223 21.726 40.39 23.1862 37.9054 25.6591Z" fill="#4CB379"/>
</g>
<defs>
<clipPath id="clip0_874_1707">
<rect width="64" height="64" fill="white"/>
</clipPath>
</defs>
</svg>
