<svg width="64" height="64" viewBox="0 0 64 64" fill="none" xmlns="http://www.w3.org/2000/svg">
<g clip-path="url(#clip0_874_1689)">
<path d="M32.0059 63.9999C49.6432 63.9999 63.9411 49.702 63.9411 32.0646C63.9411 14.4273 49.6432 0.129395 32.0059 0.129395C14.3685 0.129395 0.0706177 14.4273 0.0706177 32.0646C0.0706177 49.702 14.3685 63.9999 32.0059 63.9999Z" fill="#F5F9F2"/>
<path d="M31.9941 0C14.79 0 0.753612 13.6714 0.0706309 30.7106C-2.23135e-05 30.9579 -0.0235734 31.2052 0.0235287 31.476C0.0235287 31.6526 -2.23124e-05 31.8293 -2.23124e-05 32.0059C-2.23124e-05 49.6456 14.3543 64 31.9941 64C49.6338 64 63.9882 49.6456 63.9882 32.0059C63.9882 14.3661 49.6456 0 31.9941 0ZM31.9941 60.3731C23.869 60.3731 16.5564 56.9229 11.3869 51.4355C11.1396 51.1765 10.9277 50.9292 10.7746 50.729C10.751 50.7054 10.7275 50.6819 10.7039 50.6465C9.52638 49.0686 10.8099 49.1864 11.1632 49.2453C11.4929 49.3395 11.8226 49.4337 12.1523 49.5396C16.6741 50.988 21.5845 50.988 26.1063 49.5396C27.6254 49.0569 29.0502 48.5976 31.9823 48.5976C34.9144 48.5976 36.351 49.0569 37.8583 49.5396C42.4272 50.9998 47.2669 50.9998 51.8241 49.5396C52.4953 49.3277 53.2018 49.1393 53.9908 48.9744C54.2263 48.9862 54.3911 49.1628 53.9319 49.8576C48.7389 56.2399 40.8611 60.3731 31.9941 60.3731ZM31.9941 3.61509C40.9788 3.61509 48.9744 7.85428 54.1674 14.3897C54.4618 14.9667 55.1448 16.7095 52.4953 16.6741C49.834 16.6388 48.4327 16.2149 46.9843 15.7439C46.7371 15.6615 46.478 15.5908 46.2307 15.5084C46.2071 15.4966 46.1954 15.4966 46.1718 15.4848C44.6763 15.0138 44.7941 13.4241 44.8647 13.0002C44.8647 12.9649 44.8765 12.9295 44.8765 12.906V12.8942C44.9236 12.1877 44.8883 11.4929 44.7705 10.8335C44.6292 10.1034 44.064 9.5264 43.3222 9.3851C40.1428 8.8081 36.4452 10.1505 33.6544 12.9413C33.6073 12.9884 33.572 13.0591 33.5249 13.1062C33.5014 13.1297 33.4896 13.1179 33.466 13.1415C31.7233 14.6723 30.4162 13.2475 30.4162 13.2475L30.4044 13.2828C30.2984 13.165 30.2278 13.0355 30.1218 12.9295C27.331 10.1387 23.6335 8.78454 20.4541 9.37332C19.724 9.51463 19.147 10.0799 19.0057 10.8217C18.464 13.7067 19.5591 17.0392 21.8671 19.7122L21.8436 19.7005C21.8436 19.7005 24.3518 22.4324 22.9505 24.234C22.9034 24.2929 22.8916 24.3282 22.8563 24.3753C22.3499 24.9406 21.8671 25.5411 21.4079 26.177C21.243 26.3654 21.0782 26.5891 20.9015 26.8718C19.5238 29.0385 17.1451 28.3555 17.1451 28.3555C15.7085 27.9316 13.9658 27.543 11.1279 27.543C9.8561 27.543 8.85518 27.6372 7.94846 27.7667C7.7365 27.7785 7.45389 27.8256 7.1595 27.8727C7.06529 27.8845 6.95932 27.8962 6.87689 27.9198C6.84156 27.9316 6.82978 27.9316 6.79446 27.9316C4.40403 28.485 4.07431 27.6607 4.09786 27.1073C6.40587 13.8009 18.0165 3.61509 31.9941 3.61509ZM47.5025 45.3711C47.4083 44.2289 47.997 42.5803 47.997 41.756C47.997 36.2804 45.3004 28.9796 41.0495 24.2694C41.0141 24.2223 41.0024 24.1869 40.967 24.1398C39.5187 22.3264 41.5676 20.1244 42.2506 19.465C43.7107 18.1932 45.689 19.1823 47.2669 19.618C49.0922 20.1244 50.988 20.3128 52.8839 20.3128C53.8259 20.3128 54.6267 20.2657 55.345 20.2068C55.345 20.2068 57.4057 19.8535 58.6892 22.4442C59.7726 25.4351 60.3849 28.6381 60.3849 32.0059C60.3849 34.573 60.0081 37.034 59.3604 39.4009C57.6294 45.1945 53.6728 45.3358 53.6611 45.3476C52.1773 45.6184 50.0578 46.796 48.5858 46.6193C47.8439 46.5133 47.5613 46.0188 47.5025 45.3711ZM40.8493 43.6048C42.0504 38.1409 39.1889 32.7713 39.0241 32.4769C38.5413 31.6055 37.4344 31.2758 36.563 31.7704C35.6916 32.2532 35.3737 33.3601 35.8565 34.2315C35.8918 34.2903 38.3882 38.9417 37.2107 43.228C36.5041 45.4535 34.5376 45.1003 34.5376 45.1003V45.1121C33.7957 45.0296 32.9597 44.9825 31.9941 44.9825C28.4968 44.9825 26.648 45.5713 25.023 46.0894C24.8346 46.1483 24.6579 46.2072 24.4695 46.2543C21.3372 46.9961 20.2774 45.2887 19.9006 44.0523C19.7475 43.3104 19.6298 42.545 19.6298 41.756C19.6298 36.6925 22.6561 29.274 26.8129 25.5176C27.0484 25.3763 27.5194 25.2585 28.167 25.6C28.9089 26.071 29.5683 26.5774 30.0511 27.119C31.0992 28.3201 32.9126 28.3201 33.9606 27.119C34.5141 26.4832 35.303 25.8944 36.198 25.3763C36.4335 25.2938 36.8221 25.2703 37.2813 25.6118C41.391 29.3917 44.3702 36.7397 44.3702 41.756C44.3702 42.5214 44.2524 43.2633 44.1111 43.9934C43.8403 44.7941 43.016 46.8666 41.65 46.7606C41.6147 46.7606 41.5794 46.7489 41.5558 46.7489C40.3547 46.5604 40.5549 44.9472 40.7551 44.1111C40.7786 44.0169 40.8022 43.9345 40.8257 43.8403C40.8611 43.699 40.8964 43.593 40.8964 43.593L40.8493 43.6048ZM23.4097 13.1062C25.7413 13.6478 27.8844 15.4613 29.0738 17.4984C29.4741 18.1932 29.7685 18.8997 29.9452 19.6063C30.0511 20.2892 29.7332 20.407 29.4624 20.407C29.168 20.3363 28.8736 20.2892 28.5674 20.1833C26.1888 19.3354 23.975 17.1569 23.0211 14.8136C23.0094 14.7783 22.9858 14.743 22.974 14.7076C22.8327 14.3426 22.7267 13.9776 22.6443 13.6125C22.6443 13.3181 22.7621 12.9531 23.4097 13.1062ZM33.8782 19.4767C34.0666 18.7937 34.361 18.1108 34.7613 17.416C35.621 15.9558 36.8927 14.7312 38.3764 13.9069C38.6708 13.742 38.9652 13.6007 39.2714 13.4712C39.3302 13.4477 39.3773 13.4241 39.4362 13.4006C39.7777 13.2592 40.1192 13.1533 40.4725 13.0708C40.7786 13.0473 41.2026 13.1415 41.073 13.848C40.9906 14.1542 40.8846 14.4604 40.7669 14.7665C39.8013 17.1923 37.7759 19.1823 35.3383 20.1126C35.0557 20.2186 34.7849 20.2539 34.5141 20.3246C33.8075 20.3717 33.8193 19.7829 33.8782 19.4767ZM5.25186 32.1354C6.77091 31.6526 8.19575 31.1934 11.1279 31.1934C14.06 31.1934 15.4966 31.6526 17.0038 32.1354C17.3218 32.2414 17.6633 32.3356 18.0048 32.4416C17.1216 34.6672 16.521 36.9869 16.2973 39.3774C16.1796 40.5902 16.1678 41.8149 16.2267 43.0278C16.262 43.8638 16.8861 45.7715 16.2267 46.4427C15.5672 47.1139 14.0011 46.3249 13.2828 46.0894C12.329 45.7833 11.2456 45.4771 9.8561 45.2651C9.75012 45.2416 9.63236 45.218 9.49106 45.1945C7.17128 44.8177 6.12325 43.3222 5.72288 42.5685C5.66401 42.4155 5.58158 42.2742 5.5227 42.1211C4.39225 39.1536 3.73282 35.9507 3.66217 32.6064C4.21562 32.4534 4.74552 32.2885 5.25186 32.1354Z" fill="#205E5F"/>
<path d="M28.5674 20.1714C28.8618 20.2773 29.1562 20.3244 29.4624 20.3951C29.7332 20.4069 30.0511 20.2773 29.9452 19.5944C29.7685 18.8878 29.4741 18.1813 29.0738 17.4865C27.8844 15.4494 25.7531 13.6359 23.4097 13.0943C22.7739 12.9412 22.6443 13.3062 22.6561 13.5888C22.7385 13.9539 22.8445 14.3189 22.9858 14.684C22.9976 14.7193 23.0211 14.7546 23.0329 14.7899C23.975 17.145 26.1888 19.3117 28.5674 20.1714Z" fill="#4CB379"/>
<path d="M40.4725 13.0827C40.131 13.1652 39.7895 13.2711 39.4362 13.4124C39.3774 13.436 39.3303 13.4595 39.2714 13.4831C38.9652 13.6126 38.6708 13.7422 38.3764 13.9188C36.8927 14.7431 35.621 15.9677 34.7614 17.4279C34.361 18.1227 34.0666 18.8056 33.8782 19.4886C33.8311 19.7948 33.8193 20.3836 34.5023 20.36C34.7731 20.2894 35.044 20.2422 35.3266 20.148C37.7759 19.2296 39.7895 17.2395 40.7551 14.802C40.8846 14.4958 40.9906 14.1896 41.0613 13.8835C41.1908 13.1534 40.7669 13.0592 40.4725 13.0827Z" fill="#4CB379"/>
</g>
<defs>
<clipPath id="clip0_874_1689">
<rect width="64" height="64" fill="white"/>
</clipPath>
</defs>
</svg>
