<svg width="64" height="64" viewBox="0 0 64 64" fill="none" xmlns="http://www.w3.org/2000/svg">
<g clip-path="url(#clip0_874_1777)">
<path d="M31.9824 63.9296C49.6197 63.9296 63.9176 49.6317 63.9176 31.9943C63.9176 14.357 49.6197 0.059082 31.9824 0.059082C14.345 0.059082 0.0471191 14.357 0.0471191 31.9943C0.0471191 49.6317 14.345 63.9296 31.9824 63.9296Z" fill="#F5F9F2"/>
<path d="M63.5525 26.5775C61.3623 13.33 50.6819 2.63782 37.4344 0.447571C15.5672 -3.16752 -3.16763 15.5556 0.447458 37.4227C2.63771 50.6702 13.3181 61.3506 26.5656 63.5409C48.4327 67.1677 67.1676 48.4446 63.5525 26.5775ZM50.6701 53.2726C41.285 61.3977 27.119 62.5988 16.6388 55.8279C8.47837 50.5407 3.41489 40.9907 3.66218 31.2759C3.67395 30.8755 3.6975 30.4752 3.72106 30.0748C4.1332 23.9751 6.55896 18.0638 10.5626 13.436C20.3246 2.17857 37.7641 0.494673 49.4808 9.71491C49.94 10.08 50.3757 10.4568 50.8114 10.8454C51.0587 11.0691 51.3295 11.2575 51.565 11.4812C51.6357 11.5401 51.671 11.6225 51.7417 11.6932C53.0958 13.2358 52.719 15.6851 50.9762 16.8156C50.9409 16.8391 50.9056 16.8744 50.8585 16.898C48.9626 18.0284 46.7253 19.3944 44.5704 19.9478C42.9924 20.3482 44.6646 17.7576 44.8647 17.2866C45.5831 15.532 46.3249 13.1887 45.901 11.2693C45.6773 10.2448 45.1003 9.89155 44.7117 9.77379C40.2487 8.40783 36.0331 11.2575 33.101 14.378C31.7468 15.8264 30.7577 17.9107 29.1091 18.994C27.2015 20.254 24.5991 20.3011 22.6326 19.1353C22.0791 18.8056 21.5845 18.4877 21.1724 18.1815C21.0193 18.0755 20.6307 17.8283 20.4541 17.7694C19.5003 17.4514 18.358 17.9225 18.0401 18.8645C17.7222 19.8183 18.1108 20.7957 19.0528 21.1136C19.5827 21.4904 20.3245 21.9615 21.2784 22.4914C21.4079 22.562 21.561 22.6327 21.6905 22.7151C22.3028 23.0801 23.08 23.8691 21.349 24.976C21.1842 25.082 21.1135 25.1644 21.0075 25.2468C20.7602 25.4117 20.5012 25.553 20.2774 25.7414C17.2394 28.1672 15.3317 31.6174 14.896 35.4798C14.4603 39.3421 15.5555 43.1339 17.9812 46.1719C20.407 49.21 23.8572 51.1177 27.7196 51.5534C28.273 51.6122 28.8265 51.6476 29.3682 51.6476C32.6418 51.6476 35.8094 50.5524 38.4 48.48C39.0476 47.9618 39.6246 47.3731 40.1663 46.7725C41.4381 45.3359 42.2153 43.3929 43.8756 42.3214C45.5595 41.2262 47.5849 40.9201 49.1864 39.6483C51.459 37.8349 52.8957 35.2325 53.2254 32.3475C53.5551 29.4507 52.7308 26.601 50.9174 24.3283C50.7761 24.1517 50.5994 23.9986 50.4464 23.8338C50.3639 23.6571 50.1873 23.457 49.8105 23.1626C48.4092 22.091 49.7987 21.62 49.7869 21.5611C50.6819 21.1136 51.5768 20.6779 52.5071 20.1363C52.5306 20.1245 52.5542 20.1127 52.5895 20.0892C54.7091 18.8527 57.3704 19.6535 58.4419 21.7966C58.5126 21.9261 58.5832 22.0439 58.6421 22.1852C58.7716 22.5267 58.8423 22.8917 58.9483 23.2332C59.1602 23.8809 59.3604 24.5285 59.5253 25.1997C61.5036 33.1247 59.8432 41.8974 55.0035 48.5742C53.7199 50.3169 52.2716 51.8831 50.6701 53.2726ZM46.1247 37.2814C43.8285 38.3765 43.7932 36.1745 43.7932 36.1745L43.7461 36.1863C43.7108 35.5622 43.6165 34.9381 43.4988 34.3375C43.4635 34.1374 43.4281 33.9372 43.381 33.737C43.2633 33.2306 43.122 32.7243 42.9453 32.2297C42.8158 31.8647 42.6745 31.5232 42.5096 31.1699C42.3566 30.8167 42.2035 30.4516 42.0151 30.1101C41.6265 29.3918 41.1908 28.6971 40.6727 28.0494C40.2487 27.5077 39.7659 27.0249 39.2714 26.5775C39.2596 26.5657 39.2596 26.5539 39.236 26.5421C38.2234 25.7061 38.3058 25.2351 38.5177 24.9878C39.0594 24.6463 39.6482 24.3754 40.2605 24.1753C40.3194 24.1517 40.3783 24.1399 40.4372 24.1282C41.0495 23.9515 41.6854 23.8338 42.3448 23.8338C42.6156 23.8338 42.8865 23.8455 43.1573 23.8809C43.4046 23.9044 43.6401 23.9869 43.8874 24.034C45.5124 24.3872 46.9726 25.2468 48.0324 26.5657C49.2452 28.0847 49.7869 29.9924 49.575 31.9236C49.3512 33.8547 48.3974 35.5858 46.8784 36.7986C46.6664 36.9988 46.3838 37.1166 46.1247 37.2814ZM22.5148 28.5793C24.4695 27.0249 26.8364 26.2007 29.2975 26.2007C29.7096 26.2007 30.1218 26.2242 30.5457 26.2713C31.2051 26.342 31.841 26.495 32.4651 26.6834C33.0421 26.8601 33.5956 27.0956 34.1372 27.3547C34.6789 27.6255 35.197 27.9434 35.6916 28.2967C36.4806 28.8737 37.2342 29.5096 37.8583 30.2985C39.6129 32.5006 40.4254 35.2443 40.1781 38.0468C40.1663 38.141 40.1899 38.2352 40.1781 38.3177C40.1192 38.8358 39.9897 39.3186 39.8601 39.8132C39.7071 40.4137 39.5069 40.9789 39.2596 41.5324C38.5531 43.1103 37.5286 44.5234 36.1509 45.6303C33.8782 47.4437 31.0285 48.2798 28.1317 47.9383C25.2349 47.6086 22.6443 46.1837 20.8191 43.911C19.0057 41.6266 18.1814 38.7887 18.5111 35.8919C18.8055 32.9951 20.2421 30.4045 22.5148 28.5793ZM33.4189 18.7821C33.466 18.6879 33.5367 18.5937 33.5956 18.4995C33.8429 18.0755 34.0901 17.6634 34.3963 17.263C34.7731 16.7685 35.197 16.2974 35.6563 15.8382C36.1626 15.3436 36.7161 14.9079 37.2695 14.5311C37.6581 14.2603 38.0585 14.0601 38.4471 13.8481C38.6119 13.7657 38.765 13.6597 38.9181 13.5891C39.4598 13.33 40.0015 13.1416 40.5549 12.9885C40.5667 12.9885 40.5785 12.9767 40.5785 12.9767C41.1437 12.8237 41.7207 12.7177 42.2741 12.6823C42.545 12.7412 42.8158 12.9414 42.8394 13.4595C42.7687 14.0012 42.651 14.5311 42.4625 15.0846C42.4508 15.1081 42.439 15.1434 42.439 15.167C42.2624 15.6733 42.0622 16.1797 41.7913 16.6742C41.6971 16.8509 41.5794 17.0157 41.4852 17.1806C41.2732 17.5456 41.0613 17.9107 40.8022 18.2639C40.4018 18.8056 39.9544 19.3237 39.448 19.8065C38.4589 20.7604 37.3166 21.4904 36.1626 22.0321C35.6092 22.2912 35.0557 22.4914 34.5141 22.6327C33.9842 22.7857 33.4778 22.8682 32.9715 22.9271C32.9715 22.9271 32.9715 22.9271 32.9597 22.9271C32.3356 22.8211 32.2767 22.2558 32.3003 21.9497C32.3003 21.9497 32.3003 21.9497 32.3003 21.9379C32.5004 20.8899 32.8655 19.8183 33.4189 18.7821Z" fill="#205E5F"/>
<path d="M42.2859 12.6821C41.7324 12.7292 41.1672 12.8234 40.5902 12.9765C40.5784 12.9765 40.5667 12.9883 40.5667 12.9883C40.0132 13.1414 39.4715 13.3298 38.9299 13.5888C38.765 13.6595 38.6119 13.7655 38.4588 13.8479C38.0585 14.0599 37.6581 14.26 37.2813 14.5309C36.7161 14.9077 36.1744 15.3434 35.668 15.838C35.197 16.2854 34.7849 16.7565 34.4081 17.2628C34.1019 17.6632 33.8546 18.0871 33.6073 18.4992C33.5484 18.5934 33.4778 18.6876 33.4307 18.7819C32.8772 19.8181 32.5004 20.8897 32.3356 21.9377C32.3356 21.9377 32.3356 21.9377 32.3356 21.9495C32.312 22.2556 32.3709 22.8209 32.995 22.9268C32.995 22.9268 32.995 22.9268 33.0068 22.9268C33.5131 22.868 34.0312 22.7855 34.5494 22.6325C35.091 22.4911 35.6445 22.291 36.1979 22.0319C37.3519 21.4902 38.4824 20.7601 39.4833 19.8063C39.9897 19.3235 40.4371 18.8054 40.8375 18.2637C41.0966 17.9105 41.3085 17.5454 41.5205 17.1804C41.6147 17.0037 41.7324 16.8389 41.8266 16.674C42.0975 16.1795 42.2977 15.6731 42.4743 15.1668C42.4861 15.1432 42.4978 15.1079 42.4978 15.0843C42.6862 14.5309 42.804 14.001 42.8747 13.4593C42.8276 12.9412 42.5685 12.741 42.2859 12.6821Z" fill="#4CB379"/>
<path d="M28.1082 47.95C31.005 48.2797 33.8546 47.4555 36.1273 45.642C37.5168 44.5351 38.5413 43.1221 39.2361 41.5441C39.4833 40.9907 39.6835 40.4255 39.8366 39.8249C39.9661 39.3303 40.0957 38.8475 40.1545 38.3294C40.1663 38.2352 40.1545 38.141 40.1545 38.0586C40.4018 35.256 39.6011 32.5241 37.8348 30.3103C37.2107 29.5213 36.457 28.8854 35.6681 28.3084C35.1735 27.9552 34.6671 27.6255 34.1137 27.3664C33.572 27.1073 33.0303 26.8601 32.4416 26.6952C31.8175 26.5068 31.1816 26.3655 30.5222 26.2831C30.11 26.236 29.6861 26.2124 29.274 26.2124C26.8129 26.2124 24.446 27.0367 22.4913 28.5911C20.2186 30.4045 18.782 33.0069 18.4522 35.9037C18.1225 38.8004 18.9468 41.6501 20.7602 43.9228C22.609 46.1955 25.2114 47.6203 28.1082 47.95Z" fill="#E37D55"/>
<path d="M48.0559 26.5659C46.9961 25.247 45.536 24.3874 43.911 24.0342C43.6637 23.9871 43.4282 23.9046 43.1809 23.8811C42.91 23.8458 42.6274 23.834 42.3684 23.834C41.7089 23.834 41.0731 23.9517 40.4607 24.1284C40.4019 24.1401 40.343 24.1519 40.2841 24.1755C39.66 24.3639 39.083 24.6465 38.5413 24.988C38.3176 25.2353 38.2352 25.7063 39.2596 26.5424C39.2714 26.5541 39.2832 26.5659 39.2949 26.5777C39.7895 27.0252 40.2723 27.5079 40.6962 28.0496C41.2144 28.6973 41.6501 29.392 42.0387 30.1103C42.2271 30.4518 42.3684 30.8169 42.5332 31.1701C42.6863 31.5234 42.8394 31.8649 42.9689 32.2299C43.1338 32.7245 43.2869 33.2191 43.4046 33.7372C43.4517 33.9374 43.487 34.1376 43.5224 34.3378C43.6401 34.9501 43.7343 35.5624 43.7697 36.1865L43.8168 36.1747C43.8168 36.1747 43.8639 38.3885 46.1483 37.2816C46.4074 37.1286 46.69 36.999 46.9255 36.8106C48.4445 35.5977 49.3984 33.8667 49.6221 31.9355C49.8105 29.9926 49.2688 28.0967 48.0559 26.5659Z" fill="#E37D55"/>
</g>
<defs>
<clipPath id="clip0_874_1777">
<rect width="64" height="64" fill="white"/>
</clipPath>
</defs>
</svg>
