<svg width="50" height="50" viewBox="0 0 50 50" fill="none" xmlns="http://www.w3.org/2000/svg">
<path d="M25 35.3125C19.3125 35.3125 14.6875 30.6875 14.6875 25C14.6875 19.3125 19.3125 14.6875 25 14.6875C30.6875 14.6875 35.3125 19.3125 35.3125 25C35.3125 30.6875 30.6875 35.3125 25 35.3125ZM25 16.7708C20.4583 16.7708 16.7708 20.4583 16.7708 25C16.7708 29.5417 20.4583 33.2292 25 33.2292C29.5417 33.2292 33.2292 29.5417 33.2292 25C33.2292 20.4583 29.5417 16.7708 25 16.7708Z" fill="#444444"/>
<path d="M25 35.3125C19.3125 35.3125 14.6875 30.6875 14.6875 25C14.6875 19.3125 19.3125 14.6875 25 14.6875C30.6875 14.6875 35.3125 19.3125 35.3125 25C35.3125 30.6875 30.6875 35.3125 25 35.3125ZM25 16.7708C20.4583 16.7708 16.7708 20.4583 16.7708 25C16.7708 29.5417 20.4583 33.2292 25 33.2292C29.5417 33.2292 33.2292 29.5417 33.2292 25C33.2292 20.4583 29.5417 16.7708 25 16.7708Z" fill="#444444"/>
<path d="M24.9997 10.7669C24.4163 10.7669 23.958 10.3086 23.958 9.72526V7.47526C23.958 6.89193 24.4163 6.43359 24.9997 6.43359C25.583 6.43359 26.0413 6.89193 26.0413 7.47526V9.70443C26.0413 10.2878 25.583 10.7669 24.9997 10.7669Z" fill="#444444"/>
<path d="M24.9997 43.541C24.4163 43.541 23.958 43.0827 23.958 42.4993V40.2702C23.958 39.6868 24.4163 39.2285 24.9997 39.2285C25.583 39.2285 26.0413 39.6868 26.0413 40.2702V42.4993C26.0413 43.0827 25.583 43.541 24.9997 43.541Z" fill="#444444"/>
<path d="M39.6247 40.6725C39.3538 40.6725 39.083 40.5684 38.8955 40.36L35.083 36.5475C34.6663 36.1309 34.6663 35.485 35.083 35.0684C35.4997 34.6517 36.1455 34.6517 36.5622 35.0684L40.3747 38.8809C40.7913 39.2975 40.7913 39.9434 40.3747 40.36C40.1455 40.5684 39.8955 40.6725 39.6247 40.6725Z" fill="#444444"/>
<path d="M14.1877 15.2311C13.9168 15.2311 13.646 15.127 13.4585 14.9186L9.646 11.1061C9.22933 10.6895 9.22933 10.0436 9.646 9.62695C10.0627 9.21029 10.7085 9.21029 11.1252 9.62695L14.9377 13.4395C15.3543 13.8561 15.3543 14.502 14.9377 14.9186C14.7293 15.1478 14.4585 15.2311 14.1877 15.2311Z" fill="#444444"/>
<path d="M35.8122 15.2311C35.5413 15.2311 35.2705 15.127 35.083 14.9186C34.6663 14.502 34.6663 13.8561 35.083 13.4395L38.8955 9.62695C39.3122 9.21029 39.958 9.21029 40.3747 9.62695C40.7913 10.0436 40.7913 10.6895 40.3747 11.1061L36.5622 14.9186C36.333 15.1478 36.0622 15.2311 35.8122 15.2311Z" fill="#444444"/>
<path d="M10.3752 40.6725C10.1043 40.6725 9.8335 40.5684 9.646 40.36C9.22933 39.9434 9.22933 39.2975 9.646 38.8809L13.4585 35.0684C13.8752 34.6517 14.521 34.6517 14.9377 35.0684C15.3543 35.485 15.3543 36.1309 14.9377 36.5475L11.1252 40.36C10.9168 40.5684 10.646 40.6725 10.3752 40.6725Z" fill="#444444"/>
<path d="M9.72835 26.0404H7.49919C6.91585 26.0404 6.45752 25.582 6.45752 24.9987C6.45752 24.4154 6.91585 23.957 7.49919 23.957H9.72835C10.3117 23.957 10.77 24.4154 10.77 24.9987C10.77 25.582 10.2909 26.0404 9.72835 26.0404Z" fill="#444444"/>
<path d="M42.4998 26.0404H40.2707C39.6873 26.0404 39.229 25.582 39.229 24.9987C39.229 24.4154 39.6873 23.957 40.2707 23.957H42.4998C43.0832 23.957 43.5415 24.4154 43.5415 24.9987C43.5415 25.582 43.0832 26.0404 42.4998 26.0404Z" fill="#444444"/>
</svg>
