<svg width="44" height="33" viewBox="0 0 44 33" fill="none" xmlns="http://www.w3.org/2000/svg">
<path d="M22.0012 5.52617C21.3289 5.52617 20.8008 4.99801 20.8008 4.3258V1.75701C20.8008 1.0848 21.3289 0.556641 22.0012 0.556641C22.6734 0.556641 23.2015 1.0848 23.2015 1.75701V4.3258C23.2015 4.99801 22.6734 5.52617 22.0012 5.52617Z" fill="#444444"/>
<path d="M9.54153 10.6901C9.22944 10.6901 8.91734 10.5701 8.70128 10.33L6.87671 8.52948C6.39656 8.04933 6.39656 7.3051 6.87671 6.82495C7.35686 6.34481 8.1011 6.34481 8.58125 6.82495L10.4058 8.64952C10.8859 9.12966 10.8859 9.87389 10.4058 10.354C10.1657 10.5701 9.85363 10.6901 9.54153 10.6901Z" fill="#444444"/>
<path d="M4.4049 23.1527H1.83611C1.1639 23.1527 0.635742 22.6245 0.635742 21.9523C0.635742 21.2801 1.1639 20.752 1.83611 20.752H4.4049C5.07711 20.752 5.60527 21.2801 5.60527 21.9523C5.60527 22.6245 5.0531 23.1527 4.4049 23.1527Z" fill="#444444"/>
<path d="M42.1676 23.1527H39.5988C38.9266 23.1527 38.3984 22.6245 38.3984 21.9523C38.3984 21.2801 38.9266 20.752 39.5988 20.752H42.1676C42.8398 20.752 43.368 21.2801 43.368 21.9523C43.368 22.6245 42.8398 23.1527 42.1676 23.1527Z" fill="#444444"/>
<path d="M34.4611 10.6876C34.149 10.6876 33.8369 10.5676 33.6209 10.3275C33.1407 9.84737 33.1407 9.10314 33.6209 8.62299L35.4454 6.79843C35.9256 6.31828 36.6698 6.34229 37.1499 6.79843C37.6301 7.27858 37.6301 8.02281 37.1499 8.50295L35.3254 10.3275C35.0613 10.5676 34.7492 10.6876 34.4611 10.6876Z" fill="#444444"/>
<path d="M31.0756 28.7149C30.8595 28.7149 30.6434 28.6668 30.4514 28.5468C29.8752 28.2107 29.7071 27.4665 30.0672 26.8903C31.0035 25.3778 31.5077 23.6493 31.5077 21.9448C31.5077 16.7112 27.2584 12.4619 22.0248 12.4619C16.7912 12.4619 12.5419 16.7112 12.5419 21.9448C12.5419 23.6013 12.974 25.2098 13.7902 26.6262C14.1504 27.2024 14.0543 28.0667 13.4781 28.4028C12.902 28.7389 12.2538 28.6908 11.9177 28.1387C11.8216 27.9706 11.7496 27.8986 11.7016 27.8026C10.6933 26.026 10.1411 23.9854 10.1411 21.9208C10.1411 15.3667 15.4708 10.0371 22.0248 10.0371C28.5788 10.0371 33.9084 15.3667 33.9084 21.9208C33.9084 24.0814 33.2842 26.2181 32.1319 28.1387C31.8678 28.5228 31.4837 28.7149 31.0756 28.7149Z" fill="#444444"/>
<path d="M36.0686 32.7289H7.30779C6.63558 32.7289 6.10742 32.2007 6.10742 31.5285C6.10742 30.8563 6.63558 30.3281 7.30779 30.3281H36.0686C36.7408 30.3281 37.269 30.8563 37.269 31.5285C37.269 32.2007 36.7168 32.7289 36.0686 32.7289Z" fill="#444444"/>
</svg>
