<svg width="50" height="50" viewBox="0 0 50 50" fill="none" xmlns="http://www.w3.org/2000/svg">
<path d="M24.9997 10.7676C24.4163 10.7676 23.958 10.3092 23.958 9.72591V7.49674C23.958 6.91341 24.4163 6.45508 24.9997 6.45508C25.583 6.45508 26.0413 6.91341 26.0413 7.49674V9.72591C26.0413 10.2884 25.583 10.7676 24.9997 10.7676Z" fill="#444444"/>
<path d="M24.9997 43.541C24.4163 43.541 23.958 43.0827 23.958 42.4993V40.2702C23.958 39.6868 24.4163 39.2285 24.9997 39.2285C25.583 39.2285 26.0413 39.6868 26.0413 40.2702V42.4993C26.0413 43.0827 25.583 43.541 24.9997 43.541Z" fill="#444444"/>
<path d="M11.7713 18.3955C11.6046 18.3955 11.4171 18.3538 11.2505 18.2496L9.31295 17.1246C8.81295 16.833 8.64629 16.208 8.93795 15.708C9.22962 15.208 9.85462 15.0413 10.3546 15.333L12.2921 16.458C12.7921 16.7496 12.9588 17.3746 12.6671 17.8746C12.4796 18.208 12.1255 18.3955 11.7713 18.3955Z" fill="#444444"/>
<path d="M40.1668 34.79C40.0001 34.79 39.8126 34.7483 39.646 34.6442L37.7085 33.5192C37.2085 33.2275 37.0418 32.6025 37.3335 32.1025C37.6251 31.6025 38.2501 31.4358 38.7501 31.7275L40.6876 32.8525C41.1876 33.1442 41.3543 33.7692 41.0626 34.2692C40.8751 34.6025 40.521 34.79 40.1668 34.79Z" fill="#444444"/>
<path d="M9.83379 34.79C9.47962 34.79 9.12545 34.6025 8.93795 34.2692C8.64629 33.7692 8.81295 33.1442 9.31295 32.8525L11.2505 31.7275C11.7505 31.4358 12.3755 31.6025 12.6671 32.1025C12.9588 32.6025 12.7921 33.2275 12.2921 33.5192L10.3546 34.6442C10.188 34.7483 10.0213 34.79 9.83379 34.79Z" fill="#444444"/>
<path d="M38.2293 18.3955C37.8751 18.3955 37.521 18.208 37.3335 17.8746C37.0418 17.3746 37.2085 16.7496 37.7085 16.458L39.646 15.333C40.146 15.0413 40.771 15.208 41.0626 15.708C41.3543 16.208 41.1876 16.833 40.6876 17.1246L38.7501 18.2496C38.5835 18.3538 38.4168 18.3955 38.2293 18.3955Z" fill="#444444"/>
<path d="M24.9995 14.6895C19.312 14.6895 14.687 19.3145 14.687 25.002C14.687 30.6895 19.312 35.3145 24.9995 35.3145C30.687 35.3145 35.312 30.6895 35.312 25.002C35.312 19.3145 30.687 14.6895 24.9995 14.6895ZM24.9995 33.2311V16.7728C29.5412 16.7728 33.2287 20.4603 33.2287 25.002C33.2287 29.5436 29.5412 33.2311 24.9995 33.2311Z" fill="#444444"/>
</svg>
