<svg width="50" height="50" viewBox="0 0 50 50" fill="none" xmlns="http://www.w3.org/2000/svg">
<path d="M24.9995 14.6895C23.3745 14.6895 21.7912 15.0853 20.2495 15.8978C16.812 17.6895 14.687 21.1895 14.687 25.0228C14.687 30.7103 19.312 35.3353 24.9995 35.3353C28.8328 35.3353 32.312 33.2103 34.1245 29.7728C34.9162 28.252 35.3329 26.6478 35.3329 25.0228C35.312 19.3145 30.687 14.6895 24.9995 14.6895ZM24.9995 33.2311C20.4578 33.2311 16.7703 29.5436 16.7703 25.002C16.7703 23.0436 17.4787 21.1895 18.7078 19.752C18.7078 19.7728 18.7078 19.7936 18.7078 19.8145C18.6453 20.2311 18.6245 20.6686 18.6245 21.0853C18.6245 26.7728 23.2495 31.3978 28.937 31.3978C29.3745 31.3978 29.7912 31.3561 30.2078 31.3145C30.2287 31.3145 30.2495 31.3145 30.2703 31.3145C28.812 32.5436 26.9578 33.2311 24.9995 33.2311Z" fill="#444444"/>
<path d="M24.9997 10.7676C24.4163 10.7676 23.958 10.3092 23.958 9.72591V7.49674C23.958 6.91341 24.4163 6.45508 24.9997 6.45508C25.583 6.45508 26.0413 6.91341 26.0413 7.49674V9.72591C26.0413 10.2884 25.583 10.7676 24.9997 10.7676Z" fill="#444444"/>
<path d="M24.9997 43.541C24.4163 43.541 23.958 43.0827 23.958 42.4993V40.2702C23.958 39.6868 24.4163 39.2285 24.9997 39.2285C25.583 39.2285 26.0413 39.6868 26.0413 40.2702V42.4993C26.0413 43.0827 25.583 43.541 24.9997 43.541Z" fill="#444444"/>
<path d="M11.7713 18.3955C11.6046 18.3955 11.4171 18.3538 11.2504 18.2496L9.31296 17.1246C8.81296 16.833 8.64628 16.208 8.93795 15.708C9.22961 15.208 9.85463 15.0413 10.3546 15.333L12.2921 16.458C12.7921 16.7496 12.9588 17.3746 12.6671 17.8746C12.4796 18.208 12.1254 18.3955 11.7713 18.3955Z" fill="#444444"/>
<path d="M40.1668 34.79C40.0001 34.79 39.8126 34.7483 39.646 34.6442L37.7085 33.5192C37.2085 33.2275 37.0418 32.6025 37.3335 32.1025C37.6251 31.6025 38.271 31.4358 38.7501 31.7275L40.6876 32.8525C41.1876 33.1442 41.3543 33.7692 41.0626 34.2692C40.8751 34.6025 40.521 34.79 40.1668 34.79Z" fill="#444444"/>
<path d="M9.8338 34.79C9.47963 34.79 9.12545 34.6025 8.93795 34.2692C8.64628 33.7692 8.81296 33.1442 9.31296 32.8525L11.2504 31.7275C11.7504 31.4358 12.3755 31.6025 12.6671 32.1025C12.9588 32.6025 12.7921 33.2275 12.2921 33.5192L10.3546 34.6442C10.188 34.7483 10.0213 34.79 9.8338 34.79Z" fill="#444444"/>
<path d="M38.2293 18.3955C37.8751 18.3955 37.521 18.208 37.3335 17.8746C37.0418 17.3746 37.2085 16.7496 37.7085 16.458L39.646 15.333C40.146 15.0413 40.771 15.208 41.0626 15.708C41.3543 16.208 41.1876 16.833 40.6876 17.1246L38.7501 18.2496C38.5835 18.3538 38.4168 18.3955 38.2293 18.3955Z" fill="#444444"/>
</svg>
