<svg width="50" height="50" viewBox="0 0 50 50" fill="none" xmlns="http://www.w3.org/2000/svg">
<path d="M25.0015 35.3145C19.314 35.3145 14.689 30.6895 14.689 25.002C14.689 19.3145 19.314 14.6895 25.0015 14.6895C30.689 14.6895 35.314 19.3145 35.314 25.002C35.314 30.6895 30.689 35.3145 25.0015 35.3145ZM25.0015 16.7728C20.4598 16.7728 16.7723 20.4603 16.7723 25.002C16.7723 29.5436 20.4598 33.2311 25.0015 33.2311C29.5431 33.2311 33.2306 29.5436 33.2306 25.002C33.2306 20.4603 29.5431 16.7728 25.0015 16.7728Z" fill="#444444"/>
<path d="M25.0007 10.7708C24.4173 10.7708 23.959 10.3125 23.959 9.72917V7.47917C23.959 6.89583 24.4173 6.4375 25.0007 6.4375C25.584 6.4375 26.0423 6.89583 26.0423 7.47917V9.70833C26.0423 10.2917 25.584 10.7708 25.0007 10.7708Z" fill="#444444"/>
<path d="M25.0007 43.541C24.4173 43.541 23.959 43.0827 23.959 42.4993V40.2702C23.959 39.6868 24.4173 39.2285 25.0007 39.2285C25.584 39.2285 26.0423 39.6868 26.0423 40.2702V42.4993C26.0423 43.0827 25.584 43.541 25.0007 43.541Z" fill="#444444"/>
<path d="M14.189 15.2292C13.9181 15.2292 13.6473 15.125 13.4598 14.9167L11.8765 13.3542C11.4598 12.9583 11.4598 12.2917 11.8765 11.875C12.2931 11.4583 12.939 11.4583 13.3556 11.875L14.939 13.4583C15.3556 13.8542 15.3556 14.5208 14.939 14.9375C14.7306 15.1458 14.4598 15.2292 14.189 15.2292Z" fill="#444444"/>
<path d="M37.3755 38.416C37.1046 38.416 36.8338 38.3118 36.6463 38.1035L35.063 36.5202C34.6463 36.1035 34.6463 35.4577 35.063 35.041C35.4797 34.6243 36.1255 34.6243 36.5422 35.041L38.1255 36.6243C38.5421 37.041 38.5421 37.6868 38.1255 38.1035C37.9171 38.3118 37.6463 38.416 37.3755 38.416Z" fill="#444444"/>
<path d="M9.73031 26.0404H7.50114C6.91781 26.0404 6.45947 25.582 6.45947 24.9987C6.45947 24.4154 6.91781 23.957 7.50114 23.957H9.73031C10.3136 23.957 10.772 24.4154 10.772 24.9987C10.772 25.582 10.2928 26.0404 9.73031 26.0404Z" fill="#444444"/>
<path d="M42.5008 26.0404H40.2716C39.6883 26.0404 39.23 25.582 39.23 24.9987C39.23 24.4154 39.6883 23.957 40.2716 23.957H42.5008C43.0841 23.957 43.5425 24.4154 43.5425 24.9987C43.5425 25.582 43.0841 26.0404 42.5008 26.0404Z" fill="#444444"/>
<path d="M12.6257 38.416C12.3548 38.416 12.084 38.3118 11.8965 38.1035C11.4798 37.6868 11.4798 37.041 11.8965 36.6243L13.4798 35.041C13.8965 34.6243 14.5423 34.6243 14.959 35.041C15.3757 35.4577 15.3757 36.1035 14.959 36.5202L13.3756 38.1035C13.1465 38.3118 12.8965 38.416 12.6257 38.416Z" fill="#444444"/>
<path d="M35.8131 15.2246C35.5423 15.2246 35.2715 15.1204 35.084 14.9121C34.6673 14.4954 34.6673 13.8496 35.084 13.4329L36.6673 11.8496C37.084 11.4329 37.7298 11.4329 38.1465 11.8496C38.5632 12.2663 38.5632 12.9121 38.1465 13.3288L36.5631 14.9121C36.334 15.1413 36.0631 15.2246 35.8131 15.2246Z" fill="#444444"/>
</svg>
