<svg width="76" height="76" viewBox="0 0 76 76" fill="none" xmlns="http://www.w3.org/2000/svg">
<rect width="76" height="76" fill="#F8F8F8"/>
<g clip-path="url(#clip0_29_121)">
<path d="M38 17.48C33.9688 17.48 30.1026 19.0562 27.252 21.862C24.4015 24.6678 22.8 28.4732 22.8 32.4411V55.2741C22.8 55.9273 23.0637 56.5537 23.5329 57.0156C24.0022 57.4775 24.6386 57.737 25.3022 57.737H50.6979C51.3615 57.737 51.9979 57.4775 52.4672 57.0156C52.9364 56.5537 53.2 55.9273 53.2 55.2741V32.4641C53.2031 30.4975 52.8122 28.5495 52.0497 26.7317C51.2872 24.9139 50.1681 23.2618 48.7563 21.8701C47.3446 20.4784 45.6679 19.3743 43.8223 18.621C41.9766 17.8677 39.9981 17.48 38 17.48ZM51.1071 32.4411V34.2365C51.1174 34.3902 51.0943 34.5444 51.0392 34.6886C50.9841 34.8329 50.8983 34.9639 50.7876 35.0728C50.6769 35.1818 50.5438 35.2662 50.3973 35.3205C50.2507 35.3747 50.0941 35.3975 49.9379 35.3873V35.3873C49.1779 35.3873 48.4413 35.5139 47.7281 35.6175C47.5427 35.6349 47.3558 35.6084 47.183 35.5404C47.0101 35.4723 46.8562 35.3646 46.7342 35.2262C46.2453 34.7874 45.6069 34.5451 44.9453 34.5472C44.3523 34.546 43.7757 34.7386 43.3059 35.0948C42.8362 35.4509 42.4998 35.9505 42.3496 36.5151V36.5151C42.2818 36.9302 42.0508 37.3022 41.7065 37.5509V37.5509C40.3634 38.2575 39.1404 39.1661 38.0819 40.2439C36.8403 41.5402 35.8001 43.01 34.9951 44.6057C34.3871 45.699 34.3754 44.3755 34.3754 44.3755V38.0688C34.6093 32.1649 35.6967 26.4567 40.093 23.1077C40.5347 22.7877 41.0043 22.5066 41.4961 22.2675C42.2243 21.9887 42.9951 21.8331 43.7761 21.8072C44.7679 21.8405 45.731 22.1432 46.5588 22.6819C47.9893 23.8927 49.1364 25.394 49.9215 27.0826C50.7067 28.7712 51.1111 30.6071 51.1071 32.4641V32.4411ZM38 19.5515C38.8329 19.5631 39.6628 19.6517 40.4788 19.8162C40.6893 19.9083 41.0401 20.1039 40.6191 20.3341C40.5681 20.358 40.5208 20.389 40.4788 20.4262C39.8809 20.7319 39.31 21.086 38.7717 21.485C37.1851 22.7063 35.8782 24.2436 34.9367 25.9963L34.7613 26.2955C33.7207 28.298 33.0776 26.2955 33.0776 26.2955L33.0191 26.238C32.4526 24.9236 31.7051 23.6922 30.7976 22.5783V22.5783C30.7976 22.5783 30.2831 22.0949 30.7976 21.7151C32.9253 20.3028 35.4337 19.5493 38 19.5515V19.5515ZM24.9047 32.4641C24.9123 29.5284 25.9443 26.6844 27.8278 24.4081C28.0579 24.1797 28.3665 24.0442 28.693 24.0284C29.2659 24.0284 29.7219 24.0284 30.6222 25.3749C31.7178 27.581 32.2744 30.0087 32.2475 32.4641V47.8396C32.2475 49.5198 31.6161 48.5186 31.6161 48.5186C30.1708 46.5166 28.1272 45.008 25.7699 44.2029V44.2029C25.5075 44.0854 25.2852 43.8958 25.1296 43.657C24.9741 43.4181 24.8919 43.1401 24.893 42.8564L24.9047 32.4641ZM24.9047 55.2971V47.6785C24.9047 45.6645 26.2961 46.1593 27.1496 46.6657C29.4911 48.2514 31.1401 50.6468 31.7681 53.3752C31.885 53.8471 32.2241 55.6769 30.3416 55.6769H25.2554C25.1603 55.6659 25.0724 55.6213 25.0079 55.5515C24.9435 55.4818 24.9068 55.3914 24.9047 55.2971V55.2971ZM51.1071 41.9702C51.0978 45.6005 49.627 49.0792 47.0168 51.6441C44.4066 54.209 40.8699 55.6509 37.1816 55.6539V55.6539C34.4924 55.6539 34.6093 52.9609 34.7613 51.9366C35.3158 48.1143 36.999 44.5366 39.6019 41.648C40.5086 40.7191 41.5345 39.9105 42.6536 39.2427C42.7514 39.1871 42.8622 39.1579 42.9751 39.1579C43.088 39.1579 43.1989 39.1871 43.2967 39.2427C43.7672 39.5963 44.3416 39.7901 44.9336 39.7951C45.5448 39.7959 46.1379 39.5908 46.6143 39.214C47.0908 38.8372 47.4219 38.3112 47.5527 37.7236V37.7236V37.666C47.5787 37.5401 47.6411 37.4243 47.7323 37.3324C47.8236 37.2405 47.9398 37.1766 48.0671 37.1481C48.8009 37.002 49.5426 36.8982 50.2887 36.8374C50.6278 36.8374 51.0954 37.1366 51.0954 38.1494L51.1071 41.9702Z" fill="#E5E5E5"/>
</g>
<defs>
<clipPath id="clip0_29_121">
<rect width="30.4" height="40.28" fill="white" transform="translate(22.8 17.48)"/>
</clipPath>
</defs>
</svg>
