<svg width="90" height="19" viewBox="0 0 90 19" fill="none" xmlns="http://www.w3.org/2000/svg">
<path d="M70.015 6.46109H66.8944C66.7061 6.46679 66.5227 6.39872 66.381 6.2705C66.2387 6.11638 66.1594 5.91162 66.1594 5.69869C66.1594 5.48576 66.2387 5.281 66.381 5.12688C66.5215 4.99566 66.705 4.92456 66.8944 4.92799H70.015V1.1822C70.0076 1.07105 70.0247 0.95965 70.065 0.856309C70.1053 0.752969 70.1677 0.660398 70.2476 0.585552C70.4087 0.457868 70.6061 0.388641 70.8092 0.388641C71.0122 0.388641 71.2096 0.457868 71.3707 0.585552C71.4546 0.659664 71.5207 0.752858 71.5639 0.857827C71.607 0.962795 71.626 1.07666 71.6194 1.1905V11.4334C71.627 11.5453 71.6092 11.6575 71.5674 11.7611C71.5256 11.8647 71.461 11.9568 71.3787 12.0301C71.2169 12.1626 71.0156 12.2329 70.8092 12.2289C70.6042 12.2393 70.4033 12.1681 70.2476 12.0301C70.1668 11.956 70.1037 11.8636 70.0633 11.76C70.0229 11.6565 70.0064 11.5446 70.015 11.4334V6.46109Z" fill="white"/>
<path d="M15.2042 0.86559C15.2444 0.762523 15.3059 0.669806 15.3844 0.593871C15.5465 0.46562 15.7446 0.395422 15.9487 0.393926C16.1528 0.392431 16.3518 0.459712 16.5156 0.585576C16.5995 0.659688 16.6656 0.752883 16.7087 0.857851C16.7519 0.962819 16.7709 1.07669 16.7642 1.19052V9.95831C16.7715 10.0722 16.7528 10.1863 16.7096 10.2914C16.6664 10.3965 16.6 10.4896 16.5156 10.5633C16.3524 10.6922 16.1514 10.7595 15.946 10.7539C15.7411 10.7642 15.5401 10.693 15.3844 10.555C15.3046 10.4801 15.2421 10.3875 15.2018 10.2842C15.1615 10.1809 15.1444 10.0695 15.1518 9.95831V1.19052C15.1461 1.07956 15.164 0.968657 15.2042 0.86559Z" fill="white"/>
<path d="M16.0182 12.0964C16.219 12.1943 16.3907 12.3459 16.5156 12.5355C16.6259 12.6983 16.6974 12.8858 16.7241 13.0825C16.7561 13.2825 16.7722 13.4848 16.7723 13.6875V17.5409C16.7793 17.6528 16.7612 17.7649 16.7194 17.8684C16.6777 17.9718 16.6134 18.064 16.5316 18.1376C16.3759 18.2757 16.175 18.3468 15.9701 18.3365C15.7673 18.3409 15.5692 18.2737 15.4085 18.1459C15.3241 18.0722 15.2576 17.9791 15.2144 17.874C15.1712 17.7689 15.1525 17.6549 15.1598 17.5409V13.6875C15.1598 13.4803 15.1197 13.4803 15.1197 13.4803C15.0757 13.4638 15.0274 13.4638 14.9833 13.4803H2.94215C2.75278 13.4837 2.56925 13.4126 2.42875 13.2814C2.35312 13.2088 2.29381 13.12 2.25501 13.0212C2.2162 12.9224 2.19883 12.8161 2.20413 12.7096C2.19991 12.6032 2.21776 12.4972 2.2565 12.3986C2.29524 12.2999 2.35398 12.211 2.42875 12.1378C2.56925 12.0066 2.75278 11.9355 2.94215 11.9389H15.216C15.4912 11.932 15.7646 11.9857 16.0182 12.0964Z" fill="white"/>
<path d="M4.54656 8.28427C4.89682 7.94842 5.21887 7.58247 5.50923 7.19036C5.70579 6.92839 5.88279 6.65135 6.03869 6.36165C6.18311 6.62545 6.34668 6.87758 6.52803 7.11581C6.81347 7.49427 7.13022 7.84638 7.47465 8.16824C7.8377 8.50791 8.22969 8.81304 8.64587 9.07985C9.05217 9.3499 9.49205 9.56178 9.95348 9.70968C10.0673 9.76126 10.1902 9.78788 10.3145 9.78788C10.4387 9.78788 10.5617 9.76126 10.6755 9.70968C10.7722 9.6552 10.857 9.58069 10.9246 9.49087C10.9922 9.40104 11.0412 9.29783 11.0685 9.18759C11.1056 9.08003 11.1207 8.96575 11.1129 8.85188C11.1052 8.73802 11.0747 8.62699 11.0235 8.52584C10.9723 8.42469 10.9014 8.3356 10.8153 8.26409C10.7292 8.19257 10.6297 8.1402 10.523 8.11027C9.94596 7.86344 9.39267 7.56098 8.87049 7.20695C8.42014 6.91077 8.02145 6.53812 7.69124 6.10475C7.37713 5.67709 7.14067 5.19418 6.99332 4.67939C6.82449 4.07353 6.74337 3.44518 6.75264 2.81479V1.31482C6.75807 1.20114 6.73852 1.08763 6.69545 0.982862C6.65239 0.878092 6.58692 0.784739 6.50396 0.709828C6.34106 0.582774 6.14253 0.514081 5.93841 0.514081C5.7343 0.514081 5.53574 0.582774 5.37284 0.709828C5.29296 0.784675 5.23053 0.877245 5.19023 0.980586C5.14994 1.08393 5.13285 1.19538 5.14022 1.30653V3.01367C5.1465 3.64718 5.06272 4.27821 4.89153 4.88657C4.73224 5.4072 4.49101 5.89718 4.17756 6.33682C3.8489 6.7733 3.45326 7.15121 3.00633 7.45556C2.50067 7.78829 1.96299 8.06601 1.40191 8.28427C1.1923 8.35499 1.01706 8.50634 0.912553 8.70692C0.85915 8.80573 0.82591 8.9148 0.814872 9.0274C0.803835 9.13999 0.815244 9.25372 0.848387 9.36158C0.875699 9.47182 0.924686 9.57509 0.992314 9.66492C1.05994 9.75474 1.14475 9.82919 1.24146 9.88368C1.34776 9.94113 1.46648 9.96968 1.58641 9.96658C1.71523 9.96361 1.84267 9.93838 1.96345 9.89197C2.45055 9.72322 2.91645 9.49509 3.35128 9.21242C3.77682 8.94215 4.17698 8.63142 4.54656 8.28427Z" fill="white"/>
<path d="M22.7086 16.7289H34.7418C34.93 16.7218 35.1146 16.7835 35.2632 16.9029C35.4054 17.057 35.4848 17.2618 35.4848 17.4747C35.4848 17.6877 35.4054 17.8924 35.2632 18.0465C35.1179 18.1749 34.933 18.2454 34.7418 18.2454H22.5321C22.2629 18.2519 21.9937 18.2269 21.7299 18.1708C21.5378 18.1298 21.3603 18.0352 21.2165 17.8974C21.0894 17.7683 21.0076 17.5992 20.9839 17.4167C20.9497 17.2366 20.9336 17.0533 20.9357 16.8697V14.682C20.9384 14.5108 20.9885 14.344 21.0801 14.2013C21.1958 14.0533 21.3573 13.9509 21.5374 13.9113C21.8004 13.8489 22.0699 13.821 22.3396 13.8284H33.4261C33.4704 13.8435 33.5183 13.8435 33.5625 13.8284V12.635C33.5183 12.6199 33.4704 12.6199 33.4261 12.635H21.7059C21.5165 12.6385 21.3329 12.5674 21.1924 12.4361C21.0478 12.2816 20.967 12.0751 20.967 11.8602C20.967 11.6453 21.0478 11.4387 21.1924 11.2842C21.3329 11.153 21.5165 11.0819 21.7059 11.0853H33.8192C34.0886 11.0765 34.358 11.1015 34.6214 11.1599C34.7986 11.2064 34.9562 11.3111 35.0707 11.4583C35.1687 11.5982 35.222 11.7662 35.2231 11.9389V14.4168C35.2203 14.6035 35.1705 14.7863 35.0787 14.9472C34.9734 15.1165 34.819 15.247 34.6375 15.32C34.3807 15.4159 34.108 15.4582 33.8353 15.4444H22.7086C22.6598 15.4405 22.6113 15.4552 22.5722 15.4858C22.5722 15.4858 22.5321 15.5272 22.5321 15.693V16.5217C22.5321 16.6874 22.5722 16.7289 22.5722 16.7289C22.6163 16.7453 22.6646 16.7453 22.7086 16.7289Z" fill="white"/>
<path fill-rule="evenodd" clip-rule="evenodd" d="M21.2005 5.34237C21.3253 5.53202 21.4971 5.6837 21.6978 5.78161C21.9514 5.89225 22.2249 5.94587 22.5 5.93901H33.5706C33.8459 5.94797 34.1198 5.89427 34.3728 5.78161C34.5728 5.68633 34.7445 5.53754 34.8701 5.35066C34.9845 5.17095 35.0585 4.96705 35.0867 4.75396C35.116 4.55378 35.1294 4.35146 35.1268 4.14902V2.44187C35.1297 2.23942 35.1163 2.03708 35.0867 1.83693C35.0576 1.62537 34.9865 1.42224 34.8781 1.24023C34.7478 1.0546 34.5739 0.906335 34.3728 0.809335C34.1205 0.693572 33.8465 0.636958 33.5706 0.643583H22.5C22.2243 0.639083 21.9507 0.695605 21.6978 0.809335C21.5027 0.900807 21.3345 1.04407 21.2105 1.2246C21.0865 1.40513 21.0111 1.61645 20.9919 1.83693C20.9596 2.03685 20.9435 2.23919 20.9438 2.44187V4.19044C20.9449 4.39277 20.9583 4.59485 20.9839 4.79544C21.0166 4.99188 21.0905 5.17854 21.2005 5.34237ZM22.5562 2.40045C22.5562 2.23471 22.5963 2.19327 22.5963 2.19327C22.6353 2.16272 22.6839 2.14799 22.7327 2.15184H33.4021C33.4508 2.14873 33.4991 2.16339 33.5385 2.19327V4.3562C33.4991 4.38608 33.4508 4.40073 33.4021 4.39762H22.7327C22.6839 4.40147 22.6353 4.38675 22.5963 4.3562C22.5963 4.3562 22.5562 4.3562 22.5562 4.14902V2.40045Z" fill="white"/>
<path d="M20.1415 7.41415H35.9531C36.1049 7.41387 36.2532 7.46091 36.3786 7.5491C36.5041 7.63728 36.6009 7.7625 36.6563 7.90842C36.7118 8.05434 36.7234 8.21417 36.6895 8.36698C36.6556 8.5198 36.5779 8.65849 36.4665 8.76495C36.3256 8.89546 36.1424 8.96644 35.9531 8.96384H28.8616V10.066C28.8688 10.1787 28.8501 10.2916 28.8069 10.3953C28.7636 10.4991 28.6971 10.5907 28.6129 10.6627C28.4524 10.7977 28.2502 10.8684 28.0433 10.8616C27.8384 10.8719 27.6374 10.8007 27.4818 10.6627C27.4032 10.5868 27.3417 10.494 27.3016 10.391C27.2614 10.2879 27.2435 10.177 27.2491 10.066V8.96384H20.1415C19.9522 8.96727 19.7686 8.89617 19.6281 8.76495C19.4835 8.61043 19.4027 8.40391 19.4027 8.18899C19.4027 7.97407 19.4835 7.76756 19.6281 7.61303C19.7686 7.48181 19.9522 7.41072 20.1415 7.41415Z" fill="white"/>
<path d="M48.4997 16.53H38.44C38.2506 16.5266 38.0671 16.5976 37.9266 16.7289C37.8496 16.8003 37.7893 16.889 37.7504 16.988C37.7115 17.0871 37.6949 17.194 37.7019 17.3007C37.6955 17.4073 37.7123 17.514 37.7512 17.613C37.7901 17.712 37.85 17.8007 37.9266 17.8725C38.0671 18.0037 38.2506 18.0748 38.44 18.0714H48.4997C48.6891 18.0748 48.8726 18.0037 49.0131 17.8725C49.0879 17.7993 49.1466 17.7103 49.1853 17.6117C49.2241 17.5131 49.242 17.407 49.2377 17.3007C49.243 17.1942 49.2256 17.0878 49.1868 16.989C49.148 16.8902 49.0887 16.8014 49.0131 16.7289C48.8726 16.5976 48.6891 16.5266 48.4997 16.53Z" fill="white"/>
<path d="M51.785 0.86559C51.8252 0.762523 51.8867 0.669806 51.9652 0.593871C52.1273 0.46562 52.3253 0.395422 52.5294 0.393926C52.7335 0.392431 52.9326 0.459712 53.0964 0.585576C53.1803 0.659688 53.2464 0.752883 53.2895 0.857851C53.3327 0.962819 53.3517 1.07669 53.345 1.19052V17.8311C53.3523 17.945 53.3336 18.0591 53.2904 18.1641C53.2472 18.2692 53.1807 18.3623 53.0964 18.436C52.9332 18.5649 52.7321 18.6323 52.5268 18.6267C52.3219 18.637 52.1209 18.5658 51.9652 18.4277C51.8854 18.3529 51.8229 18.2603 51.7826 18.157C51.7423 18.0536 51.7252 17.9422 51.7326 17.8311V1.19052C51.7269 1.07956 51.7448 0.968657 51.785 0.86559Z" fill="white"/>
<path fill-rule="evenodd" clip-rule="evenodd" d="M44.8175 0.908784C44.2485 0.700338 43.6484 0.596564 43.0447 0.602164C42.4434 0.595807 41.8459 0.699617 41.2798 0.908784C40.778 1.09224 40.315 1.37358 39.916 1.7375C39.5368 2.07493 39.2329 2.49338 39.0256 2.96397C38.8171 3.42872 38.7103 3.93516 38.7127 4.44735V7.59645C38.7103 8.10864 38.8171 8.61513 39.0256 9.07987C39.2329 9.55047 39.5368 9.96892 39.916 10.3063C40.3162 10.6686 40.7788 10.9498 41.2798 11.1351C42.4276 11.533 43.6697 11.533 44.8175 11.1351C45.3233 10.9498 45.7913 10.6688 46.1973 10.3063C46.5725 9.96499 46.8756 9.54751 47.0878 9.07987C47.2923 8.6138 47.399 8.10819 47.4006 7.59645V4.44735C47.399 3.9356 47.2923 3.43005 47.0878 2.96397C46.8776 2.49509 46.5742 2.0772 46.1973 1.7375C45.7913 1.37504 45.3233 1.094 44.8175 0.908784ZM45.7882 6.9998C45.8241 7.40113 45.7745 7.8057 45.6428 8.1851C45.5112 8.56451 45.3007 8.90955 45.0261 9.1959C44.4664 9.66149 43.7628 9.90274 43.0447 9.8754C42.3342 9.90045 41.6389 9.65912 41.0873 9.1959C40.8055 8.91328 40.5875 8.56995 40.4489 8.19036C40.3102 7.81078 40.2543 7.40426 40.285 6.9998V5.01916C40.2532 4.61585 40.3087 4.2103 40.4475 3.83189C40.5862 3.45347 40.8048 3.11167 41.0873 2.83135C41.6371 2.36475 42.3336 2.12298 43.0447 2.15185C43.7634 2.11994 44.4685 2.36171 45.0261 2.83135C45.3014 3.11544 45.5125 3.45892 45.6442 3.83715C45.776 4.21537 45.8251 4.61901 45.7882 5.01916V6.9998Z" fill="white"/>
<path d="M71.2824 16.7288H58.8883C58.8439 16.7429 58.7964 16.7429 58.7519 16.7288V13.3311C58.7592 13.2184 58.7404 13.1056 58.6972 13.0018C58.654 12.8981 58.5875 12.8064 58.5032 12.7344C58.3393 12.6099 58.1412 12.5427 57.9377 12.5427C57.7342 12.5427 57.536 12.6099 57.3721 12.7344C57.2936 12.8104 57.2321 12.9031 57.1919 13.0062C57.1517 13.1093 57.1338 13.2202 57.1395 13.3311V16.5217C57.1406 16.724 57.154 16.926 57.1796 17.1266C57.2079 17.3371 57.2819 17.5383 57.3962 17.715C57.521 17.9047 57.6928 18.0563 57.8935 18.1543C58.1471 18.2649 58.4206 18.3186 58.6958 18.3117H71.2824C71.4718 18.3151 71.6554 18.244 71.7959 18.1128C71.9381 17.9587 72.0174 17.7539 72.0174 17.541C72.0174 17.328 71.9381 17.1233 71.7959 16.9692C71.6617 16.8228 71.4774 16.7365 71.2824 16.7288Z" fill="white"/>
<path fill-rule="evenodd" clip-rule="evenodd" d="M60.5328 10.9445C59.9316 10.9508 59.3341 10.847 58.768 10.6379C58.271 10.4544 57.8133 10.1729 57.4203 9.80914C57.0521 9.46887 56.7593 9.05048 56.5619 8.58261C56.3598 8.11599 56.256 7.61041 56.2571 7.09924V4.6131C56.256 4.10193 56.3598 3.59635 56.5619 3.12973C56.7631 2.66411 57.0553 2.24649 57.4203 1.9032C57.8142 1.5406 58.2716 1.25929 58.768 1.07449C59.3341 0.865319 59.9316 0.761509 60.5328 0.767866C61.1366 0.762266 61.7366 0.86604 62.3057 1.07449C62.8069 1.25924 63.2697 1.54044 63.6695 1.9032C64.0345 2.24833 64.329 2.66536 64.5359 3.12973C64.7443 3.59447 64.8511 4.10091 64.8487 4.6131V7.09924C64.8511 7.61143 64.7443 8.11787 64.5359 8.58261C64.329 9.04698 64.0345 9.46401 63.6695 9.80914C63.2705 10.1731 62.8075 10.4544 62.3057 10.6379C61.7366 10.8463 61.1366 10.9501 60.5328 10.9445ZM58.0381 4.05323C57.9108 4.43227 57.8642 4.83527 57.9016 5.23464V6.51913C57.8642 6.9185 57.9108 7.3215 58.0381 7.70054C58.1655 8.07958 58.3707 8.42573 58.6396 8.71524C59.175 9.18533 59.863 9.42818 60.5649 9.39479C61.2765 9.4276 61.9744 9.18532 62.5223 8.71524C62.7927 8.42645 62.9993 8.08063 63.1281 7.70155C63.2569 7.32248 63.3047 6.91911 63.2684 6.51913V5.23464C63.3047 4.83466 63.2569 4.43129 63.1281 4.05221C62.9993 3.67314 62.7927 3.32731 62.5223 3.03853C61.9725 2.57193 61.276 2.33016 60.5649 2.35903C59.8636 2.32973 59.177 2.57204 58.6396 3.03853C58.3707 3.32804 58.1655 3.67418 58.0381 4.05323Z" fill="white"/>
<path fill-rule="evenodd" clip-rule="evenodd" d="M81.9679 1.73747C81.5979 1.37142 81.158 1.08917 80.6764 0.908759C79.5551 0.499936 78.3321 0.499936 77.2108 0.908759C76.7358 1.09311 76.3019 1.37503 75.9353 1.73747C75.5845 2.08096 75.3107 2.49956 75.1331 2.96395C74.9534 3.43364 74.8609 3.93401 74.8603 4.43903V14.3836C74.8609 14.8886 74.9534 15.389 75.1331 15.8587C75.3107 16.3231 75.5845 16.7417 75.9353 17.0852C76.304 17.4448 76.7373 17.7264 77.2108 17.9139C78.3339 18.3117 79.5533 18.3117 80.6764 17.9139C81.1566 17.7305 81.5959 17.4486 81.9679 17.0852C82.3156 16.739 82.589 16.3212 82.7701 15.8587C82.9561 15.3907 83.0515 14.8895 83.0509 14.3836V4.43903C83.0524 3.93033 82.957 3.42631 82.7701 2.95565C82.5888 2.4957 82.3155 2.08057 81.9679 1.73747ZM81.4465 13.8118C81.4832 14.2072 81.4441 14.6062 81.3312 14.9859C81.2183 15.3656 81.0339 15.7185 80.7886 16.0245C80.5391 16.2559 80.2474 16.4337 79.9306 16.5476C79.6138 16.6614 79.2783 16.7089 78.9436 16.6874C78.6125 16.7088 78.2806 16.6612 77.9678 16.5473C77.6549 16.4334 77.3675 16.2556 77.1225 16.0245C76.8787 15.7179 76.6958 15.3647 76.5843 14.985C76.4728 14.6053 76.4349 14.2066 76.4728 13.8118V5.01914C76.4351 4.6256 76.4731 4.22823 76.5846 3.84992C76.6961 3.47161 76.8789 3.11984 77.1225 2.81479C77.3675 2.58366 77.6549 2.40584 77.9678 2.29193C78.2806 2.17803 78.6125 2.13039 78.9436 2.15183C79.2783 2.13031 79.6138 2.17786 79.9306 2.29168C80.2474 2.40551 80.5391 2.58332 80.7886 2.81479C81.0337 3.1192 81.218 3.47072 81.3309 3.84906C81.4438 4.22739 81.483 4.62504 81.4465 5.01914V13.8118Z" fill="white"/>
<path d="M89.2078 0.389754C89.412 0.389754 89.6105 0.458497 89.7734 0.585552C89.8516 0.663159 89.9122 0.757569 89.951 0.862126C89.9898 0.966684 90.0059 1.07881 89.998 1.1905V17.8228C90.0035 17.9364 89.9839 18.0499 89.9408 18.1547C89.8978 18.2595 89.8323 18.3528 89.7493 18.4277C89.5856 18.5554 89.3849 18.6226 89.1798 18.6183C88.9748 18.6287 88.7739 18.5575 88.6182 18.4195C88.5383 18.3446 88.4759 18.252 88.4356 18.1487C88.3953 18.0454 88.3782 17.9339 88.3856 17.8228V9.47762H85.1767C84.9871 9.48276 84.8029 9.41143 84.6633 9.27873C84.5187 9.12421 84.4379 8.91769 84.4379 8.70277C84.4379 8.48786 84.5187 8.28134 84.6633 8.12681C84.8029 7.99411 84.9871 7.92279 85.1767 7.92793H88.4096V1.1822C88.404 1.07124 88.4219 0.960338 88.4621 0.85727C88.5022 0.754203 88.5638 0.661486 88.6423 0.585552C88.8052 0.458497 89.0037 0.389754 89.2078 0.389754Z" fill="white"/>
</svg>
