<svg width="22" height="29" viewBox="0 0 22 29" fill="none" xmlns="http://www.w3.org/2000/svg">
<path d="M10.5405 0C7.74502 0 5.06399 1.1355 3.08726 3.15669C1.11052 5.17788 0 7.91919 0 10.7776V27.2258C0 27.6964 0.182816 28.1476 0.508217 28.4804C0.833618 28.8131 1.27496 29 1.73515 29H19.346C19.8061 29 20.2475 28.8131 20.5729 28.4804C20.8983 28.1476 21.0811 27.6964 21.0811 27.2258V10.7942C21.0832 9.37745 20.8121 7.97418 20.2834 6.66467C19.7546 5.35516 18.9786 4.16509 17.9996 3.16254C17.0206 2.16 15.8579 1.36463 14.578 0.821974C13.2981 0.279313 11.9261 -1.6766e-06 10.5405 0ZM19.6297 10.7776V12.0709C19.6369 12.1817 19.6208 12.2927 19.5826 12.3966C19.5444 12.5005 19.4849 12.5949 19.4082 12.6734C19.3314 12.7519 19.2391 12.8127 19.1375 12.8518C19.0359 12.8909 18.9272 12.9073 18.8189 12.8999V12.8999C18.2919 12.8999 17.7811 12.9911 17.2865 13.0657C17.158 13.0783 17.0284 13.0592 16.9085 13.0102C16.7886 12.9612 16.6819 12.8836 16.5973 12.7839C16.2583 12.4678 15.8156 12.2932 15.3568 12.2947C14.9456 12.2939 14.5457 12.4326 14.2199 12.6892C13.8942 12.9458 13.6609 13.3057 13.5568 13.7124V13.7124C13.5098 14.0114 13.3496 14.2794 13.1108 14.4586V14.4586C12.1794 14.9676 11.3313 15.6221 10.5973 16.3985C9.73629 17.3323 9.01497 18.3911 8.45675 19.5406C8.03513 20.3282 8.02702 19.3748 8.02702 19.3748V14.8316C8.18918 10.5786 8.94325 6.46655 11.9919 4.05403C12.2982 3.82352 12.6238 3.62101 12.9649 3.44883C13.4699 3.24799 14.0044 3.13586 14.5459 3.11721C15.2337 3.14118 15.9016 3.35925 16.4757 3.74729C17.4676 4.61958 18.2631 5.70107 18.8076 6.91749C19.352 8.13391 19.6325 9.45642 19.6297 10.7942V10.7776ZM10.5405 1.49228C11.1181 1.50064 11.6936 1.56448 12.2595 1.68296C12.4054 1.74928 12.6487 1.89022 12.3568 2.05603C12.3214 2.07321 12.2886 2.09555 12.2595 2.12235C11.8449 2.34259 11.4489 2.59771 11.0757 2.88507C9.9754 3.76493 9.06916 4.87235 8.41622 6.13493L8.2946 6.35049C7.57298 7.79303 7.12703 6.35049 7.12703 6.35049L7.0865 6.30904C6.69363 5.36219 6.17524 4.47508 5.54594 3.67266V3.67266C5.54594 3.67266 5.18919 3.32447 5.54594 3.05088C7.02144 2.03347 8.76088 1.49067 10.5405 1.49228V1.49228ZM1.45947 10.7942C1.46478 8.67938 2.18039 6.63063 3.4865 4.99086C3.6461 4.82629 3.86011 4.72871 4.08649 4.71727C4.48379 4.71727 4.8 4.71727 5.42433 5.68725C6.1841 7.27649 6.57005 9.02532 6.55137 10.7942V21.8702C6.55137 23.0806 6.11352 22.3594 6.11352 22.3594C5.11126 20.9172 3.69414 19.8304 2.05947 19.2504V19.2504C1.87751 19.1658 1.72334 19.0292 1.61546 18.8572C1.50758 18.6851 1.4506 18.4848 1.45136 18.2805L1.45947 10.7942ZM1.45947 27.2424V21.7542C1.45947 20.3033 2.42433 20.6598 3.01622 21.0246C4.63997 22.1668 5.78344 23.8925 6.21893 25.8579C6.30001 26.1978 6.53514 27.516 5.22974 27.516H1.70271C1.63673 27.508 1.57578 27.476 1.53108 27.4257C1.48639 27.3754 1.46097 27.3103 1.45947 27.2424V27.2424ZM19.6297 17.6421C19.6233 20.2573 18.6033 22.7632 16.7932 24.6109C14.9832 26.4585 12.5307 27.4972 9.97299 27.4994V27.4994C8.10812 27.4994 8.1892 25.5595 8.2946 24.8216C8.6791 22.0681 9.84635 19.4908 11.6513 17.41C12.2801 16.7408 12.9915 16.1583 13.7676 15.6772C13.8354 15.6372 13.9123 15.6162 13.9905 15.6162C14.0688 15.6162 14.1457 15.6372 14.2135 15.6772C14.5398 15.932 14.9381 16.0716 15.3486 16.0752C15.7725 16.0758 16.1838 15.928 16.5142 15.6566C16.8446 15.3851 17.0742 15.0062 17.1649 14.5829V14.5829V14.5414C17.1829 14.4508 17.2262 14.3673 17.2895 14.3011C17.3527 14.235 17.4334 14.1889 17.5216 14.1684C18.0304 14.0631 18.5448 13.9883 19.0622 13.9445C19.2973 13.9445 19.6216 14.1601 19.6216 14.8896L19.6297 17.6421Z" fill="white"/>
</svg>
