<svg width="90" height="19" viewBox="0 0 90 19" fill="none" xmlns="http://www.w3.org/2000/svg">
<path d="M70.015 6.07245H66.8944C66.7061 6.07815 66.5227 6.01008 66.381 5.88186C66.2387 5.72774 66.1594 5.52298 66.1594 5.31005C66.1594 5.09712 66.2387 4.89236 66.381 4.73824C66.5215 4.60702 66.705 4.53592 66.8944 4.53935H70.015V0.793559C70.0076 0.68241 70.0247 0.571009 70.065 0.467668C70.1053 0.364327 70.1677 0.271757 70.2476 0.19691C70.4087 0.0692271 70.6061 0 70.8092 0C71.0122 0 71.2096 0.0692271 71.3707 0.19691C71.4546 0.271022 71.5207 0.364217 71.5639 0.469185C71.607 0.574154 71.626 0.68802 71.6194 0.801854V11.0447C71.627 11.1567 71.6092 11.2689 71.5674 11.3725C71.5256 11.4761 71.461 11.5682 71.3787 11.6414C71.2169 11.7739 71.0156 11.8442 70.8092 11.8403C70.6042 11.8506 70.4033 11.7795 70.2476 11.6414C70.1668 11.5674 70.1037 11.4749 70.0633 11.3714C70.0229 11.2678 70.0064 11.156 70.015 11.0447V6.07245Z" fill="white"/>
<path d="M15.2042 0.476949C15.2444 0.373881 15.3059 0.281165 15.3844 0.20523C15.5465 0.0769785 15.7446 0.00678022 15.9487 0.00528478C16.1528 0.00378934 16.3518 0.0710701 16.5156 0.196935C16.5995 0.271047 16.6656 0.364241 16.7087 0.46921C16.7519 0.574178 16.7709 0.688044 16.7642 0.801878V9.56967C16.7715 9.68357 16.7528 9.79767 16.7096 9.90274C16.6664 10.0078 16.6 10.1009 16.5156 10.1746C16.3524 10.3035 16.1514 10.3708 15.946 10.3652C15.7411 10.3756 15.5401 10.3043 15.3844 10.1663C15.3046 10.0915 15.2421 9.9989 15.2018 9.89556C15.1615 9.79222 15.1444 9.68081 15.1518 9.56967V0.801878C15.1461 0.690918 15.164 0.580016 15.2042 0.476949Z" fill="white"/>
<path d="M16.0182 11.7077C16.219 11.8056 16.3907 11.9572 16.5156 12.1469C16.6259 12.3097 16.6974 12.4971 16.7241 12.6939C16.7561 12.8938 16.7722 13.0962 16.7723 13.2988V17.1523C16.7793 17.2642 16.7612 17.3762 16.7194 17.4797C16.6777 17.5832 16.6134 17.6753 16.5316 17.749C16.3759 17.887 16.175 17.9582 15.9701 17.9479C15.7673 17.9523 15.5692 17.885 15.4085 17.7573C15.3241 17.6836 15.2576 17.5905 15.2144 17.4854C15.1712 17.3803 15.1525 17.2662 15.1598 17.1523V13.2988C15.1598 13.0916 15.1197 13.0916 15.1197 13.0916C15.0757 13.0752 15.0274 13.0752 14.9833 13.0916H2.94215C2.75278 13.0951 2.56925 13.024 2.42875 12.8928C2.35312 12.8202 2.29381 12.7314 2.25501 12.6326C2.2162 12.5338 2.19883 12.4274 2.20413 12.3209C2.19991 12.2146 2.21776 12.1086 2.2565 12.0099C2.29524 11.9113 2.35398 11.8224 2.42875 11.7491C2.56925 11.6179 2.75278 11.5468 2.94215 11.5503H15.216C15.4912 11.5434 15.7646 11.5971 16.0182 11.7077Z" fill="white"/>
<path d="M4.54657 7.89563C4.89682 7.55978 5.21887 7.19383 5.50923 6.80172C5.70579 6.53975 5.88279 6.26271 6.03869 5.97301C6.18311 6.23681 6.34668 6.48894 6.52803 6.72717C6.81347 7.10563 7.13022 7.45774 7.47465 7.77959C7.8377 8.11926 8.22969 8.42439 8.64587 8.69121C9.05217 8.96126 9.49205 9.17314 9.95348 9.32104C10.0673 9.37262 10.1902 9.39924 10.3145 9.39924C10.4387 9.39924 10.5617 9.37262 10.6755 9.32104C10.7722 9.26656 10.857 9.19205 10.9246 9.10223C10.9922 9.0124 11.0412 8.90919 11.0685 8.79895C11.1056 8.69139 11.1207 8.57711 11.1129 8.46324C11.1052 8.34937 11.0747 8.23835 11.0235 8.1372C10.9723 8.03605 10.9014 7.94696 10.8153 7.87545C10.7292 7.80393 10.6297 7.75156 10.523 7.72163C9.94596 7.47479 9.39267 7.17234 8.87049 6.81831C8.42014 6.52212 8.02145 6.14947 7.69124 5.71611C7.37713 5.28845 7.14067 4.80554 6.99332 4.29075C6.82449 3.68489 6.74337 3.05654 6.75264 2.42615V0.926181C6.75807 0.812494 6.73852 0.69899 6.69545 0.594221C6.65239 0.489451 6.58692 0.396098 6.50396 0.321187C6.34106 0.194133 6.14253 0.12544 5.93841 0.12544C5.7343 0.12544 5.53574 0.194133 5.37284 0.321187C5.29296 0.396033 5.23053 0.488604 5.19023 0.591944C5.14994 0.695285 5.13285 0.806737 5.14022 0.917886V2.62503C5.1465 3.25854 5.06272 3.88957 4.89153 4.49793C4.73224 5.01856 4.49101 5.50853 4.17756 5.94817C3.8489 6.38466 3.45326 6.76256 3.00634 7.06692C2.50067 7.39965 1.96299 7.67737 1.40191 7.89563C1.1923 7.96635 1.01706 8.1177 0.912553 8.31828C0.85915 8.41709 0.82591 8.52616 0.814872 8.63876C0.803835 8.75135 0.815244 8.86507 0.848387 8.97294C0.875699 9.08318 0.924686 9.18645 0.992314 9.27627C1.05994 9.3661 1.14475 9.44055 1.24146 9.49504C1.34776 9.55249 1.46648 9.58104 1.58641 9.57794C1.71523 9.57497 1.84267 9.54974 1.96345 9.50333C2.45055 9.33458 2.91645 9.10645 3.35128 8.82378C3.77682 8.55351 4.17698 8.24278 4.54657 7.89563Z" fill="white"/>
<path d="M22.7086 16.3402H34.7418C34.93 16.3332 35.1146 16.3948 35.2632 16.5143C35.4054 16.6684 35.4848 16.8731 35.4848 17.0861C35.4848 17.299 35.4054 17.5038 35.2632 17.6579C35.1179 17.7863 34.933 17.8568 34.7418 17.8568H22.5321C22.2629 17.8633 21.9937 17.8382 21.7299 17.7822C21.5378 17.7411 21.3603 17.6466 21.2165 17.5087C21.0894 17.3797 21.0076 17.2105 20.9839 17.0281C20.9497 16.8479 20.9336 16.6646 20.9357 16.4811V14.2933C20.9384 14.1221 20.9885 13.9553 21.0801 13.8127C21.1958 13.6646 21.3573 13.5622 21.5374 13.5226C21.8004 13.4603 22.0699 13.4324 22.3396 13.4397H33.4261C33.4704 13.4549 33.5182 13.4549 33.5625 13.4397V12.2464C33.5182 12.2312 33.4704 12.2312 33.4261 12.2464H21.7059C21.5165 12.2498 21.3329 12.1787 21.1924 12.0475C21.0478 11.893 20.967 11.6865 20.967 11.4715C20.967 11.2566 21.0478 11.0501 21.1924 10.8956C21.3329 10.7644 21.5165 10.6933 21.7059 10.6967H33.8192C34.0886 10.6878 34.358 10.7129 34.6214 10.7713C34.7986 10.8178 34.9562 10.9225 35.0707 11.0696C35.1687 11.2095 35.222 11.3776 35.2231 11.5503V14.0281C35.2203 14.2149 35.1705 14.3976 35.0787 14.5585C34.9734 14.7278 34.819 14.8583 34.6375 14.9314C34.3807 15.0273 34.108 15.0696 33.8353 15.0557H22.7086C22.6598 15.0519 22.6113 15.0666 22.5722 15.0972C22.5722 15.0972 22.5321 15.1386 22.5321 15.3043V16.133C22.5321 16.2988 22.5722 16.3402 22.5722 16.3402C22.6163 16.3567 22.6646 16.3567 22.7086 16.3402Z" fill="white"/>
<path fill-rule="evenodd" clip-rule="evenodd" d="M21.2005 4.95372C21.3253 5.14338 21.4971 5.29506 21.6978 5.39297C21.9514 5.50361 22.2249 5.55723 22.5 5.55037H33.5706C33.8459 5.55933 34.1198 5.50562 34.3728 5.39297C34.5728 5.29769 34.7445 5.1489 34.8701 4.96202C34.9845 4.7823 35.0585 4.57841 35.0867 4.36532C35.116 4.16513 35.1294 3.96282 35.1268 3.76038V2.05323C35.1297 1.85078 35.1163 1.64844 35.0867 1.44829C35.0576 1.23673 34.9865 1.0336 34.8781 0.85159C34.7478 0.66596 34.5739 0.517694 34.3728 0.420694C34.1205 0.30493 33.8465 0.248317 33.5706 0.254941H22.5C22.2243 0.250441 21.9507 0.306964 21.6978 0.420694C21.5027 0.512166 21.3345 0.655432 21.2105 0.83596C21.0865 1.01649 21.0111 1.22781 20.9919 1.44829C20.9596 1.64821 20.9435 1.85055 20.9438 2.05323V3.8018C20.9449 4.00412 20.9583 4.20621 20.9839 4.4068C21.0166 4.60324 21.0905 4.7899 21.2005 4.95372ZM22.5562 2.01181C22.5562 1.84606 22.5963 1.80463 22.5963 1.80463C22.6353 1.77408 22.6839 1.75935 22.7327 1.7632H33.4021C33.4508 1.76009 33.4991 1.77475 33.5385 1.80463V3.96756C33.4991 3.99744 33.4508 4.01209 33.4021 4.00898H22.7327C22.6839 4.01283 22.6353 3.9981 22.5963 3.96756C22.5963 3.96756 22.5562 3.96756 22.5562 3.76038V2.01181Z" fill="white"/>
<path d="M20.1415 7.02551H35.9531C36.1049 7.02523 36.2532 7.07227 36.3786 7.16046C36.5041 7.24864 36.6009 7.37386 36.6563 7.51978C36.7118 7.6657 36.7234 7.82553 36.6895 7.97834C36.6556 8.13115 36.5779 8.26985 36.4665 8.37631C36.3256 8.50681 36.1424 8.5778 35.9531 8.57519H28.8616V9.6774C28.8688 9.79009 28.8501 9.90293 28.8069 10.0067C28.7636 10.1104 28.6971 10.2021 28.6129 10.274C28.4524 10.4091 28.2502 10.4797 28.0433 10.4729C27.8384 10.4832 27.6374 10.4121 27.4818 10.274C27.4032 10.1981 27.3417 10.1054 27.3016 10.0023C27.2614 9.89926 27.2435 9.78836 27.2491 9.6774V8.57519H20.1415C19.9522 8.57862 19.7686 8.50753 19.6281 8.37631C19.4835 8.22178 19.4027 8.01527 19.4027 7.80035C19.4027 7.58543 19.4835 7.37892 19.6281 7.22439C19.7686 7.09317 19.9522 7.02208 20.1415 7.02551Z" fill="white"/>
<path d="M48.4997 16.1413H38.44C38.2506 16.1379 38.0671 16.209 37.9266 16.3402C37.8496 16.4117 37.7893 16.5003 37.7504 16.5994C37.7115 16.6985 37.6949 16.8054 37.7019 16.912C37.6955 17.0186 37.7123 17.1254 37.7512 17.2244C37.7901 17.3233 37.85 17.412 37.9266 17.4838C38.0671 17.6151 38.2506 17.6862 38.44 17.6827H48.4997C48.6891 17.6862 48.8726 17.6151 49.0131 17.4838C49.0879 17.4106 49.1466 17.3217 49.1853 17.2231C49.2241 17.1244 49.242 17.0184 49.2377 16.912C49.243 16.8056 49.2256 16.6992 49.1868 16.6004C49.148 16.5016 49.0887 16.4128 49.0131 16.3402C48.8726 16.209 48.6891 16.1379 48.4997 16.1413Z" fill="white"/>
<path d="M51.785 0.476949C51.8252 0.373881 51.8867 0.281165 51.9652 0.20523C52.1273 0.0769785 52.3253 0.00678022 52.5294 0.00528478C52.7335 0.00378934 52.9326 0.0710701 53.0964 0.196935C53.1803 0.271047 53.2464 0.364241 53.2895 0.46921C53.3327 0.574178 53.3517 0.688044 53.345 0.801878V17.4424C53.3523 17.5563 53.3336 17.6704 53.2904 17.7755C53.2472 17.8806 53.1807 17.9737 53.0964 18.0474C52.9332 18.1763 52.7321 18.2436 52.5268 18.238C52.3218 18.2483 52.1209 18.1771 51.9652 18.0391C51.8854 17.9642 51.8229 17.8717 51.7826 17.7683C51.7423 17.665 51.7252 17.5536 51.7326 17.4424V0.801878C51.7269 0.690918 51.7448 0.580016 51.785 0.476949Z" fill="white"/>
<path fill-rule="evenodd" clip-rule="evenodd" d="M44.8175 0.520142C44.2485 0.311697 43.6484 0.207922 43.0447 0.213523C42.4434 0.207165 41.8459 0.310976 41.2798 0.520142C40.778 0.703604 40.315 0.98494 39.916 1.34885C39.5368 1.68628 39.2329 2.10474 39.0256 2.57533C38.8171 3.04008 38.7103 3.54651 38.7127 4.05871V7.2078C38.7103 7.72 38.8171 8.22648 39.0256 8.69123C39.2329 9.16183 39.5368 9.58028 39.916 9.91771C40.3162 10.28 40.7788 10.5611 41.2798 10.7464C42.4276 11.1444 43.6697 11.1444 44.8175 10.7464C45.3233 10.5612 45.7913 10.2802 46.1973 9.91771C46.5725 9.57635 46.8756 9.15886 47.0878 8.69123C47.2923 8.22515 47.399 7.71955 47.4006 7.2078V4.05871C47.399 3.54696 47.2923 3.04141 47.0878 2.57533C46.8776 2.10645 46.5742 1.68856 46.1973 1.34885C45.7913 0.986402 45.3233 0.70536 44.8175 0.520142ZM45.7882 6.61116C45.8241 7.01249 45.7745 7.41706 45.6428 7.79646C45.5112 8.17586 45.3007 8.52091 45.0261 8.80726C44.4664 9.27285 43.7628 9.5141 43.0447 9.48676C42.3342 9.5118 41.6389 9.27048 41.0873 8.80726C40.8055 8.52463 40.5875 8.1813 40.4489 7.80172C40.3102 7.42214 40.2543 7.01562 40.285 6.61116V4.63052C40.2532 4.22721 40.3087 3.82166 40.4475 3.44324C40.5862 3.06483 40.8048 2.72303 41.0873 2.44271C41.6371 1.97611 42.3336 1.73434 43.0447 1.76321C43.7634 1.73129 44.4685 1.97306 45.0261 2.44271C45.3014 2.72679 45.5125 3.07028 45.6442 3.4485C45.776 3.82673 45.8251 4.23037 45.7882 4.63052V6.61116Z" fill="white"/>
<path d="M71.2824 16.3402H58.8883C58.8439 16.3543 58.7964 16.3543 58.7519 16.3402V12.9425C58.7592 12.8298 58.7404 12.7169 58.6972 12.6132C58.654 12.5094 58.5875 12.4178 58.5032 12.3458C58.3393 12.2213 58.1412 12.1541 57.9377 12.1541C57.7342 12.1541 57.536 12.2213 57.3721 12.3458C57.2936 12.4217 57.2321 12.5145 57.1919 12.6176C57.1517 12.7206 57.1338 12.8315 57.1395 12.9425V16.133C57.1406 16.3353 57.154 16.5374 57.1796 16.738C57.2079 16.9485 57.2819 17.1496 57.3962 17.3264C57.521 17.516 57.6928 17.6677 57.8936 17.7656C58.1471 17.8763 58.4206 17.9299 58.6958 17.9231H71.2824C71.4718 17.9265 71.6554 17.8554 71.7959 17.7241C71.9381 17.57 72.0174 17.3653 72.0174 17.1523C72.0174 16.9394 71.9381 16.7347 71.7959 16.5806C71.6617 16.4342 71.4774 16.3479 71.2824 16.3402Z" fill="white"/>
<path fill-rule="evenodd" clip-rule="evenodd" d="M60.5328 10.5558C59.9316 10.5622 59.3341 10.4584 58.768 10.2492C58.271 10.0657 57.8133 9.78428 57.4203 9.4205C57.0521 9.08023 56.7593 8.66184 56.5619 8.19397C56.3598 7.72735 56.256 7.22177 56.2571 6.7106V4.22446C56.256 3.71329 56.3598 3.20771 56.5619 2.74108C56.7631 2.27547 57.0553 1.85785 57.4203 1.51456C57.8142 1.15196 58.2716 0.87065 58.768 0.685844C59.3341 0.476678 59.9316 0.372867 60.5328 0.379225C61.1366 0.373624 61.7366 0.477399 62.3057 0.685844C62.8069 0.870599 63.2697 1.1518 63.6695 1.51456C64.0345 1.85969 64.329 2.27672 64.5359 2.74108C64.7443 3.20583 64.8511 3.71227 64.8487 4.22446V6.7106C64.8511 7.22279 64.7443 7.72923 64.5359 8.19397C64.329 8.65834 64.0345 9.07537 63.6695 9.4205C63.2705 9.78442 62.8075 10.0658 62.3057 10.2492C61.7366 10.4577 61.1366 10.5614 60.5328 10.5558ZM58.0382 3.66458C57.9108 4.04363 57.8642 4.44663 57.9016 4.84599V6.13049C57.8642 6.52986 57.9108 6.93286 58.0382 7.3119C58.1655 7.69094 58.3707 8.03709 58.6396 8.3266C59.175 8.79669 59.863 9.03954 60.5649 9.00615C61.2765 9.03896 61.9744 8.79668 62.5223 8.3266C62.7927 8.03781 62.9993 7.69198 63.1281 7.31291C63.2569 6.93384 63.3047 6.53047 63.2684 6.13049V4.84599C63.3047 4.44601 63.2569 4.04265 63.1281 3.66357C62.9993 3.2845 62.7927 2.93867 62.5223 2.64989C61.9725 2.18329 61.276 1.94152 60.5649 1.97039C59.8636 1.94109 59.177 2.1834 58.6396 2.64989C58.3707 2.93939 58.1655 3.28554 58.0382 3.66458Z" fill="white"/>
<path fill-rule="evenodd" clip-rule="evenodd" d="M81.9679 1.34883C81.5979 0.98278 81.158 0.700526 80.6764 0.520117C79.5551 0.111295 78.3321 0.111295 77.2108 0.520117C76.7358 0.70447 76.3019 0.986385 75.9353 1.34883C75.5845 1.69232 75.3107 2.11092 75.1331 2.57531C74.9534 3.045 74.8609 3.54537 74.8603 4.05039V13.9949C74.8609 14.5 74.9534 15.0004 75.1331 15.4701C75.3107 15.9345 75.5845 16.3531 75.9353 16.6965C76.304 17.0562 76.7373 17.3377 77.2108 17.5253C78.3339 17.923 79.5533 17.923 80.6764 17.5253C81.1566 17.3419 81.5959 17.06 81.9679 16.6965C82.3156 16.3504 82.589 15.9325 82.7701 15.4701C82.9561 15.002 83.0515 14.5009 83.0509 13.9949V4.05039C83.0524 3.54169 82.957 3.03767 82.7701 2.56701C82.5888 2.10706 82.3155 1.69193 81.9679 1.34883ZM81.4465 13.4231C81.4832 13.8185 81.4441 14.2175 81.3312 14.5972C81.2183 14.977 81.0339 15.3299 80.7887 15.6358C80.5391 15.8673 80.2474 16.0451 79.9306 16.1589C79.6138 16.2727 79.2783 16.3203 78.9436 16.2988C78.6125 16.3202 78.2806 16.2726 77.9678 16.1587C77.6549 16.0448 77.3675 15.8669 77.1225 15.6358C76.8787 15.3293 76.6958 14.976 76.5843 14.5963C76.4728 14.2167 76.4349 13.818 76.4728 13.4231V4.6305C76.4351 4.23696 76.4731 3.83959 76.5846 3.46128C76.6961 3.08296 76.8789 2.7312 77.1225 2.42614C77.3675 2.19502 77.6549 2.0172 77.9678 1.90329C78.2806 1.78939 78.6125 1.74175 78.9436 1.76319C79.2783 1.74167 79.6138 1.78922 79.9306 1.90304C80.2474 2.01686 80.5391 2.19468 80.7887 2.42614C81.0337 2.73056 81.218 3.08208 81.3309 3.46042C81.4438 3.83875 81.483 4.2364 81.4465 4.6305V13.4231Z" fill="white"/>
<path d="M89.2078 0.00111277C89.412 0.00111277 89.6105 0.0698561 89.7734 0.19691C89.8516 0.274518 89.9122 0.368927 89.951 0.473485C89.9898 0.578042 90.0059 0.690164 89.998 0.801854V17.4341C90.0035 17.5478 89.9839 17.6613 89.9408 17.7661C89.8978 17.8708 89.8323 17.9641 89.7494 18.0391C89.5856 18.1668 89.3849 18.234 89.1798 18.2297C88.9748 18.24 88.7739 18.1688 88.6182 18.0308C88.5384 17.956 88.4759 17.8634 88.4356 17.7601C88.3953 17.6567 88.3782 17.5453 88.3856 17.4341V9.08897H85.1767C84.9871 9.09411 84.8029 9.02279 84.6633 8.89009C84.5187 8.73557 84.4379 8.52905 84.4379 8.31413C84.4379 8.09921 84.5187 7.8927 84.6633 7.73817C84.8029 7.60547 84.9871 7.53415 85.1767 7.53929H88.4096V0.793559C88.404 0.682599 88.4219 0.571696 88.4621 0.468629C88.5022 0.365562 88.5638 0.272845 88.6423 0.19691C88.8052 0.0698561 89.0037 0.00111277 89.2078 0.00111277Z" fill="white"/>
</svg>
