<svg width="22" height="29" viewBox="0 0 22 29" fill="none" xmlns="http://www.w3.org/2000/svg">
<path d="M11 0C8.08262 0 5.28473 1.13485 3.22183 3.15488C1.15893 5.17492 0 7.91467 0 10.7714V27.2103C0 27.6805 0.190785 28.1316 0.53037 28.4641C0.869955 28.7966 1.33054 28.9834 1.81078 28.9834H20.1892C20.6695 28.9834 21.13 28.7966 21.4696 28.4641C21.8092 28.1316 22 27.6805 22 27.2103V10.788C22.0022 9.37209 21.7193 7.96962 21.1675 6.66086C20.6157 5.3521 19.8058 4.16271 18.7842 3.16074C17.7625 2.15876 16.5491 1.36385 15.2134 0.821504C13.8778 0.279153 12.446 -1.67564e-06 11 0ZM20.4854 10.7714V12.064C20.4929 12.1747 20.4761 12.2857 20.4362 12.3895C20.3964 12.4934 20.3343 12.5877 20.2542 12.6661C20.174 12.7446 20.0777 12.8054 19.9717 12.8444C19.8656 12.8835 19.7523 12.8999 19.6392 12.8926V12.8926C19.0892 12.8926 18.5562 12.9837 18.04 13.0583C17.9059 13.0708 17.7706 13.0518 17.6455 13.0028C17.5204 12.9538 17.4091 12.8762 17.3208 12.7766C16.967 12.4607 16.505 12.2862 16.0262 12.2877C15.597 12.2869 15.1798 12.4255 14.8398 12.6819C14.4998 12.9384 14.2564 13.2981 14.1477 13.7046V13.7046C14.0986 14.0034 13.9315 14.2712 13.6823 14.4503V14.4503C12.7103 14.959 11.8253 15.6132 11.0592 16.3891C10.1607 17.3224 9.40793 18.3806 8.82538 19.5294C8.38538 20.3166 8.37692 19.3637 8.37692 19.3637V14.8231C8.54615 10.5726 9.33308 6.46286 12.5146 4.05171C12.8343 3.82133 13.1741 3.61894 13.53 3.44686C14.057 3.24613 14.6149 3.13407 15.18 3.11542C15.8978 3.13938 16.5948 3.35733 17.1939 3.74515C18.229 4.61694 19.0592 5.69781 19.6274 6.91353C20.1956 8.12926 20.4883 9.45102 20.4854 10.788V10.7714ZM11 1.49143C11.6027 1.49979 12.2033 1.56359 12.7938 1.682C12.9462 1.74828 13.2 1.88914 12.8954 2.05485C12.8585 2.07203 12.8242 2.09436 12.7938 2.12114C12.3612 2.34125 11.948 2.59622 11.5585 2.88342C10.4102 3.76277 9.46448 4.86957 8.78308 6.13142L8.65616 6.34686C7.90309 7.78857 7.4377 6.34686 7.4377 6.34686L7.3954 6.30543C6.9854 5.35912 6.44442 4.47252 5.78769 3.67057V3.67057C5.78769 3.67057 5.41538 3.32257 5.78769 3.04914C7.3275 2.03231 9.14277 1.48982 11 1.49143V1.49143ZM1.52309 10.788C1.52863 8.67442 2.27543 6.62684 3.63848 4.988C3.80503 4.82354 4.02837 4.726 4.26462 4.71457C4.67924 4.71457 5.00923 4.71457 5.66077 5.684C6.45366 7.27233 6.85644 9.02016 6.83694 10.788V21.8577C6.83694 23.0674 6.38001 22.3466 6.38001 22.3466C5.33406 20.9052 3.85517 19.8191 2.14924 19.2394V19.2394C1.95935 19.1548 1.79846 19.0184 1.68588 18.8464C1.5733 18.6744 1.51383 18.4743 1.51462 18.27L1.52309 10.788ZM1.52309 27.2269V21.7417C1.52309 20.2917 2.53 20.648 3.14769 21.0126C4.84223 22.1542 6.03554 23.8788 6.49001 25.8431C6.57463 26.1829 6.82001 27.5003 5.4577 27.5003H1.77693C1.70807 27.4923 1.64446 27.4603 1.59782 27.41C1.55118 27.3598 1.52465 27.2947 1.52309 27.2269V27.2269ZM20.4854 17.632C20.4787 20.2457 19.4142 22.7502 17.5253 24.5968C15.6363 26.4434 13.0769 27.4815 10.4077 27.4837V27.4837C8.46155 27.4837 8.54616 25.5449 8.65616 24.8074C9.05742 22.0555 10.2755 19.4797 12.1592 17.4C12.8154 16.7312 13.5578 16.1491 14.3677 15.6683C14.4384 15.6283 14.5187 15.6072 14.6004 15.6072C14.6821 15.6072 14.7623 15.6283 14.8331 15.6683C15.1736 15.9229 15.5893 16.0624 16.0177 16.066C16.46 16.0666 16.8892 15.9189 17.234 15.6476C17.5788 15.3763 17.8184 14.9977 17.9131 14.5746V14.5746V14.5331C17.9319 14.4425 17.9771 14.3591 18.0431 14.293C18.1091 14.2268 18.1933 14.1808 18.2854 14.1603C18.8164 14.055 19.3532 13.9803 19.8931 13.9366C20.1385 13.9366 20.4769 14.152 20.4769 14.8811L20.4854 17.632Z" fill="white"/>
</svg>
