<svg width="148" height="35" viewBox="0 0 148 35" fill="none" xmlns="http://www.w3.org/2000/svg">
<g clip-path="url(#clip0_1688_672)">
<path d="M13 0C9.55219 0 6.24559 1.36964 3.80762 3.80762C1.36964 6.24559 0 9.55219 0 13V32.84C0 33.4076 0.225473 33.9519 0.626801 34.3532C1.02813 34.7545 1.57245 34.98 2.14001 34.98H23.86C24.4276 34.98 24.9719 34.7545 25.3732 34.3532C25.7745 33.9519 26 33.4076 26 32.84V13.02C26.0026 11.3111 25.6683 9.61851 25.0162 8.03897C24.364 6.45943 23.4069 5.02396 22.1995 3.81468C20.992 2.6054 19.5581 1.64603 17.9795 0.99147C16.401 0.336909 14.7089 -2.02232e-06 13 0ZM24.21 13V14.56C24.2188 14.6936 24.199 14.8276 24.1519 14.9529C24.1048 15.0782 24.0314 15.192 23.9367 15.2867C23.8421 15.3814 23.7282 15.4548 23.6029 15.5019C23.4776 15.549 23.3436 15.5688 23.21 15.56C22.56 15.56 21.93 15.67 21.32 15.76C21.1615 15.7751 21.0017 15.7521 20.8538 15.693C20.706 15.6338 20.5744 15.5403 20.47 15.42C20.0519 15.0387 19.5059 14.8282 18.94 14.83C18.4328 14.829 17.9397 14.9963 17.5379 15.3058C17.1362 15.6153 16.8484 16.0494 16.72 16.54C16.662 16.9006 16.4645 17.2239 16.17 17.44C15.0212 18.054 13.9753 18.8435 13.07 19.78C12.0081 20.9064 11.1185 22.1835 10.43 23.57C9.90999 24.52 9.89999 23.37 9.89999 23.37V17.89C10.1 12.76 11.03 7.8 14.79 4.89C15.1678 4.61195 15.5694 4.36768 15.99 4.16C16.6128 3.91775 17.2721 3.7825 17.94 3.75999C18.7883 3.78891 19.612 4.05195 20.32 4.52C21.5434 5.57216 22.5245 6.87666 23.196 8.34392C23.8675 9.81117 24.2134 11.4064 24.21 13.02V13ZM13 1.8C13.7123 1.81009 14.4221 1.88709 15.12 2.03C15.3 2.11 15.6 2.28 15.24 2.48C15.1964 2.50072 15.1559 2.52767 15.12 2.56C14.6087 2.82565 14.1203 3.13337 13.66 3.48C12.303 4.54128 11.1853 5.87706 10.38 7.39999L10.23 7.66C9.34001 9.4 8.79001 7.66 8.79001 7.66L8.74002 7.61C8.25548 6.4679 7.61613 5.39787 6.84 4.42999C6.84 4.42999 6.4 4.00999 6.84 3.67999C8.65978 2.45279 10.8051 1.79806 13 1.8ZM1.80002 13.02C1.80656 10.4691 2.68914 7.99791 4.30002 6.02C4.49686 5.82151 4.7608 5.7038 5.04001 5.69C5.53001 5.69 5.92 5.69 6.69 6.86C7.62705 8.77695 8.10306 10.8864 8.08002 13.02V26.38C8.08002 27.84 7.54001 26.97 7.54001 26.97C6.30389 25.2304 4.55611 23.9196 2.54001 23.22C2.3156 23.1179 2.12545 22.9532 1.9924 22.7457C1.85935 22.5381 1.78907 22.2965 1.79001 22.05L1.80002 13.02ZM1.80002 32.86V26.24C1.80002 24.49 2.99 24.92 3.72 25.36C5.72263 26.7378 7.13291 28.8193 7.67001 31.19C7.77001 31.6 8.06001 33.19 6.45001 33.19H2.10001C2.01863 33.1804 1.94346 33.1417 1.88834 33.0811C1.83321 33.0204 1.80186 32.9419 1.80002 32.86ZM24.21 21.28C24.2021 24.4344 22.9441 27.4571 20.7117 29.6858C18.4793 31.9145 15.4545 33.1674 12.3 33.17C10 33.17 10.1 30.83 10.23 29.94C10.7042 26.6187 12.1438 23.51 14.37 21C15.1455 20.1929 16.0229 19.4903 16.98 18.91C17.0636 18.8617 17.1585 18.8363 17.255 18.8363C17.3515 18.8363 17.4464 18.8617 17.53 18.91C17.9324 19.2173 18.4237 19.3857 18.93 19.39C19.4527 19.3907 19.96 19.2125 20.3675 18.8851C20.775 18.5576 21.0582 18.1006 21.17 17.59V17.54C21.1923 17.4306 21.2456 17.3299 21.3237 17.2501C21.4017 17.1703 21.5011 17.1147 21.61 17.09C22.2375 16.963 22.8719 16.8728 23.51 16.82C23.8 16.82 24.2 17.08 24.2 17.96L24.21 21.28Z" fill="#365650"/>
</g>
<path d="M123.352 15.3246H119.503C119.271 15.3315 119.045 15.2494 118.87 15.0947C118.694 14.9088 118.597 14.6619 118.597 14.405C118.597 14.1482 118.694 13.9012 118.87 13.7153C119.043 13.557 119.27 13.4713 119.503 13.4754H123.352V8.9572C123.343 8.82313 123.364 8.68875 123.414 8.5641C123.463 8.43945 123.54 8.3278 123.639 8.23751C123.837 8.0835 124.081 8 124.331 8C124.582 8 124.825 8.0835 125.024 8.23751C125.127 8.32691 125.209 8.43932 125.262 8.56593C125.315 8.69255 125.339 8.82989 125.331 8.9672V21.3222C125.34 21.4572 125.318 21.5926 125.267 21.7176C125.215 21.8425 125.135 21.9536 125.034 22.042C124.834 22.2018 124.586 22.2866 124.331 22.2819C124.079 22.2943 123.831 22.2085 123.639 22.042C123.539 21.9526 123.461 21.8411 123.411 21.7162C123.362 21.5913 123.341 21.4564 123.352 21.3222V15.3246Z" fill="#365650"/>
<path d="M55.7519 8.5753C55.8015 8.45098 55.8773 8.33914 55.9742 8.24755C56.174 8.09285 56.4183 8.00818 56.67 8.00637C56.9218 8.00457 57.1672 8.08573 57.3692 8.23754C57.4727 8.32694 57.5543 8.43935 57.6075 8.56596C57.6607 8.69258 57.6841 8.82992 57.6759 8.96723V19.543C57.6849 19.6804 57.6618 19.818 57.6085 19.9448C57.5553 20.0715 57.4733 20.1838 57.3692 20.2727C57.168 20.4282 56.92 20.5094 56.6668 20.5026C56.414 20.5151 56.1662 20.4292 55.9742 20.2627C55.8756 20.1724 55.7986 20.0607 55.749 19.9361C55.6993 19.8114 55.6782 19.6771 55.6872 19.543V8.96723C55.6803 8.83339 55.7024 8.69962 55.7519 8.5753Z" fill="#365650"/>
<path d="M56.7558 22.1219C57.0034 22.24 57.2152 22.4229 57.3692 22.6517C57.5053 22.848 57.5934 23.0741 57.6265 23.3114C57.6659 23.5526 57.6857 23.7967 57.6858 24.0411V28.6892C57.6944 28.8242 57.6721 28.9593 57.6206 29.0841C57.5692 29.209 57.4899 29.3201 57.389 29.409C57.197 29.5755 56.9492 29.6613 56.6964 29.6489C56.4464 29.6541 56.2021 29.573 56.0039 29.419C55.8998 29.3301 55.8178 29.2177 55.7645 29.091C55.7112 28.9642 55.6882 28.8266 55.6971 28.6892V24.0411C55.6971 23.7912 55.6477 23.7912 55.6477 23.7912C55.5933 23.7714 55.5338 23.7714 55.4795 23.7912H40.6287C40.3951 23.7954 40.1688 23.7096 39.9955 23.5513C39.9022 23.4638 39.8291 23.3567 39.7812 23.2375C39.7333 23.1183 39.7119 22.99 39.7185 22.8616C39.7132 22.7333 39.7353 22.6054 39.783 22.4865C39.8308 22.3675 39.9033 22.2602 39.9955 22.1719C40.1688 22.0136 40.3951 21.9279 40.6287 21.932H55.7664C56.1058 21.9237 56.4431 21.9885 56.7558 22.1219Z" fill="#365650"/>
<path d="M42.6075 17.5238C43.0394 17.1187 43.4366 16.6772 43.7947 16.2043C44.0372 15.8883 44.2555 15.5541 44.4477 15.2047C44.6259 15.5229 44.8276 15.827 45.0513 16.1144C45.4033 16.5709 45.794 16.9956 46.2188 17.3838C46.6665 17.7935 47.15 18.1616 47.6633 18.4834C48.1644 18.8091 48.7069 19.0647 49.276 19.2431C49.4163 19.3053 49.5679 19.3374 49.7212 19.3374C49.8745 19.3374 50.0261 19.3053 50.1664 19.2431C50.2857 19.1774 50.3903 19.0875 50.4737 18.9792C50.5571 18.8708 50.6175 18.7463 50.6512 18.6133C50.6969 18.4836 50.7155 18.3458 50.706 18.2084C50.6964 18.0711 50.6589 17.9372 50.5957 17.8151C50.5325 17.6931 50.4451 17.5857 50.3389 17.4994C50.2327 17.4132 50.11 17.35 49.9784 17.3139C49.2667 17.0161 48.5843 16.6513 47.9403 16.2243C47.3849 15.867 46.8931 15.4175 46.4859 14.8948C46.0985 14.379 45.8069 13.7965 45.6251 13.1755C45.4169 12.4447 45.3169 11.6868 45.3283 10.9264V9.11717C45.335 8.98004 45.3109 8.84313 45.2578 8.71675C45.2046 8.59038 45.1239 8.47778 45.0216 8.38742C44.8207 8.23416 44.5758 8.15131 44.3241 8.15131C44.0723 8.15131 43.8274 8.23416 43.6265 8.38742C43.528 8.4777 43.451 8.58936 43.4013 8.71401C43.3516 8.83866 43.3305 8.97309 43.3396 9.10716V11.1663C43.3474 11.9305 43.244 12.6916 43.0329 13.4254C42.8365 14.0534 42.5389 14.6444 42.1523 15.1747C41.747 15.7012 41.259 16.1571 40.7078 16.5242C40.0842 16.9255 39.421 17.2605 38.7291 17.5238C38.4705 17.6091 38.2544 17.7916 38.1255 18.0336C38.0596 18.1528 38.0186 18.2843 38.005 18.4201C37.9914 18.5559 38.0055 18.6931 38.0464 18.8232C38.0801 18.9562 38.1405 19.0808 38.2239 19.1891C38.3073 19.2975 38.4119 19.3873 38.5312 19.453C38.6623 19.5223 38.8087 19.5567 38.9566 19.553C39.1155 19.5494 39.2727 19.519 39.4216 19.463C40.0224 19.2594 40.597 18.9843 41.1333 18.6433C41.6581 18.3173 42.1516 17.9425 42.6075 17.5238Z" fill="#365650"/>
<path d="M65.0073 27.7097H79.8482C80.0803 27.7012 80.308 27.7756 80.4913 27.9196C80.6667 28.1055 80.7646 28.3525 80.7646 28.6093C80.7646 28.8662 80.6667 29.1132 80.4913 29.2991C80.3121 29.4539 80.084 29.539 79.8482 29.539H64.7897C64.4576 29.5468 64.1256 29.5166 63.8003 29.449C63.5634 29.3994 63.3444 29.2854 63.167 29.1192C63.0103 28.9635 62.9094 28.7595 62.8801 28.5394C62.838 28.3221 62.8181 28.101 62.8208 27.8796V25.2407C62.824 25.0342 62.8858 24.833 62.9989 24.6609C63.1415 24.4824 63.3407 24.3588 63.5628 24.3111C63.8871 24.2359 64.2196 24.2023 64.5522 24.2111H78.2256C78.2802 24.2294 78.3392 24.2294 78.3938 24.2111V22.7717C78.3392 22.7534 78.2802 22.7534 78.2256 22.7717H63.7706C63.537 22.7758 63.3106 22.69 63.1374 22.5318C62.959 22.3454 62.8594 22.0963 62.8594 21.837C62.8594 21.5778 62.959 21.3287 63.1374 21.1423C63.3106 20.984 63.537 20.8983 63.7706 20.9024H78.7104C79.0426 20.8917 79.3748 20.922 79.6998 20.9924C79.9182 21.0485 80.1127 21.1748 80.2539 21.3523C80.3748 21.521 80.4405 21.7237 80.4419 21.932V24.9208C80.4384 25.1461 80.377 25.3665 80.2637 25.5606C80.1339 25.7648 79.9434 25.9222 79.7196 26.0104C79.4029 26.126 79.0666 26.177 78.7302 26.1603H65.0073C64.9471 26.1557 64.8873 26.1734 64.8391 26.2103C64.8391 26.2103 64.7897 26.2603 64.7897 26.4602V27.4598C64.7897 27.6597 64.8391 27.7097 64.8391 27.7097C64.8935 27.7295 64.953 27.7295 65.0073 27.7097Z" fill="#365650"/>
<path fill-rule="evenodd" clip-rule="evenodd" d="M63.1473 13.9752C63.3013 14.204 63.5131 14.3869 63.7607 14.505C64.0734 14.6385 64.4107 14.7032 64.7501 14.6949H78.4037C78.7433 14.7057 79.0811 14.6409 79.3931 14.505C79.6398 14.3901 79.8516 14.2106 80.0065 13.9852C80.1476 13.7684 80.2388 13.5225 80.2737 13.2655C80.3098 13.024 80.3263 12.78 80.3231 12.5358V10.4766C80.3267 10.2324 80.3102 9.98836 80.2737 9.74694C80.2377 9.49175 80.1501 9.24673 80.0164 9.02719C79.8557 8.80329 79.6412 8.62445 79.3931 8.50744C79.082 8.36781 78.7441 8.29952 78.4037 8.30751H64.7501C64.4099 8.30208 64.0726 8.37026 63.7607 8.50744C63.52 8.61778 63.3126 8.79059 63.1597 9.00834C63.0067 9.22609 62.9137 9.48099 62.89 9.74694C62.8502 9.98808 62.8303 10.2321 62.8307 10.4766V12.5858C62.832 12.8298 62.8486 13.0736 62.8801 13.3155C62.9205 13.5525 63.0117 13.7776 63.1473 13.9752ZM64.8193 10.4267C64.8193 10.2267 64.8688 10.1768 64.8688 10.1768C64.9169 10.1399 64.9768 10.1221 65.037 10.1268H78.1959C78.2561 10.123 78.3156 10.1407 78.3641 10.1768V12.7857C78.3156 12.8217 78.2561 12.8394 78.1959 12.8357H65.037C64.9768 12.8403 64.9169 12.8225 64.8688 12.7857C64.8688 12.7857 64.8193 12.7857 64.8193 12.5358V10.4267Z" fill="#365650"/>
<path d="M61.8413 16.4742H81.3422C81.5294 16.4739 81.7123 16.5306 81.867 16.637C82.0218 16.7434 82.1411 16.8944 82.2095 17.0704C82.2779 17.2464 82.2922 17.4392 82.2504 17.6235C82.2086 17.8079 82.1128 17.9752 81.9754 18.1036C81.8016 18.261 81.5756 18.3466 81.3422 18.3435H72.596V19.6729C72.6049 19.8089 72.5818 19.945 72.5285 20.0701C72.4752 20.1953 72.3932 20.3058 72.2892 20.3926C72.0914 20.5555 71.8419 20.6407 71.5868 20.6325C71.3341 20.645 71.0862 20.5591 70.8942 20.3926C70.7974 20.301 70.7215 20.1892 70.6719 20.0649C70.6224 19.9406 70.6003 19.8068 70.6073 19.6729V18.3435H61.8413C61.6077 18.3476 61.3813 18.2618 61.2081 18.1036C61.0297 17.9172 60.93 17.6681 60.93 17.4088C60.93 17.1496 61.0297 16.9005 61.2081 16.7141C61.3813 16.5558 61.6077 16.4701 61.8413 16.4742Z" fill="#365650"/>
<path d="M96.8163 27.4698H84.4093C84.1758 27.4657 83.9494 27.5514 83.7761 27.7097C83.6812 27.7959 83.6069 27.9028 83.5589 28.0223C83.5109 28.1418 83.4904 28.2707 83.4991 28.3994C83.4912 28.528 83.5119 28.6568 83.5599 28.7762C83.6078 28.8955 83.6817 29.0025 83.7761 29.0891C83.9494 29.2474 84.1758 29.3332 84.4093 29.329H96.8163C97.0499 29.3332 97.2763 29.2474 97.4495 29.0891C97.5417 29.0008 97.6142 28.8935 97.6619 28.7746C97.7097 28.6556 97.7318 28.5277 97.7266 28.3994C97.7331 28.271 97.7116 28.1426 97.6638 28.0235C97.6159 27.9043 97.5428 27.7972 97.4495 27.7097C97.2763 27.5514 97.0499 27.4657 96.8163 27.4698Z" fill="#365650"/>
<path d="M100.868 8.5753C100.918 8.45098 100.994 8.33914 101.09 8.24755C101.29 8.09285 101.535 8.00818 101.786 8.00637C102.038 8.00457 102.284 8.08573 102.486 8.23754C102.589 8.32694 102.671 8.43935 102.724 8.56596C102.777 8.69258 102.8 8.82992 102.792 8.96723V29.0392C102.801 29.1766 102.778 29.3142 102.725 29.4409C102.672 29.5677 102.59 29.68 102.486 29.7689C102.284 29.9244 102.036 30.0056 101.783 29.9988C101.53 30.0113 101.282 29.9254 101.09 29.7589C100.992 29.6686 100.915 29.5569 100.865 29.4323C100.816 29.3076 100.794 29.1732 100.804 29.0392V8.96723C100.797 8.83339 100.819 8.69962 100.868 8.5753Z" fill="#365650"/>
<path fill-rule="evenodd" clip-rule="evenodd" d="M92.275 8.6274C91.5731 8.37597 90.8331 8.2508 90.0884 8.25755C89.3469 8.24988 88.61 8.3751 87.9118 8.6274C87.2929 8.84869 86.7219 9.18804 86.2298 9.627C85.762 10.034 85.3873 10.5387 85.1316 11.1064C84.8745 11.667 84.7427 12.2778 84.7457 12.8956V16.6941C84.7427 17.3119 84.8745 17.9228 85.1316 18.4834C85.3873 19.0511 85.762 19.5558 86.2298 19.9628C86.7233 20.3998 87.2939 20.7389 87.9118 20.9624C89.3274 21.4424 90.8594 21.4424 92.275 20.9624C92.8988 20.739 93.4759 20.4 93.9767 19.9628C94.4394 19.5511 94.8133 19.0475 95.0749 18.4834C95.3273 17.9212 95.4588 17.3114 95.4608 16.6941V12.8956C95.4588 12.2784 95.3273 11.6686 95.0749 11.1064C94.8157 10.5408 94.4416 10.0368 93.9767 9.627C93.4759 9.18981 92.8988 8.85081 92.275 8.6274ZM93.4721 15.9744C93.5164 16.4585 93.4553 16.9465 93.2929 17.4041C93.1305 17.8618 92.8709 18.278 92.5322 18.6234C91.8419 19.185 90.9741 19.476 90.0884 19.443C89.2122 19.4732 88.3547 19.1821 87.6743 18.6234C87.3268 18.2825 87.058 17.8683 86.8869 17.4105C86.7159 16.9526 86.647 16.4623 86.6849 15.9744V13.5854C86.6457 13.0989 86.7141 12.6097 86.8852 12.1533C87.0564 11.6968 87.3259 11.2845 87.6743 10.9464C88.3524 10.3836 89.2115 10.092 90.0884 10.1268C90.9749 10.0883 91.8445 10.3799 92.5322 10.9464C92.8718 11.2891 93.1321 11.7034 93.2946 12.1596C93.4571 12.6158 93.5177 13.1027 93.4721 13.5854V15.9744Z" fill="#365650"/>
<path d="M124.915 27.7097H109.629C109.574 27.7266 109.516 27.7266 109.461 27.7097V23.6113C109.47 23.4754 109.447 23.3392 109.393 23.2141C109.34 23.089 109.258 22.9784 109.154 22.8916C108.952 22.7414 108.707 22.6604 108.457 22.6604C108.206 22.6604 107.961 22.7414 107.759 22.8916C107.662 22.9832 107.586 23.0951 107.537 23.2194C107.487 23.3437 107.465 23.4775 107.472 23.6113V27.4598C107.473 27.7038 107.49 27.9475 107.522 28.1895C107.556 28.4434 107.648 28.686 107.789 28.8992C107.943 29.128 108.154 29.3109 108.402 29.429C108.715 29.5625 109.052 29.6272 109.391 29.6189H124.915C125.149 29.6231 125.375 29.5373 125.548 29.379C125.724 29.1931 125.822 28.9461 125.822 28.6893C125.822 28.4324 125.724 28.1855 125.548 27.9996C125.383 27.823 125.156 27.7189 124.915 27.7097Z" fill="#365650"/>
<path fill-rule="evenodd" clip-rule="evenodd" d="M111.657 20.7325C110.916 20.7402 110.179 20.615 109.481 20.3627C108.868 20.1413 108.303 19.8019 107.818 19.3631C107.364 18.9526 107.003 18.448 106.76 17.8836C106.511 17.3208 106.382 16.7109 106.384 16.0944V13.0956C106.382 12.479 106.511 11.8692 106.76 11.3063C107.008 10.7447 107.368 10.2409 107.818 9.82687C108.304 9.3895 108.868 9.05018 109.481 8.82727C110.179 8.57497 110.916 8.44976 111.657 8.45742C112.402 8.45067 113.142 8.57584 113.844 8.82727C114.462 9.05012 115.033 9.38931 115.526 9.82687C115.976 10.2432 116.339 10.7462 116.594 11.3063C116.851 11.8669 116.983 12.4778 116.98 13.0956V16.0944C116.983 16.7122 116.851 17.323 116.594 17.8836C116.339 18.4437 115.976 18.9468 115.526 19.3631C115.034 19.802 114.463 20.1414 113.844 20.3627C113.142 20.6141 112.402 20.7393 111.657 20.7325ZM108.58 12.4202C108.423 12.8774 108.366 13.3636 108.412 13.8453V15.3946C108.366 15.8764 108.423 16.3625 108.58 16.8197C108.738 17.2769 108.991 17.6944 109.322 18.0436C109.983 18.6106 110.831 18.9036 111.697 18.8633C112.574 18.9029 113.435 18.6106 114.111 18.0436C114.444 17.6953 114.699 17.2781 114.858 16.8209C115.017 16.3636 115.076 15.8771 115.031 15.3946V13.8453C115.076 13.3628 115.017 12.8763 114.858 12.419C114.699 11.9618 114.444 11.5446 114.111 11.1963C113.433 10.6335 112.574 10.3419 111.697 10.3767C110.832 10.3414 109.985 10.6336 109.322 11.1963C108.991 11.5455 108.738 11.963 108.58 12.4202Z" fill="#365650"/>
<path fill-rule="evenodd" clip-rule="evenodd" d="M138.094 9.62697C137.637 9.18544 137.095 8.84498 136.501 8.62737C135.118 8.13424 133.61 8.13424 132.227 8.62737C131.641 8.84974 131.106 9.18978 130.654 9.62697C130.221 10.0413 129.883 10.5462 129.664 11.1064C129.443 11.6729 129.328 12.2764 129.328 12.8856V24.8808C129.328 25.4899 129.443 26.0936 129.664 26.6601C129.883 27.2202 130.221 27.7252 130.654 28.1395C131.108 28.5733 131.643 28.9129 132.227 29.1391C133.612 29.6189 135.116 29.6189 136.501 29.1391C137.093 28.9179 137.635 28.5778 138.094 28.1395C138.523 27.7219 138.86 27.2179 139.083 26.6601C139.313 26.0956 139.43 25.491 139.429 24.8808V12.8856C139.431 12.272 139.314 11.6641 139.083 11.0963C138.86 10.5415 138.522 10.0408 138.094 9.62697ZM137.451 24.1911C137.496 24.668 137.448 25.1493 137.308 25.6073C137.169 26.0653 136.942 26.491 136.639 26.86C136.332 27.1392 135.972 27.3537 135.581 27.491C135.19 27.6283 134.777 27.6856 134.364 27.6597C133.955 27.6855 133.546 27.6281 133.16 27.4907C132.774 27.3533 132.42 27.1388 132.118 26.86C131.817 26.4903 131.591 26.0642 131.454 25.6062C131.316 25.1482 131.27 24.6673 131.316 24.1911V13.5853C131.27 13.1106 131.317 12.6313 131.454 12.175C131.592 11.7187 131.817 11.2944 132.118 10.9264C132.42 10.6476 132.774 10.4332 133.16 10.2958C133.546 10.1584 133.955 10.1009 134.364 10.1268C134.777 10.1008 135.19 10.1582 135.581 10.2955C135.972 10.4328 136.332 10.6472 136.639 10.9264C136.942 11.2936 137.169 11.7176 137.308 12.174C137.447 12.6303 137.496 13.11 137.451 13.5853V24.1911Z" fill="#365650"/>
<path d="M147.023 8.00134C147.275 8.00134 147.52 8.08426 147.721 8.23751C147.817 8.33112 147.892 8.445 147.94 8.57112C147.988 8.69724 148.007 8.83248 147.998 8.9672V29.0291C148.004 29.1663 147.98 29.3032 147.927 29.4296C147.874 29.5559 147.793 29.6685 147.691 29.7588C147.489 29.9129 147.241 29.9939 146.988 29.9888C146.736 30.0012 146.488 29.9154 146.296 29.7489C146.197 29.6586 146.12 29.5469 146.071 29.4223C146.021 29.2976 146 29.1632 146.009 29.0291V18.9632H142.051C141.817 18.9694 141.59 18.8833 141.418 18.7233C141.24 18.5369 141.14 18.2878 141.14 18.0286C141.14 17.7693 141.24 17.5202 141.418 17.3338C141.59 17.1738 141.817 17.0877 142.051 17.0939H146.039V8.9572C146.032 8.82336 146.054 8.68958 146.103 8.56526C146.153 8.44094 146.229 8.32911 146.326 8.23751C146.526 8.08426 146.771 8.00134 147.023 8.00134Z" fill="#365650"/>
<defs>
<clipPath id="clip0_1688_672">
<rect width="26" height="35" fill="white"/>
</clipPath>
</defs>
</svg>
