<svg width="110" height="22" viewBox="0 0 110 22" fill="none" xmlns="http://www.w3.org/2000/svg">
<path d="M85.3518 7.32463H81.5031C81.2708 7.33151 81.0446 7.2494 80.8699 7.09474C80.6945 6.90884 80.5966 6.66186 80.5966 6.40502C80.5966 6.14818 80.6945 5.90119 80.8699 5.71529C81.0432 5.55702 81.2695 5.47126 81.5031 5.4754H85.3518V0.957196C85.3427 0.823128 85.3638 0.688755 85.4135 0.564104C85.4632 0.439454 85.5402 0.327795 85.6388 0.237514C85.8375 0.0835022 86.0809 0 86.3313 0C86.5817 0 86.8252 0.0835022 87.0239 0.237514C87.1274 0.326909 87.2089 0.439321 87.2622 0.565935C87.3154 0.692548 87.3388 0.829894 87.3306 0.967202V13.3222C87.34 13.4572 87.318 13.5926 87.2665 13.7176C87.215 13.8425 87.1353 13.9536 87.0338 14.042C86.8342 14.2018 86.5859 14.2866 86.3313 14.2819C86.0786 14.2943 85.8308 14.2085 85.6388 14.042C85.539 13.9526 85.4612 13.8411 85.4114 13.7162C85.3616 13.5913 85.3412 13.4564 85.3518 13.3222V7.32463Z" fill="#365650"/>
<path d="M17.7519 0.575299C17.8015 0.450978 17.8773 0.339143 17.9742 0.24755C18.174 0.092852 18.4183 0.00817834 18.67 0.00637454C18.9218 0.00457073 19.1672 0.0857253 19.3692 0.237544C19.4727 0.326938 19.5543 0.439351 19.6075 0.565964C19.6607 0.692578 19.6841 0.829923 19.6759 0.967231V11.543C19.6849 11.6804 19.6618 11.818 19.6085 11.9448C19.5553 12.0715 19.4733 12.1838 19.3692 12.2727C19.168 12.4282 18.92 12.5094 18.6668 12.5026C18.414 12.5151 18.1662 12.4292 17.9742 12.2627C17.8756 12.1724 17.7986 12.0607 17.749 11.9361C17.6993 11.8114 17.6782 11.6771 17.6872 11.543V0.967231C17.6803 0.83339 17.7024 0.699619 17.7519 0.575299Z" fill="#365650"/>
<path d="M18.7558 14.1219C19.0034 14.24 19.2152 14.4229 19.3692 14.6517C19.5053 14.848 19.5934 15.0741 19.6265 15.3114C19.6659 15.5526 19.6857 15.7967 19.6858 16.0411V20.6892C19.6944 20.8242 19.6721 20.9593 19.6206 21.0841C19.5692 21.209 19.4899 21.3201 19.389 21.409C19.197 21.5755 18.9492 21.6613 18.6964 21.6489C18.4464 21.6541 18.2021 21.573 18.0039 21.419C17.8998 21.3301 17.8178 21.2177 17.7645 21.091C17.7112 20.9642 17.6882 20.8266 17.6971 20.6892V16.0411C17.6971 15.7912 17.6477 15.7912 17.6477 15.7912C17.5933 15.7714 17.5338 15.7714 17.4795 15.7912H2.62868C2.39512 15.7954 2.16876 15.7096 1.99548 15.5513C1.90221 15.4638 1.82906 15.3567 1.7812 15.2375C1.73333 15.1183 1.71192 14.99 1.71846 14.8616C1.71324 14.7333 1.73526 14.6054 1.78304 14.4865C1.83082 14.3675 1.90327 14.2602 1.99548 14.1719C2.16876 14.0136 2.39512 13.9279 2.62868 13.932H17.7664C18.1058 13.9237 18.4431 13.9885 18.7558 14.1219Z" fill="#365650"/>
<path d="M4.60745 9.52376C5.03944 9.11866 5.43664 8.67724 5.79474 8.20428C6.03717 7.88829 6.25547 7.55412 6.44774 7.20468C6.62586 7.52288 6.8276 7.827 7.05126 8.11435C7.40331 8.57086 7.79396 8.99558 8.21876 9.3838C8.66652 9.79351 9.14998 10.1616 9.66327 10.4834C10.1644 10.8091 10.7069 11.0647 11.276 11.2431C11.4163 11.3053 11.5679 11.3374 11.7212 11.3374C11.8745 11.3374 12.0261 11.3053 12.1664 11.2431C12.2857 11.1774 12.3903 11.0875 12.4737 10.9792C12.5571 10.8708 12.6175 10.7463 12.6512 10.6133C12.6969 10.4836 12.7155 10.3458 12.706 10.2084C12.6964 10.0711 12.6589 9.93715 12.5957 9.81515C12.5325 9.69314 12.4451 9.58568 12.3389 9.49942C12.2327 9.41315 12.11 9.34999 11.9784 9.31388C11.2667 9.01615 10.5843 8.65132 9.9403 8.22429C9.38486 7.86703 8.89314 7.41754 8.48589 6.89481C8.09849 6.37897 7.80685 5.79648 7.62512 5.17553C7.41689 4.44473 7.31685 3.68682 7.32828 2.92644V1.11717C7.33498 0.980036 7.31087 0.843127 7.25775 0.716753C7.20463 0.590379 7.12389 0.477776 7.02158 0.387417C6.82067 0.234164 6.57581 0.151306 6.32407 0.151306C6.07233 0.151306 5.82743 0.234164 5.62653 0.387417C5.52801 0.477698 5.45101 0.589357 5.40131 0.714007C5.35162 0.838658 5.33054 0.973092 5.33963 1.10716V3.16633C5.34738 3.93047 5.24404 4.69163 5.03292 5.42543C4.83645 6.05342 4.53894 6.64443 4.15234 7.17473C3.747 7.70122 3.25905 8.15705 2.70784 8.52416C2.08418 8.92551 1.42105 9.2605 0.729052 9.52376C0.470531 9.60906 0.254403 9.79162 0.125507 10.0336C0.0596423 10.1528 0.0186463 10.2843 0.00503338 10.4201C-0.00857956 10.5559 0.00549235 10.6931 0.0463688 10.8232C0.0800527 10.9562 0.140471 11.0808 0.223879 11.1891C0.307287 11.2975 0.411888 11.3873 0.531162 11.453C0.662264 11.5223 0.808677 11.5567 0.956593 11.553C1.11548 11.5494 1.27266 11.519 1.42161 11.463C2.02236 11.2594 2.59698 10.9843 3.13327 10.6433C3.6581 10.3173 4.15163 9.9425 4.60745 9.52376Z" fill="#365650"/>
<path d="M27.0073 19.7097H41.8482C42.0803 19.7012 42.308 19.7756 42.4913 19.9196C42.6667 20.1055 42.7646 20.3525 42.7646 20.6093C42.7646 20.8662 42.6667 21.1132 42.4913 21.2991C42.3121 21.4539 42.084 21.539 41.8482 21.539H26.7897C26.4576 21.5468 26.1256 21.5166 25.8003 21.449C25.5634 21.3994 25.3444 21.2854 25.167 21.1192C25.0103 20.9635 24.9094 20.7595 24.8801 20.5394C24.838 20.3221 24.8181 20.101 24.8208 19.8796V17.2407C24.824 17.0342 24.8858 16.833 24.9989 16.6609C25.1415 16.4824 25.3407 16.3588 25.5628 16.3111C25.8871 16.2359 26.2196 16.2023 26.5522 16.2111H40.2256C40.2802 16.2294 40.3392 16.2294 40.3938 16.2111V14.7717C40.3392 14.7534 40.2802 14.7534 40.2256 14.7717H25.7706C25.537 14.7758 25.3106 14.69 25.1374 14.5318C24.959 14.3454 24.8594 14.0963 24.8594 13.837C24.8594 13.5778 24.959 13.3287 25.1374 13.1423C25.3106 12.984 25.537 12.8983 25.7706 12.9024H40.7104C41.0426 12.8917 41.3748 12.922 41.6998 12.9924C41.9182 13.0485 42.1127 13.1748 42.2539 13.3523C42.3748 13.521 42.4405 13.7237 42.4419 13.932V16.9208C42.4384 17.1461 42.377 17.3665 42.2637 17.5606C42.1339 17.7648 41.9434 17.9222 41.7196 18.0104C41.4029 18.126 41.0666 18.177 40.7302 18.1603H27.0073C26.9471 18.1557 26.8873 18.1734 26.8391 18.2103C26.8391 18.2103 26.7897 18.2603 26.7897 18.4602V19.4598C26.7897 19.6597 26.8391 19.7097 26.8391 19.7097C26.8935 19.7295 26.953 19.7295 27.0073 19.7097Z" fill="#365650"/>
<path fill-rule="evenodd" clip-rule="evenodd" d="M25.1473 5.97522C25.3013 6.20398 25.5131 6.38693 25.7607 6.50503C26.0734 6.63849 26.4107 6.70317 26.7501 6.6949H40.4037C40.7433 6.7057 41.0811 6.64092 41.3931 6.50503C41.6398 6.39011 41.8516 6.21063 42.0065 5.98522C42.1476 5.76845 42.2388 5.52251 42.2737 5.26548C42.3098 5.02401 42.3263 4.77998 42.3231 4.53579V2.47662C42.3267 2.23242 42.3102 1.98836 42.2737 1.74694C42.2377 1.49175 42.1501 1.24673 42.0164 1.02719C41.8557 0.803285 41.6412 0.624446 41.3931 0.507444C41.082 0.367809 40.7441 0.299522 40.4037 0.307512H26.7501C26.4099 0.302084 26.0726 0.370262 25.7607 0.507444C25.52 0.617778 25.3126 0.790587 25.1597 1.00834C25.0067 1.22609 24.9137 1.48099 24.89 1.74694C24.8502 1.98808 24.8303 2.23214 24.8307 2.47662V4.58576C24.832 4.8298 24.8486 5.07356 24.8801 5.31551C24.9205 5.55246 25.0117 5.77761 25.1473 5.97522ZM26.8193 2.42666C26.8193 2.22674 26.8688 2.17676 26.8688 2.17676C26.9169 2.13991 26.9768 2.12214 27.037 2.12679H40.1959C40.2561 2.12304 40.3156 2.14071 40.3641 2.17676V4.78569C40.3156 4.82174 40.2561 4.83941 40.1959 4.83566H27.037C26.9768 4.84031 26.9169 4.82254 26.8688 4.78569C26.8688 4.78569 26.8193 4.78569 26.8193 4.53579V2.42666Z" fill="#365650"/>
<path d="M23.8413 8.47421H43.3422C43.5294 8.47388 43.7123 8.53062 43.867 8.63699C44.0218 8.74336 44.1411 8.8944 44.2095 9.07041C44.2779 9.24642 44.2922 9.43921 44.2504 9.62353C44.2086 9.80785 44.1128 9.97515 43.9754 10.1036C43.8016 10.261 43.5756 10.3466 43.3422 10.3435H34.596V11.6729C34.6049 11.8089 34.5818 11.945 34.5285 12.0701C34.4752 12.1953 34.3932 12.3058 34.2892 12.3926C34.0914 12.5555 33.8419 12.6407 33.5868 12.6325C33.3341 12.645 33.0862 12.5591 32.8942 12.3926C32.7974 12.301 32.7215 12.1892 32.6719 12.0649C32.6224 11.9406 32.6003 11.8068 32.6073 11.6729V10.3435H23.8413C23.6077 10.3476 23.3813 10.2618 23.2081 10.1036C23.0297 9.91717 22.93 9.66807 22.93 9.40884C22.93 9.1496 23.0297 8.9005 23.2081 8.71411C23.3813 8.55583 23.6077 8.47008 23.8413 8.47421Z" fill="#365650"/>
<path d="M58.8163 19.4698H46.4093C46.1758 19.4657 45.9494 19.5514 45.7761 19.7097C45.6812 19.7959 45.6069 19.9028 45.5589 20.0223C45.5109 20.1418 45.4904 20.2707 45.4991 20.3994C45.4912 20.528 45.5119 20.6568 45.5599 20.7762C45.6078 20.8955 45.6817 21.0025 45.7761 21.0891C45.9494 21.2474 46.1758 21.3332 46.4093 21.329H58.8163C59.0499 21.3332 59.2763 21.2474 59.4495 21.0891C59.5417 21.0008 59.6142 20.8935 59.6619 20.7746C59.7097 20.6556 59.7318 20.5277 59.7266 20.3994C59.7331 20.271 59.7116 20.1426 59.6638 20.0235C59.6159 19.9043 59.5428 19.7972 59.4495 19.7097C59.2763 19.5514 59.0499 19.4657 58.8163 19.4698Z" fill="#365650"/>
<path d="M62.8682 0.575299C62.9178 0.450978 62.9936 0.339143 63.0905 0.24755C63.2903 0.092852 63.5346 0.00817834 63.7863 0.00637454C64.0381 0.00457073 64.2836 0.0857253 64.4855 0.237544C64.589 0.326938 64.6705 0.439351 64.7238 0.565964C64.777 0.692578 64.8004 0.829923 64.7922 0.967231V21.0392C64.8012 21.1766 64.7781 21.3142 64.7248 21.4409C64.6716 21.5677 64.5896 21.68 64.4855 21.7689C64.2843 21.9244 64.0363 22.0056 63.783 21.9988C63.5303 22.0113 63.2825 21.9254 63.0905 21.7589C62.992 21.6686 62.915 21.5569 62.8653 21.4323C62.8156 21.3076 62.7945 21.1732 62.8035 21.0392V0.967231C62.7966 0.83339 62.8186 0.699619 62.8682 0.575299Z" fill="#365650"/>
<path fill-rule="evenodd" clip-rule="evenodd" d="M54.275 0.627399C53.5731 0.375971 52.8331 0.250797 52.0884 0.257553C51.3469 0.249884 50.61 0.375101 49.9118 0.627399C49.2929 0.848691 48.7219 1.18804 48.2298 1.627C47.762 2.03401 47.3873 2.53875 47.1316 3.10638C46.8745 3.66696 46.7427 4.27783 46.7457 4.89564V8.6941C46.7427 9.31192 46.8745 9.92284 47.1316 10.4834C47.3873 11.0511 47.762 11.5558 48.2298 11.9628C48.7233 12.3998 49.2939 12.7389 49.9118 12.9624C51.3274 13.4424 52.8594 13.4424 54.275 12.9624C54.8988 12.739 55.4759 12.4 55.9767 11.9628C56.4394 11.5511 56.8133 11.0475 57.0749 10.4834C57.3273 9.92124 57.4588 9.31137 57.4608 8.6941V4.89564C57.4588 4.27837 57.3273 3.66857 57.0749 3.10638C56.8157 2.54081 56.4416 2.03676 55.9767 1.627C55.4759 1.1898 54.8988 0.85081 54.275 0.627399ZM55.4721 7.97442C55.5164 8.45851 55.4553 8.94651 55.2929 9.40414C55.1305 9.86178 54.8709 10.278 54.5322 10.6234C53.8419 11.185 52.9741 11.476 52.0884 11.443C51.2122 11.4732 50.3547 11.1821 49.6743 10.6234C49.3268 10.2825 49.058 9.86835 48.8869 9.41049C48.7159 8.95263 48.647 8.46229 48.6849 7.97442V5.58537C48.6457 5.09889 48.7141 4.60971 48.8852 4.15326C49.0564 3.69682 49.3259 3.28454 49.6743 2.94641C50.3524 2.3836 51.2115 2.09198 52.0884 2.1268C52.9749 2.0883 53.8445 2.37992 54.5322 2.94641C54.8718 3.28908 55.1321 3.70339 55.2946 4.15961C55.4571 4.61583 55.5177 5.1027 55.4721 5.58537V7.97442Z" fill="#365650"/>
<path d="M86.915 19.7097H71.6289C71.5741 19.7266 71.5155 19.7266 71.4607 19.7097V15.6113C71.4697 15.4754 71.4466 15.3392 71.3932 15.2141C71.3399 15.089 71.2579 14.9784 71.154 14.8916C70.9518 14.7414 70.7075 14.6604 70.4565 14.6604C70.2056 14.6604 69.9611 14.7414 69.759 14.8916C69.6621 14.9832 69.5863 15.0951 69.5367 15.2194C69.4872 15.3437 69.4651 15.4775 69.472 15.6113V19.4598C69.4734 19.7038 69.49 19.9475 69.5215 20.1895C69.5564 20.4434 69.6478 20.686 69.7887 20.8992C69.9426 21.128 70.1544 21.3109 70.4021 21.429C70.7148 21.5625 71.0521 21.6272 71.3915 21.6189H86.915C87.1486 21.6231 87.375 21.5373 87.5483 21.379C87.7237 21.1931 87.8215 20.9461 87.8215 20.6893C87.8215 20.4324 87.7237 20.1855 87.5483 19.9996C87.3828 19.823 87.1555 19.7189 86.915 19.7097Z" fill="#365650"/>
<path fill-rule="evenodd" clip-rule="evenodd" d="M73.6572 12.7325C72.9157 12.7402 72.1787 12.615 71.4805 12.3627C70.8676 12.1413 70.3031 11.8019 69.8183 11.3631C69.3642 10.9526 69.0031 10.448 68.7597 9.88363C68.5105 9.32078 68.3824 8.71095 68.3837 8.09437V5.09557C68.3824 4.47899 68.5105 3.86916 68.7597 3.30631C69.0078 2.74468 69.3682 2.24095 69.8183 1.82687C70.3042 1.3895 70.8684 1.05018 71.4805 0.82727C72.1787 0.574972 72.9157 0.449755 73.6572 0.457424C74.4018 0.450668 75.1419 0.575841 75.8437 0.82727C76.4619 1.05012 77.0326 1.38931 77.5257 1.82687C77.9759 2.24317 78.3392 2.74619 78.5943 3.30631C78.8513 3.86689 78.9831 4.47776 78.9801 5.09557V8.09437C78.9831 8.71218 78.8513 9.32305 78.5943 9.88363C78.3392 10.4437 77.9759 10.9468 77.5257 11.3631C77.0336 11.802 76.4626 12.1414 75.8437 12.3627C75.1419 12.6141 74.4018 12.7393 73.6572 12.7325ZM70.5804 4.42025C70.4233 4.87745 70.3659 5.36355 70.412 5.84527V7.39464C70.3659 7.87636 70.4233 8.36246 70.5804 8.81966C70.7375 9.27686 70.9906 9.69439 71.3222 10.0436C71.9825 10.6106 72.8311 10.9036 73.6968 10.8633C74.5744 10.9029 75.4351 10.6106 76.1109 10.0436C76.4443 9.69526 76.6992 9.27812 76.858 8.82088C77.0168 8.36364 77.0759 7.8771 77.031 7.39464V5.84527C77.0759 5.36281 77.0168 4.87627 76.858 4.41903C76.6992 3.96178 76.4443 3.54465 76.1109 3.19631C75.4328 2.6335 74.5737 2.34187 73.6968 2.3767C72.8318 2.34136 71.985 2.63363 71.3222 3.19631C70.9906 3.54552 70.7375 3.96304 70.5804 4.42025Z" fill="#365650"/>
<path fill-rule="evenodd" clip-rule="evenodd" d="M100.094 1.62697C99.6374 1.18544 99.0949 0.844979 98.5009 0.627369C97.1179 0.134245 95.6096 0.134245 94.2267 0.627369C93.6408 0.849737 93.1057 1.18978 92.6535 1.62697C92.2209 2.04128 91.8832 2.54621 91.6642 3.10635C91.4426 3.67289 91.3285 4.27645 91.3278 4.88561V16.8808C91.3285 17.4899 91.4426 18.0936 91.6642 18.6601C91.8832 19.2202 92.2209 19.7252 92.6535 20.1395C93.1083 20.5733 93.6427 20.9129 94.2267 21.1391C95.6118 21.6189 97.1157 21.6189 98.5009 21.1391C99.0932 20.9179 99.635 20.5778 100.094 20.1395C100.523 19.7219 100.86 19.2179 101.083 18.6601C101.313 18.0956 101.43 17.491 101.429 16.8808V4.88561C101.431 4.27201 101.314 3.66406 101.083 3.09635C100.86 2.54155 100.522 2.04082 100.094 1.62697ZM99.4507 16.1911C99.496 16.668 99.4477 17.1493 99.3085 17.6073C99.1693 18.0653 98.9419 18.491 98.6394 18.86C98.3316 19.1392 97.9718 19.3537 97.5811 19.491C97.1904 19.6283 96.7766 19.6856 96.3638 19.6597C95.9555 19.6855 95.5461 19.6281 95.1603 19.4907C94.7744 19.3533 94.4199 19.1388 94.1178 18.86C93.8171 18.4903 93.5915 18.0642 93.454 17.6062C93.3164 17.1482 93.2697 16.6673 93.3164 16.1911V5.58534C93.2699 5.11064 93.3168 4.63134 93.4544 4.17502C93.5919 3.71869 93.8174 3.29439 94.1178 2.92643C94.4199 2.64765 94.7744 2.43315 95.1603 2.29577C95.5461 2.15838 95.9555 2.10091 96.3638 2.12677C96.7766 2.10082 97.1904 2.15817 97.5811 2.29546C97.9718 2.43276 98.3316 2.64724 98.6394 2.92643C98.9416 3.29362 99.1688 3.71763 99.3081 4.17398C99.4473 4.63033 99.4958 5.10997 99.4507 5.58534V16.1911Z" fill="#365650"/>
<path d="M109.023 0.00134223C109.275 0.00134223 109.52 0.0842609 109.721 0.237514C109.817 0.331125 109.892 0.445003 109.94 0.57112C109.988 0.697238 110.007 0.83248 109.998 0.967202V21.0291C110.004 21.1663 109.98 21.3032 109.927 21.4296C109.874 21.5559 109.793 21.6685 109.691 21.7588C109.489 21.9129 109.241 21.9939 108.988 21.9888C108.736 22.0012 108.488 21.9154 108.296 21.7489C108.197 21.6586 108.12 21.5469 108.071 21.4223C108.021 21.2976 108 21.1632 108.009 21.0291V10.9632H104.051C103.817 10.9694 103.59 10.8833 103.418 10.7233C103.24 10.5369 103.14 10.2878 103.14 10.0286C103.14 9.76933 103.24 9.52022 103.418 9.33383C103.59 9.17377 103.817 9.08774 104.051 9.09394H108.039V0.957196C108.032 0.823355 108.054 0.689584 108.103 0.565263C108.153 0.440943 108.229 0.329108 108.326 0.237514C108.526 0.0842609 108.771 0.00134223 109.023 0.00134223Z" fill="#365650"/>
</svg>
