<svg width="26" height="35" viewBox="0 0 26 35" fill="none" xmlns="http://www.w3.org/2000/svg">
<g clip-path="url(#clip0_103_126)">
<path d="M13 0C9.55219 0 6.24559 1.36964 3.80762 3.80762C1.36964 6.24559 0 9.55219 0 13V32.84C0 33.4076 0.225473 33.9519 0.626801 34.3532C1.02813 34.7545 1.57245 34.98 2.14001 34.98H23.86C24.4276 34.98 24.9719 34.7545 25.3732 34.3532C25.7745 33.9519 26 33.4076 26 32.84V13.02C26.0026 11.3111 25.6683 9.61851 25.0162 8.03897C24.364 6.45943 23.4069 5.02396 22.1995 3.81468C20.992 2.6054 19.5581 1.64603 17.9795 0.99147C16.401 0.336909 14.7089 -2.02232e-06 13 0ZM24.21 13V14.56C24.2188 14.6936 24.199 14.8276 24.1519 14.9529C24.1048 15.0782 24.0314 15.192 23.9367 15.2867C23.8421 15.3814 23.7282 15.4548 23.6029 15.5019C23.4776 15.549 23.3436 15.5688 23.21 15.56V15.56C22.56 15.56 21.93 15.67 21.32 15.76C21.1615 15.7751 21.0017 15.7521 20.8538 15.693C20.706 15.6338 20.5744 15.5403 20.47 15.42C20.0519 15.0387 19.5059 14.8282 18.94 14.83C18.4328 14.829 17.9397 14.9963 17.5379 15.3058C17.1362 15.6153 16.8485 16.0494 16.72 16.54V16.54C16.662 16.9006 16.4645 17.2239 16.17 17.44V17.44C15.0212 18.054 13.9753 18.8435 13.07 19.78C12.0081 20.9064 11.1185 22.1835 10.43 23.57C9.90999 24.52 9.89999 23.37 9.89999 23.37V17.89C10.1 12.76 11.03 7.8 14.79 4.89C15.1678 4.61195 15.5694 4.36768 15.99 4.16C16.6128 3.91775 17.2721 3.7825 17.94 3.75999C18.7883 3.78891 19.612 4.05195 20.32 4.52C21.5434 5.57216 22.5245 6.87666 23.196 8.34392C23.8675 9.81117 24.2134 11.4064 24.21 13.02V13ZM13 1.8C13.7123 1.81009 14.4221 1.88709 15.12 2.03C15.3 2.11 15.6 2.28 15.24 2.48C15.1964 2.50072 15.1559 2.52767 15.12 2.56C14.6087 2.82565 14.1203 3.13337 13.66 3.48C12.303 4.54128 11.1853 5.87706 10.38 7.39999L10.23 7.66C9.34001 9.4 8.79001 7.66 8.79001 7.66L8.74002 7.61C8.25548 6.4679 7.61613 5.39787 6.84 4.42999V4.42999C6.84 4.42999 6.4 4.00999 6.84 3.67999C8.65978 2.45279 10.8051 1.79806 13 1.8V1.8ZM1.80002 13.02C1.80656 10.4691 2.68914 7.99791 4.30002 6.02C4.49686 5.82151 4.7608 5.7038 5.04001 5.69C5.53001 5.69 5.92 5.69 6.69 6.86C7.62705 8.77695 8.10306 10.8864 8.08002 13.02V26.38C8.08002 27.84 7.54001 26.97 7.54001 26.97C6.30389 25.2304 4.55611 23.9196 2.54001 23.22V23.22C2.3156 23.1179 2.12545 22.9532 1.9924 22.7457C1.85935 22.5381 1.78907 22.2965 1.79001 22.05L1.80002 13.02ZM1.80002 32.86V26.24C1.80002 24.49 2.99 24.92 3.72 25.36C5.72263 26.7378 7.13291 28.8193 7.67001 31.19C7.77001 31.6 8.06001 33.19 6.45001 33.19H2.10001C2.01863 33.1804 1.94346 33.1417 1.88834 33.0811C1.83321 33.0204 1.80186 32.9419 1.80002 32.86V32.86ZM24.21 21.28C24.2021 24.4344 22.9441 27.4571 20.7117 29.6858C18.4793 31.9145 15.4545 33.1674 12.3 33.17V33.17C10 33.17 10.1 30.83 10.23 29.94C10.7042 26.6187 12.1438 23.51 14.37 21C15.1455 20.1929 16.0229 19.4903 16.98 18.91C17.0636 18.8617 17.1585 18.8363 17.255 18.8363C17.3516 18.8363 17.4464 18.8617 17.53 18.91C17.9324 19.2173 18.4237 19.3857 18.93 19.39C19.4527 19.3907 19.96 19.2125 20.3675 18.8851C20.775 18.5576 21.0582 18.1006 21.17 17.59V17.59V17.54C21.1923 17.4306 21.2456 17.3299 21.3237 17.2501C21.4017 17.1703 21.5011 17.1147 21.61 17.09C22.2375 16.963 22.8719 16.8728 23.51 16.82C23.8 16.82 24.2 17.08 24.2 17.96L24.21 21.28Z" fill="#365650"/>
</g>
<defs>
<clipPath id="clip0_103_126">
<rect width="26" height="35" fill="white"/>
</clipPath>
</defs>
</svg>
