<svg width="19" height="24" viewBox="0 0 19 24" fill="none" xmlns="http://www.w3.org/2000/svg">
<g clip-path="url(#clip0_103_130)">
<path d="M9.375 0C6.8886 0 4.50403 0.939185 2.74588 2.61094C0.987724 4.28269 0 6.55007 0 8.91429V22.5189C0 22.908 0.1626 23.2813 0.45202 23.5565C0.741439 23.8317 1.13398 23.9863 1.54328 23.9863H17.2067C17.616 23.9863 18.0086 23.8317 18.298 23.5565C18.5874 23.2813 18.75 22.908 18.75 22.5189V8.928C18.7519 7.75621 18.5108 6.59555 18.0405 5.51244C17.5702 4.42932 16.88 3.445 16.0092 2.61578C15.1385 1.78656 14.1044 1.12871 12.966 0.679865C11.8276 0.231023 10.6074 -1.38673e-06 9.375 0ZM17.4591 8.91429V9.984C17.4655 10.0756 17.4512 10.1675 17.4172 10.2534C17.3833 10.3394 17.3304 10.4174 17.2621 10.4823C17.1938 10.5473 17.1117 10.5976 17.0213 10.6299C16.9309 10.6622 16.8343 10.6758 16.738 10.6697V10.6697C16.2692 10.6697 15.8149 10.7451 15.375 10.8069C15.2607 10.8172 15.1454 10.8015 15.0388 10.7609C14.9322 10.7203 14.8373 10.6562 14.762 10.5737C14.4605 10.3123 14.0667 10.1679 13.6587 10.1691C13.2929 10.1684 12.9373 10.2832 12.6475 10.4954C12.3578 10.7076 12.1503 11.0053 12.0577 11.3417V11.3417C12.0159 11.589 11.8734 11.8107 11.6611 11.9589V11.9589C10.8326 12.3799 10.0784 12.9212 9.42549 13.5634C8.65968 14.3358 8.01812 15.2115 7.52163 16.1623C7.14663 16.8137 7.13942 16.0251 7.13942 16.0251V12.2674C7.28365 8.74971 7.95433 5.34857 10.6659 3.35314C10.9383 3.16248 11.2279 2.99498 11.5313 2.85257C11.9804 2.68645 12.4558 2.59371 12.9375 2.57828C13.5492 2.59811 14.1433 2.77848 14.6539 3.09943C15.5361 3.82091 16.2437 4.71543 16.7279 5.72154C17.2121 6.72766 17.4616 7.82153 17.4591 8.928V8.91429ZM9.375 1.23429C9.88869 1.2412 10.4005 1.294 10.9038 1.392C11.0337 1.44686 11.25 1.56343 10.9904 1.70057C10.9589 1.71478 10.9297 1.73326 10.9038 1.75543C10.5351 1.93759 10.1829 2.1486 9.85096 2.38628C8.87235 3.11402 8.06632 4.02999 7.48558 5.07428L7.37741 5.25257C6.73558 6.44572 6.33895 5.25257 6.33895 5.25257L6.3029 5.21829C5.95347 4.43513 5.4924 3.7014 4.93269 3.03771V3.03771C4.93269 3.03771 4.61538 2.74971 4.93269 2.52342C6.24503 1.68191 7.79213 1.23295 9.375 1.23429V1.23429ZM1.29809 8.928C1.30281 7.17883 1.93929 5.48428 3.10097 4.128C3.24293 3.99189 3.43327 3.91118 3.63462 3.90172C3.98799 3.90172 4.26923 3.90171 4.82452 4.704C5.50028 6.01848 5.84356 7.46496 5.82694 8.928V18.0891C5.82694 19.0903 5.43751 18.4937 5.43751 18.4937C4.54608 17.3009 3.28566 16.402 1.83174 15.9223V15.9223C1.6699 15.8523 1.53278 15.7393 1.43683 15.597C1.34088 15.4547 1.29019 15.2891 1.29087 15.12L1.29809 8.928ZM1.29809 22.5326V17.9931C1.29809 16.7931 2.15625 17.088 2.68269 17.3897C4.1269 18.3345 5.14392 19.7618 5.53126 21.3874C5.60338 21.6686 5.81251 22.7589 4.65145 22.7589H1.51443C1.45574 22.7523 1.40153 22.7257 1.36178 22.6842C1.32203 22.6426 1.29942 22.5887 1.29809 22.5326V22.5326ZM17.4591 14.592C17.4534 16.755 16.5462 18.8277 14.9363 20.356C13.3264 21.8842 11.1451 22.7433 8.87021 22.7451V22.7451C7.21155 22.7451 7.28366 21.1406 7.37741 20.5303C7.71939 18.2528 8.75757 16.1211 10.363 14.4C10.9222 13.8465 11.555 13.3648 12.2452 12.9669C12.3055 12.9338 12.3739 12.9163 12.4435 12.9163C12.5131 12.9163 12.5815 12.9338 12.6418 12.9669C12.9321 13.1775 13.2863 13.293 13.6514 13.296C14.0284 13.2965 14.3942 13.1743 14.6881 12.9498C14.982 12.7252 15.1862 12.4119 15.2668 12.0617V12.0617V12.0274C15.2829 11.9524 15.3214 11.8834 15.3776 11.8287C15.4339 11.7739 15.5056 11.7358 15.5841 11.7189C16.0367 11.6318 16.4942 11.5699 16.9543 11.5337C17.1635 11.5337 17.4519 11.712 17.4519 12.3154L17.4591 14.592Z" fill="#365650"/>
</g>
<defs>
<clipPath id="clip0_103_130">
<rect width="18.75" height="24" fill="white"/>
</clipPath>
</defs>
</svg>
