<svg width="100" height="24" viewBox="0 0 100 24" fill="none" xmlns="http://www.w3.org/2000/svg">
<g clip-path="url(#clip0_1688_1421)">
<path d="M9.375 0C6.8886 0 4.50403 0.939184 2.74588 2.61094C0.987724 4.28269 0 6.55007 0 8.91429V22.5189C0 22.908 0.162601 23.2813 0.45202 23.5565C0.741439 23.8317 1.13398 23.9863 1.54328 23.9863H17.2067C17.616 23.9863 18.0086 23.8317 18.298 23.5565C18.5874 23.2813 18.75 22.908 18.75 22.5189V8.928C18.7519 7.75621 18.5108 6.59555 18.0405 5.51244C17.5702 4.42932 16.88 3.445 16.0092 2.61578C15.1385 1.78656 14.1044 1.12871 12.966 0.679865C11.8276 0.231023 10.6074 -1.38673e-06 9.375 0ZM17.4591 8.91429V9.984C17.4655 10.0756 17.4512 10.1675 17.4172 10.2534C17.3833 10.3394 17.3304 10.4174 17.2621 10.4823C17.1938 10.5473 17.1117 10.5976 17.0213 10.6299C16.9309 10.6622 16.8343 10.6758 16.738 10.6697C16.2692 10.6697 15.8149 10.7451 15.375 10.8069C15.2607 10.8172 15.1454 10.8015 15.0388 10.7609C14.9322 10.7203 14.8373 10.6562 14.762 10.5737C14.4605 10.3123 14.0667 10.1679 13.6587 10.1691C13.2929 10.1684 12.9373 10.2832 12.6475 10.4954C12.3578 10.7076 12.1503 11.0053 12.0577 11.3417C12.0159 11.589 11.8734 11.8107 11.6611 11.9589C10.8326 12.3799 10.0784 12.9212 9.42549 13.5634C8.65968 14.3358 8.01812 15.2115 7.52163 16.1623C7.14663 16.8137 7.13942 16.0251 7.13942 16.0251V12.2674C7.28365 8.74971 7.95433 5.34857 10.6659 3.35314C10.9383 3.16248 11.2279 2.99498 11.5313 2.85257C11.9804 2.68645 12.4558 2.59371 12.9375 2.57828C13.5492 2.59811 14.1433 2.77848 14.6539 3.09943C15.5361 3.82091 16.2437 4.71543 16.7279 5.72154C17.2121 6.72766 17.4616 7.82153 17.4591 8.928V8.91429ZM9.375 1.23429C9.88869 1.2412 10.4005 1.294 10.9038 1.392C11.0337 1.44686 11.25 1.56343 10.9904 1.70057C10.9589 1.71478 10.9297 1.73326 10.9038 1.75543C10.5351 1.93759 10.1829 2.1486 9.85096 2.38628C8.87235 3.11402 8.06632 4.02999 7.48558 5.07428L7.37741 5.25257C6.73558 6.44572 6.33895 5.25257 6.33895 5.25257L6.3029 5.21829C5.95347 4.43513 5.4924 3.7014 4.93269 3.03771C4.93269 3.03771 4.61538 2.74971 4.93269 2.52342C6.24503 1.68191 7.79213 1.23295 9.375 1.23429ZM1.29809 8.928C1.30281 7.17883 1.93929 5.48428 3.10097 4.128C3.24293 3.99189 3.43327 3.91118 3.63462 3.90172C3.98799 3.90172 4.26923 3.90171 4.82452 4.704C5.50028 6.01848 5.84356 7.46496 5.82694 8.928V18.0891C5.82694 19.0903 5.43751 18.4937 5.43751 18.4937C4.54608 17.3009 3.28566 16.402 1.83174 15.9223C1.6699 15.8523 1.53278 15.7393 1.43683 15.597C1.34088 15.4547 1.29019 15.2891 1.29087 15.12L1.29809 8.928ZM1.29809 22.5326V17.9931C1.29809 16.7931 2.15625 17.088 2.68269 17.3897C4.1269 18.3345 5.14392 19.7618 5.53126 21.3874C5.60337 21.6686 5.81251 22.7589 4.65145 22.7589H1.51443C1.45574 22.7523 1.40153 22.7257 1.36178 22.6842C1.32203 22.6426 1.29942 22.5887 1.29809 22.5326ZM17.4591 14.592C17.4534 16.755 16.5462 18.8277 14.9363 20.356C13.3264 21.8842 11.1451 22.7433 8.87021 22.7451C7.21155 22.7451 7.28366 21.1406 7.37741 20.5303C7.71939 18.2528 8.75757 16.1211 10.363 14.4C10.9222 13.8465 11.555 13.3648 12.2452 12.9669C12.3055 12.9338 12.3739 12.9163 12.4435 12.9163C12.5131 12.9163 12.5815 12.9338 12.6418 12.9669C12.9321 13.1775 13.2863 13.293 13.6514 13.296C14.0284 13.2965 14.3942 13.1743 14.6881 12.9498C14.982 12.7252 15.1862 12.4119 15.2668 12.0617V12.0274C15.2829 11.9524 15.3214 11.8834 15.3776 11.8287C15.4339 11.7739 15.5056 11.7358 15.5841 11.7189C16.0367 11.6318 16.4942 11.5699 16.9543 11.5337C17.1635 11.5337 17.4519 11.712 17.4519 12.3154L17.4591 14.592Z" fill="#365650"/>
</g>
<path d="M83.1944 9.99407H80.5703C80.4119 9.99876 80.2577 9.94277 80.1386 9.83732C80.019 9.71057 79.9522 9.54217 79.9522 9.36706C79.9522 9.19194 80.019 9.02354 80.1386 8.89679C80.2567 8.78888 80.411 8.73041 80.5703 8.73323H83.1944V5.65263C83.1882 5.56122 83.2026 5.46961 83.2365 5.38462C83.2704 5.29963 83.3229 5.2235 83.3901 5.16194C83.5255 5.05693 83.6915 5 83.8623 5C84.033 5 84.199 5.05693 84.3345 5.16194C84.405 5.22289 84.4606 5.29954 84.4969 5.38586C84.5332 5.47219 84.5492 5.56584 84.5436 5.65946V14.0833C84.55 14.1754 84.535 14.2677 84.4999 14.3529C84.4648 14.4381 84.4104 14.5138 84.3412 14.5741C84.2052 14.683 84.0359 14.7409 83.8623 14.7376C83.6899 14.7461 83.521 14.6876 83.3901 14.5741C83.3221 14.5132 83.269 14.4371 83.2351 14.352C83.2011 14.2668 83.1872 14.1748 83.1944 14.0833V9.99407Z" fill="#365650"/>
<path d="M37.1036 5.39225C37.1374 5.30749 37.1891 5.23123 37.2551 5.16878C37.3914 5.06331 37.5579 5.00558 37.7296 5.00435C37.9012 5.00312 38.0686 5.05845 38.2063 5.16196C38.2768 5.22291 38.3324 5.29956 38.3687 5.38588C38.405 5.47221 38.421 5.56586 38.4154 5.65948V12.8702C38.4215 12.9639 38.4058 13.0577 38.3695 13.1441C38.3331 13.2306 38.2773 13.3071 38.2063 13.3677C38.0691 13.4738 37.9 13.5291 37.7273 13.5245C37.555 13.533 37.386 13.4744 37.2551 13.3609C37.1879 13.2994 37.1354 13.2232 37.1016 13.1382C37.0677 13.0533 37.0533 12.9616 37.0595 12.8702V5.65948C37.0547 5.56822 37.0698 5.47701 37.1036 5.39225Z" fill="#365650"/>
<path d="M37.788 14.6286C37.9569 14.7091 38.1013 14.8338 38.2063 14.9898C38.299 15.1236 38.3592 15.2778 38.3817 15.4396C38.4086 15.6041 38.4221 15.7705 38.4222 15.9371V19.1063C38.428 19.1983 38.4128 19.2905 38.3777 19.3756C38.3426 19.4607 38.2886 19.5364 38.2198 19.597C38.0889 19.7105 37.9199 19.7691 37.7476 19.7606C37.5771 19.7642 37.4105 19.7089 37.2754 19.6038C37.2044 19.5432 37.1485 19.4666 37.1122 19.3802C37.0758 19.2938 37.0601 19.2 37.0662 19.1063V15.9371C37.0662 15.7667 37.0325 15.7667 37.0325 15.7667C36.9955 15.7532 36.9549 15.7532 36.9178 15.7667H26.7923C26.633 15.7696 26.4787 15.7111 26.3606 15.6032C26.297 15.5435 26.2471 15.4705 26.2145 15.3892C26.1818 15.308 26.1672 15.2205 26.1717 15.1329C26.1681 15.0455 26.1831 14.9582 26.2157 14.8771C26.2483 14.796 26.2977 14.7229 26.3606 14.6627C26.4787 14.5547 26.633 14.4963 26.7923 14.4991H37.1135C37.3449 14.4934 37.5748 14.5376 37.788 14.6286Z" fill="#365650"/>
<path d="M28.1414 11.4935C28.436 11.2173 28.7068 10.9163 28.951 10.5938C29.1163 10.3784 29.2651 10.1505 29.3962 9.91228C29.5176 10.1292 29.6552 10.3366 29.8077 10.5325C30.0477 10.8438 30.3141 11.1333 30.6037 11.398C30.909 11.6774 31.2386 11.9283 31.5886 12.1478C31.9302 12.3699 32.3001 12.5441 32.6882 12.6657C32.7839 12.7082 32.8872 12.7301 32.9917 12.7301C33.0962 12.7301 33.1996 12.7082 33.2953 12.6657C33.3766 12.6209 33.4479 12.5597 33.5048 12.4858C33.5617 12.4119 33.6029 12.327 33.6258 12.2364C33.657 12.1479 33.6697 12.0539 33.6632 11.9603C33.6566 11.8666 33.631 11.7753 33.588 11.6921C33.5449 11.609 33.4853 11.5357 33.4129 11.4769C33.3405 11.4181 33.2568 11.375 33.1671 11.3504C32.6818 11.1474 32.2166 10.8986 31.7775 10.6075C31.3988 10.3639 31.0635 10.0574 30.7858 9.70101C30.5217 9.3493 30.3229 8.95214 30.1989 8.52877C30.057 8.0305 29.9888 7.51374 29.9966 6.9953V5.7617C30.0011 5.66821 29.9847 5.57486 29.9485 5.4887C29.9123 5.40253 29.8572 5.32576 29.7874 5.26415C29.6505 5.15966 29.4835 5.10316 29.3119 5.10316C29.1402 5.10316 28.9732 5.15966 28.8363 5.26415C28.7691 5.3257 28.7166 5.40183 28.6827 5.48682C28.6488 5.57181 28.6345 5.66347 28.6407 5.75488V7.15886C28.6459 7.67986 28.5755 8.19884 28.4315 8.69916C28.2976 9.12733 28.0947 9.53029 27.8311 9.89186C27.5548 10.2508 27.2221 10.5616 26.8463 10.8119C26.421 11.0856 25.9689 11.314 25.4971 11.4935C25.3208 11.5516 25.1735 11.6761 25.0856 11.8411C25.0407 11.9223 25.0127 12.012 25.0034 12.1046C24.9942 12.1972 25.0037 12.2908 25.0316 12.3795C25.0546 12.4701 25.0958 12.5551 25.1526 12.6289C25.2095 12.7028 25.2808 12.764 25.3622 12.8088C25.4515 12.8561 25.5514 12.8796 25.6522 12.877C25.7606 12.8746 25.8677 12.8538 25.9693 12.8157C26.3789 12.6769 26.7707 12.4893 27.1363 12.2568C27.4942 12.0345 27.8307 11.779 28.1414 11.4935Z" fill="#365650"/>
<path d="M43.4141 18.4384H53.5329C53.6911 18.4327 53.8463 18.4833 53.9713 18.5816C54.0909 18.7083 54.1577 18.8767 54.1577 19.0518C54.1577 19.2269 54.0909 19.3953 53.9713 19.5221C53.8492 19.6277 53.6937 19.6857 53.5329 19.6857H43.2657C43.0392 19.691 42.8129 19.6704 42.5911 19.6243C42.4296 19.5905 42.2802 19.5128 42.1593 19.3994C42.0525 19.2933 41.9837 19.1542 41.9637 19.0041C41.935 18.856 41.9214 18.7052 41.9233 18.5543V16.755C41.9255 16.6142 41.9676 16.477 42.0447 16.3597C42.1419 16.238 42.2777 16.1538 42.4292 16.1212C42.6503 16.0699 42.877 16.047 43.1038 16.053H52.4265C52.4638 16.0655 52.504 16.0655 52.5412 16.053V15.0716C52.504 15.0591 52.4638 15.0591 52.4265 15.0716H42.5709C42.4116 15.0744 42.2572 15.0159 42.1391 14.908C42.0175 14.7809 41.9496 14.6111 41.9496 14.4343C41.9496 14.2576 42.0175 14.0878 42.1391 13.9607C42.2572 13.8528 42.4116 13.7943 42.5709 13.7971H52.7571C52.9836 13.7898 53.2101 13.8104 53.4317 13.8585C53.5806 13.8967 53.7132 13.9828 53.8095 14.1038C53.8919 14.2189 53.9367 14.3571 53.9376 14.4991V16.5369C53.9353 16.6905 53.8934 16.8408 53.8162 16.9731C53.7277 17.1124 53.5978 17.2197 53.4452 17.2798C53.2292 17.3587 52.9999 17.3934 52.7706 17.382H43.4141C43.373 17.3789 43.3322 17.391 43.2994 17.4161C43.2994 17.4161 43.2657 17.4502 43.2657 17.5865V18.268C43.2657 18.4043 43.2994 18.4384 43.2994 18.4384C43.3364 18.452 43.377 18.452 43.4141 18.4384Z" fill="#365650"/>
<path fill-rule="evenodd" clip-rule="evenodd" d="M42.1459 9.07401C42.2509 9.22998 42.3953 9.35473 42.5641 9.43525C42.7773 9.52624 43.0073 9.57035 43.2387 9.5647H52.548C52.7795 9.57207 53.0098 9.5279 53.2226 9.43525C53.3908 9.35689 53.5352 9.23452 53.6408 9.08083C53.737 8.93303 53.7992 8.76535 53.8229 8.5901C53.8476 8.42546 53.8589 8.25908 53.8567 8.09259V6.68861C53.8591 6.52211 53.8478 6.3557 53.8229 6.19109C53.7984 6.0171 53.7387 5.85005 53.6475 5.70036C53.538 5.54769 53.3917 5.42576 53.2226 5.34598C53.0104 5.25078 52.7801 5.20422 52.548 5.20967H43.2387C43.0068 5.20597 42.7768 5.25245 42.5641 5.34598C42.4 5.42121 42.2586 5.53904 42.1543 5.68751C42.05 5.83597 41.9866 6.00977 41.9705 6.19109C41.9433 6.35551 41.9298 6.52192 41.93 6.68861V8.12665C41.9309 8.29305 41.9422 8.45924 41.9637 8.62421C41.9913 8.78577 42.0534 8.93928 42.1459 9.07401ZM43.2859 6.65454C43.2859 6.51823 43.3196 6.48415 43.3196 6.48415C43.3525 6.45903 43.3933 6.44691 43.4343 6.45008H52.4063C52.4473 6.44752 52.4879 6.45958 52.521 6.48415V8.26297C52.4879 8.28755 52.4473 8.2996 52.4063 8.29704H43.4343C43.3933 8.30021 43.3525 8.2881 43.3196 8.26297C43.3196 8.26297 43.2859 8.26297 43.2859 8.09259V6.65454Z" fill="#365650"/>
<path d="M41.2554 10.7779H54.5515C54.6791 10.7776 54.8038 10.8163 54.9093 10.8889C55.0148 10.9614 55.0962 11.0644 55.1428 11.1844C55.1895 11.3044 55.1992 11.4358 55.1707 11.5615C55.1423 11.6872 55.0769 11.8012 54.9832 11.8888C54.8647 11.9961 54.7106 12.0545 54.5515 12.0524H48.5882V12.9588C48.5943 13.0515 48.5785 13.1443 48.5422 13.2296C48.5058 13.3149 48.4499 13.3903 48.379 13.4495C48.2441 13.5606 48.074 13.6187 47.9001 13.6131C47.7278 13.6216 47.5588 13.563 47.4279 13.4495C47.3618 13.3871 47.3101 13.3108 47.2763 13.226C47.2425 13.1413 47.2275 13.0501 47.2322 12.9588V12.0524H41.2554C41.0962 12.0552 40.9418 11.9967 40.8237 11.8888C40.7021 11.7617 40.6341 11.5919 40.6341 11.4151C40.6341 11.2384 40.7021 11.0685 40.8237 10.9414C40.9418 10.8335 41.0962 10.7751 41.2554 10.7779Z" fill="#365650"/>
<path d="M65.102 18.2749H56.6427C56.4835 18.272 56.3291 18.3305 56.211 18.4384C56.1462 18.4972 56.0956 18.5701 56.0629 18.6516C56.0301 18.7331 56.0162 18.821 56.0221 18.9087C56.0167 18.9964 56.0309 19.0842 56.0635 19.1656C56.0962 19.247 56.1466 19.3199 56.211 19.379C56.3291 19.4869 56.4835 19.5453 56.6427 19.5425H65.102C65.2613 19.5453 65.4156 19.4869 65.5338 19.379C65.5966 19.3187 65.646 19.2456 65.6786 19.1645C65.7112 19.0834 65.7262 18.9962 65.7227 18.9087C65.7271 18.8211 65.7125 18.7336 65.6799 18.6524C65.6472 18.5711 65.5974 18.4981 65.5338 18.4384C65.4156 18.3305 65.2613 18.272 65.102 18.2749Z" fill="#365650"/>
<path d="M67.8647 5.39225C67.8985 5.30749 67.9502 5.23123 68.0162 5.16878C68.1525 5.06331 68.319 5.00558 68.4907 5.00435C68.6623 5.00312 68.8297 5.05845 68.9674 5.16196C69.038 5.22291 69.0936 5.29956 69.1298 5.38588C69.1661 5.47221 69.1821 5.56586 69.1765 5.65948V19.3449C69.1826 19.4386 69.1669 19.5324 69.1306 19.6188C69.0943 19.7052 69.0384 19.7818 68.9674 19.8424C68.8302 19.9484 68.6611 20.0038 68.4884 19.9992C68.3161 20.0077 68.1471 19.9491 68.0162 19.8356C67.9491 19.774 67.8966 19.6979 67.8627 19.6129C67.8288 19.5279 67.8144 19.4363 67.8206 19.3449V5.65948C67.8158 5.56822 67.8309 5.47701 67.8647 5.39225Z" fill="#365650"/>
<path fill-rule="evenodd" clip-rule="evenodd" d="M62.0057 5.42777C61.5271 5.25634 61.0225 5.171 60.5148 5.1756C60.0093 5.17038 59.5068 5.25575 59.0307 5.42777C58.6088 5.57865 58.2195 5.81003 57.8839 6.10932C57.565 6.38682 57.3095 6.73097 57.1352 7.11799C56.9599 7.5002 56.8701 7.9167 56.8721 8.33794V10.9278C56.8701 11.349 56.9599 11.7656 57.1352 12.1478C57.3095 12.5348 57.565 12.879 57.8839 13.1565C58.2204 13.4544 58.6095 13.6856 59.0307 13.838C59.9959 14.1653 61.0405 14.1653 62.0057 13.838C62.431 13.6857 62.8245 13.4545 63.166 13.1565C63.4814 12.8757 63.7363 12.5324 63.9147 12.1478C64.0868 11.7645 64.1764 11.3487 64.1778 10.9278V8.33794C64.1764 7.91707 64.0868 7.5013 63.9147 7.11799C63.738 6.73237 63.4829 6.3887 63.166 6.10932C62.8245 5.81123 62.431 5.5801 62.0057 5.42777ZM62.8219 10.4371C62.8521 10.7672 62.8104 11.0999 62.6997 11.4119C62.589 11.7239 62.4119 12.0077 62.1811 12.2432C61.7104 12.6261 61.1187 12.8245 60.5148 12.802C59.9174 12.8226 59.3327 12.6242 58.8688 12.2432C58.6319 12.0108 58.4486 11.7284 58.332 11.4162C58.2154 11.1041 58.1684 10.7697 58.1943 10.4371V8.8082C58.1675 8.47651 58.2142 8.14298 58.3308 7.83177C58.4475 7.52056 58.6313 7.23946 58.8688 7.00892C59.3312 6.62518 59.9169 6.42635 60.5148 6.45009C61.1193 6.42384 61.7122 6.62268 62.1811 7.00892C62.4126 7.24255 62.59 7.52504 62.7008 7.8361C62.8116 8.14716 62.853 8.47911 62.8219 8.8082V10.4371Z" fill="#365650"/>
<path d="M84.2602 18.4384H73.8379C73.8005 18.45 73.7606 18.45 73.7232 18.4384V15.6441C73.7293 15.5514 73.7136 15.4586 73.6772 15.3732C73.6409 15.2879 73.585 15.2126 73.5141 15.1534C73.3763 15.0509 73.2096 14.9957 73.0385 14.9957C72.8674 14.9957 72.7008 15.0509 72.5629 15.1534C72.4969 15.2158 72.4452 15.2921 72.4114 15.3769C72.3776 15.4616 72.3625 15.5528 72.3673 15.6441V18.268C72.3682 18.4344 72.3795 18.6006 72.401 18.7655C72.4249 18.9387 72.4871 19.1041 72.5832 19.2494C72.6882 19.4054 72.8326 19.5302 73.0014 19.6107C73.2146 19.7017 73.4446 19.7458 73.676 19.7402H84.2602C84.4195 19.743 84.5739 19.6845 84.692 19.5766C84.8116 19.4498 84.8783 19.2814 84.8783 19.1063C84.8783 18.9312 84.8116 18.7628 84.692 18.6361C84.5792 18.5157 84.4242 18.4447 84.2602 18.4384Z" fill="#365650"/>
<path fill-rule="evenodd" clip-rule="evenodd" d="M75.2208 13.6813C74.7153 13.6865 74.2128 13.6011 73.7367 13.4291C73.3188 13.2782 72.9339 13.0467 72.6034 12.7476C72.2938 12.4677 72.0476 12.1236 71.8816 11.7388C71.7117 11.3551 71.6244 10.9393 71.6253 10.5189V8.47425C71.6244 8.05386 71.7117 7.63806 71.8816 7.25431C72.0508 6.87137 72.2965 6.52792 72.6034 6.24559C72.9347 5.94738 73.3193 5.71603 73.7367 5.56405C74.2128 5.39203 74.7153 5.30665 75.2208 5.31188C75.7285 5.30727 76.2331 5.39262 76.7116 5.56405C77.1331 5.71599 77.5222 5.94725 77.8584 6.24559C78.1654 6.52943 78.4131 6.8724 78.587 7.25431C78.7623 7.63652 78.8521 8.05302 78.8501 8.47425V10.5189C78.8521 10.9401 78.7623 11.3566 78.587 11.7388C78.4131 12.1207 78.1654 12.4637 77.8584 12.7476C77.5229 13.0468 77.1336 13.2782 76.7116 13.4291C76.2331 13.6005 75.7285 13.6859 75.2208 13.6813ZM73.123 8.0138C73.0159 8.32553 72.9767 8.65697 73.0082 8.98541V10.0418C72.9767 10.3702 73.0159 10.7017 73.123 11.0134C73.2301 11.3251 73.4027 11.6098 73.6288 11.8479C74.079 12.2345 74.6576 12.4342 75.2478 12.4068C75.8462 12.4338 76.433 12.2345 76.8938 11.8479C77.1211 11.6104 77.2949 11.326 77.4032 11.0142C77.5115 10.7025 77.5517 10.3707 77.5212 10.0418V8.98541C77.5517 8.65646 77.5115 8.32473 77.4032 8.01297C77.2949 7.70122 77.1211 7.4168 76.8938 7.1793C76.4314 6.79557 75.8457 6.59673 75.2478 6.62047C74.6581 6.59638 74.0807 6.79566 73.6288 7.1793C73.4027 7.4174 73.2301 7.70208 73.123 8.0138Z" fill="#365650"/>
<path fill-rule="evenodd" clip-rule="evenodd" d="M93.2458 6.1093C92.9346 5.80825 92.5647 5.57612 92.1597 5.42775C91.2168 5.09153 90.1884 5.09153 89.2455 5.42775C88.846 5.57937 88.4811 5.81122 88.1729 6.1093C87.8779 6.39178 87.6476 6.73605 87.4983 7.11797C87.3472 7.50425 87.2694 7.91576 87.2689 8.33109V16.5096C87.2694 16.925 87.3472 17.3365 87.4983 17.7228C87.6476 18.1047 87.8779 18.449 88.1729 18.7315C88.4829 19.0272 88.8473 19.2588 89.2455 19.413C90.1899 19.7402 91.2153 19.7402 92.1597 19.413C92.5635 19.2622 92.9329 19.0303 93.2458 18.7315C93.5382 18.4468 93.768 18.1031 93.9203 17.7228C94.0768 17.3379 94.157 16.9257 94.1564 16.5096V8.33109C94.1577 7.91273 94.0775 7.49822 93.9203 7.11115C93.7679 6.73287 93.538 6.39147 93.2458 6.1093ZM92.8073 16.0394C92.8382 16.3645 92.8053 16.6927 92.7103 17.005C92.6154 17.3173 92.4604 17.6075 92.2541 17.8591C92.0443 18.0495 91.799 18.1957 91.5326 18.2893C91.2662 18.3829 90.9841 18.422 90.7026 18.4043C90.4242 18.422 90.1451 18.3828 89.882 18.2891C89.6189 18.1954 89.3772 18.0492 89.1712 17.8591C88.9662 17.607 88.8124 17.3165 88.7186 17.0042C88.6248 16.692 88.593 16.3641 88.6248 16.0394V8.80818C88.5931 8.48453 88.6251 8.15773 88.7189 7.8466C88.8127 7.53547 88.9664 7.24618 89.1712 6.99529C89.3772 6.80521 89.6189 6.65897 89.882 6.56529C90.1451 6.47162 90.4242 6.43244 90.7026 6.45007C90.9841 6.43237 91.2662 6.47148 91.5326 6.56509C91.799 6.6587 92.0443 6.80493 92.2541 6.99529C92.4602 7.24565 92.6151 7.53475 92.7101 7.84589C92.805 8.15704 92.838 8.48407 92.8073 8.80818V16.0394Z" fill="#365650"/>
<path d="M99.3339 5.00092C99.5055 5.00092 99.6725 5.05745 99.8095 5.16194C99.8752 5.22577 99.9262 5.30341 99.9588 5.3894C99.9915 5.47539 100.005 5.5676 99.9984 5.65946V19.3381C100.003 19.4316 99.9865 19.5249 99.9503 19.6111C99.9141 19.6972 99.859 19.774 99.7892 19.8356C99.6515 19.9406 99.4828 19.9959 99.3103 19.9923C99.138 20.0008 98.969 19.9423 98.8381 19.8288C98.7709 19.7672 98.7184 19.6911 98.6845 19.6061C98.6506 19.5211 98.6362 19.4295 98.6424 19.3381V12.4749H95.9441C95.7846 12.4791 95.6298 12.4205 95.5124 12.3113C95.3908 12.1842 95.3228 12.0144 95.3228 11.8377C95.3228 11.6609 95.3908 11.4911 95.5124 11.364C95.6298 11.2548 95.7846 11.1962 95.9441 11.2004H98.6627V5.65263C98.6579 5.56138 98.673 5.47017 98.7068 5.38541C98.7405 5.30064 98.7923 5.22439 98.8583 5.16194C98.9953 5.05745 99.1622 5.00092 99.3339 5.00092Z" fill="#365650"/>
<defs>
<clipPath id="clip0_1688_1421">
<rect width="18.75" height="24" fill="white"/>
</clipPath>
</defs>
</svg>
