<svg width="75" height="15" viewBox="0 0 75 15" fill="none" xmlns="http://www.w3.org/2000/svg">
<path d="M58.1944 4.99407H55.5703C55.4119 4.99876 55.2577 4.94277 55.1386 4.83732C55.019 4.71057 54.9522 4.54217 54.9522 4.36706C54.9522 4.19194 55.019 4.02354 55.1386 3.89679C55.2567 3.78888 55.411 3.73041 55.5703 3.73323H58.1944V0.652633C58.1882 0.561224 58.2026 0.469605 58.2365 0.384617C58.2704 0.299628 58.3229 0.223497 58.3901 0.161942C58.5255 0.0569333 58.6915 0 58.8623 0C59.033 0 59.199 0.0569333 59.3345 0.161942C59.405 0.222892 59.4606 0.299537 59.4969 0.385864C59.5332 0.472192 59.5492 0.565837 59.5436 0.659456V9.08333C59.55 9.17539 59.535 9.2677 59.4999 9.35289C59.4648 9.43808 59.4104 9.51383 59.3412 9.57407C59.2052 9.68304 59.0359 9.74086 58.8623 9.73763C58.6899 9.74612 58.521 9.68759 58.3901 9.57407C58.3221 9.51315 58.269 9.43713 58.2351 9.35197C58.2011 9.26682 58.1872 9.17484 58.1944 9.08333V4.99407Z" fill="#365650"/>
<path d="M12.1036 0.392249C12.1374 0.307485 12.1891 0.231234 12.2551 0.168784C12.3914 0.0633082 12.5579 0.00557614 12.7296 0.00434628C12.9012 0.00311641 13.0686 0.0584491 13.2063 0.161962C13.2768 0.222912 13.3324 0.299557 13.3687 0.385885C13.405 0.472212 13.421 0.565857 13.4154 0.659476V7.87022C13.4215 7.9639 13.4058 8.05774 13.3695 8.14415C13.3331 8.23056 13.2773 8.30713 13.2063 8.36774C13.0691 8.47378 12.9 8.52913 12.7273 8.52452C12.555 8.53301 12.386 8.47444 12.2551 8.36092C12.1879 8.29936 12.1354 8.22323 12.1016 8.13824C12.0677 8.05325 12.0533 7.96163 12.0595 7.87022V0.659476C12.0547 0.568221 12.0698 0.477013 12.1036 0.392249Z" fill="#365650"/>
<path d="M12.788 9.62858C12.9569 9.7091 13.1013 9.83381 13.2063 9.98978C13.299 10.1236 13.3592 10.2778 13.3817 10.4396C13.4086 10.6041 13.4221 10.7705 13.4222 10.9371V14.1063C13.428 14.1983 13.4128 14.2904 13.3777 14.3756C13.3426 14.4607 13.2886 14.5364 13.2198 14.597C13.0889 14.7105 12.9199 14.7691 12.7476 14.7606C12.5771 14.7642 12.4105 14.7089 12.2754 14.6038C12.2044 14.5432 12.1485 14.4666 12.1122 14.3802C12.0758 14.2938 12.0601 14.2 12.0662 14.1063V10.9371C12.0662 10.7667 12.0325 10.7667 12.0325 10.7667C11.9955 10.7532 11.9549 10.7532 11.9178 10.7667H1.79228C1.63304 10.7696 1.4787 10.7111 1.36056 10.6032C1.29696 10.5435 1.24709 10.4705 1.21445 10.3892C1.18182 10.308 1.16722 10.2205 1.17167 10.1329C1.16812 10.0455 1.18313 9.95824 1.21571 9.87713C1.24829 9.79602 1.29768 9.72288 1.36056 9.66265C1.4787 9.55474 1.63304 9.49627 1.79228 9.49909H12.1135C12.3449 9.49344 12.5748 9.53759 12.788 9.62858Z" fill="#365650"/>
<path d="M3.14145 6.49347C3.43598 6.21727 3.7068 5.9163 3.95096 5.59383C4.11625 5.37838 4.26509 5.15054 4.39619 4.91228C4.51763 5.12924 4.65518 5.33659 4.80767 5.53251C5.04771 5.84377 5.31406 6.13335 5.6037 6.39805C5.90899 6.67739 6.23862 6.92834 6.58859 7.14777C6.93025 7.36986 7.30015 7.54411 7.68817 7.66575C7.78387 7.70817 7.88722 7.73006 7.99172 7.73006C8.09622 7.73006 8.1996 7.70817 8.29529 7.66575C8.37662 7.62094 8.44793 7.55967 8.5048 7.4858C8.56167 7.41192 8.60287 7.32704 8.62583 7.23637C8.65696 7.14792 8.66967 7.05393 8.66316 6.96029C8.65664 6.86664 8.63104 6.77533 8.58797 6.69214C8.54491 6.60896 8.48531 6.53569 8.41288 6.47687C8.34046 6.41806 8.25679 6.37499 8.16712 6.35037C7.68185 6.14737 7.21658 5.89863 6.77747 5.60747C6.39877 5.36389 6.06351 5.05741 5.78583 4.70101C5.5217 4.3493 5.32286 3.95214 5.19895 3.52877C5.05697 3.0305 4.98876 2.51374 4.99656 1.9953V0.761704C5.00112 0.668206 4.98468 0.574859 4.94847 0.488695C4.91225 0.402531 4.8572 0.325756 4.78744 0.264148C4.65046 0.159657 4.4835 0.103163 4.31186 0.103163C4.14022 0.103163 3.97325 0.159657 3.83627 0.264148C3.7691 0.325703 3.71659 0.401834 3.68271 0.486823C3.64883 0.571812 3.63446 0.663472 3.64065 0.754882V2.15886C3.64594 2.67986 3.57548 3.19884 3.43153 3.69916C3.29758 4.12733 3.09473 4.53029 2.83114 4.89186C2.55478 5.25083 2.22208 5.56163 1.84625 5.81193C1.42103 6.08557 0.968895 6.31398 0.497081 6.49347C0.320816 6.55163 0.173456 6.6761 0.0855729 6.84107C0.0406652 6.92233 0.0127134 7.01203 0.00343185 7.10463C-0.0058497 7.19723 0.00374478 7.29076 0.0316151 7.37947C0.0545814 7.47013 0.0957754 7.55506 0.152644 7.62894C0.209514 7.70281 0.280833 7.76404 0.362156 7.80885C0.451543 7.8561 0.551371 7.87958 0.652223 7.87703C0.760554 7.87459 0.86772 7.85384 0.969279 7.81567C1.37889 7.67689 1.77067 7.48927 2.13632 7.2568C2.49416 7.03453 2.83066 6.77898 3.14145 6.49347Z" fill="#365650"/>
<path d="M18.4141 13.4384H28.5329C28.6911 13.4327 28.8463 13.4833 28.9713 13.5816C29.0909 13.7083 29.1577 13.8767 29.1577 14.0518C29.1577 14.2269 29.0909 14.3953 28.9713 14.5221C28.8492 14.6277 28.6937 14.6857 28.5329 14.6857H18.2657C18.0392 14.691 17.8129 14.6704 17.5911 14.6243C17.4296 14.5905 17.2802 14.5128 17.1593 14.3994C17.0525 14.2933 16.9837 14.1542 16.9637 14.0041C16.935 13.856 16.9214 13.7052 16.9233 13.5543V11.755C16.9255 11.6142 16.9676 11.477 17.0447 11.3597C17.1419 11.238 17.2777 11.1538 17.4292 11.1212C17.6503 11.0699 17.877 11.047 18.1038 11.053H27.4265C27.4638 11.0655 27.504 11.0655 27.5412 11.053V10.0716C27.504 10.0591 27.4638 10.0591 27.4265 10.0716H17.5709C17.4116 10.0744 17.2572 10.0159 17.1391 9.90803C17.0175 9.78094 16.9496 9.6111 16.9496 9.43435C16.9496 9.2576 17.0175 9.08776 17.1391 8.96067C17.2572 8.85276 17.4116 8.79429 17.5709 8.79711H27.7571C27.9836 8.78983 28.2101 8.81044 28.4317 8.85846C28.5806 8.89668 28.7132 8.98279 28.8095 9.10381C28.8919 9.21886 28.9367 9.35708 28.9376 9.49912V11.5369C28.9353 11.6905 28.8934 11.8408 28.8162 11.9731C28.7277 12.1124 28.5978 12.2197 28.4452 12.2798C28.2292 12.3587 27.9999 12.3934 27.7706 12.382H18.4141C18.373 12.3789 18.3322 12.391 18.2994 12.4161C18.2994 12.4161 18.2657 12.4502 18.2657 12.5865V13.268C18.2657 13.4043 18.2994 13.4384 18.2994 13.4384C18.3364 13.452 18.377 13.452 18.4141 13.4384Z" fill="#365650"/>
<path fill-rule="evenodd" clip-rule="evenodd" d="M17.1459 4.07401C17.2509 4.22998 17.3953 4.35473 17.5641 4.43525C17.7773 4.52624 18.0073 4.57035 18.2387 4.5647H27.548C27.7795 4.57207 28.0098 4.5279 28.2226 4.43525C28.3908 4.35689 28.5352 4.23452 28.6408 4.08083C28.737 3.93303 28.7992 3.76535 28.8229 3.5901C28.8476 3.42546 28.8589 3.25908 28.8567 3.09259V1.68861C28.8591 1.52211 28.8478 1.3557 28.8229 1.19109C28.7984 1.0171 28.7387 0.850046 28.6475 0.700359C28.538 0.547695 28.3917 0.425759 28.2226 0.345984C28.0104 0.250779 27.7801 0.204219 27.548 0.209667H18.2387C18.0068 0.205967 17.7768 0.252451 17.5641 0.345984C17.4 0.421212 17.2586 0.539037 17.1543 0.687505C17.05 0.835974 16.9866 1.00977 16.9705 1.19109C16.9433 1.35551 16.9298 1.52192 16.93 1.68861V3.12665C16.9309 3.29305 16.9422 3.45924 16.9637 3.62421C16.9913 3.78577 17.0534 3.93928 17.1459 4.07401ZM18.2859 1.65454C18.2859 1.51823 18.3196 1.48415 18.3196 1.48415C18.3525 1.45903 18.3933 1.44691 18.4343 1.45008H27.4063C27.4473 1.44752 27.4879 1.45958 27.521 1.48415V3.26297C27.4879 3.28755 27.4473 3.2996 27.4063 3.29704H18.4343C18.3933 3.30021 18.3525 3.2881 18.3196 3.26297C18.3196 3.26297 18.2859 3.26297 18.2859 3.09259V1.65454Z" fill="#365650"/>
<path d="M16.2554 5.77787H29.5515C29.6791 5.77765 29.8038 5.81633 29.9093 5.88886C30.0148 5.96138 30.0962 6.06436 30.1428 6.18437C30.1895 6.30438 30.1992 6.43583 30.1707 6.5615C30.1423 6.68717 30.0769 6.80124 29.9832 6.88879C29.8647 6.99612 29.7106 7.0545 29.5515 7.05236H23.5882V7.95882C23.5943 8.05151 23.5785 8.14431 23.5422 8.22963C23.5058 8.31494 23.4499 8.39031 23.379 8.44951C23.2441 8.56059 23.074 8.61868 22.9001 8.61308C22.7278 8.62157 22.5588 8.56304 22.4279 8.44951C22.3618 8.38707 22.3101 8.31081 22.2763 8.22605C22.2425 8.14129 22.2275 8.05008 22.2322 7.95882V7.05236H16.2554C16.0962 7.05518 15.9418 6.99671 15.8237 6.88879C15.7021 6.76171 15.6341 6.59187 15.6341 6.41512C15.6341 6.23836 15.7021 6.06852 15.8237 5.94144C15.9418 5.83352 16.0962 5.77505 16.2554 5.77787Z" fill="#365650"/>
<path d="M40.102 13.2749H31.6427C31.4835 13.272 31.3291 13.3305 31.211 13.4384C31.1462 13.4972 31.0956 13.5701 31.0629 13.6516C31.0301 13.7331 31.0162 13.821 31.0221 13.9087C31.0167 13.9964 31.0309 14.0842 31.0635 14.1656C31.0962 14.247 31.1466 14.3199 31.211 14.379C31.3291 14.4869 31.4835 14.5453 31.6427 14.5425H40.102C40.2613 14.5453 40.4156 14.4869 40.5338 14.379C40.5966 14.3187 40.646 14.2456 40.6786 14.1645C40.7112 14.0834 40.7262 13.9962 40.7227 13.9087C40.7271 13.8211 40.7125 13.7336 40.6799 13.6524C40.6472 13.5711 40.5974 13.4981 40.5338 13.4384C40.4156 13.3305 40.2613 13.272 40.102 13.2749Z" fill="#365650"/>
<path d="M42.8647 0.392249C42.8985 0.307485 42.9502 0.231234 43.0162 0.168784C43.1525 0.0633082 43.319 0.00557614 43.4907 0.00434628C43.6623 0.00311641 43.8297 0.0584491 43.9674 0.161962C44.038 0.222912 44.0936 0.299557 44.1298 0.385885C44.1661 0.472212 44.1821 0.565857 44.1765 0.659476V14.3449C44.1826 14.4386 44.1669 14.5324 44.1306 14.6188C44.0943 14.7052 44.0384 14.7818 43.9674 14.8424C43.8302 14.9484 43.6611 15.0038 43.4884 14.9992C43.3161 15.0077 43.1471 14.9491 43.0162 14.8356C42.9491 14.774 42.8966 14.6979 42.8627 14.6129C42.8288 14.5279 42.8144 14.4363 42.8206 14.3449V0.659476C42.8158 0.568221 42.8309 0.477013 42.8647 0.392249Z" fill="#365650"/>
<path fill-rule="evenodd" clip-rule="evenodd" d="M37.0057 0.427772C36.5271 0.256344 36.0226 0.170998 35.5148 0.175604C35.0093 0.170376 34.5068 0.255751 34.0307 0.427772C33.6088 0.578653 33.2195 0.810028 32.8839 1.10932C32.565 1.38682 32.3095 1.73097 32.1352 2.11799C31.9599 2.5002 31.8701 2.9167 31.8721 3.33794V5.9278C31.8701 6.34903 31.9599 6.76557 32.1352 7.14779C32.3095 7.53481 32.565 7.87895 32.8839 8.15646C33.2204 8.4544 33.6095 8.68561 34.0307 8.838C34.9959 9.16529 36.0405 9.16529 37.0057 8.838C37.431 8.68568 37.8245 8.45455 38.166 8.15646C38.4814 7.87572 38.7363 7.53238 38.9147 7.14779C39.0868 6.76448 39.1764 6.34866 39.1778 5.9278V3.33794C39.1764 2.91707 39.0868 2.5013 38.9147 2.11799C38.738 1.73237 38.4829 1.3887 38.166 1.10932C37.8245 0.811231 37.431 0.580098 37.0057 0.427772ZM37.8219 5.43711C37.8521 5.76717 37.8104 6.09989 37.6997 6.41192C37.589 6.72394 37.4119 7.00772 37.1811 7.24321C36.7104 7.62612 36.1187 7.82452 35.5148 7.80204C34.9174 7.82264 34.3327 7.62417 33.8688 7.24321C33.6319 7.01078 33.4486 6.72842 33.332 6.41624C33.2154 6.10407 33.1684 5.76974 33.1943 5.43711V3.8082C33.1675 3.47651 33.2142 3.14298 33.3308 2.83177C33.4475 2.52056 33.6313 2.23946 33.8688 2.00892C34.3312 1.62518 34.9169 1.42635 35.5148 1.45009C36.1193 1.42384 36.7122 1.62268 37.1811 2.00892C37.4126 2.24255 37.59 2.52504 37.7008 2.8361C37.8116 3.14716 37.853 3.47911 37.8219 3.8082V5.43711Z" fill="#365650"/>
<path d="M59.2602 13.4384H48.8379C48.8005 13.45 48.7606 13.45 48.7232 13.4384V10.6441C48.7293 10.5514 48.7136 10.4586 48.6772 10.3732C48.6409 10.2879 48.585 10.2126 48.5141 10.1534C48.3763 10.0509 48.2096 9.9957 48.0385 9.9957C47.8674 9.9957 47.7008 10.0509 47.5629 10.1534C47.4969 10.2158 47.4452 10.2921 47.4114 10.3769C47.3776 10.4616 47.3625 10.5528 47.3673 10.6441V13.268C47.3682 13.4344 47.3795 13.6006 47.401 13.7655C47.4249 13.9387 47.4871 14.1041 47.5832 14.2494C47.6882 14.4054 47.8326 14.5302 48.0014 14.6107C48.2146 14.7017 48.4446 14.7458 48.676 14.7402H59.2602C59.4195 14.743 59.5739 14.6845 59.692 14.5766C59.8116 14.4498 59.8783 14.2814 59.8783 14.1063C59.8783 13.9312 59.8116 13.7628 59.692 13.6361C59.5792 13.5157 59.4242 13.4447 59.2602 13.4384Z" fill="#365650"/>
<path fill-rule="evenodd" clip-rule="evenodd" d="M50.2208 8.68126C49.7153 8.68649 49.2128 8.60112 48.7367 8.42909C48.3188 8.27819 47.9339 8.04673 47.6034 7.74755C47.2938 7.4677 47.0476 7.12362 46.8816 6.73884C46.7117 6.35508 46.6244 5.93928 46.6253 5.51889V3.47425C46.6244 3.05386 46.7117 2.63806 46.8816 2.25431C47.0508 1.87137 47.2965 1.52792 47.6034 1.24559C47.9346 0.947384 48.3193 0.716035 48.7367 0.564048C49.2128 0.392026 49.7153 0.306651 50.2208 0.31188C50.7285 0.307274 51.2331 0.392619 51.7116 0.564048C52.1331 0.715993 52.5222 0.947254 52.8584 1.24559C53.1654 1.52943 53.4131 1.8724 53.587 2.25431C53.7623 2.63652 53.8521 3.05302 53.8501 3.47425V5.51889C53.8521 5.94012 53.7623 6.35662 53.587 6.73884C53.4131 7.12074 53.1654 7.46371 52.8584 7.74755C52.5229 8.04684 52.1336 8.27821 51.7116 8.42909C51.2331 8.60052 50.7285 8.68587 50.2208 8.68126ZM48.123 3.0138C48.0159 3.32553 47.9767 3.65697 48.0082 3.98541V5.0418C47.9767 5.37024 48.0159 5.70168 48.123 6.01341C48.2301 6.32513 48.4027 6.60981 48.6288 6.84791C49.079 7.23452 49.6576 7.43424 50.2478 7.40678C50.8462 7.43377 51.433 7.23451 51.8938 6.84791C52.1211 6.61041 52.2949 6.32599 52.4032 6.01424C52.5115 5.70248 52.5517 5.37075 52.5212 5.0418V3.98541C52.5517 3.65646 52.5115 3.32473 52.4032 3.01297C52.2949 2.70122 52.1211 2.4168 51.8938 2.1793C51.4314 1.79557 50.8457 1.59673 50.2478 1.62047C49.6581 1.59638 49.0807 1.79566 48.6288 2.1793C48.4027 2.4174 48.2301 2.70208 48.123 3.0138Z" fill="#365650"/>
<path fill-rule="evenodd" clip-rule="evenodd" d="M68.2458 1.1093C67.9346 0.808252 67.5647 0.576122 67.1597 0.427752C66.2168 0.0915306 65.1884 0.0915306 64.2455 0.427752C63.846 0.579366 63.4811 0.811216 63.1729 1.1093C62.8779 1.39178 62.6476 1.73605 62.4983 2.11797C62.3472 2.50425 62.2694 2.91576 62.2689 3.33109V11.5096C62.2694 11.925 62.3472 12.3365 62.4983 12.7228C62.6476 13.1047 62.8779 13.449 63.1729 13.7315C63.4829 14.0272 63.8473 14.2588 64.2455 14.413C65.1899 14.7402 66.2153 14.7402 67.1597 14.413C67.5635 14.2622 67.9329 14.0303 68.2458 13.7315C68.5382 13.4468 68.768 13.1031 68.9203 12.7228C69.0768 12.3379 69.157 11.9257 69.1564 11.5096V3.33109C69.1577 2.91273 69.0775 2.49822 68.9203 2.11115C68.7679 1.73287 68.538 1.39147 68.2458 1.1093ZM67.8073 11.0394C67.8382 11.3645 67.8053 11.6927 67.7103 12.005C67.6154 12.3173 67.4604 12.6075 67.2541 12.8591C67.0442 13.0495 66.799 13.1957 66.5326 13.2893C66.2662 13.3829 65.9841 13.422 65.7026 13.4043C65.4242 13.422 65.1451 13.3828 64.882 13.2891C64.6189 13.1954 64.3772 13.0492 64.1712 12.8591C63.9662 12.607 63.8124 12.3165 63.7186 12.0042C63.6248 11.692 63.593 11.3641 63.6248 11.0394V3.80818C63.5931 3.48453 63.6251 3.15773 63.7189 2.8466C63.8127 2.53547 63.9664 2.24618 64.1712 1.99529C64.3772 1.80521 64.6189 1.65897 64.882 1.56529C65.1451 1.47162 65.4242 1.43244 65.7026 1.45007C65.9841 1.43237 66.2662 1.47148 66.5326 1.56509C66.799 1.6587 67.0442 1.80493 67.2541 1.99529C67.4602 2.24565 67.6151 2.53475 67.7101 2.84589C67.805 3.15704 67.838 3.48407 67.8073 3.80818V11.0394Z" fill="#365650"/>
<path d="M74.3339 0.000915159C74.5055 0.000915159 74.6725 0.0574506 74.8095 0.161942C74.8752 0.225767 74.9262 0.303411 74.9588 0.3894C74.9915 0.47539 75.005 0.5676 74.9984 0.659456V14.3381C75.0029 14.4316 74.9865 14.5249 74.9503 14.6111C74.9141 14.6972 74.859 14.774 74.7892 14.8356C74.6515 14.9406 74.4828 14.9959 74.3103 14.9923C74.138 15.0008 73.969 14.9423 73.8381 14.8288C73.7709 14.7672 73.7184 14.6911 73.6845 14.6061C73.6506 14.5211 73.6362 14.4295 73.6424 14.3381V7.4749H70.9441C70.7846 7.47912 70.6298 7.42046 70.5124 7.31133C70.3908 7.18425 70.3228 7.01441 70.3228 6.83766C70.3228 6.6609 70.3908 6.49106 70.5124 6.36398C70.6298 6.25485 70.7846 6.19619 70.9441 6.20041H73.6627V0.652633C73.6579 0.561379 73.673 0.470171 73.7068 0.385407C73.7405 0.300643 73.7923 0.224392 73.8583 0.161942C73.9953 0.0574506 74.1622 0.000915159 74.3339 0.000915159Z" fill="#365650"/>
</svg>
