<svg width="136" height="181" viewBox="0 0 136 181" fill="none" xmlns="http://www.w3.org/2000/svg">
<path d="M68 0.199951C49.9653 0.199951 32.6692 7.25166 19.9168 19.8037C7.16429 32.3558 0 49.3801 0 67.1314V169.279C0 172.201 1.1794 175.004 3.27865 177.07C5.3779 179.136 8.22513 180.297 11.1939 180.297H124.806C127.775 180.297 130.622 179.136 132.721 177.07C134.821 175.004 136 172.201 136 169.279V67.2344C136.014 58.4361 134.265 49.7215 130.854 41.5892C127.443 33.4568 122.436 26.0662 116.12 19.8401C109.805 13.614 102.304 8.67466 94.0467 5.30461C85.7898 1.93455 76.9387 0.199941 68 0.199951ZM126.637 67.1314V75.1631C126.683 75.851 126.58 76.5407 126.333 77.186C126.087 77.8313 125.703 78.4173 125.208 78.9048C124.712 79.3922 124.117 79.77 123.461 80.0126C122.806 80.2553 122.105 80.3572 121.406 80.3117C118.006 80.3117 114.711 80.878 111.52 81.3414C110.691 81.4191 109.855 81.3008 109.082 80.9964C108.308 80.6919 107.62 80.21 107.074 79.5909C104.887 77.6279 102.031 76.5439 99.0708 76.5533C96.418 76.548 93.8385 77.4096 91.7369 79.003C89.6353 80.5963 88.1304 82.8313 87.4585 85.3573C87.1552 87.2139 86.1218 88.8785 84.5816 89.991C78.5727 93.1522 73.1017 97.217 68.3662 102.039C62.8115 107.838 58.1581 114.413 54.5569 121.552C51.8369 126.443 51.7846 120.522 51.7846 120.522V92.3079C52.8307 65.8957 57.6954 40.3588 77.3631 25.3765C79.3394 23.9449 81.4399 22.6873 83.6401 21.618C86.8979 20.3707 90.3464 19.6744 93.84 19.5585C98.277 19.7074 102.586 21.0617 106.289 23.4715C112.689 28.8886 117.821 35.6049 121.333 43.1592C124.845 50.7135 126.655 58.9266 126.637 67.2344V67.1314ZM68 9.46739C71.7259 9.51931 75.4386 9.91576 79.0892 10.6515C80.0307 11.0634 81.6001 11.9387 79.717 12.9684C79.4887 13.0751 79.2771 13.2138 79.0892 13.3803C76.4145 14.748 73.8601 16.3323 71.4523 18.117C64.3541 23.581 58.5077 30.4584 54.2954 38.2993L53.5108 39.638C48.8554 48.5965 45.9785 39.638 45.9785 39.638L45.717 39.3806C43.1825 33.5004 39.8382 27.9913 35.7784 23.0081C35.7784 23.0081 33.4769 20.8457 35.7784 19.1467C45.2973 12.8283 56.5189 9.45739 68 9.46739ZM9.41548 67.2344C9.44972 54.101 14.0663 41.3777 22.4924 31.1944C23.522 30.1724 24.9027 29.5664 26.3631 29.4953C28.9262 29.4953 30.9662 29.4953 34.9939 35.5191C39.8954 45.3887 42.3853 56.2494 42.2647 67.2344V136.019C42.2647 143.536 39.44 139.057 39.44 139.057C32.9742 130.101 23.832 123.352 13.2862 119.75C12.1124 119.224 11.1177 118.376 10.4218 117.308C9.72585 116.239 9.35821 114.995 9.36312 113.726L9.41548 67.2344ZM9.41548 169.382V135.298C9.41548 126.288 15.64 128.502 19.4585 130.768C29.9338 137.861 37.3106 148.578 40.1201 160.784C40.6431 162.895 42.1601 171.081 33.7385 171.081H10.9846C10.559 171.032 10.1658 170.832 9.87745 170.52C9.58912 170.208 9.42512 169.804 9.41548 169.382ZM126.637 109.762C126.595 126.002 120.015 141.565 108.338 153.039C96.6607 164.514 80.8388 170.964 64.3386 170.978C52.3078 170.978 52.8308 158.93 53.5108 154.348C55.9913 137.248 63.5216 121.243 75.1661 108.32C79.2225 104.164 83.8121 100.547 88.8185 97.5594C89.2559 97.3109 89.7519 97.1801 90.257 97.1801C90.762 97.1801 91.258 97.3109 91.6954 97.5594C93.8005 99.1413 96.37 100.008 99.0184 100.031C101.753 100.034 104.406 99.1169 106.538 97.4311C108.669 95.7452 110.15 93.3923 110.735 90.7633V90.5059C110.852 89.9426 111.131 89.4244 111.539 89.0134C111.947 88.6025 112.468 88.3162 113.037 88.189C116.319 87.5351 119.638 87.0709 122.975 86.7989C124.492 86.7989 126.585 88.1375 126.585 92.6682L126.637 109.762Z" fill="#E5E5E5"/>
</svg>
