<svg width="116" height="116" viewBox="0 0 116 116" fill="none" xmlns="http://www.w3.org/2000/svg">
<path d="M81.2482 70.8084V28.1784C81.2482 26.8251 80.1848 25.7617 78.8315 25.7617H15.6598C14.3065 25.7617 13.2432 26.8251 13.2432 28.1784V81.4417C13.2432 82.3601 13.7748 83.23 14.5965 83.6167C14.9348 83.7617 15.2732 83.8584 15.6598 83.8584C16.1915 83.8584 16.7232 83.665 17.1582 83.3267L29.7248 73.225H78.8315C80.1365 73.225 81.2482 72.1617 81.2482 70.8084ZM76.4148 66.4584C76.4148 67.5217 75.5448 68.3917 74.4815 68.3917H28.8548C28.3232 68.3917 27.7432 68.5851 27.3565 68.9234L19.7682 75.0617C19.0915 75.5934 18.0765 75.11 18.0765 74.24V32.4801C18.0765 31.4651 18.8982 30.6434 19.9132 30.6434H74.7232C75.6415 30.6434 76.4148 31.4167 76.4148 32.3351V66.4584Z" fill="#599270" fill-opacity="0.3"/>
<path d="M98.8898 40.6968H87.6282C86.2748 40.6968 85.2115 41.7601 85.2115 43.1134C85.2115 44.4668 86.2748 45.5301 87.6282 45.5301H94.4432C95.5548 45.5301 96.4732 46.4484 96.4732 47.5601V89.9484C96.4732 90.8668 95.4098 91.3018 94.7332 90.7218L87.6282 84.3901C87.1932 84.0034 86.6132 83.7618 86.0332 83.7618H40.7932C39.6815 83.7618 39.7782 82.7468 39.7782 82.7468V78.9284C39.7782 77.5751 38.7148 76.5118 37.3615 76.5118C36.0082 76.5118 34.9448 77.5751 34.9448 78.9284V86.1784C34.9448 87.5318 36.0082 88.5951 37.3615 88.5951H85.0665L97.2465 99.4218C97.6815 99.8084 98.2615 100.05 98.8415 100.05C99.1798 100.05 99.5182 100.002 99.8565 99.8568C100.726 99.4701 101.258 98.6001 101.258 97.6334V43.1134C101.306 41.7601 100.195 40.6968 98.8898 40.6968Z" fill="#599270" fill-opacity="0.3"/>
<path d="M46.7379 55.3901C46.0613 55.3901 45.3363 55.6801 44.8529 56.1635C44.3696 56.6468 44.1279 57.2751 44.1279 57.9518C44.1279 58.6285 44.3696 59.3051 44.8529 59.7885C45.3363 60.2718 46.0129 60.5618 46.7379 60.5618C48.1396 60.5618 49.3479 59.4018 49.3479 57.9518C49.3479 56.5501 48.1879 55.3901 46.7379 55.3901Z" fill="#599270" fill-opacity="0.3"/>
<path d="M47.2217 38.425C43.1134 38.425 40.4067 40.8417 40.3101 44.6117C40.3101 44.7084 40.3584 44.805 40.4067 44.9017C40.4551 44.9984 40.5517 44.9984 40.6484 44.9984H44.2734C44.4667 44.9984 44.6117 44.8534 44.6601 44.66C44.7567 42.8234 46.1101 42.195 47.2217 42.195C48.6717 42.195 49.6867 43.1134 49.6867 44.4667C49.6867 45.5784 49.0584 46.4484 47.6567 47.3184C45.6751 48.575 44.6601 49.88 44.6117 53.5534V53.795C44.6117 53.9884 44.7567 54.1817 44.9984 54.1817H48.3334C48.5267 54.1817 48.7201 54.0367 48.7201 53.795V53.5534C48.7684 51.62 49.3001 50.7017 50.9434 49.6867C53.1184 48.3817 54.1817 46.6417 54.1817 44.37C54.1334 40.8417 51.3784 38.425 47.2217 38.425Z" fill="#599270" fill-opacity="0.3"/>
</svg>
