<svg width="529" height="458" viewBox="0 0 529 458" fill="none" xmlns="http://www.w3.org/2000/svg">
<path fill-rule="evenodd" clip-rule="evenodd" d="M235.547 127.279C205.938 144.221 194.717 182.593 210.485 212.985C226.253 243.377 263.039 254.28 292.649 237.338C322.259 220.395 333.48 182.023 317.712 151.631C301.943 121.24 265.157 110.336 235.547 127.279ZM181.782 229.409C157.571 182.745 174.8 123.83 220.262 97.8171C265.724 71.8043 322.205 88.5446 346.415 135.208C370.625 181.871 353.397 240.786 307.935 266.799C262.472 292.812 205.992 276.072 181.782 229.409Z" fill="#C9704C" fill-opacity="0.1"/>
<path fill-rule="evenodd" clip-rule="evenodd" d="M171.179 4.23341C179.138 -0.319588 189.023 2.60307 193.257 10.7614L207.432 38.0746C211.666 46.2328 208.646 56.5374 200.687 61.0904C192.727 65.6434 182.842 62.7207 178.608 54.5624L164.433 27.2492C160.199 19.091 163.219 8.78642 171.179 4.23341Z" fill="#C9704C" fill-opacity="0.1"/>
<path fill-rule="evenodd" clip-rule="evenodd" d="M327.513 303.531C335.473 298.978 345.358 301.9 349.592 310.059L363.764 337.367C367.998 345.525 364.978 355.83 357.019 360.383C349.059 364.936 339.174 362.013 334.94 353.855L320.767 326.547C316.533 318.388 319.554 308.084 327.513 303.531Z" fill="#C9704C" fill-opacity="0.1"/>
<path fill-rule="evenodd" clip-rule="evenodd" d="M77.4508 125.327C80.0851 116.367 89.1836 111.156 97.773 113.686L126.535 122.161C135.124 124.691 139.952 134.006 137.317 142.966C134.683 151.926 125.585 157.137 116.995 154.607L88.2336 146.132C79.6442 143.602 74.8166 134.287 77.4508 125.327Z" fill="#C9704C" fill-opacity="0.1"/>
<path fill-rule="evenodd" clip-rule="evenodd" d="M390.887 221.653C393.522 212.693 402.62 207.481 411.21 210.012L439.964 218.484C448.553 221.015 453.381 230.33 450.747 239.289C448.112 248.249 439.014 253.461 430.424 250.93L401.67 242.458C393.081 239.927 388.253 230.612 390.887 221.653Z" fill="#C9704C" fill-opacity="0.1"/>
<path fill-rule="evenodd" clip-rule="evenodd" d="M93.093 279.598C88.8883 271.497 91.8875 261.264 99.7918 256.743L126.255 241.606C134.159 237.085 143.975 239.988 148.18 248.089C152.385 256.19 149.386 266.423 141.481 270.944L115.018 286.081C107.114 290.602 97.2977 287.699 93.093 279.598Z" fill="#C9704C" fill-opacity="0.1"/>
<path fill-rule="evenodd" clip-rule="evenodd" d="M380.022 116.524C375.817 108.423 378.816 98.1905 386.72 93.6693L413.179 78.5356C421.083 74.0144 430.899 76.9168 435.104 85.0182C439.309 93.1196 436.309 103.352 428.405 107.873L401.947 123.007C394.043 127.528 384.226 124.626 380.022 116.524Z" fill="#C9704C" fill-opacity="0.1"/>
<path fill-rule="evenodd" clip-rule="evenodd" d="M227.112 314.56C235.701 317.092 240.527 326.408 237.892 335.367L229.069 365.364C226.434 374.323 217.334 379.533 208.745 377.001C200.156 374.47 195.33 365.154 197.965 356.195L206.788 326.198C209.424 317.239 218.523 312.028 227.112 314.56Z" fill="#C9704C" fill-opacity="0.1"/>
<path fill-rule="evenodd" clip-rule="evenodd" d="M319.448 -12.3863C328.038 -9.85666 332.866 -0.542485 330.233 8.41751L321.417 38.4161C318.784 47.3761 309.686 52.589 301.097 50.0593C292.507 47.5297 287.678 38.2155 290.311 29.2556L299.127 -0.743081C301.76 -9.70307 310.858 -14.9159 319.448 -12.3863Z" fill="#C9704C" fill-opacity="0.1"/>
</svg>
