<svg width="498" height="325" viewBox="0 0 498 325" fill="none" xmlns="http://www.w3.org/2000/svg">
<g clip-path="url(#clip0_53_667)">
<path d="M345.49 42.0163C345.49 42.0163 328.805 44.5613 323.822 52.4342C323.822 52.4342 339.865 64.8262 351.972 66.515C364.078 68.2037 372.474 72.5564 383.665 71.9499C389.076 71.6644 395.57 72.3899 400.719 72.2947C406.202 72.1996 410.174 71.2839 410.174 71.2839L409.841 67.8231L402.539 57.5837L395.891 52.2915L395.7 43.5505L388.731 33.5607L375.638 27.7334H362.722L356.752 29.9216L345.49 42.0163Z" fill="#599270"/>
<path d="M346.037 94.4268C345.811 94.51 345.573 94.5933 345.347 94.6646C344.491 92.7499 343.742 90.6687 343.088 88.4567C343.278 88.3616 343.48 88.2783 343.682 88.1951C346.299 87.208 349.022 87.9929 349.748 89.9433C350.485 91.8937 348.665 93.4516 346.037 94.4268Z" fill="#E78E64"/>
<path d="M353.565 67.8232L379.146 71.605L374.734 74.816L360.725 74.4116L353.565 67.8232Z" fill="#E78E64"/>
<path d="M393.263 72.3661L389.742 82.2607L383.439 86.7561L385.295 99.0173L390.575 120.959L410.424 143.032L437.051 160.3L453.451 175.665L468.84 202.744L470.148 178.792L467.52 162.428L463.036 147.658L454.64 131.127L441.737 117.308L431.235 111.35L419.117 100.884L408.485 84.9247L403.538 72.3661H393.263Z" fill="#E78E64"/>
<path d="M353.565 104.987H363.709C363.709 104.987 367.753 111.326 367.658 114.299L354.933 126.239L341.97 147.658C341.97 147.658 343.005 136.812 347.107 129.997C351.21 123.171 354.778 117.926 354.647 114.299C354.528 110.672 353.565 104.987 353.565 104.987Z" fill="#E78E64"/>
<path d="M333.99 60.1287L343.564 64.2078L341.137 72.2353L342.053 86.7442C342.053 86.7442 333.395 80.9763 332.456 75.6484C331.516 70.3206 333.99 60.1287 333.99 60.1287Z" fill="#E78E64"/>
<path d="M368.431 114.299L367.158 118.699C367.158 118.699 380.847 119.853 387.982 113.883C387.982 113.883 391.003 126.001 399.197 133.244C407.391 140.498 418.903 149.204 418.903 149.204L438.763 161.465L450.822 172.418L460.455 184.334L470.552 206.514V220.155L468.173 234.521L457.47 249.268L428.286 266.94L379.241 279.784L365.981 262.659C365.981 262.659 356.289 250.79 353.553 229.443L333.265 235.948C333.265 235.948 331.243 210.45 332.492 194.609C333.74 178.769 344.444 145.588 344.444 145.588L354.647 126.489L368.431 114.299Z" fill="#F9DBB7"/>
<path d="M379.253 280.973C378.944 280.973 378.635 280.854 378.409 280.628C377.338 279.558 352.269 254.144 352.364 229.443C352.364 229.015 352.602 228.61 352.982 228.408C353.375 228.194 392.953 206.514 430.224 201.103C430.879 200.996 431.473 201.46 431.568 202.114C431.663 202.768 431.212 203.362 430.557 203.458C396.248 208.429 359.892 227.385 354.743 230.156C355.111 251.991 376.435 275.146 379.669 278.535C424.052 272.28 459.135 254.465 467.056 234.105C474.774 214.292 465.855 198.177 465.771 198.023C465.724 197.939 465.688 197.856 465.664 197.773C461.514 183.49 446.969 170.313 446.826 170.182C446.791 170.147 446.755 170.111 446.731 170.075C441.546 164.141 435.338 160.49 428.143 156.28C418.986 150.904 408.616 144.815 397.365 132.257C377.124 109.661 387.447 83.6997 387.554 83.4499C387.804 82.8434 388.494 82.558 389.1 82.8077C389.707 83.0575 389.992 83.7473 389.754 84.3538C389.659 84.6035 379.907 109.221 399.137 130.675C410.15 142.96 420.342 148.954 429.344 154.234C436.694 158.539 443.033 162.274 448.468 168.47C449.609 169.504 463.607 182.396 467.912 196.988C468.84 198.689 477.117 214.839 469.28 234.985C461.014 256.213 424.897 274.694 379.408 280.985C379.36 280.973 379.301 280.973 379.253 280.973Z" fill="#365650"/>
<path d="M333.051 236.388C332.444 236.388 331.933 235.924 331.873 235.318C327.235 188.235 336.832 157.624 345.704 140.237C355.373 121.292 366.029 113.645 366.48 113.336C367.016 112.955 367.753 113.086 368.134 113.621C368.514 114.156 368.383 114.894 367.848 115.274C367.741 115.346 357.133 122.993 347.738 141.474C339.056 158.563 329.661 188.675 334.24 235.08C334.299 235.734 333.824 236.317 333.169 236.376C333.122 236.376 333.086 236.388 333.051 236.388Z" fill="#365650"/>
<path d="M408.176 203.933C408.08 203.933 407.973 203.921 407.878 203.898C407.236 203.731 406.855 203.089 407.022 202.447C408.259 197.595 421.115 187.664 422.577 186.546C423.101 186.142 423.85 186.249 424.242 186.772C424.635 187.296 424.54 188.045 424.016 188.437C418.748 192.457 410.102 199.973 409.317 203.029C409.198 203.577 408.711 203.933 408.176 203.933Z" fill="#365650"/>
<path d="M410.424 207.715C410.091 207.715 409.758 207.572 409.52 207.299L364.09 154.413C363.662 153.913 363.722 153.164 364.221 152.736C364.721 152.308 365.47 152.367 365.898 152.867L411.327 205.753C411.755 206.252 411.696 207.002 411.197 207.43C410.971 207.62 410.697 207.715 410.424 207.715Z" fill="#365650"/>
<path d="M302.38 239.765C302.273 239.765 302.166 239.754 302.059 239.718C301.428 239.539 301.06 238.897 301.226 238.279C301.297 238.017 303.034 231.928 313.321 230.513C319.386 229.692 327.366 234.461 329.364 235.722L352.483 229.74C353.113 229.574 353.767 229.954 353.934 230.596C354.1 231.227 353.72 231.881 353.078 232.047L329.447 238.16C329.126 238.243 328.769 238.184 328.484 237.993C328.401 237.934 319.541 232.059 313.63 232.868C305.008 234.045 303.569 238.695 303.509 238.897C303.379 239.421 302.903 239.765 302.38 239.765Z" fill="#365650"/>
<path d="M307.291 266.345C306.031 266.345 304.734 266.298 303.379 266.191C298.17 265.774 294.162 263.753 291.474 260.161C285.671 252.407 288.144 240.205 288.251 239.694C288.358 239.195 288.775 238.814 289.298 238.755L317.352 235.829C318.018 235.758 318.589 236.233 318.661 236.887C318.732 237.542 318.256 238.124 317.602 238.196L290.44 241.026C290.011 243.821 289.036 252.942 293.389 258.746C295.649 261.767 299.074 263.467 303.569 263.824C321.693 265.263 330.66 255.642 330.755 255.547C331.053 255.226 331.493 255.083 331.921 255.19C332.087 255.226 348.547 259.233 361.616 255.499C362.247 255.321 362.901 255.678 363.091 256.32C363.27 256.95 362.901 257.604 362.271 257.795C349.95 261.327 335.322 258.413 332.016 257.664C329.97 259.602 321.907 266.345 307.291 266.345Z" fill="#365650"/>
<path d="M239.718 319.909C237.042 319.909 234.307 319.826 231.5 319.636C231.048 319.612 230.656 319.326 230.477 318.91C230.358 318.637 219.108 291.046 225.637 250.136C225.732 249.529 226.279 249.089 226.898 249.137C227.195 249.161 256.082 251.182 271.542 238.897C271.982 238.541 272.613 238.552 273.041 238.921C273.302 239.147 299.775 261.755 303.557 300.417C303.593 300.822 303.426 301.226 303.105 301.476C302.855 301.666 278.749 319.909 239.718 319.909ZM232.416 317.317C271.626 319.624 297.206 302.748 301.131 299.977C297.575 266.214 276.394 245.212 272.232 241.383C257.509 252.372 233.32 251.86 227.813 251.587C222.295 287.728 230.775 312.928 232.416 317.317Z" fill="#365650"/>
<path d="M242.596 308.849C238.921 308.849 236.685 308.659 236.59 308.659C235.936 308.599 235.448 308.017 235.508 307.374C235.567 306.72 236.138 306.233 236.792 306.292C237.185 306.328 276.692 309.563 299.573 287.692C300.049 287.24 300.798 287.252 301.25 287.728C301.702 288.204 301.69 288.953 301.214 289.405C283.019 306.804 254.833 308.849 242.596 308.849Z" fill="#365650"/>
<path d="M234.557 266.131C228.765 266.131 225.102 265.584 224.995 265.572C224.341 265.477 223.901 264.859 224.008 264.216C224.103 263.562 224.71 263.122 225.364 263.229C225.661 263.277 256.13 267.76 280.795 250.005C281.33 249.624 282.067 249.743 282.46 250.278C282.84 250.814 282.721 251.551 282.186 251.943C265.323 264.05 245.878 266.131 234.557 266.131Z" fill="#365650"/>
<path d="M228.337 308.873C227.992 308.873 227.647 308.73 227.409 308.433L188.782 261.16C188.39 260.684 188.425 259.995 188.865 259.567L196.12 252.312C196.548 251.884 197.226 251.848 197.702 252.217L225.506 274.337C226.018 274.741 226.101 275.491 225.697 276.014C225.292 276.525 224.543 276.609 224.02 276.204L197.047 254.738L191.303 260.482L229.241 306.923C229.657 307.434 229.585 308.183 229.074 308.599C228.86 308.79 228.598 308.873 228.337 308.873Z" fill="#365650"/>
<path d="M189.71 261.6C189.579 261.6 189.448 261.576 189.317 261.529C180.077 258.27 180.077 258.27 180.077 257.271C180.077 256.593 180.077 256.593 193.48 243.952C193.777 243.678 194.205 243.571 194.598 243.666C194.99 243.773 195.311 244.071 195.43 244.451L198.106 252.788C198.308 253.418 197.963 254.084 197.333 254.286C196.703 254.488 196.037 254.144 195.834 253.513L193.729 246.972C190.019 250.481 185.464 254.798 183.347 256.855C184.965 257.462 187.629 258.425 190.102 259.293C190.721 259.507 191.042 260.185 190.828 260.815C190.661 261.303 190.197 261.6 189.71 261.6Z" fill="#365650"/>
<path d="M226.815 251.515C226.672 251.515 226.529 251.491 226.398 251.444C225.78 251.206 225.471 250.528 225.708 249.91C225.923 249.351 231.06 236.198 246.187 232.618C261.291 229.05 272.601 238.529 273.076 238.933C273.576 239.361 273.635 240.11 273.207 240.61C272.779 241.109 272.03 241.169 271.53 240.741C271.423 240.645 260.637 231.631 246.734 234.925C232.868 238.208 227.98 250.623 227.932 250.742C227.742 251.218 227.29 251.515 226.815 251.515Z" fill="#365650"/>
<path d="M276.157 244.76C276.038 244.76 275.907 244.736 275.776 244.701C275.158 244.499 274.813 243.821 275.027 243.202C275.229 242.584 280.355 228.182 305.198 233.355C305.841 233.486 306.257 234.116 306.126 234.759C305.995 235.401 305.365 235.805 304.723 235.686C281.925 230.941 277.334 243.833 277.287 243.963C277.108 244.439 276.656 244.76 276.157 244.76Z" fill="#365650"/>
<path d="M281.151 250.469C280.914 250.469 280.676 250.397 280.474 250.255C279.938 249.886 279.796 249.149 280.176 248.602C280.295 248.423 283.268 244.213 288.703 243.607C289.369 243.535 289.94 243.999 290.023 244.653C290.095 245.307 289.631 245.89 288.977 245.973C284.648 246.461 282.174 249.922 282.138 249.957C281.901 250.29 281.532 250.469 281.151 250.469Z" fill="#365650"/>
<path d="M299.965 287.847C299.632 287.847 299.299 287.704 299.074 287.443C298.645 286.943 298.693 286.194 299.192 285.766C308.183 277.94 306.459 265.453 306.435 265.334C306.34 264.68 306.792 264.086 307.434 263.979C308.064 263.883 308.683 264.323 308.79 264.978C308.873 265.537 310.752 278.868 300.75 287.562C300.513 287.752 300.239 287.847 299.965 287.847Z" fill="#365650"/>
<path d="M301.916 297.789C301.535 297.789 301.167 297.611 300.929 297.266C300.56 296.719 300.703 295.981 301.25 295.613C319.778 283.054 316.829 264.775 316.698 264.002C316.591 263.36 317.019 262.742 317.662 262.623C318.304 262.516 318.922 262.944 319.041 263.586C319.077 263.788 322.419 284.125 302.582 297.575C302.38 297.73 302.142 297.789 301.916 297.789Z" fill="#365650"/>
<path d="M340.638 152.034C339.365 143.424 343.123 135.551 347.107 127.215C348.285 124.741 349.51 122.196 350.616 119.568C355.063 109.09 351.603 104.512 351.567 104.476L353.41 102.966C353.601 103.192 357.882 108.555 352.816 120.495C351.686 123.171 350.449 125.74 349.26 128.237C345.442 136.241 341.827 143.805 342.993 151.689L340.638 152.034Z" fill="#365650"/>
<path d="M312.024 324.619C311.941 324.619 311.858 324.607 311.787 324.595C311.144 324.464 310.728 323.834 310.859 323.192C319.469 281.615 334.394 256.677 334.549 256.427C334.894 255.868 335.619 255.689 336.178 256.022C336.737 256.367 336.915 257.093 336.582 257.652C336.44 257.902 321.705 282.519 313.19 323.667C313.071 324.238 312.571 324.619 312.024 324.619Z" fill="#365650"/>
<path d="M169.076 153.438C169.076 153.438 172.049 144.494 186.285 144.673C200.52 144.851 207.691 160.121 208.286 166.163C208.881 172.204 209.285 181.028 209.285 181.028C209.285 181.028 198.177 175.439 184.929 174.333C171.681 173.227 167.15 160.894 169.076 153.438Z" fill="#599270"/>
<path d="M209.285 182.812C209.011 182.812 208.738 182.753 208.488 182.622C208.381 182.574 197.511 177.175 184.786 176.105C177.128 175.463 172.799 171.49 170.503 168.268C167.34 163.82 166.103 157.814 167.352 152.986C167.364 152.95 167.376 152.902 167.388 152.867C167.53 152.45 170.884 142.877 185.88 142.877C186.023 142.877 186.166 142.877 186.309 142.877C201.626 143.067 209.404 159.253 210.07 165.984C210.664 172.002 211.069 180.862 211.081 180.945C211.104 181.575 210.795 182.182 210.272 182.527C209.963 182.717 209.63 182.812 209.285 182.812ZM170.777 153.961C169.814 157.802 170.848 162.607 173.405 166.21C175.26 168.815 178.781 172.026 185.072 172.549C194.728 173.358 203.184 176.438 207.346 178.198C207.18 175.106 206.871 170.135 206.502 166.341C205.955 160.74 199.117 146.611 186.249 146.457C186.118 146.457 185.987 146.457 185.869 146.457C173.976 146.445 171.062 153.235 170.777 153.961Z" fill="#599270"/>
<path d="M140.011 1.78387C140.011 1.78387 135.432 26.0565 132.578 35.4635C129.724 44.8705 120.234 86.316 161.334 71.0222C161.334 71.0222 163.606 68.4534 165.473 69.2502C167.34 70.047 183.181 72.0688 185.904 60.0573C188.628 48.0458 177.437 15.1273 140.011 1.78387Z" fill="#599270"/>
<path d="M145.803 76.1479C140.736 76.1479 136.681 74.7327 133.672 71.9023C123.29 62.1385 129.522 39.4 130.877 34.9403C133.672 25.7355 138.215 1.68875 138.263 1.4509C138.358 0.939517 138.679 0.4876 139.131 0.237857C139.583 -0.0237789 140.13 -0.071349 140.617 0.107039C177.508 13.2602 190.851 46.3809 187.652 60.4498C186.713 64.5765 184.346 67.6329 180.612 69.5476C174.261 72.8061 166.246 71.5098 164.771 70.8914C164.474 70.7606 163.403 71.379 162.654 72.2115C162.464 72.4256 162.214 72.592 161.941 72.6991C155.768 74.9943 150.369 76.1479 145.803 76.1479ZM141.367 4.18618C140.189 10.2989 136.681 28.1021 134.279 35.9868C133.518 38.508 127.072 60.8065 136.098 69.3097C140.701 73.6386 148.847 73.6981 160.323 69.5C161.227 68.608 163.665 66.5506 166.163 67.6091C167.173 68.0134 174.047 68.9886 179.102 66.3128C181.813 64.8857 183.466 62.7094 184.168 59.6649C186.534 49.247 177.127 17.9221 141.367 4.18618Z" fill="#599270"/>
<path d="M209.987 94.0938C209.987 94.0938 182.681 90.3595 174.285 104.952C165.889 119.544 185.904 129.379 192.136 125.906C192.136 125.906 198.201 125.169 203.029 114.156C207.858 103.144 205.574 101.384 209.987 94.0938Z" fill="#599270"/>
<path d="M188.937 128.368C184.477 128.368 178.769 125.966 174.963 122.113C169.897 116.975 169.076 110.398 172.727 104.06C181.623 88.6113 209.059 92.1672 210.224 92.3218C210.819 92.405 211.33 92.7737 211.592 93.3208C211.854 93.8678 211.818 94.4981 211.509 95.0095C209.38 98.5297 208.952 100.563 208.345 103.382C207.775 106.058 207.061 109.376 204.659 114.858C200.116 125.217 194.288 127.226 192.731 127.595C191.672 128.118 190.364 128.368 188.937 128.368ZM202.423 95.4614C194.074 95.4614 180.933 96.9718 175.831 105.844C172.204 112.135 174.749 116.809 177.52 119.615C181.777 123.92 188.628 125.823 191.28 124.348C191.482 124.229 191.708 124.158 191.934 124.134C191.958 124.134 197.131 123.195 201.412 113.443C203.672 108.293 204.314 105.297 204.873 102.656C205.36 100.373 205.8 98.3394 207.12 95.6279C205.872 95.5328 204.266 95.4614 202.423 95.4614Z" fill="#599270"/>
<path d="M118.878 81.1666C118.878 81.1666 116.285 95.3544 125.55 111.611C134.814 127.869 154.282 141.283 154.282 141.283C154.282 141.283 155.424 133.625 151.452 122.208C147.479 110.803 133.696 83.0932 118.878 81.1666Z" fill="#599270"/>
<path d="M154.27 143.079C153.913 143.079 153.557 142.972 153.259 142.77C152.451 142.211 133.351 128.939 123.992 112.515C114.513 95.8896 116.999 81.4639 117.118 80.8574C117.284 79.9179 118.164 79.2757 119.104 79.4065C135.646 81.5471 149.561 111.362 153.128 121.637C157.196 133.339 156.09 141.224 156.042 141.557C155.947 142.163 155.555 142.687 154.984 142.936C154.758 143.032 154.52 143.079 154.27 143.079ZM120.424 83.3073C120.115 87.541 120.162 98.5892 127.084 110.731C134.029 122.909 147.039 133.613 152.617 137.87C152.558 134.719 152.046 129.403 149.739 122.802C145.85 111.576 133.339 86.9939 120.424 83.3073Z" fill="#599270"/>
<path d="M134.219 166.151C134.219 166.151 133.898 178.757 126.358 180.065C118.806 181.373 87.8383 171.871 79.9179 137.609C71.9975 103.346 66.2177 100.444 66.2177 100.444C66.2177 100.444 119.817 111.231 138.655 141.295C138.655 141.295 155.4 162.809 134.219 166.151Z" fill="#599270"/>
<path d="M124.717 181.968C113.895 181.968 85.7809 170.884 78.1697 138.001C71.1769 107.746 66.0274 102.573 65.3495 102.014C64.4933 101.705 64.1246 100.837 64.3506 99.9449C64.5884 99.0292 65.6349 98.5059 66.5626 98.6962C68.7746 99.1481 121.054 109.958 140.106 140.273C140.95 141.379 149.156 152.439 145.957 160.526C144.518 164.153 141.141 166.555 135.884 167.649C135.527 171.3 133.898 180.553 126.644 181.813C126.097 181.92 125.443 181.968 124.717 181.968ZM70.6179 103.311C73.27 108.032 77.135 117.653 81.6542 137.192C89.5508 171.324 120.364 179.292 126.049 178.293C131.96 177.27 132.435 166.21 132.435 166.091C132.459 165.235 133.089 164.51 133.946 164.379C138.667 163.629 141.593 161.893 142.663 159.205C144.78 153.854 139.476 145.232 137.252 142.366C137.216 142.318 137.18 142.27 137.145 142.223C122.184 118.355 84.0327 106.747 70.6179 103.311Z" fill="#599270"/>
<path d="M130.937 235.651C130.937 235.651 142.449 230.097 137.953 216.979C133.458 203.862 114.573 198.617 102.811 198.748C91.0493 198.879 78.0508 190.197 78.0508 190.197C78.0508 190.197 74.3641 211.949 92.3813 226.053C110.398 240.158 121.72 245.319 130.937 235.651Z" fill="#599270"/>
<path d="M120.317 242.441C112.361 242.441 102.989 236.65 91.2634 227.48C72.6277 212.888 76.1242 190.863 76.2788 189.924C76.3739 189.329 76.7782 188.83 77.3253 188.58C77.8842 188.342 78.5146 188.402 79.0259 188.735C79.1567 188.818 91.5369 196.988 102.537 196.988C102.763 196.988 102.989 196.988 103.227 196.988C114.918 196.988 134.766 202.197 139.642 216.42C144.149 229.574 133.993 236.007 132.031 237.101C128.439 240.776 124.574 242.441 120.317 242.441ZM79.5611 193.242C79.3114 199.319 80.1914 214.28 93.4635 224.662C112.932 239.908 122.065 242.37 129.641 234.426C129.783 234.271 129.962 234.14 130.152 234.057C130.568 233.855 140.165 228.979 136.253 217.574C132.15 205.622 114.252 200.425 102.811 200.556C93.6894 200.603 84.0208 195.799 79.5611 193.242Z" fill="#599270"/>
<path d="M152.391 247.139C152.391 247.139 151.773 234.747 161.62 232.82C171.455 230.894 181.528 234.854 186.725 241.3C186.725 241.3 175.641 243.179 172.929 248.126C170.206 253.061 153.794 258.187 152.391 247.139Z" fill="#599270"/>
<path d="M160.478 255.499C159.622 255.499 158.777 255.428 157.969 255.273C153.771 254.476 151.166 251.67 150.619 247.365C150.619 247.317 150.607 247.27 150.607 247.222C150.369 242.406 152.284 232.82 161.275 231.06C171.193 229.122 182.229 232.868 188.116 240.17C188.509 240.657 188.616 241.323 188.39 241.918C188.164 242.513 187.64 242.941 187.022 243.048C184.168 243.535 176.366 245.545 174.487 248.97C172.68 252.253 166.246 255.499 160.478 255.499ZM154.163 246.984C154.532 249.708 155.994 251.265 158.635 251.765C163.415 252.669 170.063 249.612 171.348 247.258C173.488 243.357 179.47 241.228 183.252 240.229C177.877 235.377 169.552 233.07 161.941 234.568C154.008 236.126 154.127 245.997 154.163 246.984Z" fill="#599270"/>
<path d="M144.078 324.702C143.519 324.702 143.02 324.31 142.913 323.739C138.334 299.442 139.19 245.89 155.293 168.446C171.491 90.6093 152.653 31.1823 152.462 30.5877C152.26 29.9574 152.605 29.2914 153.224 29.0892C153.854 28.887 154.52 29.2319 154.722 29.8503C154.912 30.445 173.94 90.4309 157.612 168.922C141.569 246.021 140.701 299.216 145.232 323.287C145.351 323.929 144.934 324.559 144.28 324.678C144.233 324.702 144.15 324.702 144.078 324.702Z" fill="#365650"/>
<path d="M157.992 162.036C157.921 162.036 157.838 162.024 157.767 162.012C157.124 161.881 156.696 161.263 156.827 160.621C162.583 131.127 195.549 104.381 196.941 103.263C197.452 102.859 198.201 102.93 198.617 103.441C199.034 103.953 198.95 104.702 198.439 105.118C198.106 105.392 164.759 132.435 159.17 161.073C159.051 161.643 158.551 162.036 157.992 162.036Z" fill="#365650"/>
<path d="M158.242 160.823C157.648 160.823 157.124 160.371 157.065 159.764C153.497 128.106 133.744 106.605 133.553 106.403C133.101 105.927 133.137 105.166 133.613 104.726C134.1 104.274 134.85 104.309 135.29 104.785C135.492 104.999 155.78 127.072 159.431 159.503C159.503 160.157 159.039 160.74 158.385 160.823C158.325 160.823 158.29 160.823 158.242 160.823Z" fill="#365650"/>
<path d="M151.166 197.476C150.595 197.476 150.096 197.071 150.001 196.489C144.34 164.069 79.8584 115.584 79.2043 115.096C78.6811 114.704 78.574 113.954 78.9665 113.431C79.359 112.908 80.1082 112.801 80.6315 113.193C83.3192 115.203 146.516 162.737 152.343 196.084C152.451 196.726 152.022 197.345 151.38 197.464C151.297 197.476 151.226 197.476 151.166 197.476Z" fill="#365650"/>
<path d="M142.984 260.447C142.425 260.447 141.926 260.054 141.819 259.483C136.645 232.071 99.7308 211.223 99.3503 211.021C98.7794 210.7 98.5654 209.975 98.8865 209.404C99.2076 208.833 99.933 208.619 100.504 208.94C102.062 209.808 138.774 230.525 144.149 259.043C144.268 259.685 143.852 260.316 143.198 260.435C143.127 260.447 143.055 260.447 142.984 260.447Z" fill="#365650"/>
<path d="M143.424 255.154C143.115 255.154 142.806 255.035 142.568 254.786C142.116 254.31 142.128 253.561 142.603 253.109C143.186 252.55 157.136 239.278 170.682 240.11C171.336 240.146 171.835 240.717 171.8 241.371C171.764 242.025 171.193 242.536 170.539 242.489C158.064 241.751 144.387 254.702 144.257 254.833C144.019 255.047 143.721 255.154 143.424 255.154Z" fill="#365650"/>
<path d="M197.69 167.804C197.214 167.804 196.762 167.506 196.584 167.043C191.934 154.865 176.2 150.678 176.045 150.643C175.415 150.476 175.022 149.834 175.189 149.192C175.355 148.55 175.998 148.169 176.64 148.336C177.33 148.514 193.729 152.879 198.808 166.198C199.045 166.817 198.736 167.494 198.118 167.732C197.975 167.768 197.82 167.804 197.69 167.804Z" fill="#365650"/>
<path d="M354.647 87.9453C354.612 87.9453 354.576 87.9453 354.528 87.9453C352.792 87.7788 351.531 87.1009 350.782 85.9473C349.545 84.0208 350.318 81.6185 350.414 81.3449C350.628 80.7265 351.306 80.3935 351.924 80.6076C352.542 80.8217 352.875 81.4995 352.661 82.118C352.519 82.558 352.257 83.8543 352.792 84.663C353.125 85.1743 353.791 85.4835 354.766 85.5787C355.42 85.6381 355.896 86.2209 355.837 86.875C355.777 87.4815 355.254 87.9453 354.647 87.9453Z" fill="#365650"/>
<path d="M354.933 93.9867C354.279 93.9867 353.756 93.4634 353.744 92.8093C353.732 92.1552 354.255 91.6201 354.921 91.6082C354.969 91.6082 359.393 91.4893 360.737 88.1356C360.986 87.5291 361.676 87.2317 362.283 87.4696C362.889 87.7193 363.186 88.4091 362.949 89.0156C361.01 93.8559 355.207 93.9867 354.957 93.9867C354.945 93.9867 354.933 93.9867 354.933 93.9867Z" fill="#365650"/>
<path d="M357.989 80.0487C357.466 80.0487 356.99 79.7038 356.847 79.1805L356.265 77.1469C356.086 76.5166 356.455 75.8625 357.085 75.6722C357.716 75.4938 358.37 75.8625 358.56 76.4928L359.143 78.5264C359.321 79.1567 358.952 79.8108 358.322 80.0011C358.203 80.0368 358.096 80.0487 357.989 80.0487Z" fill="#365650"/>
<path d="M346.513 83.9851C345.99 83.9851 345.514 83.6402 345.371 83.1169L344.789 81.0833C344.61 80.453 344.979 79.7989 345.609 79.6086C346.239 79.4302 346.894 79.7989 347.084 80.4292L347.667 82.4628C347.845 83.0931 347.476 83.7472 346.846 83.9375C346.727 83.9732 346.62 83.9851 346.513 83.9851Z" fill="#365650"/>
<path d="M370.607 120.174C368.383 120.174 367.051 119.901 366.908 119.865C366.516 119.782 366.195 119.496 366.052 119.128C365.909 118.747 365.969 118.331 366.207 117.998C370 112.836 362.318 105.962 362.246 105.891C361.759 105.463 361.711 104.702 362.139 104.214C362.568 103.727 363.329 103.667 363.816 104.107C364.173 104.416 371.82 111.255 369.085 117.736C372.153 117.938 379.122 117.689 387.399 112.86C387.97 112.527 388.695 112.717 389.028 113.288C389.361 113.859 389.171 114.585 388.6 114.918C380.989 119.33 374.46 120.174 370.607 120.174Z" fill="#365650"/>
<path d="M359.809 106.177C358.964 106.177 358.096 106.129 357.204 106.01C336.88 103.489 340.043 72.045 340.186 70.713C340.245 68.3821 340.828 65.9322 341.922 63.5062C342.196 62.9115 342.897 62.638 343.492 62.9115C344.087 63.1851 344.36 63.8867 344.087 64.4813C343.123 66.6101 342.612 68.7627 342.553 70.8676C342.517 71.272 339.484 101.408 357.49 103.643C369.941 105.201 376.232 93.9273 376.494 93.4397C376.803 92.8688 377.529 92.6429 378.111 92.964C378.694 93.2732 378.908 93.9986 378.587 94.5695C378.528 94.7122 372.189 106.177 359.809 106.177Z" fill="#365650"/>
<path d="M368.181 76.8733C360.058 76.8733 354.54 72.3066 351.02 67.6091C350.628 67.0858 350.735 66.3366 351.258 65.9441C351.781 65.5516 352.531 65.6587 352.923 66.182C357.525 72.3185 365.981 78.2053 380.074 71.3909C380.668 71.1055 381.37 71.3552 381.655 71.9498C381.941 72.5445 381.691 73.2461 381.096 73.5315C376.22 75.91 371.927 76.8733 368.181 76.8733Z" fill="#365650"/>
<path d="M385.865 102.074C385.378 102.074 384.914 101.764 384.748 101.277C382.773 95.6279 382.286 87.1842 382.262 86.8274C382.226 86.1733 382.726 85.6143 383.38 85.5787C383.439 85.5787 385.295 85.4003 387.53 83.3666C389.267 81.7849 391.17 75.8387 391.062 73.8645C391.027 73.2104 391.526 72.6515 392.192 72.6158C392.834 72.5682 393.405 73.0796 393.441 73.7456C393.584 76.3025 391.455 83.0218 389.136 85.1386C387.4 86.7203 385.77 87.4101 384.712 87.7193C384.902 90.1216 385.509 96.2701 386.995 100.504C387.209 101.122 386.888 101.8 386.27 102.014C386.127 102.05 385.996 102.074 385.865 102.074Z" fill="#365650"/>
<path d="M341.97 87.4815C341.851 87.4815 341.72 87.4577 341.601 87.4221C341.494 87.3864 331.171 83.89 330.565 71.272C330.351 66.9193 331.207 62.971 333.11 59.546C333.431 58.9751 334.157 58.761 334.727 59.0821C335.298 59.4032 335.512 60.1287 335.191 60.6995C333.514 63.7321 332.753 67.2523 332.943 71.1531C333.479 82.0823 341.982 85.0317 342.339 85.1506C342.957 85.3528 343.302 86.0306 343.1 86.649C342.933 87.1604 342.469 87.4815 341.97 87.4815Z" fill="#365650"/>
<path d="M469.267 204.611C469.196 204.611 469.125 204.611 469.053 204.587C468.411 204.468 467.983 203.85 468.09 203.208C472.823 176.973 463.999 146.552 453.272 131.234C448.408 124.277 441.439 119.413 434.077 114.252C424.159 107.306 413.896 100.123 408.199 87.2318C404.084 77.908 402.467 72.9369 402.396 72.7348C402.194 72.1045 402.538 71.4385 403.157 71.2363C403.787 71.0341 404.453 71.379 404.655 71.9974C404.667 72.045 406.308 77.0755 410.364 86.2685C415.787 98.5535 425.776 105.546 435.433 112.301C442.985 117.582 450.109 122.576 455.21 129.867C466.199 145.565 475.261 176.759 470.421 203.624C470.326 204.207 469.826 204.611 469.267 204.611Z" fill="#365650"/>
<path d="M397.698 73.7456C393.001 73.7456 388.279 73.4364 383.653 73.1391C376.149 72.6515 368.978 71.7596 362.27 70.499C353.553 68.8459 345.966 66.6339 339.068 63.7202C334.109 61.6271 329.97 59.3913 326.426 56.882C322.335 53.9921 322.252 53.2905 322.216 53.0288C322.181 52.6958 322.288 52.3391 322.514 52.0893C322.823 51.7325 330.244 43.4791 345.3 40.839L347.583 37.8896C353.922 28.8394 360.403 22.3461 380.585 28.1972C398.115 33.2872 397.508 48.6048 397.092 52.2558C397.175 52.3153 397.27 52.3866 397.353 52.4461C402.788 56.3825 410.221 62.5785 412.076 70.7844C412.207 71.379 411.874 71.9855 411.291 72.1758C409.21 72.8656 406.951 73.3056 404.394 73.4959C402.182 73.6743 399.946 73.7456 397.698 73.7456ZM325.106 52.8504C326.046 53.6235 327.52 54.7414 327.794 54.9435C331.207 57.3577 335.191 59.5103 339.984 61.532C346.727 64.3743 354.16 66.5387 362.71 68.168C369.311 69.4167 376.387 70.2968 383.748 70.7725C390.551 71.2125 397.52 71.6644 404.204 71.1412C406.13 70.9866 407.866 70.7011 409.472 70.2492C407.902 65.0403 403.466 59.8314 395.95 54.3727C395.843 54.2894 395.724 54.2062 395.617 54.1348C380.3 58.8086 353.684 46.369 352.554 45.8338C351.96 45.5484 351.71 44.8468 351.983 44.2521C352.257 43.6575 352.97 43.4078 353.565 43.6813C353.839 43.8121 380.288 56.1685 394.749 51.9109C395.153 48.6524 395.819 35.1068 379.919 30.4925C361.224 25.0576 355.515 30.7184 349.498 39.3048L346.893 42.6704C346.715 42.9083 346.441 43.0629 346.144 43.1104C334.418 45.0608 327.39 50.7217 325.106 52.8504Z" fill="#365650"/>
<path d="M402.55 67.2285C402.11 67.2285 401.694 66.9906 401.48 66.5744C399.125 61.8649 389.897 54.8959 389.802 54.8246C389.278 54.4321 389.171 53.6829 389.564 53.1596C389.956 52.6363 390.705 52.5293 391.229 52.9218C391.621 53.2191 401.004 60.2951 403.609 65.5041C403.906 66.0868 403.668 66.8003 403.074 67.0977C402.907 67.1809 402.729 67.2285 402.55 67.2285Z" fill="#365650"/>
<path d="M393.263 67.7043C392.62 67.7043 392.097 67.1929 392.073 66.5507C391.919 65.2306 386.96 59.5817 382.452 55.1101C381.989 54.6463 381.989 53.897 382.44 53.4332C382.904 52.9694 383.653 52.9694 384.117 53.4213C387.197 56.4777 394.369 63.8511 394.44 66.4793C394.464 67.1334 393.941 67.6805 393.286 67.7043C393.286 67.7043 393.275 67.7043 393.263 67.7043Z" fill="#365650"/>
<path d="M385.568 60.3547C383.725 60.3547 381.727 60.2715 379.61 60.0931C378.956 60.0336 378.468 59.4628 378.528 58.8087C378.587 58.1546 379.17 57.667 379.812 57.7265C392.609 58.8444 400.612 55.8474 400.684 55.8118C401.29 55.5739 401.98 55.8831 402.218 56.5015C402.456 57.108 402.146 57.7978 401.54 58.0357C401.266 58.1427 395.403 60.3547 385.568 60.3547Z" fill="#365650"/>
<path d="M449.847 172.608C449.324 172.608 448.848 172.263 448.705 171.728C443.758 153.295 430.902 142.389 419.557 132.768C415.038 128.939 410.768 125.324 407.308 121.494C394.975 107.877 396.735 89.2416 396.818 88.4567C396.89 87.8026 397.484 87.3269 398.126 87.3983C398.781 87.4696 399.256 88.0523 399.185 88.7064C399.161 88.8848 397.472 107.092 409.068 119.901C412.433 123.611 416.643 127.179 421.091 130.961C432.698 140.808 445.863 151.963 451.001 171.122C451.167 171.752 450.798 172.406 450.156 172.573C450.049 172.596 449.954 172.608 449.847 172.608Z" fill="#365650"/>
<path d="M370.643 80.453C371.487 82.3558 369.763 84.0089 367.194 85.1506C364.637 86.2923 362.211 86.4826 361.366 84.5797C360.522 82.6769 361.914 80.2152 364.47 79.0735C367.027 77.9318 369.798 78.5502 370.643 80.453Z" fill="#E78E64"/>
<path d="M25.6165 241.549C25.6165 241.549 23.8445 236.21 15.3414 236.317C6.83821 236.424 2.5569 245.545 2.20013 249.149C1.84335 252.752 1.6055 258.032 1.6055 258.032C1.6055 258.032 8.24153 254.691 16.1501 254.036C24.0705 253.37 26.7701 246.009 25.6165 241.549Z" fill="#84C19D"/>
<path d="M1.60549 259.222C1.37953 259.222 1.15358 259.162 0.963294 259.031C0.606518 258.805 0.404345 258.401 0.416238 257.985C0.416238 257.937 0.665981 252.645 1.02276 249.042C1.41521 244.998 6.10087 235.246 15.3295 235.127C24.6057 234.961 26.6631 240.931 26.7463 241.181C26.7582 241.204 26.7582 241.228 26.7701 241.264C27.5193 244.189 26.7701 247.805 24.8673 250.493C23.4878 252.431 20.8714 254.833 16.2452 255.226C8.64587 255.868 2.20012 259.067 2.12876 259.103C1.97416 259.186 1.78388 259.222 1.60549 259.222ZM15.5911 237.506C15.5198 237.506 15.4365 237.506 15.3652 237.506C7.75393 237.601 3.72236 245.961 3.38937 249.268C3.17531 251.456 2.99692 254.298 2.88989 256.153C5.44678 255.095 10.406 253.323 16.0549 252.847C19.7654 252.538 21.8466 250.647 22.9288 249.113C24.4392 246.984 25.0457 244.166 24.4748 241.906C24.3083 241.454 22.572 237.506 15.5911 237.506Z" fill="#84C19D"/>
<path d="M42.9797 150.988C42.9797 150.988 45.7149 165.485 47.4156 171.098C49.1162 176.711 54.789 201.471 30.2428 192.338C30.2428 192.338 28.887 190.804 27.7691 191.28C26.6512 191.755 17.1966 192.968 15.5674 185.785C13.9381 178.602 20.6217 158.956 42.9797 150.988Z" fill="#84C19D"/>
<path d="M39.5308 195.513C36.7836 195.513 33.5489 194.824 29.8384 193.444C29.66 193.373 29.4935 193.266 29.3627 193.111C28.9821 192.695 28.3994 192.374 28.2329 192.362C27.3529 192.73 22.5245 193.515 18.6951 191.553C16.4236 190.388 14.9965 188.532 14.4257 186.035C12.511 177.591 20.5028 157.731 42.5991 149.846C42.9321 149.727 43.2889 149.763 43.5862 149.941C43.8835 150.12 44.0976 150.405 44.157 150.75C44.1808 150.893 46.8923 165.247 48.5691 170.741C49.3778 173.417 53.124 187.058 46.8685 192.945C45.0371 194.669 42.5872 195.513 39.5308 195.513ZM30.9087 191.315C37.6994 193.801 42.5158 193.765 45.2273 191.22C49.5681 187.141 47.9269 176.866 46.2858 171.443C44.8706 166.793 42.8132 156.363 42.0758 152.581C20.8952 160.787 15.3295 179.339 16.7209 185.512C17.1253 187.284 18.0767 188.544 19.6465 189.389C22.5958 190.97 26.6988 190.411 27.3053 190.174C28.8513 189.519 30.3379 190.756 30.9087 191.315Z" fill="#84C19D"/>
<path d="M1.18915 206.11C1.18915 206.11 17.5057 203.886 22.5125 212.591C27.5311 221.308 15.5672 227.183 11.8449 225.102C11.8449 225.102 8.21764 224.662 5.33964 218.085C2.46165 211.509 3.82929 210.474 1.18915 206.11Z" fill="#84C19D"/>
<path d="M13.8072 226.719C12.9272 226.719 12.1304 226.565 11.4644 226.244C10.4536 226.03 7.00472 224.84 4.25754 218.561C2.81854 215.279 2.39041 213.281 2.04553 211.687C1.68875 210.01 1.42712 208.809 0.166507 206.728C-0.0356657 206.383 -0.0594508 205.967 0.107045 205.598C0.27354 205.23 0.618424 204.992 1.02277 204.932C1.72443 204.837 18.1837 202.696 23.5353 211.996C25.7474 215.838 25.2479 219.822 22.1796 222.926C19.8724 225.292 16.4831 226.719 13.8072 226.719ZM3.09207 207.132C3.82941 208.678 4.07915 209.868 4.36457 211.188C4.69756 212.758 5.07812 214.541 6.42198 217.61C8.9432 223.366 11.9758 223.925 12.0115 223.925C12.1423 223.948 12.3088 223.996 12.4277 224.067C13.8072 224.84 17.7912 223.996 20.4909 221.261C22.1201 219.62 23.6067 216.884 21.4779 213.186C17.8507 206.871 7.29014 206.871 3.09207 207.132Z" fill="#84C19D"/>
<path d="M55.6094 198.391C55.6094 198.391 57.1554 206.871 51.6254 216.575C46.0954 226.279 34.4645 234.295 34.4645 234.295C34.4645 234.295 33.7866 229.728 36.1532 222.902C38.5198 216.087 46.7495 199.545 55.6094 198.391Z" fill="#84C19D"/>
<path d="M34.4645 235.496C34.3099 235.496 34.1434 235.46 33.9888 235.401C33.6082 235.234 33.3466 234.89 33.2871 234.485C33.2633 234.283 32.5854 229.538 35.0353 222.533C37.176 216.373 45.5245 198.522 55.4548 197.226C56.0851 197.143 56.6678 197.571 56.7749 198.189C56.8462 198.558 58.3328 207.204 52.66 217.182C47.0587 227.017 35.6299 234.961 35.1423 235.294C34.9283 235.425 34.7023 235.496 34.4645 235.496ZM54.5629 199.83C46.9516 202.149 39.5902 216.646 37.2711 223.294C35.9629 227.052 35.6299 230.097 35.5705 232C39.0074 229.371 46.5354 223.092 50.5907 215.992C54.6223 208.904 54.7294 202.447 54.5629 199.83Z" fill="#84C19D"/>
<path d="M46.4404 249.149C46.4404 249.149 46.6307 256.677 51.1379 257.45C55.6452 258.235 74.1381 252.562 78.8713 232.095C83.6046 211.628 87.0534 209.903 87.0534 209.903C87.0534 209.903 55.0387 216.349 43.8002 234.295C43.7883 234.307 33.7867 247.151 46.4404 249.149Z" fill="#84C19D"/>
<path d="M52.1012 258.722C51.6612 258.722 51.2688 258.687 50.9358 258.639C46.5712 257.89 45.5603 252.431 45.3225 250.16C42.1947 249.482 40.173 248.031 39.3049 245.843C37.3783 240.955 42.278 234.319 42.8132 233.629C54.23 215.493 85.4836 209.011 86.8156 208.75C87.3983 208.631 87.981 208.964 88.1713 209.523C88.3616 210.082 88.1118 210.712 87.5767 210.974C87.541 211.021 84.3895 213.507 80.0249 232.368C75.4701 252.074 58.5946 258.722 52.1012 258.722ZM84.1873 211.806C75.9577 213.935 53.6116 220.856 44.7992 234.925C44.7754 234.961 44.7516 234.997 44.7279 235.02C43.4078 236.721 40.2682 241.811 41.5169 244.951C42.1353 246.509 43.8597 247.519 46.6307 247.959C47.2015 248.055 47.6177 248.53 47.6296 249.101C47.6296 249.161 47.9032 255.678 51.3401 256.272C54.7414 256.843 73.0202 252.122 77.7178 231.821C80.3341 220.5 82.5937 214.744 84.1873 211.806Z" fill="#84C19D"/>
<path d="M48.4025 290.654C48.4025 290.654 41.5287 287.336 44.2164 279.498C46.9041 271.661 58.1782 268.534 65.2067 268.617C72.2352 268.7 80.001 263.515 80.001 263.515C80.001 263.515 82.2011 276.502 71.4384 284.921C60.6756 293.341 53.8969 296.433 48.4025 290.654Z" fill="#84C19D"/>
<path d="M54.7295 294.84C52.1726 294.84 49.8417 293.841 47.6772 291.629C44.9538 290.214 40.7439 285.944 43.0748 279.118C46.0479 270.448 58.1783 267.356 65.2068 267.427C65.2544 267.427 65.302 267.427 65.3495 267.427C71.8785 267.427 79.24 262.575 79.3233 262.528C79.6562 262.302 80.0844 262.266 80.453 262.421C80.8217 262.575 81.0834 262.92 81.1547 263.313C81.2498 263.872 83.3429 277.096 72.1521 285.861C65.1473 291.367 59.5222 294.84 54.7295 294.84ZM64.9333 269.818C58.1426 269.818 47.7367 272.91 45.3344 279.903C43.0391 286.61 48.6762 289.476 48.914 289.595C49.0449 289.655 49.1638 289.738 49.2589 289.845C53.7305 294.531 59.1416 293.056 70.7012 284.006C78.4313 277.952 79.0854 269.271 78.9665 265.548C76.2431 267.095 70.6893 269.83 65.3614 269.83C65.2187 269.818 65.076 269.818 64.9333 269.818Z" fill="#84C19D"/>
<path d="M35.5826 297.516C35.5826 297.516 35.9513 290.107 30.0764 288.965C24.2014 287.823 18.1838 290.178 15.0799 294.031C15.0799 294.031 21.704 295.149 23.3214 298.11C24.9507 301.06 34.7501 304.116 35.5826 297.516Z" fill="#84C19D"/>
<path d="M30.7066 302.641C27.1983 302.641 23.3926 300.703 22.2866 298.681C21.3114 296.897 17.2323 295.613 14.8895 295.208C14.4732 295.137 14.1284 294.852 13.9737 294.459C13.831 294.067 13.8905 293.615 14.164 293.294C17.708 288.905 24.344 286.646 30.3141 287.811C35.7609 288.882 36.9263 294.673 36.7836 297.587C36.7836 297.623 36.7836 297.646 36.7717 297.682C36.4388 300.31 34.8452 302.023 32.2764 302.51C31.765 302.594 31.2417 302.641 30.7066 302.641ZM17.4107 293.329C19.6941 293.96 23.1191 295.232 24.3797 297.527C25.1408 298.907 29.0297 300.691 31.8482 300.156C33.3586 299.87 34.203 298.966 34.417 297.409C34.4408 296.79 34.4884 291.022 29.8622 290.13C25.4263 289.262 20.586 290.57 17.4107 293.329Z" fill="#84C19D"/>
<path d="M43.5862 324.702C43.5148 324.702 43.4434 324.69 43.3602 324.678C42.718 324.559 42.2899 323.941 42.4088 323.287C44.6684 311.287 42.5039 301.012 35.3446 266.964C34.3219 262.112 33.204 256.784 31.979 250.897C22.2034 203.898 33.6083 167.946 33.7272 167.59C33.9294 166.971 34.5954 166.626 35.2257 166.829C35.856 167.031 36.189 167.709 35.9868 168.327C35.8679 168.684 24.6651 204.064 34.31 250.409C35.5349 256.296 36.6528 261.624 37.6756 266.476C44.9181 300.869 47.0945 311.251 44.7516 323.727C44.6565 324.309 44.157 324.702 43.5862 324.702Z" fill="#365650"/>
<path d="M32.2407 247.163C31.6817 247.163 31.1822 246.77 31.0752 246.199C27.7691 229.276 7.99179 213.221 7.78962 213.067C7.27824 212.65 7.19499 211.901 7.61123 211.39C8.02747 210.878 8.7767 210.795 9.28808 211.211C10.1324 211.889 29.9454 227.956 33.418 245.747C33.5489 246.39 33.1207 247.02 32.4785 247.139C32.3953 247.163 32.312 247.163 32.2407 247.163Z" fill="#365650"/>
<path d="M32.098 246.449C32.0504 246.449 32.0028 246.449 31.9671 246.437C31.3131 246.366 30.8492 245.771 30.9206 245.117C33.1207 225.59 44.9657 212.698 45.4652 212.163C45.9171 211.687 46.6663 211.663 47.142 212.103C47.6177 212.555 47.6534 213.305 47.2015 213.78C47.0826 213.911 35.3922 226.66 33.2872 245.379C33.204 245.997 32.6926 246.449 32.098 246.449Z" fill="#365650"/>
<path d="M36.4624 267.618C36.3911 267.618 36.3197 267.618 36.2603 267.606C35.6181 267.487 35.178 266.88 35.297 266.226C38.8053 246.128 76.576 218.299 78.1814 217.122C78.7166 216.73 79.4539 216.848 79.8464 217.384C80.2389 217.919 80.1199 218.656 79.5848 219.049C79.2042 219.334 40.9816 247.472 37.6398 266.631C37.5328 267.213 37.0333 267.618 36.4624 267.618Z" fill="#365650"/>
<path d="M43.2533 302.035C43.1819 302.035 43.1106 302.023 43.0273 302.011C42.3851 301.892 41.957 301.274 42.0759 300.62C45.3464 283.292 65.5875 274.575 66.4556 274.218C67.0622 273.968 67.7638 274.254 68.0136 274.848C68.2633 275.455 67.9898 276.157 67.3833 276.406C67.1811 276.49 47.4514 284.993 44.4188 301.06C44.3117 301.642 43.8122 302.035 43.2533 302.035Z" fill="#365650"/>
<path d="M43.5862 305.781C43.277 305.781 42.9796 305.662 42.7418 305.436C42.6348 305.329 31.9672 294.757 24.7722 295.22C24.13 295.244 23.5472 294.757 23.5116 294.102C23.4759 293.448 23.9754 292.878 24.6295 292.842C32.9542 292.342 43.9548 303.283 44.4186 303.747C44.8825 304.211 44.8825 304.96 44.4186 305.424C44.1927 305.662 43.8954 305.781 43.5862 305.781Z" fill="#365650"/>
<path d="M8.53886 250.611C8.39615 250.611 8.25344 250.588 8.11073 250.528C7.49232 250.29 7.19501 249.601 7.42097 248.994C10.5368 240.812 20.5622 238.148 20.9903 238.029C21.6207 237.875 22.2747 238.243 22.4412 238.885C22.6077 239.516 22.2272 240.17 21.585 240.336C21.4898 240.36 12.3207 242.822 9.64487 249.838C9.46648 250.326 9.01456 250.611 8.53886 250.611Z" fill="#365650"/>
<path d="M458.053 324.678C457.506 324.678 457.006 324.298 456.887 323.739C449.776 290.237 436.67 263.455 436.539 263.182C436.242 262.587 436.492 261.886 437.075 261.588C437.669 261.303 438.371 261.541 438.668 262.123C438.799 262.397 452.035 289.429 459.218 323.227C459.349 323.869 458.945 324.5 458.303 324.642C458.219 324.666 458.136 324.678 458.053 324.678Z" fill="#365650"/>
</g>
<defs>
<clipPath id="clip0_53_667">
<rect width="498" height="324.702" fill="white"/>
</clipPath>
</defs>
</svg>
