<svg width="40" height="23" viewBox="0 0 40 23" fill="none" xmlns="http://www.w3.org/2000/svg">
<path d="M31.6667 6.57143C31.1556 6.57143 30.5111 6.57143 30 6.72476C32.1778 4.57809 35 3.28571 38.3333 3.28571C39.3333 3.28571 40 2.62857 40 1.64286C40 0.657143 39.3333 0 38.3333 0C30 0 23.3333 6.57143 23.3333 14.7857C23.3333 19.3857 27 23 31.6667 23C36.3333 23 40 19.3857 40 14.7857C40 10.1857 36.3333 6.57143 31.6667 6.57143ZM15 3.28571C16 3.28571 16.6667 2.62857 16.6667 1.64286C16.6667 0.657143 16 0 15 0C6.66667 0 0 6.57143 0 14.7857C0 19.3857 3.66667 23 8.33333 23C13 23 16.6667 19.3857 16.6667 14.7857C16.6667 10.1857 13 6.57143 8.33333 6.57143C7.82222 6.57143 7.17778 6.57143 6.66667 6.72476C8.84445 4.6 11.6667 3.28571 15 3.28571Z" fill="#599270"/>
</svg>
